<svg width="97" height="97" viewBox="0 0 97 97" fill="none" xmlns="http://www.w3.org/2000/svg">
<path d="M52.6876 49.2623V23.9344C52.6876 22.6167 51.6154 21.5442 50.2977 21.5442H42.5172V19.4198C42.5172 18.9019 42.0976 18.4823 41.5797 18.4823H41.5058V18.1272C41.5058 15.3687 39.2618 13.1247 36.5033 13.1247H25.3287C22.5702 13.1247 20.3262 15.3687 20.3262 18.1272V18.4823H20.2144C19.6965 18.4823 19.2769 18.9019 19.2769 19.4198V21.5442H11.5339C10.2162 21.5442 9.14404 22.6163 9.14404 23.9344V49.2623C9.14404 50.58 10.2162 51.6525 11.5339 51.6525H50.2977C51.6154 51.6525 52.6876 50.5804 52.6876 49.2623ZM26.5935 21.5445V19.4202C26.5935 18.9023 26.1739 18.4827 25.656 18.4827H25.6099L25.6069 18.1785L36.2119 18.1658V18.4823H36.1381C35.6202 18.4823 35.2006 18.9019 35.2006 19.4198V21.5442H26.5935V21.5445ZM37.0752 20.3577H40.6418V21.5445H37.0752V20.3577ZM22.2008 18.1275C22.2008 16.4029 23.604 15 25.3283 15H36.5026C38.2272 15 39.6301 16.4033 39.6301 18.1275V18.4827H38.0869V18.1662C38.0869 17.1394 37.2514 16.3039 36.2247 16.3039H25.6069C24.5802 16.3039 23.7447 17.1394 23.7447 18.1662V18.4827H22.2012V18.1275H22.2008ZM21.1519 20.3577H24.7185V21.5445H21.1519V20.3577ZM11.0187 49.2623V43.6665H24.6762C25.194 43.6665 25.6137 43.2469 25.6137 42.729C25.6137 42.2112 25.194 41.7915 24.6762 41.7915H11.0187V23.9344C11.0187 23.6505 11.2497 23.4192 11.5335 23.4192H20.2144H25.656H36.1377H41.5793H50.2973C50.5812 23.4192 50.8122 23.6502 50.8122 23.9344V41.7912H37.1551C36.6372 41.7912 36.2176 42.2108 36.2176 42.7287C36.2176 43.2465 36.6372 43.6662 37.1551 43.6662H50.8122V49.2623C50.8122 49.5462 50.5812 49.7775 50.2973 49.7775H11.5339C11.25 49.7775 11.0187 49.5465 11.0187 49.2623Z" fill="black"/>
<path d="M32.2989 38.988H29.5329C28.406 38.988 27.4888 39.9049 27.4888 41.0322V45.7347C27.4888 46.8615 28.4056 47.7784 29.5329 47.7784H32.2989C33.4258 47.7784 34.3426 46.8615 34.3426 45.7347V41.0322C34.3426 39.9049 33.4258 38.988 32.2989 38.988ZM32.4676 45.7343C32.4676 45.8273 32.3919 45.903 32.2989 45.903H29.5329C29.4395 45.903 29.3638 45.8273 29.3638 45.7343V41.0318C29.3638 40.9388 29.4395 40.8627 29.5329 40.8627H32.2989C32.3919 40.8627 32.4676 40.9384 32.4676 41.0318V45.7343Z" fill="black"/>
<path d="M85.7974 54.3229H78.0169V52.1985C78.0169 51.6807 77.5973 51.261 77.0794 51.261H77.0055V50.9059C77.0055 48.1474 74.7615 45.9034 72.003 45.9034H60.8288C58.0703 45.9034 55.8263 48.1474 55.8263 50.9059V51.261H55.7149C55.197 51.261 54.7774 51.6807 54.7774 52.1985V54.3229H47.0344C45.7167 54.3229 44.6445 55.395 44.6445 56.7132V82.041C44.6445 83.3588 45.7167 84.4313 47.0344 84.4313H85.7981C87.1159 84.4313 88.1884 83.3591 88.1884 82.041V56.7128C88.1876 55.395 87.1151 54.3229 85.7974 54.3229ZM62.0936 54.3229V52.1985C62.0936 51.6807 61.674 51.261 61.1561 51.261H61.11L61.107 50.9569L71.712 50.9442V51.2607H71.6381C71.1203 51.2607 70.7006 51.6803 70.7006 52.1982V54.3225H62.0936V54.3229ZM72.5753 53.136H76.1419V54.3229H72.5753V53.136ZM57.7009 50.9055C57.7009 49.1809 59.1041 47.778 60.8284 47.778H72.0026C73.7273 47.778 75.1301 49.1809 75.1301 50.9055V51.2607H73.5866V50.9442C73.5866 49.9174 72.7511 49.0819 71.7244 49.0819H61.1066C60.0799 49.0819 59.2444 49.9174 59.2444 50.9442V51.2607H57.7005V50.9055H57.7009ZM56.6517 53.136H60.2183V54.3229H56.6517V53.136ZM85.7974 82.5559H47.0337C46.7498 82.5559 46.5188 82.3249 46.5188 82.0406V76.4445H60.1763C60.6941 76.4445 61.1138 76.0249 61.1138 75.507C61.1138 74.9891 60.6941 74.5695 60.1763 74.5695H46.5188V56.7128C46.5188 56.4289 46.7498 56.1975 47.0337 56.1975H55.7142H61.1558H71.6378H77.0794H85.7974C86.0813 56.1975 86.3126 56.4285 86.3126 56.7128V74.5695H72.6551C72.1373 74.5695 71.7176 74.9891 71.7176 75.507C71.7176 76.0249 72.1373 76.4445 72.6551 76.4445H86.3126V82.0406C86.3126 82.3245 86.0813 82.5559 85.7974 82.5559Z" fill="black"/>
<path d="M67.7985 71.7661H65.0325C63.9056 71.7661 62.9888 72.6829 62.9888 73.8102V78.5127C62.9888 79.6396 63.9056 80.5564 65.0325 80.5564H67.7985C68.9254 80.5564 69.8423 79.6396 69.8423 78.5127V73.8102C69.8426 72.6833 68.9258 71.7661 67.7985 71.7661ZM67.9676 78.5123C67.9676 78.6053 67.8919 78.6811 67.7989 78.6811H65.0329C64.9399 78.6811 64.8641 78.6053 64.8641 78.5123V73.8098C64.8641 73.7164 64.9399 73.6407 65.0329 73.6407H67.7989C67.8919 73.6407 67.9676 73.7164 67.9676 73.8098V78.5123Z" fill="black"/>
<path d="M70.6484 38.5005C70.2824 38.1345 69.6884 38.1345 69.3228 38.5005L67.4759 40.347V37.4629C67.4759 33.7065 64.4201 30.6507 60.6633 30.6507H55.6226C55.1047 30.6507 54.6851 31.0703 54.6851 31.5882C54.6851 32.106 55.1047 32.5257 55.6226 32.5257H60.6633C63.3858 32.5257 65.6009 34.7404 65.6009 37.4629V40.347L63.7544 38.5005C63.3884 38.1345 62.7948 38.1345 62.4288 38.5005C62.0624 38.8665 62.0624 39.4602 62.4288 39.8262L65.8747 43.272C65.9186 43.3159 65.9669 43.3553 66.0187 43.3898C66.0408 43.4048 66.0652 43.4149 66.0884 43.4277C66.1188 43.4442 66.1477 43.4625 66.1799 43.4757C66.2103 43.4884 66.2422 43.4955 66.2737 43.5049C66.3007 43.5128 66.3269 43.5233 66.3551 43.5289C66.4154 43.5409 66.4769 43.5473 66.5384 43.5473C66.5999 43.5473 66.6614 43.5409 66.7218 43.5289C66.7499 43.5233 66.7762 43.5128 66.8032 43.5049C66.8347 43.4955 66.8662 43.4884 66.8966 43.476C66.9288 43.4625 66.9581 43.4445 66.9884 43.4277C67.0117 43.4149 67.0357 43.4048 67.0578 43.3898C67.1096 43.3553 67.1579 43.3159 67.2018 43.272L70.6481 39.8262C71.0144 39.4602 71.0145 38.8665 70.6484 38.5005Z" fill="#F9BC6E"/>
<path d="M41.7086 65.0303H36.6678C33.9453 65.0303 31.7306 62.8155 31.7306 60.0927V57.2085L33.5771 59.055C33.7601 59.238 34.0001 59.3295 34.2401 59.3295C34.4801 59.3295 34.7201 59.238 34.9031 59.055C35.2695 58.689 35.2695 58.0954 34.9031 57.7294L31.4572 54.2835C31.4133 54.2397 31.365 54.2003 31.3132 54.1658C31.2907 54.1508 31.2667 54.1407 31.2435 54.1279C31.2131 54.1114 31.1842 54.093 31.152 54.0799C31.1216 54.0672 31.0897 54.06 31.0582 54.051C31.0312 54.0432 31.005 54.0327 30.9772 54.027C30.8561 54.003 30.7312 54.003 30.6101 54.027C30.582 54.0327 30.5561 54.0432 30.5291 54.051C30.4976 54.0604 30.4657 54.0675 30.4353 54.0799C30.4031 54.093 30.3742 54.1114 30.3438 54.1279C30.3206 54.1407 30.2962 54.1508 30.2737 54.1658C30.222 54.2003 30.1736 54.2397 30.1297 54.2835L26.6835 57.7294C26.3171 58.0954 26.3171 58.689 26.6835 59.055C27.0495 59.4214 27.6435 59.4214 28.0091 59.055L29.856 57.2085V60.0927C29.856 63.849 32.9119 66.9053 36.6682 66.9053H41.709C42.2268 66.9053 42.6465 66.4856 42.6465 65.9678C42.6461 65.4499 42.2265 65.0303 41.7086 65.0303Z" fill="#F9BC6E"/>
</svg>
