<svg width="242" height="272" viewBox="0 0 242 272" fill="none" xmlns="http://www.w3.org/2000/svg">
<path d="M162.023 44.954C162.023 44.954 160.685 25.2212 175.742 21.2089C190.8 17.1966 196.486 28.566 196.486 28.566C196.486 28.566 200.837 24.8874 203.847 24.8874C206.856 24.8874 207.527 27.8986 207.527 27.8986C207.527 27.8986 219.238 23.55 221.246 24.22C223.255 24.89 208.531 32.5808 189.796 39.938C171.06 47.2951 151.986 53.9848 151.986 53.9848L162.023 44.954Z" fill="#F3E7D9"/>
<path d="M108.678 72.1242C108.678 72.1242 103.431 53.897 91.9406 50.1507C80.4504 46.4043 79.2002 51.8996 79.2002 51.8996C79.2002 51.8996 82.4487 27.9287 70.956 23.9339C59.4633 19.9392 45.2267 23.4346 34.7332 31.675C24.2397 39.9154 25.9894 47.9049 28.2388 53.3976C28.2388 53.3976 25.4898 54.3963 21.7443 56.893C17.9962 59.3898 20.2456 65.8812 22.7434 67.1308C22.7434 67.1308 16.7486 67.1308 14.4992 67.1308C12.2499 67.1308 19.9945 70.1269 27.4881 72.8745C33.8947 75.2232 45.051 78.1189 54.3973 80.0008C55.8734 80.2969 56.8726 78.5404 55.8659 77.4238L54.4676 75.8706C54.4676 75.8706 82.2579 80.864 100.682 83.3607C115.423 85.3581 108.678 72.1242 108.678 72.1242Z" fill="#F3E7D9"/>
<path d="M229.654 74.1166C229.654 74.1166 214.95 82.1688 203.269 85.5914C191.588 89.014 186.352 89.4155 186.352 89.4155L208.104 80.7586C208.104 80.7586 212.334 70.694 216.564 71.0954C220.794 71.4969 222.808 73.7126 222.808 73.7126C222.808 73.7126 226.837 69.6852 228.85 70.694C230.864 71.7027 229.654 74.1166 229.654 74.1166Z" fill="#F3E7D9"/>
<path d="M115.157 222.73C115.157 222.73 66.1861 226.431 59.6013 226.431C53.0165 226.431 23.7977 229.721 18.4481 229.721C13.0984 229.721 22.5626 233.834 22.5626 233.834L9.80469 242.061L15.5661 246.997C15.5661 246.997 48.4877 251.521 59.1871 251.521C64.9485 251.11 92.1087 243.293 92.1087 243.293L104.867 240.824L129.147 245.349L143.961 242.879L152.193 239.384C152.193 239.384 157.543 237.944 169.066 237.944C180.588 237.944 213.922 238.767 219.271 238.767L221.33 231.362L230.794 224.78L115.157 222.73Z" fill="#856792"/>
<path d="M82.7491 224.785C82.7491 224.785 69.4765 223.551 73.4907 226.637C77.5023 229.721 87.6896 228.797 87.6896 228.797C87.6896 228.797 79.0487 229.723 92.6276 232.19C106.209 234.659 169.481 229.412 169.481 229.412C169.481 229.412 170.099 224.785 147.259 224.785C124.419 224.785 82.7491 224.785 82.7491 224.785Z" fill="#665070"/>
<path d="M41.4934 237.949C41.4934 237.949 11.4512 242.884 17.2126 244.942C22.974 247 38.1997 245.353 38.1997 245.353L50.9576 248.232C50.9576 248.232 76.0618 240.004 68.6536 239.183C61.2453 238.363 41.4934 237.949 41.4934 237.949Z" fill="#665070"/>
<path d="M90.6736 235.996C90.6736 235.996 83.554 235.487 83.0444 236.759C82.5348 238.029 90.6736 238.538 92.1999 237.776C93.7262 237.013 90.6736 235.996 90.6736 235.996Z" fill="#665070"/>
<path d="M96.7959 234.672C96.7959 234.672 92.1164 234.338 91.7826 235.173C91.4487 236.009 96.7959 236.343 97.8 235.841C98.8042 235.339 96.7959 234.672 96.7959 234.672Z" fill="#665070"/>
<path d="M189.231 230.647C189.231 230.647 182.132 234.039 188.922 233.116C195.713 232.19 196.331 230.338 189.231 230.647Z" fill="#665070"/>
<path d="M200.651 232.087C200.651 232.087 195.096 230.235 196.022 232.396C196.949 234.554 203.122 233.63 200.651 232.087Z" fill="#665070"/>
<path d="M185.537 230.218C185.537 230.218 179.489 230.842 183.483 231.643C187.477 232.446 188.65 230.78 187.638 230.441C186.626 230.102 185.537 230.218 185.537 230.218Z" fill="#665070"/>
<path d="M216.804 240.827L170.301 239.798L158.058 239.592L147.256 244.528L152.194 249.464C152.194 249.464 154.458 250.698 165.775 251.727C177.092 252.756 207.134 254.811 209.19 254.605C211.249 254.399 218.243 243.705 218.243 243.705L216.804 240.827Z" fill="#665070"/>
<path d="M124.108 248.849C130.59 246.071 104.662 242.37 104.662 242.37C104.662 242.37 70.7112 248.54 79.6608 251.316C79.6608 251.316 117.626 251.624 124.108 248.849Z" fill="#665070"/>
<path d="M138.203 230.75C138.203 230.75 112.072 234.862 119.889 237.331C127.709 239.801 134.944 239.422 134.703 237.743C134.497 236.303 129.971 235.068 129.971 235.068C129.971 235.068 143.141 234.657 143.553 233.216C143.964 231.776 138.203 230.75 138.203 230.75Z" fill="#665070"/>
<path d="M133.985 246.688L144.17 245.763L152.504 251.009L121.639 253.167L126.885 249.775L133.985 246.688Z" fill="#856792"/>
<path d="M94.2727 198.047C94.2727 198.047 88.1774 190.938 83.6059 188.401C79.0344 185.862 77.6813 194.493 81.575 195.846C81.575 195.846 79.544 197.537 79.544 199.399C79.544 201.261 79.544 201.261 79.544 201.261C79.544 201.261 76.1575 200.076 74.8044 202.445C73.4487 204.814 75.1433 206.337 75.1433 206.337C75.1433 206.337 72.7734 207.521 72.7734 209.215C72.7734 210.909 73.4512 212.093 76.4989 211.923C76.4989 211.923 74.6362 213.785 76.6671 215.308C78.698 216.831 82.9306 217.847 85.9782 213.616C89.0234 209.386 94.2727 198.047 94.2727 198.047Z" fill="#288453"/>
<path d="M85.1142 176.637C82.7444 175.114 82.0665 176.806 81.5594 178.667C81.0523 180.529 85.1142 180.359 85.1142 180.359C85.1142 180.359 83.9293 180.697 82.5736 181.204C81.218 181.711 84.4364 186.79 87.3133 184.419C90.1953 182.052 85.1142 176.637 85.1142 176.637Z" fill="#288453"/>
<path d="M80.7985 226.017C80.7985 226.017 81.3232 221.623 78.9408 220.755C76.5584 219.887 76.8923 222.301 76.8923 222.301C76.8923 222.301 74.2915 215.014 69.4263 216.881C64.5611 218.748 67.2548 222.833 67.2548 222.833C67.2548 222.833 64.6641 215.145 61.7143 220.273C58.7621 225.4 61.9804 225.091 61.9804 225.091C61.9804 225.091 56.9194 219.739 55.2927 220.494C53.6684 221.25 55.2249 222.898 55.2249 222.898C55.2249 222.898 46.1447 217.834 42.8159 222.148C39.4871 226.461 44.3071 226.198 44.3071 226.198C44.3071 226.198 27.4672 226.125 31.0169 228.228C34.5667 230.331 41.8569 227.731 46.6543 228.265C51.4517 228.8 80.7985 226.017 80.7985 226.017Z" fill="#33A86D"/>
<path d="M100.991 111.507C96.7286 102.91 93.1839 112.757 93.1839 112.757C88.8309 109.861 86.7899 118.355 90.5631 120.016C90.5631 120.016 88.4016 121.539 88.2535 123.396C88.1054 125.253 88.1054 125.25 88.1054 125.25C88.1054 125.25 84.8242 123.798 83.2854 126.051C81.7465 128.304 83.3105 129.958 83.3105 129.958C83.3105 129.958 80.8528 130.949 80.7172 132.635C80.5816 134.321 81.1615 135.556 84.2142 135.631C84.2142 135.631 82.2084 137.337 84.1113 139.019C86.0142 140.7 90.1514 142.05 93.5279 138.078C95.4584 135.807 104.654 135.636 106.549 129.694C107.97 125.243 102.819 115.191 100.991 111.507Z" fill="#33A86D"/>
<path d="M56.9035 140.81C49.8542 147.322 60.3051 147.947 60.3051 147.947C58.7537 152.938 67.4824 152.501 68.0121 148.413C68.0121 148.413 70.0857 150.054 71.9083 149.676C73.7308 149.294 73.7308 149.294 73.7308 149.294C73.7308 149.294 73.2614 152.85 75.8596 153.69C78.4579 154.531 79.6027 152.564 79.6027 152.564C79.6027 152.564 81.247 154.641 82.9039 154.295C84.5607 153.949 85.5825 153.045 84.7942 150.097C84.7942 150.097 86.9984 151.54 88.0753 149.239C89.1523 146.94 89.2828 142.592 84.5156 140.474C81.7918 139.265 79.0353 130.492 72.7969 130.349C68.12 130.244 59.9235 138.02 56.9035 140.81Z" fill="#33A86D"/>
<path d="M108.778 143.081C108.778 143.081 106.518 130.108 103.202 130.254C99.8858 130.399 102.396 135.142 102.396 135.142C102.396 135.142 97.7695 131.057 95.5227 133.353C93.2759 135.649 96.08 136.698 96.08 136.698C96.08 136.698 90.4843 139.551 93.2884 140.6C96.0926 141.648 97.9327 139.322 97.9327 139.322C97.9327 139.322 97.7168 147.146 100.408 144.474C103.099 141.801 104.118 139.408 104.118 139.408C104.118 139.408 104.048 150.544 108.778 143.081Z" fill="#288453"/>
<path d="M120.741 119.238C120.741 119.238 127.595 116.398 122.213 113.492C116.83 110.586 118.854 115.105 118.854 115.105C118.854 115.105 121.939 112.714 116.926 108.371C111.91 104.027 113.336 111.811 113.336 111.811C113.336 111.811 111.197 108.202 108.729 108.632C106.264 109.061 103.314 111.841 107.373 113.467C107.373 113.467 98.6749 114.777 100.656 116.696C102.639 118.616 103.939 118.596 103.939 118.596C103.939 118.596 98.2506 121.027 99.8673 124.385C101.484 127.742 104.956 125.215 104.956 125.215C104.956 125.215 104.733 135.757 113.024 133.282C121.316 130.808 113.311 126.643 113.311 126.643C113.311 126.643 122.208 129.624 120.32 125.491C118.432 121.358 115.399 118.935 115.399 118.935C115.399 118.935 124.884 126.068 120.741 119.238Z" fill="#288453"/>
<path d="M103.513 131.519C103.513 131.519 101.381 127.22 106.304 127.617C111.227 128.013 108.812 132.357 108.812 132.357C108.812 132.357 111.571 128.864 112.505 132.653C113.439 136.442 111.634 138.359 111.634 138.359C111.634 138.359 116.133 133.767 116.08 139.541C116.03 145.314 112.159 142.115 112.159 142.115C112.159 142.115 111.287 147.821 108.416 147.593C105.544 147.365 107.105 143.36 107.105 143.36C107.105 143.36 95.2559 146.948 97.3597 141.34C99.4609 135.732 101.183 139.997 101.183 139.997C101.183 139.997 95.7028 136.256 97.5756 133.518C99.4433 130.778 103.513 131.519 103.513 131.519Z" fill="#33A86D"/>
<path d="M92.7922 178C92.7922 178 79.5146 158.787 80.8728 151.116C82.2309 143.447 80.569 131.832 74.3281 126.515L75.272 123.998C75.272 123.998 83.3556 129.461 83.692 139.119C84.0284 148.775 81.9196 151.939 83.215 154.265C84.5104 156.591 84.5104 156.591 84.5104 156.591L89.24 148.453L88.9789 133.247L90.6006 131.526L91.4793 148.263L87.2191 159.773L94.8583 170.756L92.7922 178Z" fill="#7A462F"/>
<path d="M52.0539 134.813C52.0539 134.813 48.5744 137.009 51.3459 138.469C54.1174 139.93 55.335 135.077 55.335 135.077C55.335 135.077 51.5593 140.963 55.1191 142.9C58.6789 144.838 60.7801 139.229 60.7801 139.229C60.7801 139.229 60.6972 145.412 64.011 145.267C67.3247 145.121 66.8678 140.544 66.8678 140.544C66.8678 140.544 67.6712 145.974 70.9046 141.694C74.138 137.413 69.79 135.001 69.79 135.001C69.79 135.001 78.2902 131.97 74.7305 130.033C71.1707 128.096 70.1841 130.081 70.1841 130.081C70.1841 130.081 70.4979 121.027 67.5934 121.208C64.6888 121.389 64.5231 123.439 64.5231 123.439C64.5231 123.439 58.7517 113.07 58.0437 116.729C57.3358 120.387 59.191 123.012 59.191 123.012C59.191 123.012 52.5133 118.761 51.8079 122.42C51.1024 126.078 54.9258 124.733 54.9258 124.733C54.9258 124.733 46.1795 125.682 46.7694 128.618C47.3594 131.554 50.4271 129.325 50.4271 129.325C50.4271 129.325 43.7143 135.802 47.4046 136.098C51.1024 136.389 52.0539 134.813 52.0539 134.813Z" fill="#288453"/>
<path d="M65.3702 122.751C65.3702 122.751 61.2556 122.631 62.7418 125.391C64.2255 128.151 67.9459 124.801 67.9459 124.801C67.9459 124.801 61.5242 127.577 63.397 131.17C65.2698 134.763 70.145 131.283 70.145 131.283C70.145 131.283 66.6204 136.366 69.4521 138.093C72.2839 139.822 74.4604 135.769 74.4604 135.769C74.4604 135.769 72.0931 140.72 77.1667 138.976C82.2402 137.23 79.9808 132.803 79.9808 132.803C79.9808 132.803 88.7271 135.032 86.8544 131.438C84.9816 127.845 83.0561 128.942 83.0561 128.942C83.0561 128.942 88.3757 121.607 85.8653 120.134C83.3548 118.661 82.0745 120.27 82.0745 120.27C82.0745 120.27 83.0762 108.446 80.4478 111.086C77.8194 113.725 77.8897 116.937 77.8897 116.937C77.8897 116.937 74.724 109.686 72.0956 112.325C69.4672 114.965 73.3885 115.984 73.3885 115.984C73.3885 115.984 65.6037 111.889 64.4514 114.654C63.3016 117.419 67.0924 117.281 67.0924 117.281C67.0924 117.281 57.9042 118.907 60.8012 121.213C63.6983 123.519 65.3702 122.751 65.3702 122.751Z" fill="#288453"/>
<path d="M74.8917 110.847C74.8917 110.847 70.7771 110.727 72.2633 113.487C73.7494 116.247 77.4674 112.897 77.4674 112.897C77.4674 112.897 71.0457 115.673 72.9185 119.266C74.7913 122.859 79.6665 119.379 79.6665 119.379C79.6665 119.379 76.1419 124.462 78.9736 126.189C81.8054 127.918 83.9819 123.865 83.9819 123.865C83.9819 123.865 81.6146 128.816 86.6881 127.072C91.7617 125.328 89.5023 120.899 89.5023 120.899C89.5023 120.899 98.2486 123.128 96.3758 119.534C94.503 115.941 92.5776 117.038 92.5776 117.038C92.5776 117.038 97.8971 109.703 95.3867 108.23C92.8763 106.757 91.596 108.366 91.596 108.366C91.596 108.366 92.5976 96.5419 89.9692 99.1817C87.3408 101.821 87.4111 105.033 87.4111 105.033C87.4111 105.033 84.2455 97.7815 81.6171 100.421C78.9887 103.061 82.9099 104.08 82.9099 104.08C82.9099 104.08 75.1252 99.9846 73.9729 102.75C72.8231 105.515 76.6138 105.377 76.6138 105.377C76.6138 105.377 67.4257 107.003 70.3227 109.309C73.2223 111.623 74.8917 110.847 74.8917 110.847Z" fill="#288453"/>
<path d="M92.9073 112.707C92.9073 112.707 88.7927 112.586 90.2789 115.346C91.7626 118.107 95.483 114.757 95.483 114.757C95.483 114.757 89.0614 117.532 90.9341 121.125C92.8069 124.719 97.6821 121.238 97.6821 121.238C97.6821 121.238 94.1575 126.322 96.9892 128.048C99.821 129.775 101.998 125.725 101.998 125.725C101.998 125.725 99.6302 130.675 104.704 128.932C109.777 127.188 107.518 122.759 107.518 122.759C107.518 122.759 116.264 124.987 114.391 121.394C112.519 117.8 110.593 118.897 110.593 118.897C110.593 118.897 115.913 111.562 113.402 110.09C110.892 108.617 109.612 110.225 109.612 110.225C109.612 110.225 110.613 98.4014 107.985 101.041C105.356 103.681 105.427 106.893 105.427 106.893C105.427 106.893 102.261 99.6409 99.6327 102.281C97.0043 104.92 100.926 105.939 100.926 105.939C100.926 105.939 93.1408 101.844 91.9885 104.609C90.8387 107.374 94.6295 107.236 94.6295 107.236C94.6295 107.236 85.4413 108.862 88.3384 111.168C91.2354 113.475 92.9073 112.707 92.9073 112.707Z" fill="#288453"/>
<path d="M159.602 70.3277L178.533 80.8164C179.246 81.2555 179.75 81.9631 179.938 82.7786C179.938 82.7786 185.117 91.5109 186.764 94.803C189.443 100.16 195.48 142.534 195.48 142.534C195.629 143.184 195.983 143.771 196.49 144.205L205.949 152.34C206.556 152.862 206.94 153.597 207.021 154.393L209.549 179.132L213.867 221.375C214.047 223.154 212.702 224.725 210.914 224.818L181.809 226.326C180.355 226.401 179.042 225.465 178.638 224.068L158.635 154.596C158.557 154.328 158.517 154.052 158.512 153.771L157.485 74.0414C157.455 71.5748 157.503 69.0304 159.602 70.3277Z" fill="#CE9436"/>
<path d="M79.3301 226.067L95.1306 131.709L103.385 122.48L121.821 74.3802C122.195 73.4066 123.074 72.7165 124.111 72.5911C131.052 71.7454 157.145 68.644 158.574 69.7129C160.221 70.9475 163.105 99.2319 163.306 100.976L166.452 145.227L177.635 156.925L179.456 226.589L79.3301 226.067Z" fill="#F7BC4B"/>
<path d="M123.855 72.6262L140.534 70.7393L125.032 92.7455L130.588 94.2886L122.617 95.3225L116.118 121.195L139.025 122.977L103.385 122.478L121.821 74.202C122.15 73.3388 122.936 72.7316 123.855 72.6262Z" fill="#CE9436"/>
<path d="M103.384 122.48L95.1302 131.707L88.1337 174.191L86.4868 177.619L85.7413 181.802L86.5421 183.021L85.4023 189.816L111.46 190.8L125.032 190.85L101.577 161.439L113.097 161.027V132.645L120.403 122.671L103.384 122.48Z" fill="#CE9436"/>
<path d="M85.4931 189.342L79.3301 226.067L134.602 226.328L131.514 211.827L111.258 188.973L85.4931 189.342Z" fill="#CE9436"/>
<path d="M125.752 127.817C125.331 127.878 125.009 128.219 124.977 128.643C124.663 132.665 123.149 152.132 123.149 152.832C123.149 153.613 118.989 156.99 118.989 156.99L117.428 179.345H118.208L120.029 157.251L123.93 153.871L125.752 127.817Z" fill="#CE9436"/>
<path d="M124.896 154.242C124.896 154.242 143.694 154.134 144.217 154.134C144.739 154.134 144.475 181.167 144.475 181.167H143.694L143.956 154.912L124.896 154.242Z" fill="#CE9436"/>
<path d="M139.778 179.606L126.473 179.059L126.061 179.47L117.428 179.965L117.762 179.029L125.855 178.991L126.405 178.64L139.778 179.127V179.606Z" fill="#CE9436"/>
<path d="M113.647 190.644L111.453 190.506C111.453 190.506 103.709 190.965 96.9053 190.85C96.584 190.845 96.1346 189.906 95.8158 189.901C90.7372 189.816 86.1658 189.761 85.4051 189.816L85.2871 190.574C85.2871 190.574 90.0243 190.569 95.6652 190.597C96.0543 190.599 96.5765 191.532 96.9731 191.535C102.323 191.563 108.227 191.149 111.591 191.261L113.785 191.467L113.647 190.644Z" fill="#F7BC4B"/>
<path d="M161.66 190.097C161.66 190.097 162.21 216.56 162.21 221.495C162.21 226.431 162.21 226.431 162.21 226.431L162.76 226.293L162.348 191.741L161.66 190.097Z" fill="#CE9436"/>
<path d="M169.099 190.097L143.997 190.506L143.859 191.467L169.099 190.097Z" fill="#CE9436"/>
<path d="M113.509 179.4C113.509 179.4 113.253 206.287 113.253 209.506C113.253 212.726 113.029 218.321 113.029 218.321L113.562 218.301C113.562 218.301 114.264 185.683 114.126 179.935L120.161 179.629L113.509 179.4Z" fill="#F7BC4B"/>
<path d="M158.88 149.716L158.983 169.873L173.388 169.77L173.182 180.876L172.77 170.593L158.162 170.387L158.574 150.744L158.88 149.716Z" fill="#CE9436"/>
<path d="M123.453 94.6073L122.617 95.3225L148.655 94.2585L149.931 93.5685" fill="#CE9436"/>
<path d="M148.9 81.2279L149.518 99.3272L157.132 99.4301L150.1 96.8255L148.9 81.2279Z" fill="#CE9436"/>
<path d="M115.361 162.879C115.361 162.879 100.821 160.069 92.7949 161.921L115.361 162.879Z" fill="#F7BC4B"/>
<path d="M135.046 163.451C135.046 161.567 133.442 160.257 131.612 160.503C129.93 160.729 128.662 162.212 128.662 163.83C128.662 165.09 129.433 166.174 130.57 166.605V170.668C130.57 171.205 131.019 171.699 131.587 171.775L131.788 171.802C132.378 171.882 132.867 171.488 132.867 170.921V166.58C134.115 166.096 135.046 164.887 135.046 163.451Z" fill="#1689CB"/>
<path d="M135.972 163.451C135.972 161.567 134.368 160.257 132.538 160.503C130.856 160.729 129.588 162.212 129.588 163.83C129.588 165.09 130.359 166.174 131.496 166.605V170.929C131.496 171.466 131.98 171.88 132.513 171.802L132.713 171.8C133.303 171.88 133.793 171.486 133.793 170.919V166.578C135.041 166.096 135.972 164.887 135.972 163.451Z" fill="#121721"/>
<path d="M143.278 146.233L142.728 134.291C142.7 134.284 129.041 131.288 129.041 131.288L143.757 131.822L143.278 146.233Z" fill="#CE9436"/>
<path d="M107.475 134.153L119.41 133.742L120.439 134.256L108.16 134.705L106.928 149.51L107.475 134.153Z" fill="#F7BC4B"/>
<path d="M140.055 121.539V108.684L140.672 100.562L140.808 121.404L140.055 121.539Z" fill="#CE9436"/>
<path d="M145.404 121.128L160.218 120.819L160.459 122.018L146.878 121.712L145.404 121.128Z" fill="#CE9436"/>
<path d="M144.237 154.172L146.022 170.701L148.216 172.204L149.107 172.066L154.662 173.476L143.689 173.752L144.237 154.172Z" fill="#CE9436"/>
<path d="M181.513 126.063L179.354 116.192L175.601 115.256L169.479 113.725L178.634 117.221L181.513 126.063Z" fill="#F7BC4B"/>
<path d="M158.778 149.098L147.564 149.201L146.641 148.381L158.984 148.587L158.778 149.098Z" fill="#CE9436"/>
<path d="M142.317 182.316L142.174 191.741L142.681 193.043L142.661 194.275L142.405 208.555L143.14 208.435L143.964 182.316H142.317Z" fill="#CE9436"/>
<path d="M117.279 120.259L118.273 123.273L119.436 120.407L117.279 120.259Z" fill="#F7BC4B"/>
<path d="M164.232 125.14L168.347 127.504L164.436 130.384L164.232 125.14Z" fill="#F7BC4B"/>
<path d="M166.391 134.394L163.346 136.424C163.057 136.617 163.092 137.049 163.406 137.194L166.7 138.715L166.391 134.394Z" fill="#CE9436"/>
<path d="M135.493 223.277L129.629 222.043L135.699 219.987L135.493 223.277Z" fill="#F7BC4B"/>
<path d="M177.092 184.062C177.709 184.062 181.001 186.12 181.001 186.12L177.298 187.766L177.092 184.062Z" fill="#F7BC4B"/>
<path d="M118.655 165.622V169.188L114.949 167.815L118.655 165.622Z" fill="#CE9436"/>
<path d="M141.904 167.403L145.404 168.776L141.904 170.696V167.403Z" fill="#F7BC4B"/>
<path d="M123.491 200.104L122.256 205.351L126.268 203.19L123.491 200.104Z" fill="#F7BC4B"/>
<path d="M113.305 205.351L108.984 208.435L112.996 210.595L113.305 205.351Z" fill="#F7BC4B"/>
<path d="M149.586 121.404L151.268 124.523L152.88 121.539L149.586 121.404Z" fill="#CE9436"/>
<path d="M171.022 86.9866L176.268 90.896L177.709 103.44L176.886 90.4845L170.713 85.4459L171.022 86.9866Z" fill="#F7BC4B"/>
<path d="M175.241 102.516L176.577 115.575L175.603 115.256L174.727 101.796L175.241 102.516Z" fill="#F7BC4B"/>
<path d="M174.727 101.796L184.088 105.6L174.829 102.825L174.727 101.796Z" fill="#F7BC4B"/>
<path d="M197.295 171.609L205.916 171.87L196.213 172.808C196.123 172.161 196.64 171.589 197.295 171.609Z" fill="#F7BC4B"/>
<path d="M179.973 119.484L182.029 120.51L180.487 121.951L179.973 119.484Z" fill="#F7BC4B"/>
<path d="M194.513 143.44L184.273 142.271L193.964 142.175L194.513 143.44Z" fill="#F7BC4B"/>
<path d="M185.508 142.338L187.271 149.743L183.967 142.253L185.508 142.338Z" fill="#F7BC4B"/>
<path d="M185.157 144.996L183.105 146.74L185.977 146.998L185.157 144.996Z" fill="#F7BC4B"/>
<path d="M196.295 171.586L195.266 180.429L197.53 187.834L198.148 196.985L198.559 187.628L196.295 180.841V171.586Z" fill="#F7BC4B"/>
<path d="M160.217 72.1796L158.367 76.0865L162.688 77.7326L160.217 72.1796Z" fill="#CE9436"/>
<path d="M177.54 209.383C179.187 208.723 178.569 205.178 176.099 206.415C173.631 207.654 175.893 210.043 177.54 209.383Z" fill="#3E4C6F"/>
<path d="M183.302 210.319C183.302 210.319 182.649 208.435 180.49 208.435C178.331 208.435 177.026 210.801 180.422 212.65C183.819 214.5 183.302 210.319 183.302 210.319Z" fill="#3E4C6F"/>
<path d="M173.304 206.535C175.77 205.411 173.734 203.991 172.285 203.75C170.839 203.507 170.839 207.659 173.304 206.535Z" fill="#3E4C6F"/>
<path d="M183.266 205.863C183.266 205.863 183.266 202.779 181.413 202.779C179.563 202.779 177.093 204.939 183.266 205.863Z" fill="#3E4C6F"/>
<path d="M178.43 197.226C178.43 197.226 175.651 200.618 179.048 199.695C182.444 198.772 181.515 197.535 178.43 197.226Z" fill="#3E4C6F"/>
<path d="M177.197 190.13C177.197 190.13 173.494 195.683 174.418 191.982C175.346 188.28 177.197 190.13 177.197 190.13Z" fill="#3E4C6F"/>
<path d="M175.149 196.094C173.407 196.403 172.659 200.413 175.646 199.795C178.634 199.178 176.892 195.786 175.149 196.094Z" fill="#3E4C6F"/>
<path d="M177.2 199.969C175.55 200.27 174.845 204.182 177.672 203.579C180.498 202.977 178.849 199.667 177.2 199.969Z" fill="#3E4C6F"/>
<path d="M176.845 215.423C176.845 215.423 173.906 211.474 176.137 211.393C178.369 211.313 177.719 212.921 177.719 212.921C177.719 212.921 180.056 212.931 178.929 214.673C177.799 216.417 176.845 215.423 176.845 215.423Z" fill="#856792"/>
<path d="M88.9571 197.813C88.9571 197.813 86.0399 195.404 89.5922 193.377C93.1444 191.349 93.9051 196.039 93.1444 196.927C92.3813 197.813 90.0968 198.576 88.9571 197.813Z" fill="#856792"/>
<path d="M89.5901 198.701C89.5901 198.701 91.1114 196.799 92.2536 197.813C93.3959 198.827 93.5214 200.475 92.2536 201.489C92.2536 201.489 92.8888 199.969 95.0427 200.475C97.1991 200.982 94.9147 205.04 94.9147 205.04C94.9147 205.04 96.436 204.026 96.6895 205.547C96.9431 207.067 96.6895 208.844 94.6611 208.462C92.6327 208.081 93.0118 206.688 93.0118 206.688C93.0118 206.688 91.8695 207.449 90.4762 206.054C89.083 204.658 90.3482 202.503 90.3482 202.503C90.3482 202.503 87.6872 200.35 89.5901 198.701Z" fill="#856792"/>
<path d="M84.7707 207.702C84.7707 207.702 85.6594 206.054 83.7565 205.547C81.8536 205.04 80.9675 206.307 82.2352 207.449C83.503 208.59 84.7707 207.702 84.7707 207.702Z" fill="#856792"/>
<path d="M87.689 203.138C87.4354 202.378 86.9283 200.35 88.9567 200.475C90.9851 200.603 90.8596 203.263 89.7174 203.645C88.5776 204.026 87.9425 203.898 87.689 203.138Z" fill="#856792"/>
<path d="M91.3406 192.027C91.1322 191.4 90.7129 189.723 92.3874 189.826C94.0644 189.932 93.9589 192.13 93.015 192.443C92.0736 192.76 91.5489 192.654 91.3406 192.027Z" fill="#856792"/>
<path d="M94.6355 197.605C94.4271 196.978 94.0079 195.301 95.6823 195.404C97.3593 195.51 97.2538 197.708 96.3099 198.021C95.366 198.335 94.8464 198.232 94.6355 197.605Z" fill="#856792"/>
<path d="M91.9734 212.056C91.765 211.428 91.3458 209.752 93.0202 209.855C94.6972 209.961 94.5917 212.159 93.6478 212.472C92.7064 212.788 92.1842 212.686 91.9734 212.056Z" fill="#856792"/>
<path d="M89.1843 193.673C88.9759 193.046 88.5567 191.369 90.2311 191.472C91.9081 191.578 91.8027 193.776 90.8587 194.089C89.9173 194.408 89.3927 194.303 89.1843 193.673Z" fill="#856792"/>
<path d="M175.34 149.261C175.34 149.261 176.374 145.623 172.297 145.967C168.223 146.311 170.258 150.604 171.388 150.905C172.52 151.204 174.832 150.536 175.34 149.261Z" fill="#3E4C6F"/>
<path d="M175.322 150.353C175.322 150.353 172.99 149.65 172.626 151.133C172.262 152.616 173.092 154.044 174.714 154.16C174.714 154.16 173.328 153.266 171.84 154.907C170.351 156.548 174.536 158.593 174.536 158.593C174.536 158.593 172.706 158.621 173.361 160.019C174.016 161.416 175.234 162.734 176.687 161.268C178.143 159.803 177.036 158.872 177.036 158.872C177.036 158.872 178.407 158.852 178.766 156.912C179.122 154.973 176.856 153.919 176.856 153.919C176.856 153.919 177.825 150.629 175.322 150.353Z" fill="#856792"/>
<path d="M184.398 155.028C184.398 155.028 182.732 154.175 184.009 152.677C185.287 151.181 186.738 151.721 186.342 153.379C185.945 155.038 184.398 155.028 184.398 155.028Z" fill="#3E4C6F"/>
<path d="M179.406 152.925C179.182 152.155 178.449 150.197 176.85 151.452C175.251 152.707 176.868 154.827 178.022 154.493C179.177 154.16 179.629 153.695 179.406 152.925Z" fill="#3E4C6F"/>
<path d="M170.092 145.846C169.909 145.209 169.302 143.593 167.981 144.629C166.661 145.666 167.996 147.417 168.95 147.141C169.904 146.868 170.276 146.484 170.092 145.846Z" fill="#3E4C6F"/>
<path d="M170.543 152.31C170.36 151.673 169.753 150.057 168.432 151.093C167.112 152.13 168.447 153.881 169.401 153.605C170.355 153.331 170.727 152.948 170.543 152.31Z" fill="#856792"/>
<path d="M180.942 162.699C180.759 162.061 180.151 160.445 178.831 161.482C177.51 162.518 178.846 164.269 179.8 163.993C180.754 163.72 181.125 163.336 180.942 162.699Z" fill="#3E4C6F"/>
<path d="M172.803 145.982C172.62 145.345 172.012 143.729 170.692 144.765C169.372 145.801 170.707 147.553 171.661 147.277C172.615 147.001 172.986 146.617 172.803 145.982Z" fill="#3E4C6F"/>
<path d="M113.923 226.843C113.923 226.843 111.555 220.364 109.19 220.055C106.823 219.747 112.07 225.814 112.07 225.814C112.07 225.814 108.47 222.73 105.691 222.01C102.912 221.29 108.776 226.123 108.776 226.123C108.776 226.123 103.118 223.653 102.088 223.859C101.059 224.065 108.776 226.84 109.497 226.943C110.22 227.049 113.923 226.843 113.923 226.843Z" fill="#3E4C6F"/>
<path d="M113.922 226.534C113.922 226.534 113.305 220.467 115.054 218.718C116.804 216.969 116.259 220.354 115.672 222.11C114.334 226.123 113.922 226.534 113.922 226.534Z" fill="#3E4C6F"/>
<path d="M78.1205 227.46C78.1205 226.534 77.9147 220.981 80.0761 218.206C82.2376 215.428 83.5731 215.942 83.5731 215.942L79.5615 225.402C79.5615 225.402 81.8259 222.113 83.4702 221.598C85.117 221.084 85.6317 221.495 85.6317 221.495L79.1498 227.151L78.1205 227.46Z" fill="#856792"/>
<path d="M174.418 215.84C174.418 215.84 175.036 212.447 172.565 210.287C170.095 208.126 168.245 211.521 168.245 211.521C168.245 211.521 167.319 206.894 162.689 206.277C158.06 205.66 158.881 216.045 159.19 218.203C159.19 218.203 151.885 209.975 147.873 212.136C143.861 214.296 154.458 221.905 156.31 223.139C156.31 223.139 145.096 219.232 142.626 220.158C140.156 221.084 145.405 226.946 149.417 227.563C153.428 228.18 156.825 230.032 161.454 227.872C161.454 227.872 172.565 231.264 175.653 227.563C178.738 223.859 174.418 215.84 174.418 215.84Z" fill="#3E4C6F"/>
<path d="M173.63 229.206C173.63 229.206 172.806 220.57 176.921 216.866C181.036 213.165 176.509 223.448 176.509 223.448C176.509 223.448 181.036 217.277 182.682 218.1C184.329 218.923 181.036 223.448 181.036 223.448C181.036 223.448 181.859 222.625 183.094 224.271C184.329 225.917 176.374 229.344 176.374 229.344L173.63 229.206Z" fill="#856792"/>
<path d="M198.372 226C198.372 226 195.711 219.114 199.574 220.555C203.438 221.995 202.032 223.423 202.032 223.423C202.032 223.423 205.961 211.898 208.875 215.102C211.79 218.306 210.7 219.664 210.7 219.664C210.7 219.664 213.221 206.347 217.443 210.164C221.666 213.98 215.869 218.499 215.869 218.499C215.869 218.499 220.022 213.825 221.018 217.722C222.012 221.621 215.699 225.407 215.699 225.407L198.372 226Z" fill="#3E4C6F"/>
<path d="M173.698 221.897C173.698 221.897 176.098 216.886 173.472 216.163C170.844 215.441 171.077 219.024 171.077 219.024C171.077 219.024 172.252 215.842 168.19 215.594C164.129 215.345 166.032 219.651 166.032 219.651C166.032 219.651 161.053 213.032 157.94 216.131C154.828 219.23 159.123 221.867 159.123 221.867C159.123 221.867 155.297 223.292 157.92 225.924C160.544 228.557 162.936 227.367 162.936 227.367C162.936 227.367 158.387 230.94 162.69 230.233C166.993 229.525 165.881 230.233 168.145 230.233C170.41 230.233 171.534 229.533 174.64 229.54C177.748 229.548 176.477 226.996 176.477 226.996C176.477 226.996 183.019 222.63 179.437 221.189C175.852 219.752 173.698 221.897 173.698 221.897Z" fill="#33A86D"/>
<path d="M190.674 226.843C189.85 226.02 183.21 219.669 187.086 220.128C190.962 220.587 190.671 222.223 190.671 222.223C190.671 222.223 189.767 213.275 192.933 216.399C196.101 219.526 194.786 222.316 194.786 222.316C194.786 222.316 199.352 216.961 199.131 220.474C198.913 223.985 198.283 224.579 198.283 224.579C198.283 224.579 201.476 218.1 202.342 220.755C203.208 223.41 199.827 226.223 199.827 226.223C196.249 226.943 191.497 227.666 190.674 226.843Z" fill="#3E4C6F"/>
<path d="M40.1047 237.171C40.1047 237.171 39.7306 239.216 39.9063 240.252C40.0821 241.289 41.0059 241.316 42.5473 241.364C44.0887 241.412 45.1406 240.724 46.5715 241.078C48.0024 241.432 50.8743 240.596 51.7204 239.901C52.5664 239.208 52.2927 238.032 52.0141 237.098C51.7354 236.162 50.6333 236.265 47.7514 236.278C44.8669 236.29 40.2452 235.941 40.1047 237.171Z" fill="#ED5D4F"/>
<path d="M40.1379 236.142C40.1379 236.142 39.7638 238.187 39.9395 239.223C40.1153 240.26 41.4433 240.47 42.9872 240.518C44.5286 240.566 45.1738 239.695 46.6047 240.049C48.0356 240.403 50.2071 240.024 51.0532 239.331C51.8992 238.639 52.2381 237.653 51.9594 236.719C51.6808 235.783 48.8465 235.319 45.9645 235.332C43.0776 235.344 40.2784 234.912 40.1379 236.142Z" fill="#121721"/>
<path d="M52.6003 206.284C52.7761 202.36 50.105 200.548 47.2205 200.561C44.3385 200.573 44.1477 203.346 44.7277 207.89C45.3051 212.435 44.4616 213.13 44.2431 213.534C44.0247 213.938 43.1135 215.119 43.4875 216.261C43.8641 217.405 43.608 217.32 44.4088 218.065C45.2097 218.811 50.12 222.025 50.3435 219.177C50.5041 217.165 52.4121 210.543 52.6003 206.284Z" fill="#48598B"/>
<path d="M49.9845 214.261C49.9845 214.261 49.7008 210.206 49.4096 206.287C49.1209 202.367 50.105 200.548 47.2205 200.561C44.3385 200.573 44.1477 203.346 44.7277 207.89C45.305 212.435 44.4616 213.13 44.2431 213.534C44.0247 213.938 43.1135 215.119 43.4875 216.261C43.8641 217.405 43.608 217.32 44.4088 218.065C45.2097 218.811 45.9452 221.769 47.1527 219.179C48.4782 216.341 49.9845 214.261 49.9845 214.261Z" fill="#273252"/>
<path d="M47.8504 233.091C47.8504 233.091 48.8395 234.355 48.5082 235.066C48.1768 235.776 47.1299 236.36 44.9484 237.013C42.7668 237.665 39.2824 237.143 39.541 235.507C39.7995 233.871 40.1987 234.19 40.1987 234.19C40.1987 234.19 41.8982 222.617 42.4807 220.474C43.0631 218.331 42.9978 217.094 45.0639 216.851C47.1299 216.607 50.2228 216.497 50.3433 219.177C50.4663 221.857 47.8504 233.091 47.8504 233.091Z" fill="#48598B"/>
<path d="M47.8504 233.091C47.8504 233.091 48.8395 234.355 48.5082 235.065C48.1768 235.776 47.1299 236.36 44.9484 237.013C42.7668 237.665 39.2824 237.143 39.541 235.507C39.7995 233.871 40.1987 234.19 40.1987 234.19C40.1987 234.19 41.8982 222.617 42.4807 220.474C43.0631 218.331 43.2187 216.64 45.2848 216.394C47.3509 216.151 48.7567 215.629 48.4931 217.473C48.114 220.128 47.8504 233.091 47.8504 233.091Z" fill="#273252"/>
<path d="M58.0533 237.08C58.0533 237.08 57.4156 239.941 57.9328 240.917C58.4499 241.893 61.2013 241.705 62.582 241.474C63.9628 241.243 64.2665 240.292 66.1845 240.353C68.105 240.413 69.0815 239.893 69.669 238.679C70.2564 237.462 68.5292 235.625 67.018 235.715C65.5067 235.806 63.1871 235.321 61.1185 235.668C59.0474 236.014 58.234 235.715 58.0533 237.08Z" fill="#EE5D4F"/>
<path d="M58.0845 236.052C58.0845 236.052 57.4469 238.912 57.964 239.888C58.4811 240.864 61.4485 240.408 62.8267 240.177C64.2074 239.946 64.2953 239.264 66.2157 239.324C68.1362 239.384 69.1128 238.865 69.7002 237.65C70.2876 236.436 68.1412 234.857 66.6274 234.948C65.1162 235.038 63.2158 234.293 61.1472 234.639C59.0786 234.985 58.2653 234.687 58.0845 236.052Z" fill="#121721"/>
<path d="M59.1595 200.626C59.0717 203.464 55.4316 205.654 51.0283 205.516C46.625 205.378 43.7556 206.008 43.2209 200.129C42.9623 197.301 46.9489 195.101 51.3521 195.239C55.7529 195.374 59.2499 197.788 59.1595 200.626Z" fill="#273252"/>
<path d="M52.1968 199.482C55.9398 198.262 57.8277 197.188 59.1958 199.494C60.564 201.8 61.764 209.554 62.0201 211.207C62.2761 212.861 62.477 216.366 59.6829 216.793C56.8913 217.22 55.9825 217.809 55.0311 214.178C54.2955 211.378 53.334 209.188 51.5265 207.792C49.7165 206.4 48.4538 200.701 52.1968 199.482Z" fill="#273252"/>
<path d="M61.1186 208.763C60.6265 204.194 61.829 208.871 62.0198 211.21C62.2056 213.478 62.4767 216.369 59.6826 216.796C56.891 217.222 61.8165 215.237 61.1186 208.763Z" fill="#48598B"/>
<path d="M64.2513 236.383C64.2513 236.383 66.1065 236.338 65.9459 234.892C65.7852 233.447 64.3894 232.529 64.3894 232.529C64.3894 232.529 63.5057 216.399 62.3509 213.792C61.1961 211.185 56.1276 212.053 55.623 215.022C55.1184 217.99 56.1778 224.768 56.3987 226.401C56.6498 228.248 56.8958 229.465 56.9887 230.549C57.0841 231.633 57.0188 232.852 57.0188 232.852C57.0188 232.852 56.5996 233.058 56.5594 234.393C56.5192 235.728 57.4807 236.737 58.2338 236.812C59.484 236.937 64.2513 236.383 64.2513 236.383Z" fill="#273252"/>
<path d="M64.2505 236.383C64.2505 236.383 66.1057 236.338 65.945 234.892C65.7844 233.447 64.3886 232.529 64.3886 232.529C64.3886 232.529 63.5049 216.399 62.3501 213.792C61.1953 211.185 60.3845 211.702 60.8815 214.673C62.0087 221.395 61.7351 226.84 61.7878 228.489C61.838 230.137 60.9593 233.555 61.3284 234.905C61.6974 236.252 64.2505 236.383 64.2505 236.383Z" fill="#48598B"/>
<path d="M46.3086 203.414C46.3086 203.414 48.1763 202.957 48.8768 203.597C49.5772 204.237 52.5369 208.342 52.5369 208.342L48.6533 204.207L46.3086 203.414Z" fill="#273252"/>
<path d="M62.1726 224.434C62.1726 224.434 61.9291 227.307 60.8848 229.435C60.8823 229.435 62.8529 228.983 62.1726 224.434Z" fill="#48598B"/>
<path d="M48.7299 221.443C48.7299 221.443 48.3508 223.694 47.3216 225.31C46.2923 226.923 45.9258 227.119 45.9258 227.119C45.9258 227.119 49.6638 226.153 48.7299 221.443Z" fill="#48598B"/>
<path d="M44.1894 177.935C42.7836 177.89 41.5761 180.321 39.7259 186.78C38.8096 189.977 38.7946 192.443 40.8656 192.029C42.9367 191.615 43.4991 191.219 44.7367 186.732C47.8546 179.214 46.9484 178.02 44.1894 177.935Z" fill="#1D2538"/>
<path d="M47.1345 189.139C47.1345 189.139 44.7446 188.74 43.7128 188.8C42.6811 188.86 42.907 189.347 41.9204 190.14C40.2912 191.45 39.6962 191.031 39.7012 191.992C39.7062 193.301 43.2308 193.199 44.6015 193.241C45.9722 193.284 50.9454 194.468 52.075 193.407C53.2097 192.345 51.3872 189.134 47.1345 189.139Z" fill="#C94039"/>
<path d="M42.5052 197.479C42.081 197.878 42.3546 198.782 42.6584 199.13C42.6584 199.13 45.3847 199.989 47.3579 199.432C49.3311 198.877 49.7629 198.247 51.4373 198.169C53.2875 198.084 57.6782 198.596 58.8531 198.814C59.5309 198.94 59.2096 197.281 59.2096 197.281C59.2096 197.281 54.2766 195.429 50.8398 196.659C47.4081 197.891 43.6073 198.44 42.5052 197.479Z" fill="#F3E7D9"/>
<path d="M51.0492 176.913C51.0492 176.913 44.9615 183.924 42.5791 181.174C40.1942 178.424 44.4268 174.75 47.6376 174.131C50.8484 173.511 54.5864 175.686 51.0492 176.913Z" fill="#273252"/>
<path d="M50.2089 174.143C50.2089 174.143 46.2775 174.808 44.7989 175.997C43.7772 176.818 42.5973 178.938 43.6014 179.716C44.0659 180.075 42.2559 180.715 42.3412 181.066C42.3412 181.066 41.0935 179.277 42.4969 177.162C43.9002 175.044 45.5771 174.291 47.224 174.103C49.1193 173.887 50.2089 174.143 50.2089 174.143Z" fill="#F3E7D9"/>
<path d="M54.6423 170.648L54.4164 175.852L49.998 176.331L50.096 171.19L54.6423 170.648Z" fill="#CC6D3D"/>
<path d="M54.6415 170.648L54.4156 175.855C54.4156 175.855 53.6926 174.803 53.5319 173.975C53.3687 173.147 50.0977 171.192 50.0977 171.192L54.6415 170.648Z" fill="#F5894E"/>
<path d="M54.0949 175.019C54.0949 175.019 55.8347 174.251 57.2279 175.802C58.6212 177.355 59.6756 183.081 59.5677 184.381C59.4572 185.681 59.6907 188.183 60.3283 189.653C61.3852 192.087 60.6396 196.144 59.9166 197.289C59.1936 198.433 59.5551 197.893 56.6129 197.597C53.6707 197.299 50.3117 197.193 48.2256 198.089C46.1394 198.985 43.1119 199.233 42.4014 197.838C41.691 196.443 42.055 195.771 43.0516 194.634C44.0483 193.5 44.2391 189.595 43.9127 186.843C43.7219 185.224 43.6617 183.199 44.3621 181.001C44.8516 179.463 46.2147 180.981 48.6097 178.509C51.5042 175.516 54.0949 175.019 54.0949 175.019Z" fill="#C94039"/>
<path d="M54.0949 175.019C54.0949 175.019 55.8347 174.251 57.2279 175.802C58.6212 177.355 58.8271 183.877 58.7191 185.176C58.6087 186.476 59.6907 188.183 60.3283 189.65C61.3852 192.084 60.6396 196.142 59.9166 197.286C59.1936 198.43 59.5551 197.891 56.6129 197.595C53.6707 197.296 50.3117 197.191 48.2256 198.087C46.1394 198.982 43.1119 199.231 42.4014 197.836C41.691 196.441 42.055 195.768 43.0516 194.631C44.0483 193.497 44.2391 189.593 43.9127 186.84C43.7219 185.222 43.6617 183.197 44.3621 180.999C44.8516 179.46 46.2147 180.978 48.6097 178.507C51.5042 175.516 54.0949 175.019 54.0949 175.019Z" fill="#992C29"/>
<path d="M56.776 174.831C56.776 174.831 55.3852 173.245 52.8823 174.296C50.3794 175.348 48.0222 178.258 46.9628 179.255C45.9034 180.251 43.8172 179.98 42.8206 178.918C41.8239 177.859 41.2742 180.105 42.7603 181.899C44.2465 183.694 45.0549 184.236 46.7042 184.183C48.3535 184.133 49.3452 182.002 50.628 180.499C51.9108 178.996 53.0355 175.945 54.0798 175.463C55.1241 174.981 56.9668 175.298 57.5492 176.447C58.1316 177.596 58.6186 178.487 58.6186 178.487C58.6186 178.487 59.0931 176.444 56.776 174.831Z" fill="#F3E7D9"/>
<path d="M57.0924 188.832C57.0924 188.832 58.0062 181.556 57.7527 179.799C57.4991 178.043 57.5443 176.602 55.5059 175.922C53.4674 175.242 52.2222 178.906 52.0566 180.856C51.8934 182.805 50.9545 189.771 51.6499 190.514C52.3503 191.256 56.9042 192.631 57.0924 188.832Z" fill="#273252"/>
<path d="M57.0919 188.832L54.6618 183.202L55.5078 175.922C53.4694 175.242 52.2242 178.906 52.0585 180.856C51.8953 182.805 50.9564 189.771 51.6518 190.514C52.3497 191.256 56.9036 192.631 57.0919 188.832Z" fill="#1D2538"/>
<path d="M67.5224 198.503C65.2756 198.307 63.3024 199.891 63.1141 202.041C62.9258 204.192 64.5927 206.094 66.8396 206.289C69.0864 206.485 71.0596 204.902 71.2479 202.751C71.4361 200.601 69.7667 198.699 67.5224 198.503ZM66.6061 204.019C65.6722 203.936 64.9819 203.115 65.0647 202.182C65.1475 201.248 65.9685 200.558 66.9023 200.641C67.8362 200.724 68.5266 201.544 68.4437 202.478C68.3609 203.409 67.54 204.099 66.6061 204.019Z" fill="#1689CB"/>
<path d="M67.3995 200.222C66.2121 200.119 65.1678 200.995 65.0649 202.182C65.1477 201.248 65.9686 200.558 66.9025 200.641C67.8364 200.724 68.5267 201.544 68.4439 202.478C68.361 203.411 67.5401 204.101 66.6063 204.018C65.6724 203.936 64.982 203.115 65.0649 202.182C64.9619 203.369 65.8381 204.412 67.0255 204.515C68.2129 204.618 69.2573 203.742 69.3602 202.556C69.4631 201.371 68.587 200.325 67.3995 200.222Z" fill="#34283A"/>
<path d="M67.8619 199.519C68.1958 199.524 68.4795 199.289 68.5197 198.97L71.8711 173.009L72.1347 169.998C72.1623 169.684 71.9464 169.398 71.6276 169.325C71.2661 169.245 70.5506 169.004 70.4828 169.356L69.7523 175.285C69.7448 175.325 69.7322 175.363 69.7171 175.4L69.5364 176.954C69.5138 177.006 69.4987 177.064 69.4937 177.122L66.6017 198.802C66.559 199.171 66.8578 199.497 67.2444 199.504L67.8619 199.519Z" fill="#1689CB"/>
<path d="M73.5344 171.707L73.8733 172.389L73.9109 173.99L74.8071 174.068L77.2924 171.923L77.6138 172.683L77.4606 174.424C77.4606 174.424 76.2858 174.377 76.1351 175.069C76.0272 175.576 76.9435 175.418 76.9435 175.418L77.3276 175.95L77.0841 178.725L74.8749 178.409L74.644 177.704L74.7469 176.54L73.6272 176.442L73.2758 178.447L71.1771 178.115L70.8105 177.388L73.5344 171.707Z" fill="#34283A"/>
<path d="M71.2007 171.466L73.5731 171.674L73.6107 173.27L74.6651 173.363L74.9864 171.709L77.2684 171.923L77.1153 173.664C77.1153 173.664 76.1412 173.667 75.9931 174.362C75.845 175.057 76.2592 175.358 76.9621 175.421L76.7387 177.967L74.6375 177.694L74.7981 175.85L73.4802 175.734L73.1287 177.739L70.5957 177.34L71.2007 171.466Z" fill="#1689CB"/>
<path d="M69.7172 184.052L69.1699 188.943" stroke="#29ABE2" stroke-width="2" stroke-miterlimit="10" stroke-linecap="round" stroke-linejoin="round"/>
<path d="M69.8104 183.337C69.9948 183.337 70.1443 183.188 70.1443 183.003C70.1443 182.819 69.9948 182.67 69.8104 182.67C69.6261 182.67 69.4766 182.819 69.4766 183.003C69.4766 183.188 69.6261 183.337 69.8104 183.337Z" fill="#FFACFF" stroke="#29ABE2" stroke-miterlimit="10"/>
<path d="M70.0325 200.305C70.0325 200.305 70.8308 201.406 70.6199 203.04C70.409 204.673 69.4727 205.143 69.4727 205.143" stroke="#29ABE2" stroke-width="2" stroke-miterlimit="10" stroke-linecap="round" stroke-linejoin="round"/>
<path d="M71.8984 171.529C71.8984 171.529 71.3386 171.446 71.3035 171.632C71.2708 171.817 70.9922 174.211 70.9922 174.211C70.9922 174.211 71.4114 171.77 71.424 171.652C71.4365 171.534 71.6248 171.601 71.8984 171.529Z" fill="#665070"/>
<path d="M70.7734 176.695L71.0144 174.678L70.914 174.645L70.7734 176.695Z" fill="#665070"/>
<path d="M64.9692 195.321C64.9692 195.321 65.9608 195.507 66.2219 194.516C66.483 193.525 66.6788 193.148 66.7265 193.073C66.7767 193 67.5047 192.815 67.59 192.88C67.9465 193.151 67.344 194.258 67.8034 194.27C68.2628 194.283 70.354 194.875 70.4971 195.186C70.6402 195.497 70.6076 196.571 70.6076 196.571L69.6737 197.003C69.6737 197.003 69.7289 197.695 69.5632 198.074C69.3975 198.453 68.9181 199.05 68.9181 199.05L66.4754 198.591C66.4754 198.591 65.2604 198.169 64.7457 197.462C64.2336 196.757 64.9692 195.321 64.9692 195.321Z" fill="#F5894E"/>
<path d="M64.1002 194.092C64.1002 194.092 64.7278 193.736 65.3228 194.473C65.9178 195.211 65.8676 196.822 65.4207 197.941C64.9738 199.058 64.5646 198.942 64.5646 198.942L63.3496 198.287L64.1002 194.092Z" fill="#F3E7D9"/>
<path d="M56.3427 188.671C56.8398 188.43 57.0055 188.32 57.5427 188.975C58.2356 189.82 59.2699 190.546 60.5903 191.103C61.9108 191.657 64.5443 193.045 64.715 194.182C64.8857 195.318 65.3626 196.5 64.3886 198.013C63.4146 199.526 62.423 198.362 61.0021 197.702C59.5812 197.042 53.2122 192.771 52.2859 191.745C51.6382 191.03 51.3796 190.25 52.5671 190.159C54.2114 190.029 55.8482 188.912 56.3427 188.671Z" fill="#C94039"/>
<path d="M56.3427 188.671C56.8398 188.43 57.0055 188.32 57.5427 188.975C58.2356 189.82 59.2699 190.546 60.5903 191.103C61.9108 191.657 64.5443 193.045 64.715 194.182C64.8857 195.318 65.3626 196.5 64.3886 198.013C63.4146 199.526 62.423 198.362 61.0021 197.702C59.5812 197.042 53.2122 192.771 52.2859 191.745C51.6382 191.03 51.3796 190.25 52.5671 190.159C54.2114 190.029 55.8482 188.912 56.3427 188.671Z" fill="#EE5D4F"/>
<path d="M56.4551 188.401C56.9522 188.16 59.4024 192.918 60.7228 193.472C62.0433 194.027 64.5211 193.796 64.6918 194.935C64.8625 196.072 65.3621 196.498 64.3906 198.011C63.4165 199.524 62.4249 198.36 61.004 197.7C59.5831 197.04 53.2142 192.769 52.2878 191.743C51.6402 191.028 51.3816 190.248 52.569 190.157C54.2108 190.029 55.9581 188.642 56.4551 188.401Z" fill="#C94039"/>
<path d="M53.9761 162.395C53.9761 162.395 56.4539 161.951 57.2221 163.885C58.0179 165.883 58.4648 170.251 58.0254 171.062C57.5861 171.872 57.438 172.279 54.2347 172.693C51.0314 173.107 48.5034 172.721 48.8197 169.23C49.136 165.742 49.3143 163.381 53.9761 162.395Z" fill="#F5894E"/>
<path d="M53.9761 162.395C53.9761 162.395 56.4539 161.951 57.2221 163.885C57.3828 164.292 55.3318 169.328 55.3343 169.898C55.3418 171.338 57.1292 171.574 57.1468 171.754C57.1619 171.935 57.438 172.279 54.2347 172.693C51.0314 173.107 48.5034 172.721 48.8197 169.23C49.136 165.742 49.3143 163.381 53.9761 162.395Z" fill="#CC6D3D"/>
<path d="M54.6938 164.681C54.6938 164.681 58.6753 162.473 56.6494 161.381C54.626 160.29 50.8629 160.428 50.0997 161.845L49.6679 161.951C49.6679 161.951 48.36 162.046 46.7508 164.156C45.1417 166.267 45.4705 170.896 48.355 172.093C49.6931 172.65 50.1525 172.783 51.1817 172.748C52.211 172.713 53.2779 172.625 53.7373 171.097C54.1967 169.571 54.6938 164.681 54.6938 164.681Z" fill="#1D2538"/>
<path d="M54.6938 164.681C54.6938 164.681 58.6753 162.473 56.6494 161.381C54.626 160.29 52.1884 161.379 52.6579 161.737C53.1273 162.096 53.7901 162.869 53.7901 162.869C53.7901 162.869 51.8972 166.377 51.498 168.149L51.975 168.231C51.975 168.231 53.2779 172.628 53.7373 171.099C54.1967 169.571 54.6938 164.681 54.6938 164.681Z" fill="#3E4C6F"/>
<path d="M54.3918 168.531C54.9099 168.421 55.1869 167.656 55.0104 166.823C54.8339 165.989 54.2708 165.402 53.7526 165.511C53.2345 165.621 52.9575 166.386 53.134 167.219C53.3105 168.053 53.8737 168.64 54.3918 168.531Z" fill="#CC6D3D"/>
<path d="M57.3099 165.368C57.3451 165.75 57.2296 165.928 57.089 165.943C56.9484 165.955 56.838 165.797 56.8028 165.416C56.7677 165.035 56.853 164.716 56.9936 164.703C57.1317 164.688 57.2748 164.987 57.3099 165.368Z" fill="#34283A"/>
<path d="M56.9778 163.931C56.5711 164.018 56.3125 164.33 56.3125 164.33" stroke="#34283A" stroke-width="0.75" stroke-miterlimit="10" stroke-linecap="round" stroke-linejoin="round"/>
<path d="M55.0369 164.091L55.3106 166.518C55.3231 166.638 55.2855 166.761 55.2051 166.851L54.6905 167.441L54.4219 164.003L55.0369 164.091Z" fill="#3E4C6F"/>
</svg>
