<svg width="759" height="854" viewBox="0 0 759 854" fill="none" xmlns="http://www.w3.org/2000/svg">
<path d="M426.938 627.848C426.938 627.848 445.122 634.965 463.306 635.756C481.491 636.546 489.397 633.383 483.863 631.011C478.328 628.639 483.072 627.848 483.072 627.848C483.072 627.848 480.7 629.43 549.485 631.011C618.269 632.593 654.638 630.22 660.172 632.593C665.706 634.965 710.772 635.756 711.563 631.011C712.353 626.267 712.353 615.196 696.541 613.615C696.541 613.615 697.332 553.519 688.635 532.169C679.938 510.819 674.403 489.469 660.172 479.98C645.941 470.491 641.988 468.909 641.988 468.909C641.988 468.909 646.937 423.378 613.525 368.485C591.388 332.111 571.851 327.825 571.851 327.825C571.851 327.825 563.368 307.187 555.019 279.131C543.073 238.986 506 229.315 500.466 222.198C494.931 215.081 453.819 211.128 450.656 235.641C447.494 260.154 445.122 305.226 445.122 305.226C445.122 305.226 413.497 301.272 413.497 376.393C413.497 451.513 426.938 627.848 426.938 627.848Z" fill="#F3E7D9"/>
<path d="M480.305 375.997C480.305 375.997 516.769 376.677 524.58 380.054C532.391 383.43 536.439 406.836 536.439 426.605C536.439 426.605 541.563 386.34 527.118 378.188C512.673 370.035 480.305 375.997 480.305 375.997Z" fill="#FFFCF3"/>
<path d="M524.975 430.954C524.975 430.954 491.769 434.117 490.188 443.606C488.607 453.094 485.444 529.796 485.444 529.796C485.444 529.796 483.863 520.307 484.654 506.074C485.444 491.841 485.444 449.141 486.235 443.606C487.025 438.07 496.513 427.791 524.975 430.954Z" fill="#FFFCF3"/>
<path d="M502.047 524.261C502.047 524.261 486.235 527.424 478.328 534.541C475.387 537.182 478.328 612.033 478.328 612.033L481.491 612.824C481.491 612.824 480.7 543.239 480.7 540.076C480.7 536.913 478.328 534.541 488.607 530.587C498.885 526.633 502.047 524.261 502.047 524.261Z" fill="#FFFCF3"/>
<path d="M571.851 327.825C571.851 327.825 563.154 323.081 545.761 327.825C545.761 327.825 563.154 324.662 571.851 327.825Z" fill="#FFFCF3"/>
<path d="M641.988 468.909C641.988 468.909 625.385 457.048 613.525 460.211C613.525 460.211 629.338 462.583 641.988 468.909Z" fill="#FFFCF3"/>
<path d="M505.21 285.457C505.21 285.457 502.047 268.061 498.094 265.689C492.125 262.107 490.978 260.944 470.422 259.363C470.422 259.363 492.172 257.955 499.675 263.317C505.21 267.27 505.21 285.457 505.21 285.457Z" fill="#FFFCF3"/>
<path d="M268.022 653.943C268.022 653.943 129.663 653.943 94.0846 652.361C58.5065 650.78 52.5768 659.873 56.5299 615.592C60.4831 571.31 66.0174 523.866 88.1549 500.143C88.1549 500.143 95.2706 440.047 111.874 416.325C128.477 392.603 148.242 389.44 148.242 389.44C148.242 389.44 152.986 382.323 158.521 383.905C158.521 383.905 149.824 372.043 156.939 342.786C164.055 313.529 181.449 236.827 233.63 253.432C233.63 253.432 275.533 227.338 296.089 230.501C316.646 233.664 364.874 315.901 371.199 353.856C377.524 391.812 366.455 649.198 366.455 649.198L268.022 653.943Z" fill="#F3E7D9"/>
<path d="M222.166 407.231C222.166 407.231 235.607 402.487 241.932 407.231C248.257 411.976 249.838 416.72 258.535 419.093C267.232 421.465 272.766 438.07 273.557 457.839C274.347 477.607 273.557 484.724 273.557 484.724C273.557 484.724 270.394 437.28 265.65 430.163C260.907 423.046 249.838 417.511 244.304 412.767C238.769 408.022 236.397 404.859 222.166 407.231Z" fill="#FFFCF3"/>
<path d="M258.535 487.887C258.535 487.887 271.975 485.515 282.253 491.05C293.836 497.289 301.228 521.889 301.228 521.889C301.228 521.889 295.093 490.394 285.416 487.887C264.069 482.352 258.535 487.887 258.535 487.887Z" fill="#FFFCF3"/>
<path d="M288.579 517.144C288.579 517.144 285.416 513.191 279.091 513.981C272.766 514.772 266.441 526.633 264.86 540.076C263.279 553.519 265.65 581.194 268.813 589.893C268.813 589.893 268.022 613.615 268.813 621.522C269.604 629.43 272.766 646.035 272.766 646.035L274.347 644.454C274.347 644.454 268.022 608.08 272.766 589.102C272.766 589.102 264.069 566.961 268.813 540.867C273.557 514.772 276.719 515.563 288.579 517.144Z" fill="#FFFCF3"/>
<path d="M251.419 300.481C251.419 300.481 215.05 305.226 211.097 309.97C207.144 314.715 199.238 339.228 200.028 355.833C200.487 365.441 202.4 321.041 215.841 311.552C221.62 307.472 251.419 300.481 251.419 300.481Z" fill="#FFFCF3"/>
<path d="M202.4 357.415C202.4 357.415 203.982 350.298 179.559 363.962C178.066 364.724 176.703 365.717 175.519 366.904C168.403 374.811 172.357 400.115 172.357 400.115C172.357 400.115 175.519 373.23 179.472 368.485C186.77 359.724 202.4 357.415 202.4 357.415Z" fill="#FFFCF3"/>
<path d="M101.991 494.213C101.991 494.213 118.768 493.628 129.663 495.004C135.711 498.807 145.475 503.797 145.475 513.191V551.937C145.475 551.937 141.522 516.354 137.569 508.446C133.616 500.539 119.385 496.585 101.991 494.213Z" fill="#FFFCF3"/>
<path d="M309.925 657.896V355.161C309.925 355.161 352.904 346.598 379.176 346.598C405.449 346.598 443.541 355.161 443.541 355.161V657.106L309.925 657.896Z" fill="#BB83C3"/>
<path d="M309.925 657.896V396.232L310.368 354.102L356.501 347.539L356.43 399.949L415.458 361.614L443.541 406.686V657.106C443.541 657.106 427.657 664.776 376.986 664.776C326.315 664.776 309.925 657.896 309.925 657.896Z" fill="#856792"/>
<path d="M310.368 654.409L309.981 396.39L347.274 476.105L352.904 544.923L377.706 565.119L362.288 665.045L326.007 662.546L310.368 654.409Z" fill="#665070"/>
<path d="M414.209 422.295L411.647 462.915C411.647 462.915 424.297 467.66 427.46 476.358C430.622 485.056 422.716 583.899 422.716 583.899L429.041 613.947L430.472 639.393L433.302 640.389L435.366 616.319L428.25 583.108C428.25 583.108 432.994 493.754 432.994 480.312C432.994 466.869 415.6 458.171 415.6 458.171L414.209 422.295Z" fill="#BB83C3"/>
<path d="M398.578 415.044L385.208 458.756L398.973 473.772L405.986 527.756L410.05 475.441L403.978 458.756L398.578 415.044Z" fill="#BB83C3"/>
<path d="M381.097 570.891L370.195 662.72L379.801 662.751H382.963L385.05 587.394L381.097 570.891Z" fill="#665070"/>
<path d="M335.391 563.071L331.011 599.358L342.341 619.941L344.713 639.709L346.294 621.522L338.522 600.607L335.391 563.071Z" fill="#856792"/>
<path d="M394.143 591.403L398.736 560.991L397.029 540.179L388.632 534.588L394.143 591.403Z" fill="#665070"/>
<path d="M401.077 579.02L407.639 663.487L395.447 664.42L401.077 579.02Z" fill="#665070"/>
<path d="M391.375 360.673L398.886 395.394L420.241 356.158L391.375 360.673Z" fill="#BB83C3"/>
<path d="M443.541 355.161L429.539 380.378L443.541 406.654V355.161Z" fill="#BB83C3"/>
<path d="M331.328 371.15V412.442L348.215 422.77L349.156 466.877L358.533 428.4L336.641 402.906L340.396 355.359L331.328 371.15Z" fill="#BB83C3"/>
<path d="M372.922 496.751L380.433 544.299L360.415 541.8L355.41 481.735L372.922 496.751Z" fill="#665070"/>
<path d="M435.69 637.495C435.69 637.495 434.385 624.986 443.043 624.97C451.7 624.954 447.684 636.831 447.684 636.831C447.684 636.831 461.195 636.206 460.642 639.994C460.089 643.782 454.918 648.929 454.918 648.929C454.918 648.929 469.465 645.363 468.287 650.408C467.109 655.453 451.186 657.809 451.186 657.809C451.186 657.809 497.256 661.597 468.627 662.467C439.999 663.337 453.281 663.621 441.295 663.843C429.31 664.064 425.696 661.731 423 656.916C420.304 652.1 433.136 653.943 433.136 653.943C433.136 653.943 417.925 640.737 422.858 634.103C427.792 627.469 435.69 637.495 435.69 637.495Z" fill="#33A86D"/>
<path d="M317.246 660.039C317.246 660.039 307.87 632.514 300.359 632.514C292.848 632.514 302.232 646.905 302.232 646.905C302.232 646.905 294.729 638.768 289.725 643.149C284.72 647.53 304.114 656.916 304.114 656.916C304.114 656.916 272.837 657.54 283.471 660.672C294.105 663.803 317.246 660.039 317.246 660.039Z" fill="#33A86D"/>
<path d="M307.87 661.921C307.87 661.921 312.874 640.026 322.251 635.645C331.628 631.264 322.876 650.028 322.876 650.028C322.876 650.028 345.401 648.779 333.517 657.54C321.634 666.302 315.997 663.171 307.87 661.921Z" fill="#33A86D"/>
<path d="M332.853 673.229C329.494 673.313 326.149 673.702 322.86 674.391L324.773 678.622L312.084 678.289C305.988 682.069 308.091 686.505 328.197 686.086C362.004 685.375 354.2 672.699 332.853 673.229Z" fill="#33A86D"/>
<path d="M471.671 734.408L456.902 741.644C454.784 742.695 452.366 742.974 450.063 742.434L433.033 738.402C431.323 737.994 429.537 738.035 427.847 738.52C413.402 742.711 404.199 749.029 404.199 756.098C404.199 768.75 433.452 778.935 469.568 778.935C505.684 778.935 534.937 768.711 534.937 756.098C534.937 744.301 509.329 734.598 476.431 733.396C474.786 733.343 473.152 733.69 471.671 734.408Z" fill="#33A86D"/>
<path d="M431.413 758.581L430.487 737.761C414.533 741.928 404.199 748.579 404.199 756.067C404.199 768.719 433.452 778.903 469.568 778.903C505.684 778.903 534.937 768.679 534.937 756.067C534.937 756.067 523.078 771.399 488.646 775.155L431.413 758.581Z" fill="#288453"/>
<path d="M358.201 667.029C339.929 667.773 345.171 675.822 363.419 674.858C384.679 673.711 376.472 666.278 358.201 667.029Z" fill="#288453"/>
<path d="M375.207 660.972C356.936 661.716 362.178 669.765 380.433 668.801C401.685 667.686 393.478 660.221 375.207 660.972Z" fill="#33A86D"/>
<path d="M410.864 666.594C392.593 667.338 397.835 675.387 416.082 674.423C437.342 673.316 429.136 665.851 410.864 666.594Z" fill="#33A86D"/>
<path d="M499.288 692.784L523.497 694.468C523.969 694.031 524.253 693.427 524.287 692.784C524.287 688.64 510.009 685.28 492.386 685.28C474.763 685.28 460.484 688.64 460.484 692.784C460.484 696.927 474.771 700.296 492.386 700.296C495.643 700.296 498.782 700.177 501.747 699.964L499.288 692.784Z" fill="#33A86D"/>
<path d="M441.73 663.171C441.73 663.171 429.871 663.795 433.603 655.666C437.334 647.538 441.106 660.039 441.106 660.039C441.106 660.039 444.861 650.028 446.735 650.028C448.609 650.028 447.368 656.916 447.368 656.916C447.368 656.916 453.621 655.666 453.621 660.079C453.621 664.491 441.73 663.171 441.73 663.171Z" fill="#288453"/>
<path d="M314.748 604.363C318.195 606 323.54 615.608 326.006 603.739C328.426 592.115 314.748 594.977 314.748 604.363Z" fill="#33A86D"/>
<path d="M314.748 580.586C303.49 579.336 302.889 589.972 308.494 591.221C314.1 592.47 326.007 581.835 314.748 580.586Z" fill="#288453"/>
<path d="M348.515 611.701C342.009 614.951 344.8 623.776 352.223 618.668C359.647 613.56 354.991 608.451 348.515 611.701Z" fill="#33A86D"/>
<path d="M322.251 578.087C314.748 574.924 312.874 586.84 320.377 588.722C327.88 590.604 329.762 581.194 322.251 578.087Z" fill="#33A86D"/>
<path d="M304.739 571.484C297.236 576.181 304.739 577.747 312.874 574.228C321.01 570.709 312.242 566.787 304.739 571.484Z" fill="#33A86D"/>
<path d="M353.299 653.002C353.425 652.58 353.446 652.135 353.361 651.703C353.276 651.272 353.088 650.867 352.811 650.526C352.535 650.184 352.179 649.914 351.775 649.741C351.371 649.567 350.93 649.495 350.492 649.53C345.559 649.839 339.771 657.541 344.776 660.039C349.781 662.538 352.745 654.567 353.299 653.002Z" fill="#33A86D"/>
<path d="M346.65 633.138C339.147 631.264 333.517 641.275 346.025 644.398C358.533 647.522 354.2 635.02 346.65 633.138Z" fill="#33A86D"/>
<path d="M351.038 626.883C346.658 630.64 353.536 637.519 359.798 631.889C366.06 626.259 355.41 623.104 351.038 626.883Z" fill="#33A86D"/>
<path d="M285.1 744.34L280.032 750.136C280.032 750.136 271.817 747.764 265.8 746.183C260.559 747.361 256.36 749.14 254.17 751.607C242.754 764.449 305.561 770.158 318.369 757.316C326.086 749.543 305.316 744.395 285.1 744.34Z" fill="#288453"/>
<path d="M321.626 727.924L325.746 723.322C315.61 722.634 304.161 723.868 300.651 727.814C293.282 736.108 333.857 739.801 342.119 731.506C343.218 730.407 343.424 729.395 342.91 728.478L321.626 727.924Z" fill="#33A86D"/>
<path d="M105.153 669.757L123.899 668.295C123.164 663.297 96.5355 661.597 91.4834 667.29C88.2023 670.983 97.3973 673.482 106.869 673.616L105.153 669.757Z" fill="#33A86D"/>
<path d="M116.847 657.896C116.056 658.75 115.993 659.533 116.42 660.269L124.579 659.762L126.255 663.858C134.399 664.902 145.048 664.159 148.472 660.696C154.797 654.37 122.468 651.57 116.847 657.896Z" fill="#33A86D"/>
<path d="M493.271 727.236C493.271 727.236 495.999 755.252 476.573 756.177C457.148 757.103 455.701 726.746 455.701 726.746L467.188 731.846L473.513 717.819L483.863 732.708L493.271 727.236Z" fill="#FFACFF"/>
<path d="M674.719 645.434C671.193 649.388 681.985 651.99 692.113 651.831L691.734 646.549L702.462 650.408C703.943 650.008 705.312 649.272 706.463 648.257C712.828 641.908 680.365 639.085 674.719 645.434Z" fill="#33A86D"/>
<path d="M666.244 638.982L673.028 637.4C667.493 634.759 651.396 634.427 647.87 638.389C643.443 643.37 666.189 645.735 673.17 641.552L666.244 638.982Z" fill="#33A86D"/>
<path d="M501.367 633.138L514.231 634.174C518.429 629.295 493.453 627.192 489.057 632.134C486.266 635.297 494.876 637.321 502.909 637.171L501.367 633.138Z" fill="#33A86D"/>
<path d="M316.25 216.663L314.669 328.157" stroke="#F7BC4B" stroke-miterlimit="10"/>
<path d="M315.855 115.448L314.274 193.629" stroke="#FEED7F" stroke-miterlimit="10"/>
<path d="M436.821 251.06V341.205" stroke="#F7BC4B" stroke-miterlimit="10"/>
<path d="M415.237 324.069V270.766L409.829 280.903V334.396L415.237 324.069Z" fill="#FEED7F"/>
<path d="M433.287 106.347V167.352" stroke="#F7BC4B" stroke-miterlimit="10"/>
<path d="M394.917 197.29V150.636" stroke="#F7BC4B" stroke-miterlimit="10"/>
<path d="M377.089 135.446V63.3621" stroke="#F7BC4B" stroke-miterlimit="10"/>
<path d="M346.025 181.428V85.7479L341.337 96.9685V187.058L346.025 181.428Z" fill="#FEED7F"/>
<path d="M352.413 271.517V330.285" stroke="#F7BC4B" stroke-miterlimit="10"/>
<path d="M330.837 172.042V230.801" stroke="#FEED7F" stroke-miterlimit="10"/>
<path d="M283.55 163.984L279.407 174.39L283.55 184.322L287.227 174.39L283.55 163.984Z" fill="#FEED7F"/>
<path d="M292.721 269.927L288.579 280.333L292.721 290.265L296.398 280.333L292.721 269.927Z" fill="#F7BC4B"/>
<path d="M374.567 156.796L370.424 167.194L374.567 177.126L378.243 167.194L374.567 156.796Z" fill="#FEED7F"/>
<path d="M475.901 231.869L471.758 242.267L475.901 252.199L479.578 242.267L475.901 231.869Z" fill="#F7BC4B"/>
<path d="M403.788 94.541L397.321 104.939L403.788 114.879L409.52 104.939L403.788 94.541Z" fill="#FEED7F"/>
<path d="M449.732 180.803L443.77 195.764L449.732 210.052L455.021 195.764L449.732 180.803Z" fill="#FEED7F"/>
<path d="M326.908 60.4442L321.579 73.8156L326.908 86.5861L331.636 73.8156L326.908 60.4442Z" fill="#FEED7F"/>
<path opacity="0.39" d="M375.429 319.064C419.303 319.064 454.871 283.491 454.871 239.61C454.871 195.729 419.303 160.157 375.429 160.157C331.554 160.157 295.987 195.729 295.987 239.61C295.987 283.491 331.554 319.064 375.429 319.064Z" fill="#FEED7F"/>
<path d="M377.824 213.334L337.89 246.079L338.514 249.202L377.824 275.897C377.824 275.897 378.03 213.334 377.824 213.334Z" fill="#C94039"/>
<path d="M377.824 213.334L360.62 248.577L360.826 250.665L377.824 275.897V213.334Z" fill="#EE5D4F"/>
<path d="M342.27 251.084L364.581 251.29L344.357 252.333L342.27 251.084Z" fill="#EE5D4F"/>
<path d="M378.022 213.334L417.948 246.079L417.324 249.202L378.022 275.897C378.022 275.897 377.808 213.334 378.022 213.334Z" fill="#C94039"/>
<path d="M378.022 213.334L395.226 248.577L395.012 250.665L378.022 275.897V213.334Z" fill="#EE5D4F"/>
<path d="M413.576 251.084L391.265 251.29L411.489 252.333L413.576 251.084Z" fill="#EE5D4F"/>
<path d="M337.89 246.079L378.022 213.334L344.357 252.491L338.522 249.202L337.89 246.079Z" fill="#EE5D4F"/>
<path d="M378.022 213.334L417.948 246.079L417.324 249.202L413.576 251.084L378.022 213.334Z" fill="#EE5D4F"/>
<path d="M225.328 728.446L221.257 788.297L202.803 789.879C194.984 770.482 196.716 729.039 196.716 729.039L225.328 728.446Z" fill="url(#paint0_linear_30_5825)"/>
<path d="M188.382 739.706L184.635 778.88L165.865 779.512C158.046 760.115 161.485 740.094 161.485 740.094L188.382 739.706Z" fill="url(#paint1_linear_30_5825)"/>
<path d="M555.999 726.983V731.989C555.999 731.989 553.501 735.745 553.501 736.994C553.501 738.243 555.999 742.419 555.999 742.419L559.763 788.716L582.28 787.048C582.28 787.048 583.529 745.336 583.948 739.082C584.192 734.915 584.192 730.738 583.948 726.572C583.948 726.572 561.423 729.909 555.999 726.983Z" fill="url(#paint2_linear_30_5825)"/>
<path d="M595.618 726.153C595.618 726.153 595.199 738.663 596.456 740.75C597.713 742.838 603.571 787.048 603.571 787.048H625.227C625.227 787.048 625.227 740.331 625.646 735.745L626.436 726.572C626.436 726.572 600.622 727.822 595.618 726.153Z" fill="url(#paint3_linear_30_5825)"/>
<path d="M305.68 679.483C305.68 679.483 295.686 682.251 279.186 682.844C262.685 683.437 278.087 688.735 295.694 689.36C295.694 689.36 279.431 693.978 296.303 696.342C313.175 698.706 357.774 693.48 357.774 693.48C357.774 693.48 377.824 707.191 413.268 704.416C437.074 702.557 447.462 697.299 447.462 697.299C447.462 697.299 437.556 708.749 407.852 708.749C389.441 708.577 371.264 704.592 354.469 697.046C354.469 697.046 297.892 707.128 278.087 705.349C258.282 703.569 279.186 691.115 279.186 691.115C279.186 691.115 254.977 684.789 272.584 681.84C283.521 680.051 294.599 679.262 305.68 679.483Z" fill="#F3E7D9"/>
<path d="M498.221 652.069C498.221 652.069 506.127 663.503 488.891 665.717C471.656 667.931 448.055 666.436 448.055 666.436C448.055 666.436 442.932 679.009 418.383 679.017C393.834 679.025 381.659 675.063 381.659 675.063C381.659 675.063 389.652 685.746 427.974 685.248C466.295 684.75 454.325 671.56 454.325 671.56C454.325 671.56 523.434 671.26 498.221 652.069Z" fill="#F3E7D9"/>
<path d="M647.791 660.332C647.791 660.332 647.791 663.076 658.741 663.756C669.691 664.436 675.194 659.652 675.194 659.652C675.194 659.652 682.729 670.603 711.484 667.18C740.239 663.756 717.643 650.068 717.643 650.068C717.643 650.068 753.221 665.812 716.955 672.659C680.689 679.507 675.194 666.5 675.194 666.5C675.194 666.5 661.485 678.139 647.791 660.332Z" fill="#F3E7D9"/>
<path d="M538.693 777.354C538.693 777.354 514.294 788.614 484.274 787.633C484.274 787.673 527.434 796.118 538.693 777.354Z" fill="#F3E7D9"/>
<path d="M319.247 767.019C319.247 767.019 303.964 779.528 287.282 773.969C287.282 773.969 270.378 780.224 255.317 769.106C255.317 769.106 260.851 780.92 287.282 778.136C287.282 778.144 315.776 787.182 319.247 767.019Z" fill="#F3E7D9"/>
<path d="M115.431 772.87C115.431 772.87 182.967 769.391 182.967 774.135C182.967 778.88 164.513 784.771 164.513 787.578C164.513 790.385 185.362 792.789 185.362 799.043C185.362 805.298 161.699 807.497 161.074 802.8C160.861 801.218 174.372 799.257 175.147 798.419C176.634 796.837 167.953 794.979 167.953 794.979C167.953 794.979 133.616 790.432 140.637 788.202C147.515 786.012 167.012 778.611 161.983 776.104C157.777 773.985 115.431 772.87 115.431 772.87Z" fill="#F3E7D9"/>
<path d="M58.2693 670.05C58.2693 670.05 58.2693 677.776 82.0434 675.68C82.0434 675.68 73.3465 683.587 87.048 685.691C100.75 687.794 128.334 681.943 128.334 681.943C128.334 681.943 111.02 692.689 85.3877 689.581C59.7556 686.474 73.133 680.092 73.133 680.092C73.133 680.092 45.0658 679.468 58.2693 670.05Z" fill="#F3E7D9"/>
<path d="M548.077 725.315C548.734 725.252 541.405 726.153 543.278 728.865C545.152 731.578 569.97 732.819 578.73 731.364C578.73 731.364 566.214 734.914 552.876 733.657C539.539 732.4 528.683 727.197 548.077 725.315Z" fill="#F3E7D9"/>
<path d="M629.085 717.914C629.085 717.914 639.41 721.353 642.525 722.611C645.64 723.868 634.398 726.359 634.398 726.359C634.398 726.359 640.288 730.012 651.91 723.86C657.239 721.045 629.085 717.914 629.085 717.914Z" fill="#F3E7D9"/>
<path d="M649.42 735.745C648.684 735.428 628.776 744.506 585.648 740.956C585.648 740.924 637.742 753.26 649.42 735.745Z" fill="#FFFCF3"/>
<path d="M541.823 749.346C541.823 749.346 584.573 755.292 625.021 753.892C625.021 753.892 566.088 760.147 541.823 749.346Z" fill="#FFFCF3"/>
<path d="M576.223 738.876C576.223 738.876 531.158 740.125 526.185 733.871C526.185 733.871 544.946 747.63 576.223 738.876Z" fill="#F3E7D9"/>
<path d="M106.229 760.772C106.229 760.772 94.9702 765.35 110.712 766.607C118.531 767.232 132.296 767.548 132.296 767.548C132.296 767.548 108.245 770.166 98.2038 767.232C90.6929 765.05 95.5948 762.274 106.229 760.772Z" fill="#F3E7D9"/>
<path d="M195.791 751.994C195.791 751.994 193.213 752.991 196.257 754.367C198.376 755.308 208.591 755.656 218.624 755.774C209.911 756.968 168.838 760.345 195.791 751.994Z" fill="#FFFCF3"/>
<path d="M237.188 782.881C237.188 782.881 213.232 787.072 203.056 782.288C203.056 782.288 228.578 783.932 234.642 781.497C240.706 779.061 235.543 777.235 235.543 777.235C235.543 777.235 257.277 778.468 237.188 782.881Z" fill="#F3E7D9"/>
<path d="M227.147 737.295C223.285 739.225 219.063 740.329 214.75 740.537C207.278 740.995 200.677 740.885 200.677 740.885C200.677 740.885 208.354 745.629 229.93 742.221C251.506 738.813 227.147 737.295 227.147 737.295Z" fill="#FFFCF3"/>
<path d="M230.863 758.637C230.863 758.637 241.932 763.381 214.441 765.05C186.77 766.765 153.761 765.05 153.761 765.05C153.761 765.05 174.404 770.055 208.812 768.213C243.22 766.37 239.631 758.787 230.863 758.637Z" fill="#FFFCF3"/>
<path d="M229.044 725.109C229.044 725.109 244.683 724.904 246.976 726.359C249.268 727.814 243.434 729.696 243.434 729.696C243.434 729.696 261.199 728.905 252.818 725.939C245.726 723.441 229.044 725.109 229.044 725.109Z" fill="#F3E7D9"/>
<path d="M143.657 729.174C143.657 729.174 96.1165 730.431 104.56 726.359C109.741 723.904 115.434 722.725 121.164 722.919C121.164 722.919 107.399 725.426 113.344 726.983C119.29 728.541 143.657 729.174 143.657 729.174Z" fill="#F3E7D9"/>
<path d="M562.135 591.846C559.138 599.397 553.675 618.494 558.379 627.824C563.083 637.155 608.054 660.363 622.712 634.601C628.879 623.76 623.337 596.788 618.008 589.236C612.679 581.685 565.147 584.294 562.135 591.846Z" fill="#F7BC4B"/>
<path d="M622.515 598.733L625.021 610.926L617.51 605.613L585.925 610.302L558.917 603.525L591.237 601.548L622.515 598.733Z" fill="#CE9436"/>
<path d="M556.521 618.438C555.897 625.555 555.794 622.297 555.375 651.072C555.011 676.186 554.75 722.611 554.75 722.611C554.75 722.611 558.703 723.235 568.302 724.065C573.836 724.609 579.424 724.115 584.778 722.611C584.778 722.611 585.608 691.953 585.403 670.675C585.316 661.913 594.574 648.993 593.744 632.719C592.914 616.446 557.146 611.345 556.521 618.438Z" fill="#F7BC4B"/>
<path d="M555.58 642.524L555.375 651.072C555.011 676.186 554.75 722.611 554.75 722.611L561.218 723.235L565.803 686.948L555.58 642.524Z" fill="#FEED7F"/>
<path d="M587.901 652.741C587.901 652.741 592.906 699.877 593.325 707.381C593.664 712.432 594.361 717.453 595.412 722.405L607.501 722.824L626.27 722.618C626.27 722.618 623.772 687.581 622.515 676.321C621.258 665.06 631.591 627.832 622.206 619.387C612.822 610.942 586.233 624.796 587.901 652.741Z" fill="#F7BC4B"/>
<path d="M594.368 651.91L596.456 634.182L588.739 658.165L593.949 713.375L595.46 722.397L599.998 722.816L592.495 668.595L594.368 651.91Z" fill="#FEED7F"/>
<path d="M596.242 634.498C596.242 634.498 610.363 630.323 619.06 629.074C619.06 629.074 598.329 630.323 596.242 634.498Z" fill="#CE9436"/>
<path d="M609.801 511.348C611.051 503.006 617.708 496.324 624.396 507.181C631.085 518.038 628.697 522.324 630.959 526.625C632.69 529.907 634.556 538.083 635.188 544.298C636.192 554.293 639.932 563.901 637.323 568.906C633.149 576.814 622.728 568.487 618.143 553.479C613.834 539.372 608.544 519.691 609.801 511.348Z" fill="#7A462F"/>
<path d="M621.06 560.145C621.06 560.145 605.247 565.989 604.378 575.96C603.508 585.931 625.646 576.79 632.318 574.291C638.991 571.793 642.778 555.978 621.06 560.145Z" fill="#7A462F"/>
<path d="M579.963 483.182L582.201 504.358L606.766 505.908L603.753 482.716L579.963 483.182Z" fill="#A96443"/>
<path d="M583.023 483.617L584.731 504.722L606.765 505.908L604.401 482.81L583.023 483.617Z" fill="#7A462F"/>
<path d="M556.838 511.767C565.179 501.962 574.35 497.582 592.7 497.17C611.051 496.759 616.885 499.875 619.392 500.918C621.898 501.962 629.401 508.826 624.396 553.898C621.503 579.929 622.515 598.741 622.515 598.741L585.189 604.371L558.917 603.533C558.917 603.533 548.496 521.565 556.838 511.767Z" fill="#1689CB"/>
<path d="M556.838 511.767C565.179 501.962 574.35 497.582 592.7 497.17L572.476 506.137L581.545 570.915L572.476 589.371L565.297 599.041L567.796 604.047L558.933 603.525C558.933 603.525 548.496 521.565 556.838 511.767Z" fill="#29ABE2"/>
<path d="M566.372 557.749C573.023 557.749 578.414 546.756 578.414 533.196C578.414 519.637 573.023 508.644 566.372 508.644C559.722 508.644 554.331 519.637 554.331 533.196C554.331 546.756 559.722 557.749 566.372 557.749Z" fill="#7A462F"/>
<path d="M574.974 522.608C575.393 518.655 571.219 506.548 564.34 508.011C557.462 509.474 552.038 517.5 551.833 523.344C551.627 529.187 555.865 539.341 554.331 555.764C552.876 571.405 553.185 576.197 556.316 579.328C559.446 582.46 571.116 583.282 574.034 573.074C576.951 562.865 574.555 526.57 574.974 522.608Z" fill="#7A462F"/>
<path d="M557.146 529.599C557.565 525.646 571.219 506.549 564.34 508.012C557.462 509.475 552.038 517.501 551.833 523.345C551.627 529.188 555.865 539.341 554.331 555.765C552.876 571.406 553.185 576.198 556.316 579.329C559.446 582.46 562.775 557.473 562.775 557.473C562.775 557.473 556.727 533.561 557.146 529.599Z" fill="#A96443"/>
<path d="M538.542 624.242C538.542 624.242 541.207 632.023 542.495 635.613C543.784 639.203 539.602 645.45 535.514 633.241C531.498 621.34 538.542 624.242 538.542 624.242Z" fill="#A96443"/>
<path d="M542.756 618.438C542.756 618.438 539.594 626.883 538.384 630.299C537.175 633.715 538.384 640.002 538.384 642.501C538.384 644.999 540.574 649.38 537.752 649.38C536.933 649.385 536.123 649.22 535.371 648.898C534.618 648.576 533.941 648.102 533.38 647.506L529.308 646.881L527.434 642.184C527.434 642.184 524.936 641.876 524.619 639.686C524.303 637.495 521.805 634.996 522.429 629.675C523.054 624.353 529.308 615.283 533.063 613.409C536.819 611.535 542.756 618.438 542.756 618.438Z" fill="#7A462F"/>
<path d="M559.336 568.701C556.916 569.342 554.671 570.517 552.766 572.14C549.327 574.955 539.633 600.923 533.688 613.117C529.814 621.072 537.127 626.883 545.887 617.814C554.647 608.744 571.187 584.025 572.769 576.83C574.35 569.634 567.471 565.886 559.336 568.701Z" fill="#7A462F"/>
<path d="M561.004 568.179C558.027 568.947 555.228 570.29 552.766 572.133C549.327 574.948 539.634 600.916 533.688 613.109C529.814 621.064 550.576 580.578 550.576 580.578L561.004 568.179Z" fill="#A96443"/>
<path d="M605.737 445.63C605.737 445.63 578.066 432.812 572.049 447.789C566.586 461.46 567.226 478.026 567.882 482.81C568.594 487.958 573.939 488.441 578.951 488.86C583.782 489.271 603.192 490.156 605.318 482.376C607.445 474.595 614.245 452.114 605.737 445.63Z" fill="#A96443"/>
<path d="M606.844 445.44C606.844 445.44 581.955 435.556 574.666 447.496C567.376 459.436 570.159 476.295 570.784 480.857C571.456 485.76 578.342 487.523 583.11 487.927C587.711 488.306 602.765 491.73 604.797 484.321C606.828 476.912 614.94 451.616 606.844 445.44Z" fill="#7A462F"/>
<path d="M572.713 444.736C572.713 444.736 574.666 446.318 583.734 447.441L588.478 466.703C588.478 466.703 586.826 471.661 587.142 474.144C587.458 476.627 593.088 490.077 593.088 490.077C593.088 490.077 607.54 492.141 609.351 486.74C611.161 481.34 615.083 457.523 613.304 448.548C611.525 439.573 581.94 440.284 578.809 440.284C573.029 440.284 572.713 444.736 572.713 444.736Z" fill="#273252"/>
<path d="M582.446 464.442C582.446 464.442 585.798 454.953 590.811 457.325C595.823 459.697 591.15 474.326 584.794 473.646C578.437 472.966 582.446 464.442 582.446 464.442Z" fill="#7A462F"/>
<path d="M584.794 474.65C585.811 474.65 586.636 473.811 586.636 472.776C586.636 471.741 585.811 470.902 584.794 470.902C583.776 470.902 582.952 471.741 582.952 472.776C582.952 473.811 583.776 474.65 584.794 474.65Z" fill="#F3E7D9"/>
<path d="M572.729 458.282C572.247 459.602 571.329 460.456 570.689 460.211C570.049 459.966 569.898 458.717 570.373 457.396C570.847 456.076 571.78 455.174 572.436 455.419C573.093 455.664 573.203 456.953 572.729 458.282Z" fill="#1D2538"/>
<path d="M572.492 450.975L575.528 452.976" stroke="#1D2538" stroke-linecap="round" stroke-linejoin="round"/>
<path d="M193.6 686.948L190.264 721.567L171.495 722.816C171.495 722.816 176.08 687.359 193.6 686.948Z" fill="#1D2538"/>
<path d="M195.791 693.622L200.376 715.304L199.538 725.734H225.328L226.577 706.551C226.577 706.551 227.305 690.807 227.202 684.758C227.099 678.709 195.791 693.622 195.791 693.622Z" fill="#1D2538"/>
<path d="M210.069 569.12C219.454 574.536 221.747 585.488 222.166 588.406C222.585 591.324 221.541 601.437 210.907 614.682C203.199 624.282 173.685 629.706 178.689 581.527C180.263 566.17 200.693 563.695 210.069 569.12Z" fill="#F7BC4B"/>
<path d="M207.776 611.559C211.532 620.312 227.171 659.415 229.044 670.074C230.918 680.733 234.262 701.355 234.262 701.355C234.262 701.355 197.767 704.518 174.001 699.481C150.235 694.444 148.037 691.345 148.037 691.345C148.037 691.345 165.557 649.119 172.436 625.658C179.314 602.197 204.021 602.798 207.776 611.559Z" fill="#F7BC4B"/>
<path d="M204.021 616.873C205.855 621.143 216.331 657.121 216.331 657.121L212.157 659.834C212.157 659.834 212.077 671.402 212.576 674.225L215.438 702.115C215.438 702.115 197.767 704.487 174.001 699.458C150.235 694.429 148.037 691.321 148.037 691.321C148.037 691.321 165.557 649.095 172.436 625.634C179.314 602.173 200.273 608.08 204.021 616.873Z" fill="#CE9436"/>
<path d="M249.49 668.176L251.917 672.58C251.917 672.58 252.376 673.031 252.834 676.075C253.293 679.12 255.997 678.203 255.72 674.399C256.341 674.926 256.813 675.608 257.088 676.376C257.238 677.285 258.756 680.021 259.365 675.767C259.973 671.513 253.743 665.598 249.49 668.176Z" fill="#CC6D3D"/>
<path d="M241.971 667.132C243.008 668.325 243.952 669.597 244.793 670.936C245.26 671.979 246.912 674.707 248.13 673.498C248.644 672.976 248.019 671.125 247.608 669.22L246.351 663.376C246.351 663.376 241.346 663.59 241.971 667.132Z" fill="#CC6D3D"/>
<path d="M237.188 665.986C237.188 665.986 239.062 671.307 243.861 671.521C248.66 671.734 249.332 670.54 250.739 670.896C254.429 671.775 257.639 674.04 259.705 677.222C259.705 677.222 261.476 678.369 261.167 676.597C260.949 675.18 260.81 673.752 260.748 672.319L259.238 668.619C259.238 668.619 251.419 661.581 248.17 661.502C243.117 661.344 237.702 661.921 237.188 665.986Z" fill="#F5894E"/>
<path d="M239.315 668.555C237.148 667.314 219.549 640.88 214.015 632.181C208.48 623.483 208.369 619.205 211.532 616.042C214.694 612.879 222.316 611.67 225.708 618.122C235.251 636.27 242.604 651.491 244.058 659.628C245.039 665.076 244.849 671.718 239.315 668.555Z" fill="#F5894E"/>
<path d="M234.262 661.502C234.262 661.502 219.549 640.88 214.015 632.181C208.48 623.483 208.369 619.205 211.532 616.042C212.473 616.564 223.107 635.02 223.107 635.02L234.262 661.502Z" fill="#CC6D3D"/>
<path d="M221.328 600.172C225.281 623.531 224.3 624.954 218.205 628.117C212.109 631.28 206.527 628.536 205.657 600.718C205.333 590.422 219.114 587.149 221.328 600.172Z" fill="#F5894E"/>
<path d="M216.537 600.401C216.537 600.401 218.671 617.086 218.908 626.259C219.011 630.742 216.276 629.722 214.528 629.698C213.611 629.698 206.535 628.75 205.681 600.734C205.341 590.422 214.323 587.354 216.537 600.401Z" fill="#CC6D3D"/>
<path d="M211.184 565.941C215.928 565.15 218.679 567.594 219.881 577.802C220.798 585.149 221.326 592.54 221.462 599.943L205.65 602.315C205.65 602.315 204.068 589.663 204.068 581.756C204.068 573.848 206.44 566.732 211.184 565.941Z" fill="#EE5D4F"/>
<path d="M211.184 565.941C215.928 565.15 214.244 583.923 214.244 583.923L216.537 600.813L205.65 602.315C205.65 602.315 204.068 589.663 204.068 581.756C204.068 573.849 206.44 566.732 211.184 565.941Z" fill="#C94039"/>
<path d="M197.562 564.114C211.738 562.446 217.999 568.282 217.999 568.282C219.256 569.958 212.228 574.608 209.026 581.835C206.606 587.37 208.124 595.594 207.152 597.895C204.187 604.932 206.796 620.186 207.571 630.426C210.907 674.644 202.772 687.573 202.147 698.833C201.523 710.093 205.982 756.944 184.635 763.27C184.635 763.27 124.642 761.151 104.877 754.825C104.877 754.825 130.833 727.608 130.833 706.337C130.833 685.066 150.322 672.28 155.856 640.65C158.102 627.817 163.992 590.913 163.367 582.46C162.743 574.007 183.425 565.783 197.562 564.114Z" fill="#29ABE2"/>
<path d="M197.562 564.114C211.738 562.446 217.999 568.282 217.999 568.282C219.257 569.958 212.228 574.608 209.026 581.835C206.607 587.37 180.88 620.629 180.88 620.629L156.481 690.696L130.833 706.337C130.833 685.066 150.322 672.28 155.856 640.65C158.102 627.817 163.992 590.913 163.367 582.46C162.743 574.007 183.425 565.783 197.562 564.114Z" fill="#1689CB"/>
<path d="M200.874 561.236C200.874 561.236 209.002 565.981 209.808 570.725C210.615 575.469 186.192 602.307 182.137 605.012C178.081 607.716 154.567 586.959 150.512 582.871C146.456 578.783 154.512 574.007 158.576 568.637C162.64 563.268 178.935 556.508 200.874 561.236Z" fill="#29ABE2"/>
<path d="M202.487 561.497L178.871 582.112C178.871 582.112 157.793 583.353 157.034 581.4C156.275 579.447 164.94 567.356 164.94 567.356C164.94 567.356 180.547 556.761 202.487 561.497Z" fill="#1689CB"/>
<path d="M198.827 564.771C198.827 564.771 170.712 564.771 167.138 567.744C163.565 570.717 159.738 578.474 158.442 580.609C157.145 582.744 171.843 583.219 175.701 582.934C179.559 582.649 198.827 564.771 198.827 564.771Z" fill="#992C29"/>
<path d="M186.303 525.052C187.884 520.307 199.744 516.63 208.401 524.071C215.912 530.532 218.861 547.003 215.698 554.12C212.536 561.236 202.503 561.331 193.806 559.75C185.109 558.168 184.722 529.796 186.303 525.052Z" fill="#F5894E"/>
<path d="M184.216 525.052C185.797 520.307 197.656 516.63 206.353 524.071C213.856 530.532 216.813 547.003 213.651 554.12C210.488 561.236 200.447 561.331 191.75 559.75C183.054 558.168 182.635 529.796 184.216 525.052Z" fill="#CC6D3D"/>
<path d="M194.494 518.196C194.494 518.196 198.447 518.093 200.115 521.217C201.783 524.34 204.448 536.13 196.723 543.452C196.692 543.452 199.412 525.977 194.494 518.196Z" fill="#F7BC4B"/>
<path d="M188.96 516.354C183.898 515.969 178.808 516.505 173.938 517.935C166.031 520.307 157.335 529.796 160.497 536.122C163.66 542.448 166.822 543.239 166.822 543.239C166.822 543.239 161.288 540.076 158.125 547.983C154.963 555.891 165.241 559.054 165.241 559.054C165.241 559.054 162.078 565.38 169.985 568.543C177.891 571.706 188.96 566.17 188.96 566.17C188.96 566.17 210.915 568.377 209.026 554.626C207.136 540.875 195.285 545.24 195.285 545.24C195.285 545.24 199.554 526.365 197.372 521.565C195.19 516.765 188.96 516.354 188.96 516.354Z" fill="#273252"/>
<path d="M186.872 516.773C181.811 516.388 176.721 516.924 171.85 518.354C163.944 520.726 155.247 530.215 158.41 536.541C161.572 542.867 164.735 543.658 164.735 543.658C164.735 543.658 159.2 540.495 156.038 548.402C152.875 556.31 163.154 559.473 163.154 559.473C163.154 559.473 159.991 565.799 167.897 568.962C175.804 572.125 186.872 566.59 186.872 566.59C186.872 566.59 208.828 568.796 206.946 555.037C205.065 541.278 193.182 545.651 193.182 545.651C193.182 545.651 197.459 526.784 195.269 521.984C193.079 517.184 186.872 516.773 186.872 516.773Z" fill="#1D2538"/>
<path d="M200.028 538.494C200.028 538.494 197.656 533.75 193.703 536.913C189.75 540.076 192.913 546.402 198.447 546.402C203.981 546.402 200.028 538.494 200.028 538.494Z" fill="#CC6D3D"/>
<path d="M193.498 524.261C193.498 524.261 201.609 518.267 201.309 514.772C201.009 511.277 193.664 512.629 193.086 514.1C193.086 514.1 201.823 504.785 195.933 502.476C190.043 500.167 186.168 512.242 185.338 518.71C184.508 525.178 193.498 524.261 193.498 524.261Z" fill="#273252"/>
<path d="M190.991 524.261C190.991 524.261 199.127 518.244 198.811 514.725C198.494 511.206 191.157 512.582 190.58 514.053C190.58 514.053 199.325 504.738 193.434 502.429C187.544 500.12 183.67 512.194 182.84 518.663C182.01 525.131 190.991 524.261 190.991 524.261Z" fill="#1D2538"/>
<path d="M210.684 533.287C211.209 533.138 211.357 532.036 211.015 530.826C210.672 529.616 209.969 528.756 209.444 528.904C208.918 529.053 208.77 530.155 209.113 531.365C209.456 532.575 210.159 533.435 210.684 533.287Z" fill="#273252"/>
<path d="M207.508 526.277C207.101 526.316 206.721 526.495 206.433 526.784C206.144 527.072 205.965 527.453 205.927 527.859" stroke="#273252" stroke-width="0.75" stroke-miterlimit="10"/>
<defs>
<linearGradient id="paint0_linear_30_5825" x1="213.572" y1="788.432" x2="209.436" y2="709.824" gradientUnits="userSpaceOnUse">
<stop stop-color="white"/>
<stop offset="0.35" stop-color="#F3E7D9"/>
<stop offset="0.59" stop-color="#F3E7D9"/>
</linearGradient>
<linearGradient id="paint1_linear_30_5825" x1="6324.82" y1="39944.1" x2="6129.41" y2="37363.5" gradientUnits="userSpaceOnUse">
<stop stop-color="white"/>
<stop offset="0.35" stop-color="#F3E7D9"/>
<stop offset="0.59" stop-color="#F3E7D9"/>
</linearGradient>
<linearGradient id="paint2_linear_30_5825" x1="570.381" y1="798.727" x2="568.507" y2="721.772" gradientUnits="userSpaceOnUse">
<stop stop-color="white"/>
<stop offset="1" stop-color="#F3E7D9"/>
</linearGradient>
<linearGradient id="paint3_linear_30_5825" x1="610.711" y1="783.482" x2="611.019" y2="727.173" gradientUnits="userSpaceOnUse">
<stop stop-color="white"/>
<stop offset="0.33" stop-color="#F3E7D9"/>
</linearGradient>
</defs>
</svg>
