<svg width="242" height="272" viewBox="0 0 242 272" fill="none" xmlns="http://www.w3.org/2000/svg">
<path d="M94.1708 101.751C94.1708 101.751 81.4053 88.2513 92.1768 72.7641C102.948 57.277 124.887 42.5878 152.412 48.5422C179.937 54.4967 178.74 90.6325 177.144 95.3976C177.144 95.3976 187.116 85.0745 199.484 98.5743C211.848 112.074 188.314 143.841 188.314 143.841C188.314 143.841 203.87 135.503 205.866 141.46C207.86 147.417 135.26 198.242 121.3 205.785C121.3 205.785 127.683 193.873 114.917 202.212C102.152 210.55 103.747 215.712 84.2009 222.86C64.6544 230.009 39.5242 243.11 35.5362 243.11C31.5482 243.11 46.706 226.434 55.481 220.08C64.2561 213.727 68.6448 211.742 68.6448 211.742C68.6448 211.742 52.688 194.669 66.2526 181.962C79.8146 169.255 84.6017 176.8 84.6017 176.8C84.6017 176.8 57.0767 139.874 97.3672 137.49C97.3672 137.49 79.5626 135.42 82.2094 118.034C84.1984 104.925 94.1708 101.751 94.1708 101.751Z" fill="#F3E7D9"/>
<path d="M24.498 134.442L37.261 147.678L53.0843 130.206L24.498 134.442Z" fill="#665070"/>
<path d="M53.0845 130.206L30.8457 141.011L30.8785 147.678L53.0845 130.206Z" fill="#856792"/>
<path d="M38.625 48.4595L61.6604 59.2292L79.8104 38.3848L38.625 48.4595Z" fill="#856792"/>
<path d="M79.8103 38.3848L52.8575 60.8527L48.9805 53.5934L79.8103 38.3848Z" fill="#BB83C3"/>
<path d="M164.379 34.8442L194.495 27.1006L182.128 41.9906L164.379 34.8442Z" fill="#856792"/>
<path d="M194.496 27.1006L172.756 38.6156L174.152 46.161L194.496 27.1006Z" fill="#BB83C3"/>
<path d="M77.418 216.901L99.4904 209.489L88.3206 224.577L77.418 216.901Z" fill="#856792"/>
<path d="M99.4909 209.489L82.1602 220.173L82.2534 224.916L99.4909 209.489Z" fill="#665070"/>
<path d="M138.273 112.438C134.363 112.92 125.26 121.818 118.918 129.285C110.71 138.946 100.548 149.269 96.2781 151.444C90.9844 154.144 85.078 157.622 82.5547 157.753C82.5547 157.753 94.8841 169.529 99.8678 173.468C104.851 177.408 101.892 169.167 108.277 173.032C114.663 176.896 125.777 188.712 125.777 188.712C125.777 188.712 131.113 186.838 138.764 179.084C148.759 168.957 163.242 125.863 160.522 118.636C157.802 111.409 141.958 111.221 138.273 112.438Z" fill="#992C29"/>
<path d="M103.287 173.717C103.604 173.202 108.666 166.101 110.438 164.144C112.21 162.187 98.7617 172.585 98.7617 172.585C98.7617 172.585 100.297 174.063 101.514 174.462C102.656 174.836 102.969 174.231 103.287 173.717Z" fill="#C94039"/>
<path d="M152.48 118.934C152.48 118.934 162.377 117.725 166.75 115.454C171.124 113.183 167.411 95.9246 157.937 94.8857C147.113 93.6963 135.323 101.033 128.998 106.496C122.673 111.959 126.429 118.315 136.934 120.106C147.587 121.926 152.48 118.934 152.48 118.934Z" fill="#29ABE2"/>
<path d="M129.332 112.957C130.109 118.556 148.43 116.322 154.004 115.557C159.577 114.792 163.467 109.633 162.69 104.034C161.914 98.4363 156.767 94.5193 151.19 95.2871C145.614 96.055 128.556 107.359 129.332 112.957Z" fill="#992C29"/>
<path d="M123.091 105.324C123.091 105.324 120.497 104.928 118.105 103.34C115.713 101.751 114.364 97.2847 114.515 96.3914C114.752 94.9787 118.503 91.4281 120.301 91.6263C122.096 91.8245 125.685 97.5833 125.685 100.361C125.683 103.139 124.886 105.126 123.091 105.324Z" fill="#FFFCF3"/>
<path d="M119.566 101.852C119.566 101.852 119.566 105.919 121.999 108.157C124.432 110.396 132.536 112.022 136.789 108.157C141.041 104.293 140.842 98.5971 140.842 98.5971L136.181 100.632C136.181 100.632 123.822 97.5808 122.402 97.5808C120.983 97.5808 119.566 101.852 119.566 101.852Z" fill="#FFFCF3"/>
<path d="M120.797 101.154L123.091 98.9709L125.183 104.032L120.797 101.154Z" fill="#F6BE4A"/>
<path d="M119.071 100.433C119.281 100.344 119.364 100.07 119.257 99.8214C119.149 99.5731 118.892 99.4446 118.683 99.5344C118.473 99.6242 118.39 99.8982 118.497 100.146C118.604 100.395 118.861 100.523 119.071 100.433Z" fill="#1D2538"/>
<path d="M122.858 97.8502C123.066 97.7583 123.14 97.4744 123.024 97.2161C122.909 96.9579 122.647 96.823 122.44 96.9149C122.233 97.0068 122.158 97.2907 122.274 97.549C122.389 97.8072 122.651 97.9421 122.858 97.8502Z" fill="#1D2538"/>
<path d="M128.762 101.319C130.696 108.659 136.877 109.332 143.9 109.492C148.122 109.588 152.183 107.487 154.442 104.198C155.939 102.015 156.643 99.3121 156.068 96.3788C154.631 89.0266 145.576 84.9139 138.553 84.7559C131.53 84.5928 126.685 93.4354 128.762 101.319Z" fill="#273252"/>
<path d="M139.103 89.7263C139.477 87.5505 136.758 85.2714 133.03 84.6358C129.302 84.0002 125.976 85.2488 125.602 87.4246C125.227 89.6005 127.946 91.8796 131.674 92.5152C135.403 93.1508 138.728 91.9021 139.103 89.7263Z" fill="#273252"/>
<path d="M140.306 86.9412C141.515 85.4925 140.197 82.4179 137.362 80.0739C134.528 77.7299 131.25 77.004 130.041 78.4527C128.832 79.9013 130.149 82.9759 132.984 85.32C135.819 87.664 139.097 88.3898 140.306 86.9412Z" fill="#273252"/>
<path d="M155.037 96.0255C157.437 93.9173 157.083 89.6147 154.247 86.4153C151.41 83.2159 147.165 82.3313 144.765 84.4395C142.365 86.5477 142.719 90.8503 145.556 94.0497C148.392 97.2491 152.637 98.1337 155.037 96.0255Z" fill="#273252"/>
<path d="M163.876 99.0244C164.207 94.4617 160.722 90.4928 156.091 90.1595C151.46 89.8263 147.437 93.255 147.106 97.8177C146.774 102.38 150.26 106.349 154.891 106.683C159.522 107.016 163.545 103.587 163.876 99.0244Z" fill="#273252"/>
<path d="M157.745 90.5821C159.092 86.052 155.38 80.9643 149.453 79.2185C143.527 77.4726 137.631 79.7297 136.285 84.2598C134.938 88.79 138.65 93.8776 144.576 95.6235C150.502 97.3693 156.398 95.1122 157.745 90.5821Z" fill="#273252"/>
<path d="M129.405 101.191C131.014 107.176 138.432 108.81 144.16 108.907C147.603 108.965 150.043 107.64 151.868 104.945C153.081 103.156 152.128 99.4199 151.649 97.0261C150.447 91.029 144.407 86.8561 138.679 86.7582C132.952 86.6604 127.678 94.7628 129.405 101.191Z" fill="#48598B"/>
<path d="M138.986 90.1287C139.308 88.2589 136.971 86.3002 133.767 85.754C130.563 85.2078 127.705 86.2808 127.383 88.1507C127.062 90.0206 129.398 91.9792 132.602 92.5254C135.806 93.0716 138.664 91.9986 138.986 90.1287Z" fill="#48598B"/>
<path d="M139.892 87.1692C140.716 86.1821 139.817 84.0862 137.884 82.4878C135.951 80.8894 133.716 80.3938 132.892 81.3809C132.068 82.368 132.967 84.4639 134.9 86.0623C136.833 87.6607 139.068 88.1563 139.892 87.1692Z" fill="#48598B"/>
<path d="M153.347 97.4446C155.409 95.6335 154.647 91.4201 151.644 88.0337C148.642 84.6473 144.537 83.3702 142.475 85.1813C140.414 86.9924 141.176 91.2058 144.178 94.5922C147.181 97.9786 151.286 99.2557 153.347 97.4446Z" fill="#48598B"/>
<path d="M160.32 99.3561C160.605 95.4348 157.609 92.0237 153.63 91.7374C149.65 91.451 146.193 94.3978 145.908 98.3191C145.623 102.24 148.619 105.652 152.598 105.938C156.578 106.224 160.035 103.278 160.32 99.3561Z" fill="#48598B"/>
<path d="M155.459 91.2437C156.616 87.3501 153.427 82.9777 148.335 81.4777C143.244 79.9777 138.178 81.918 137.02 85.8116C135.862 89.7052 139.051 94.0776 144.143 95.5776C149.235 97.0777 154.301 95.1373 155.459 91.2437Z" fill="#48598B"/>
<path d="M120.221 171.852C120.221 171.852 120.848 175.037 137.93 177.325C144.9 178.258 151.741 177.89 157.214 177.731C161.819 177.598 170.347 176.01 174.25 174.695C178.127 173.39 181.595 170.558 172.667 164.006C163.72 157.444 124.708 160.212 120.221 171.852Z" fill="#EE5D4F"/>
<path d="M165.016 182.982C165.182 185.902 164.779 193.124 160.884 193.516C157.062 193.899 154.653 191.039 153.143 186.723C150.99 180.573 141.776 151.681 151.504 150.366C161.232 149.051 162.323 153.34 163.712 158.948C165.099 164.554 164.708 177.574 165.016 182.982Z" fill="#273252"/>
<path opacity="0.4" d="M164.801 187.809C164.695 188.426 161.887 184.042 161.887 184.042C161.887 184.042 161.577 174.495 160.024 173.506C154.566 169.499 149.825 171.983 149.825 171.983C147.137 162.332 145.363 151.194 151.504 150.363C161.231 149.048 162.323 153.337 163.712 158.945C164.519 162.199 164.725 167.95 164.816 173.263C164.882 177.102 165.338 184.657 164.801 187.809Z" fill="#273252"/>
<path d="M168.764 194.268C173.41 208.136 174.683 219.726 176.042 236.689C176.581 243.419 172.457 242.518 171.056 237.477C169.226 230.9 163.813 217.23 157.771 198.528C155.936 193.866 165.399 184.22 168.764 194.268Z" fill="#CC6D3D"/>
<path d="M166.215 193.309C171.955 208.033 172.552 217.383 173.727 232.019C173.843 233.46 174.007 234.614 173.893 235.59C173.634 237.811 171.337 238.885 170.427 235.615C168.849 229.939 162.97 214.924 157.76 198.789C156.174 194.764 162.895 184.79 166.215 193.309Z" fill="#F5894E"/>
<path d="M166.872 190.23C166.131 189.011 163.559 183.28 156.367 184.983C154.371 185.455 154.399 189.181 156.468 195.326C157.903 199.59 158.321 200.596 158.452 200.922C158.452 200.922 163.968 197.71 169.962 197.74C169.962 197.74 168.598 193.076 166.872 190.23Z" fill="#273252"/>
<g opacity="0.4">
<path opacity="0.4" d="M163.846 187.121C163.846 187.121 165.033 187.089 166.435 189.628C168.091 192.631 169.928 197.71 169.928 197.71" fill="#273252"/>
</g>
<path opacity="0.4" d="M158.379 190.83C158.379 190.83 161.931 191.267 163.105 189.839C163.105 189.839 162.664 192.162 161.442 192.662C160.219 193.161 159.002 191.979 159.002 191.979L160.116 191.796L158.379 190.83Z" fill="#273252"/>
<path d="M171.298 238.799C171.581 243.697 171.81 249.963 182.279 249.318C187.59 248.992 181.379 242.548 179.597 240.177C179.597 240.177 176.476 236.275 176.227 235.665C175.589 234.11 173.098 233.603 171.581 236.619C170.797 238.177 171.258 238.089 171.298 238.799Z" fill="#CC6D3D"/>
<path d="M169.994 240.724C169.785 241.572 169.944 242.847 171.111 243.677C173.569 245.421 177.592 247.04 181.739 246.824C186.947 246.55 176.543 244.036 175.674 242.779C174.801 241.522 174.61 236.24 173.949 234.571C173.178 232.619 172.944 234.057 172.026 235.502C171.108 236.948 170.229 239.77 169.994 240.724Z" fill="#F5894E"/>
<path d="M170.961 236.782C170.961 236.782 170.792 236.905 171.639 238.744C174.835 245.687 176.63 245.84 181.031 246.041C183.93 246.174 179.708 240.315 179.708 240.315L176.459 236.119C176.459 236.119 179.36 238.895 181.851 242.026C183.381 243.951 185.246 245.607 185.879 246.771C186.993 248.495 188.181 251.235 186.744 251.469C181.924 252.244 175.67 250.696 174.528 250.041C173.386 249.386 173.335 247.737 171.946 245.943C171.419 245.263 169.625 243.933 169.562 243.341C169.544 241.818 169.496 241.309 169.935 239.514C170.401 237.612 170.961 236.782 170.961 236.782Z" fill="#992C29"/>
<path d="M139.733 231.422C140.764 234.659 139.993 235.306 139.141 236.393C132.826 244.453 131.082 241.555 130.033 242.119C126.539 243.999 126.206 239.733 127.777 238.757C129.287 237.816 131.636 234.2 133.509 232.318C134.384 231.437 134.427 230.915 135.67 230.684C136.968 230.441 139.3 230.055 139.733 231.422Z" fill="#F5894E"/>
<path d="M139.928 235.5C136.664 245.419 128.451 243.326 126.823 242.671C126.15 242.4 130.138 237.422 130.138 237.422C130.138 237.422 134.854 235.899 137.377 234.621C140.022 233.281 140.899 232.554 139.928 235.5Z" fill="#CC6D3D"/>
<path d="M139.999 231.538C139.702 231.051 139.661 231.282 139.593 231.65C139.066 234.506 138.892 235.648 136.752 238.19C136.024 239.055 136.14 240.9 129.696 241.555C126.964 241.833 130.138 237.422 130.138 237.422L133.707 232.075L132.626 233.244C132.626 233.244 128.381 238.476 126.674 239.723C125.003 240.942 123.281 246.453 124.945 246.52C129.187 246.696 133.188 246.044 136.505 245.06C138.048 244.513 138.809 241.193 139.402 240.947C139.402 240.947 140.985 239.683 140.957 238.804C140.927 237.961 140.418 232.22 139.999 231.538Z" fill="#992C29"/>
<path d="M130.904 190.004C130.904 190.004 127.282 170.929 130.415 160.975C132.29 155.018 136.334 153.72 140.781 153.633C145.227 153.545 146.316 156.972 145.853 160.729C145.389 164.485 143.362 185.006 142.041 189.748C140.624 194.845 137.289 194.656 135.152 194.757C132.664 194.875 131.63 193.63 130.904 190.004Z" fill="#273252"/>
<path opacity="0.4" d="M137.793 174.848C136.054 173.82 129.217 173.616 129.217 173.616C129.053 169.175 129.285 164.56 130.412 160.975C132.287 155.018 136.331 153.72 140.778 153.633C145.224 153.545 146.313 156.972 145.85 160.729C145.648 162.36 145.151 167.15 144.546 172.437C144.546 172.437 143.092 184.833 142.399 187.698C142.235 187.626 141.557 184.727 140.503 180.118C139.807 178.524 139.532 175.877 137.793 174.848Z" fill="#273252"/>
<path opacity="0.4" d="M132.195 192.2C132.195 192.2 135.389 191.914 136.617 191.149C137.842 190.383 134.489 195.469 132.195 192.2Z" fill="#273252"/>
<path d="M142.038 193.741C146.097 205.052 143.009 210.64 139.646 231.721C139.336 233.665 135.482 235.231 134.319 232.388C134.128 231.917 134.153 230.998 134.098 229.952C133.692 222.221 130.616 203.208 131.504 195.735C132.187 189.974 140.037 188.165 142.038 193.741Z" fill="#F5894E"/>
<path d="M143.883 200.997C144.055 202.935 144.11 205.768 143.541 209.742C142.689 215.694 141.048 223.197 140.861 224.494C140.553 226.655 139.636 231.972 139.379 233.314C139.217 234.155 136.734 235.153 136.734 235.153C136.734 235.153 138.093 230.577 138.401 229.41C139.036 226.991 141.879 209.93 142.288 201.419C142.338 200.433 143.71 199.035 143.883 200.997Z" fill="#CC6D3D"/>
<path d="M142.777 191.517C141.252 187.603 139.414 186.828 136.248 186.915C133.581 186.991 131.337 186.956 131.405 193.209C131.451 197.286 131.448 200.26 131.34 201.948C131.34 201.948 134.715 200.368 143.947 201.341C143.949 201.344 143.788 194.112 142.777 191.517Z" fill="#273252"/>
<path opacity="0.4" d="M142.778 191.517C142.463 190.75 142.543 193.434 142.543 193.434L142.273 201.206C142.273 201.206 142.647 201.208 143.947 201.344C143.95 201.344 143.962 196.664 142.778 191.517Z" fill="#273252"/>
<path d="M128.069 121.963C128.069 121.963 122.72 131.099 121.578 133.072C119.45 136.745 122.621 139.096 125.193 137.44C127.764 135.784 133.534 127.34 134.671 125.316C135.805 123.291 130.844 119.446 128.069 121.963Z" fill="#CC6D3D"/>
<path d="M137.992 114.403C136.618 113.309 132.912 114.694 130.409 118.265C127.636 122.219 126.867 123.966 126.867 123.966C126.867 123.966 129.312 123.79 130.394 125.027C132.153 127.037 133.447 129.22 133.447 129.22C133.447 129.22 136.285 124.904 137.876 121.963C139.353 119.233 139.766 115.818 137.992 114.403Z" fill="#C94039"/>
<path d="M139.799 138.007C144.009 141.967 155.552 137.041 155.845 133.059C155.968 131.365 156.376 127.421 157.793 120.192C158.68 115.67 158.791 114.197 158.259 113.595C156.865 112.014 151.909 111.685 146.827 111.186C138.446 110.363 137.957 112.373 135.418 116.363C132.323 121.228 131.521 130.219 139.799 138.007Z" fill="#F7BC4B"/>
<path d="M152.277 121.604C156.487 125.564 155.643 136.108 155.935 132.126C156.059 130.432 156.376 127.423 157.793 120.194C158.68 115.672 158.791 114.2 158.259 113.597C156.865 112.016 153.77 108.9 146.459 109.653C138.08 110.516 137.412 113.525 134.725 117.7C131.606 122.545 143.999 113.813 152.277 121.604Z" fill="#CE9436"/>
<path d="M136.354 119.022C134.766 119.991 133.559 121.143 133.559 121.143C133.559 121.143 133.745 119.05 135.086 116.93C136.097 115.331 145.028 116.839 145.028 116.839C145.028 116.839 137.363 118.408 136.354 119.022Z" fill="#CE9436"/>
<path d="M146.26 115.996L146.913 116.006C148.4 116.029 149.622 114.844 149.645 113.366L149.718 108.408C149.741 106.928 148.551 105.711 147.066 105.688L146.413 105.678C144.926 105.656 143.704 106.84 143.681 108.318L143.608 113.276C143.585 114.757 144.772 115.974 146.26 115.996Z" fill="#F5894E"/>
<path d="M146.168 110.559L147.214 110.574C148.593 110.594 149.727 109.497 149.747 108.125L149.825 102.775C149.846 101.402 148.744 100.273 147.365 100.253L146.319 100.238C144.94 100.218 143.806 101.314 143.785 102.687L143.707 108.037C143.687 109.409 144.789 110.538 146.168 110.559Z" fill="#CC6D3D"/>
<path d="M165.745 122.217C167.764 125.993 170.232 130.906 170.927 132.126C171.689 133.458 172.178 138.13 170.38 139.277C168.583 140.424 165.944 137.132 164.973 136.208C164.003 135.287 160.189 129.263 158.797 126.073C157.706 123.569 157.932 120.663 159.266 119.838C160.599 119.01 163.725 118.44 165.745 122.217Z" fill="#F5894E"/>
<path d="M165.746 122.217C167.765 125.993 170.241 130.901 170.929 132.126C171.274 132.738 171.262 133.112 171.254 133.543C171.246 133.975 172.131 137.036 171.458 136.396C170.926 135.892 166.737 127.875 165.111 124.151C163.775 121.082 164.833 120.51 165.746 122.217Z" fill="#CC6D3D"/>
<path d="M156.114 113.78C158.101 112.842 161.025 113.645 163.503 118.152C164.804 120.518 166.596 123.685 166.596 123.685C166.596 123.685 163.425 124.545 159.56 127.581C159.56 127.581 157.952 125.132 156.742 122.831C154.196 117.989 154.564 114.513 156.114 113.78Z" fill="#EC5E4D"/>
<path d="M156.116 113.78C158.102 112.842 161.026 113.645 163.504 118.152C164.805 120.518 166.597 123.685 166.597 123.685L165.175 124.154L161.752 121.86L155.906 120.927C154.18 116.887 154.734 114.433 156.116 113.78Z" fill="#C94039"/>
<path d="M159.184 122.189C159.184 122.189 162.728 122.498 164.051 123.112C165.372 123.727 165.115 124.151 165.115 124.151L159.184 122.189Z" fill="#C94039"/>
<path d="M165.336 167.702C165.336 167.702 168.001 166.375 167.197 164.681C166.392 162.987 164.104 162.842 164.104 162.842L165.336 167.702Z" fill="#C93F37"/>
<path d="M156.485 135.42C156.485 135.42 172.528 158.892 173.635 161.958C174.744 165.032 178.487 169.032 178.286 170.628C177.25 167.559 167.141 168.327 165.336 167.704C165.336 167.704 169.082 165.366 165.992 164.179C162.901 162.992 155.79 162.711 151.608 162.688C139.122 162.626 124.617 164.688 120.203 172.025C120.203 172.025 128.101 137.403 138.129 130.061C147.957 122.859 156.485 135.42 156.485 135.42Z" fill="#F7BC4B"/>
<path d="M156.485 135.42C156.485 135.42 172.528 158.892 173.635 161.958C174.744 165.032 178.487 169.032 178.286 170.628C177.25 167.559 167.141 168.327 165.336 167.705C165.336 167.705 169.082 165.366 165.992 164.179C162.901 162.992 155.79 162.711 151.608 162.689C139.122 162.626 124.617 164.688 120.203 172.025C120.203 172.025 123.79 163.198 153.108 152.478C159.513 150.135 156.485 135.42 156.485 135.42Z" fill="#CE9436"/>
<path d="M138.272 112.438C134.362 112.92 124.957 121.381 118.612 128.849C110.404 138.509 99.1763 149.066 94.8909 151.209C89.9904 153.658 79.9726 158.556 77.4492 158.686L82.5917 162.044C82.5917 162.044 93.8019 160.789 102.229 150.579C112.423 138.228 129.273 116.847 138.272 112.438Z" fill="#29ABE2"/>
<path d="M143.102 117.434C150.16 116.179 164.128 119.507 164.11 119.354C163.351 112.895 155.527 109.841 152.005 109.402C149.666 109.515 144.448 112.571 143.102 117.434Z" fill="#29ABE2"/>
<path d="M140.913 110.406C143.129 109.793 146.026 115.612 146.326 116.591C146.626 117.57 138.319 115.161 124.644 124.171C119.945 127.265 135.872 110.907 140.913 110.406Z" fill="#29ABE2"/>
<path d="M144.939 116.33C145.297 116.33 145.587 116.041 145.587 115.685C145.587 115.329 145.297 115.04 144.939 115.04C144.581 115.04 144.291 115.329 144.291 115.685C144.291 116.041 144.581 116.33 144.939 116.33Z" fill="#273150"/>
<path d="M131.27 110.385L133.385 114.398L132.23 115.607L132.129 116.945" stroke="#1D2538" stroke-miterlimit="10"/>
<path d="M133.385 114.398L133.4 115.509L133.992 116.536" stroke="#1D2538" stroke-miterlimit="10"/>
<path d="M136.463 112.807L136.556 113.979L137.224 115.03" stroke="#1D2538" stroke-miterlimit="10"/>
<path d="M133.762 108.897L136.462 112.807L135.393 114.142L135.388 115.557" stroke="#1D2538" stroke-miterlimit="10"/>
<path d="M136.545 112.729L137.289 112.774L138.347 113.946" stroke="#1D2538" stroke-miterlimit="10"/>
<path d="M153.344 136.03C153.344 136.03 151.083 129.81 149.356 128.751C147.626 127.692 143.638 124.382 143.638 124.382L122.895 127.426L127.815 133.646L129.411 137.353L153.344 136.03Z" fill="#F3E7D9"/>
<path d="M127.479 129.943C127.179 129.892 124.885 130.736 124.885 130.736C124.885 130.736 126.879 129.544 126.781 129.147C126.68 128.751 125.984 128.354 125.984 128.354L122.293 129.546L120.574 131.182C120.239 131.501 120.176 132.01 120.426 132.399C120.736 132.884 121.126 133.488 121.298 133.714C121.469 133.942 121.59 135.039 121.847 135.947C122.034 136.615 123.045 137.435 123.045 137.435C123.045 137.435 125.737 137.982 126.584 137.287C127.431 136.592 129.874 134.359 130.123 133.564C130.123 133.564 129.725 132.771 129.175 132.72C129.175 132.72 129.175 131.827 128.976 131.529C128.777 131.23 128.18 130.736 128.18 130.736L127.479 129.943Z" fill="#F5894E"/>
<path d="M153.209 131.629C153.209 131.629 153.64 130.603 153.108 129.544C152.576 128.485 150.018 127.855 148.82 127.162C147.522 126.407 147.492 128.485 148.954 129.677C150.416 130.869 151.48 132.555 153.209 131.629Z" fill="#F5894E"/>
<path d="M134.994 130.602L153.608 125.177L147.094 142.516L143.237 133.912L134.994 130.602Z" fill="#856792"/>
<path d="M153.343 125.177L143.104 133.25L143.502 137.222L153.343 125.177Z" fill="#665070"/>
<path d="M168.767 132.72C168.767 132.72 163.375 131.293 159.765 131.9C156.155 132.507 154.353 131.611 153.382 133.217C152.411 134.823 153.322 136.416 155.863 136.906C158.404 137.395 163.859 140.258 166.581 139.972C169.467 139.668 171.03 139.859 171.562 137.882C172.094 135.905 170.884 132.6 168.767 132.72Z" fill="#F5894E"/>
<path d="M156.268 134.178C156.268 134.178 155.421 131.96 154.357 130.638C153.293 129.315 152.696 129.197 151.491 130.166C150.286 131.135 149.189 132.078 148.125 132.078C147.062 132.078 143.638 131.797 142.708 132.59C141.778 133.383 142.708 133.516 142.708 133.516C142.708 133.516 141.38 133.779 141.644 134.309C141.909 134.838 143.505 134.971 143.505 134.971C143.505 134.971 144.702 135.764 145.1 135.897C145.499 136.03 150.17 137.039 150.17 137.039C150.17 137.039 154.009 136.693 155.073 135.897C156.134 135.104 156.268 134.178 156.268 134.178Z" fill="#F5894E"/>
<path d="M153.426 96.6492C155.064 96.0467 155.796 93.9544 155.061 91.9759C154.327 89.9975 152.404 88.8821 150.766 89.4846C149.128 90.0871 148.396 92.1793 149.131 94.1578C149.866 96.1363 151.789 97.2517 153.426 96.6492Z" fill="#CC6D3D"/>
<path d="M136.585 88.2939C136.215 89.8446 139.247 90.6953 142.431 91.4481C145.615 92.2033 148.499 91.556 148.869 90.0077C149.24 88.457 146.959 86.5901 143.775 85.8374C140.589 85.0821 136.956 86.7432 136.585 88.2939Z" fill="#273150"/>
<path d="M151.454 94.0627C148.994 86.0231 141.701 85.5388 139.972 85.6994C131.348 86.5073 128.815 91.5861 131.784 100.617C133.846 106.885 136.682 107.851 140.801 108.185C145.755 108.586 154.527 104.102 151.454 94.0627Z" fill="#CC6D3D"/>
<path d="M149.52 97.4427C147.294 91.4606 140.777 91.0692 139.235 91.1821C139.235 91.1821 133.016 93.2071 131.838 94.8481C130.661 96.4892 132.847 101.874 132.847 101.874C135.115 107.144 136.567 107.422 140.248 107.688C144.674 108.007 152.3 104.915 149.52 97.4427Z" fill="#F5894E"/>
<path d="M143.436 88.3241C135.117 86.8185 130.832 91.5861 130.832 91.5861C130.832 91.5861 134.429 83.1249 142.428 85.062C151.755 87.3203 151.273 92.4041 151.251 95.0991C151.251 95.0991 149.93 89.4984 143.436 88.3241Z" fill="#F6BE4A"/>
<path d="M152.809 87.5236C153.217 88.1434 150.996 90.8483 149.751 89.5937C148.581 88.4119 147.457 86.9038 148.523 86.4421C149.587 85.9804 152.398 86.9038 152.809 87.5236Z" fill="#C94039"/>
<path d="M152.256 88.5373C152.256 88.5373 150.726 90.0302 150.194 89.7266C149.662 89.423 150.693 88.9638 151.656 87.9601C152.619 86.9539 152.881 87.8974 152.256 88.5373Z" fill="#F7BC4B"/>
<path d="M148.098 87.0668C148.098 87.0668 148.912 91.0365 150.616 93.621C151.904 95.5757 153.228 96.6446 153.228 96.6446L153.248 95.7789L154.48 95.7388C154.48 95.7388 151.372 93.2822 149.003 87.1396L148.098 87.0668Z" fill="#C94039"/>
<path d="M148.412 88.5423C148.412 88.5423 148.321 92.4016 149.463 95.1643C150.328 97.252 151.432 98.5241 151.432 98.5241L151.654 97.7237L152.924 97.947C152.924 97.947 150.315 95.0087 149.319 88.8008L148.412 88.5423Z" fill="#C94039"/>
<path d="M143.486 97.8096C143.97 97.694 144.188 96.8694 143.97 95.9678C143.753 95.0661 143.185 94.4289 142.7 94.5445C142.215 94.6601 141.998 95.4848 142.215 96.3864C142.432 97.288 143.001 97.9252 143.486 97.8096Z" fill="#273252"/>
<path d="M135.199 100.133C135.61 100.048 135.801 99.3036 135.626 98.4706C135.451 97.6377 134.977 97.0315 134.567 97.1168C134.157 97.202 133.966 97.9463 134.14 98.7792C134.315 99.6122 134.789 100.218 135.199 100.133Z" fill="#273252"/>
<path d="M141.51 91.6814C141.51 91.6814 142.697 91.4029 143.383 92.2937" stroke="#273252" stroke-miterlimit="10" stroke-linecap="round" stroke-linejoin="round"/>
<path d="M133.117 95.0112C133.117 95.0112 133.566 94.0853 134.352 93.8644" stroke="#273252" stroke-miterlimit="10" stroke-linecap="round" stroke-linejoin="round"/>
</svg>
