<svg width="714" height="803" viewBox="0 0 714 803" fill="none" xmlns="http://www.w3.org/2000/svg">
<path d="M312.56 321.712C370.58 297.384 565.17 235.021 625.129 209.432C685.088 183.842 682.444 106.122 629.043 93.565C575.642 81.0077 556.116 111.112 556.116 111.112C556.116 111.112 546.521 56.2348 506.236 53.8957C465.959 51.5565 430.755 92.7852 446.559 154.398C446.559 154.398 440.737 135.833 410.62 134.727C380.503 133.62 340.872 161.98 323.225 202.904C305.578 243.829 321.101 261.933 331.633 266.366C331.633 266.366 279.784 280.409 253.663 306.273C227.542 332.138 254.54 346.039 312.56 321.712Z" fill="#F3E7D9"/>
<path d="M95.6224 287.203C104.438 282.792 197.908 231.658 245.523 201.686C293.138 171.715 323.121 155.839 317.826 138.21C312.53 120.581 313.414 103.828 271.971 123.224C271.971 123.224 241.988 84.4311 189.085 116.17C136.182 147.908 171.445 214.036 171.445 214.036C171.445 214.036 149.402 209.625 127.358 225.494C105.315 241.363 103.547 249.301 107.959 255.472C112.37 261.643 118.542 259.883 118.542 259.883C118.542 259.883 92.9709 277.52 86.799 285.451C80.6345 293.374 86.8064 291.607 95.6224 287.203Z" fill="#F3E7D9"/>
<path d="M152.581 396.728C152.581 396.728 138.388 423.64 158.211 425.593C178.026 427.553 179.252 403.575 179.252 403.575" stroke="#1D2538" stroke-width="2" stroke-miterlimit="10"/>
<path d="M160.29 389.874C160.29 389.874 153.554 401.941 167.636 416.021C178.798 427.182 194.239 406.813 194.239 406.813" stroke="#3E4C6F" stroke-width="2" stroke-miterlimit="10"/>
<path d="M158.389 399.417C158.389 399.417 150.026 426.328 161.709 428.281C173.392 430.234 174.112 406.263 174.112 406.263" stroke="#992C29" stroke-width="2" stroke-miterlimit="10"/>
<path d="M117.109 588.993L103.161 475.985H222.061L241.149 597.8L117.109 588.993Z" fill="#C94039"/>
<path d="M117.109 588.993L216.409 524.714L222.061 475.985L241.149 597.8L117.109 588.993Z" fill="#992C29"/>
<path d="M279.317 448.829L222.062 475.985L240.963 597.8L298.397 534.687L279.317 448.829Z" fill="#992C29"/>
<path d="M103.896 475.985L197.842 448.093L279.317 448.829L222.061 475.985H103.896Z" fill="#EE5D4F"/>
<path d="M213.802 462.626C194.603 461.2 156.666 466.888 156.666 466.888C156.666 466.888 156.517 467.995 156.666 468.686C157.126 470.735 172.248 471.819 185.824 471.767C198.703 471.715 217.137 467.832 219.788 465.084C220.405 464.445 220.078 462.44 220.078 462.44C220.078 462.44 216.157 462.804 213.802 462.626Z" fill="#3E4C6F"/>
<path d="M213.802 460.918C194.603 459.492 176.503 461.037 161.694 464.609C146.884 468.181 167.724 470.126 185.832 470.059C203.939 469.993 233.001 462.336 213.802 460.918Z" fill="#1D2538"/>
<path d="M164.725 399.743L182.431 465.953L187.57 466.213L191.707 464.052L170.934 392.874L164.725 399.743Z" fill="#121721"/>
<path d="M180.232 407.734C180.232 407.734 178.034 418.011 182.431 426.811C186.835 435.618 189.769 435.618 208.121 432.685C226.473 429.751 235.765 425.348 243.348 421.679C248.784 419.051 242.612 399.417 238.943 398.926C227.201 393.788 180.232 407.734 180.232 407.734Z" fill="#48598B"/>
<path d="M175.962 392.971C175.962 392.971 173.763 403.248 178.16 412.048C182.564 420.855 185.498 420.855 203.85 417.922C222.203 414.989 231.494 410.585 239.077 406.917C244.514 404.288 238.342 384.654 234.673 384.164C222.938 379.025 175.962 392.971 175.962 392.971Z" fill="#1D2538"/>
<path d="M179.497 418.011C179.497 418.011 175.093 409.939 167.755 407.734C160.417 405.536 148.429 407.243 144.998 406.998C141.567 406.753 133.991 395.993 128.852 382.047C123.712 368.101 121.514 355.626 137.66 349.024C153.807 342.423 189.769 332.88 205.922 332.88C222.069 332.88 222.069 342.423 225.738 350.495C229.407 358.567 241.884 393.06 243.355 396.728C244.825 400.397 240.176 403.82 221.334 409.939C196.95 417.848 179.497 418.011 179.497 418.011Z" fill="#48598B"/>
<path d="M165.459 365.807C162.838 360.119 158.233 348.504 173.332 342.185C188.431 335.865 190.615 332.999 205.714 332.999C220.813 332.999 219.269 338.078 222.7 345.809C226.131 353.539 237.799 386.577 239.173 390.09C240.547 393.602 168.088 371.495 165.459 365.807Z" fill="#3E4C6F"/>
<path d="M193.899 395.196C197.675 393.385 197.681 385.547 193.912 377.688C190.143 369.83 184.026 364.927 180.25 366.738C176.473 368.548 176.467 376.387 180.236 384.245C184.005 392.104 190.122 397.006 193.899 395.196Z" fill="#273252"/>
<path d="M191.345 393.147C194.418 391.674 194.425 385.299 191.361 378.908C188.296 372.518 183.319 368.532 180.246 370.006C177.172 371.48 177.165 377.855 180.23 384.245C183.295 390.635 188.271 394.621 191.345 393.147Z" fill="#121721"/>
<path d="M225.735 382.696C229.252 381.01 229.259 373.713 225.751 366.398C222.243 359.083 216.547 354.521 213.03 356.207C209.513 357.894 209.505 365.191 213.013 372.505C216.522 379.82 222.217 384.383 225.735 382.696Z" fill="#273252"/>
<path d="M223.369 380.794C226.228 379.423 226.232 373.489 223.378 367.538C220.524 361.588 215.893 357.876 213.034 359.247C210.175 360.618 210.171 366.552 213.025 372.503C215.878 378.453 220.51 382.165 223.369 380.794Z" fill="#121721"/>
<path d="M180.212 426.221C183.815 424.956 185.381 420.072 183.709 415.313C182.038 410.553 177.762 407.721 174.159 408.986C170.556 410.251 168.99 415.134 170.661 419.894C172.333 424.653 176.609 427.486 180.212 426.221Z" fill="#1D2538"/>
<path d="M178.534 426.578C182.137 425.313 183.703 420.429 182.031 415.67C180.36 410.91 176.084 408.077 172.481 409.342C168.878 410.607 167.312 415.491 168.984 420.25C170.655 425.01 174.931 427.843 178.534 426.578Z" fill="#273252"/>
<path d="M181.331 354.898L225.366 271.238" stroke="#FFACFF" stroke-miterlimit="10"/>
<path d="M200.047 400.025L306.841 417.64" stroke="#FFACFF" stroke-miterlimit="10"/>
<path d="M196.742 300.956C196.742 300.956 220.962 305.36 228.671 321.868" stroke="#FFACFF" stroke-miterlimit="10"/>
<path d="M206.65 381.312L255.899 362.874" stroke="#FFACFF" stroke-miterlimit="10"/>
<path d="M278.686 350.339C278.686 350.339 291.23 404.318 265.005 429.751" stroke="#FFACFF" stroke-miterlimit="10"/>
<path d="M399.3 332.331C399.3 332.331 379.077 337.455 375.259 360.312C373.855 368.733 372.325 393.713 369.778 410.14C365.73 436.271 362.143 461.468 360.375 469.48C357.59 482.126 355.087 492.189 370.788 498.1C387.061 504.226 393.463 496.696 401.484 477.404C409.728 457.576 424.315 409.464 425.8 392.117C427.345 374.235 424.508 334.759 399.3 332.331Z" fill="#F5894E"/>
<path d="M399.456 333.764C393.299 333.719 387.112 336.994 386.823 346.693C386.154 368.807 393.373 411.952 394.161 426.276C395.483 450.269 361.103 494.736 370.795 498.115C387.209 503.84 393.47 496.711 401.491 477.419C409.735 457.591 424.322 409.479 425.807 392.132C427.345 374.235 405.613 333.801 399.456 333.764Z" fill="#CC6D3D"/>
<path d="M429.916 488.802C429.916 488.802 426.247 566.879 427.079 571.342C427.911 575.805 506.987 599.382 506.987 599.382C506.987 599.382 576.891 591.919 584.652 591.295C592.413 590.664 594.017 533.425 587.6 512.083C581.183 490.733 429.916 488.802 429.916 488.802Z" fill="#1D2538"/>
<path d="M552.537 316.721C536.598 304.038 518.528 298.832 471.054 306.503C414.259 315.682 397.675 328.922 391.488 333.883C385.286 338.858 402.436 397.241 411.808 418.449C421.137 439.539 423.254 477.114 423.254 477.114C423.254 477.114 423.929 521.061 423.365 530.172C422.801 539.276 581.332 530.462 587.793 526.467C594.24 522.486 587.377 453.247 582.594 435.306C577.633 416.734 567.094 328.306 552.537 316.721Z" fill="#F7BC4B"/>
<path d="M508.242 394.694C508.242 394.694 495.259 414.15 479.447 438.351C472.837 448.465 501.297 490.221 501.297 490.221L531.63 532.318C565.675 530.655 586.033 528.108 588.67 526.482C595.116 522.501 586.605 454.524 583.084 434.823C578.68 410.147 577.18 340.009 553.703 314.961C539.777 300.102 516.946 295.929 469.472 303.6C412.677 312.778 397.667 328.922 391.48 333.89" fill="#CE9436"/>
<path d="M435.025 317.241C435.025 317.241 418.693 321.073 421.708 327.615C424.731 334.157 432.693 347.598 457.128 349.284C481.563 350.97 505.308 315.763 498.579 307.521C491.85 299.278 435.025 317.241 435.025 317.241Z" fill="#CC6D3D"/>
<path d="M433.77 314.241C415.373 335.851 449.107 401.459 462.409 397.085C473.572 393.416 495.177 331.38 487.112 310.194C485.567 306.14 480.635 301.513 476.632 301.149" stroke="#992C29" stroke-width="3" stroke-miterlimit="10"/>
<path d="M463.045 410.369C465.727 410.031 467.483 406.436 466.967 402.338C466.45 398.24 463.858 395.192 461.176 395.53C458.494 395.868 456.738 399.464 457.254 403.561C457.771 407.659 460.363 410.707 463.045 410.369Z" fill="#29ABE2"/>
<path d="M428.66 302.189C428.66 302.189 436.102 325.781 440.93 334.388C446.47 344.264 465.32 342.846 465.32 342.846C465.32 342.846 482.952 334.358 484.148 322.358L476.921 268.728L428.66 302.189Z" fill="#CC6D3D"/>
<path d="M138.008 603.511C138.008 603.511 77.7226 619.9 80.077 652.804C82.4314 685.708 97.8945 711.469 229.465 734.059C433.005 769.012 683.29 690.082 685.295 634.002C685.778 620.442 690.034 605.352 657.34 596.397C489.398 550.386 215.993 597.511 138.008 603.511Z" fill="#F5894E"/>
<path d="M131.51 586.164C131.51 586.164 94.0325 606.511 83.1741 632.546C71.3799 660.817 90.9651 695.808 223.962 718.754C479.454 762.834 807.798 628.588 638.022 581.857C468.246 535.125 210.341 580.074 131.51 586.164Z" fill="#A96443"/>
<path d="M86.8281 625.551L249.31 693.929L410.203 719.868L417.668 713.318L421.195 690.401L511.984 685.114L606.301 637.521L627.453 611.085L668.881 594.34C668.881 594.34 654.487 583.765 620.108 578.478C587.792 573.51 88.9597 622.395 88.9597 622.395L86.8281 625.551Z" fill="#7A462F"/>
<path d="M631.278 667.485L638.326 675.713L637.739 662.784L606.011 658.67L631.278 667.485Z" fill="#7A462F"/>
<path d="M666.534 645.163L603.656 628.707L604.83 625.187L669.475 641.635L670.648 655.737L666.534 645.163Z" fill="#7A462F"/>
<path d="M634.806 644.576L606.598 639.875L623.049 645.163L646.555 651.037L634.806 644.576Z" fill="#7A462F"/>
<path d="M587.205 662.784L562.525 656.911L530.789 651.037L558.41 661.611L587.205 662.784Z" fill="#7A462F"/>
<path d="M671.823 629.88C671.823 629.88 653.017 624.006 645.969 622.239C638.921 620.479 630.691 622.239 630.691 622.239L671.823 629.88Z" fill="#7A462F"/>
<path d="M507.283 708.031L513.165 718.018L519.627 705.09L457.336 693.342L507.283 708.031Z" fill="#7A462F"/>
<path d="M529.029 698.629L499.061 691.582C499.061 691.575 497.88 698.629 529.029 698.629Z" fill="#7A462F"/>
<path d="M301.612 727.42L162.05 691.285L132.371 668.658L169.098 685.998L301.612 727.42Z" fill="#7A462F"/>
<path d="M376.834 725.652L241.676 698.629L323.946 721.538L376.834 725.652Z" fill="#7A462F"/>
<path d="M185.846 680.703L136.485 652.507L98.585 639.281L136.485 657.794L185.846 680.703Z" fill="#7A462F"/>
<path d="M21.9385 596.723C21.9385 596.723 162.013 571.683 171.29 570.755C180.566 569.827 182.423 569.827 182.423 569.827L247.358 511.392C247.358 511.392 365.166 538.289 367.951 538.289C370.737 538.289 391.146 550.349 391.146 550.349L482.982 551.277L525.651 562.408C525.651 562.408 637.896 554.061 641.61 554.061C645.323 554.061 683.357 563.336 687.992 564.265L612.852 603.221L592.442 631.974L514.517 682.062L265.903 691.337L21.9385 596.723Z" fill="#BB83C3"/>
<path opacity="0.7" d="M245.315 682.99L241.379 626.36L213.171 582.295L246.667 511.496C246.667 511.496 365.166 538.289 367.951 538.289C370.736 538.289 391.146 550.348 391.146 550.348L482.982 551.277L525.651 562.408C525.651 562.408 637.896 554.061 641.61 554.061C645.323 554.061 617.531 568.735 622.173 569.663L587.793 596.983L567.517 625.187L383.296 685.114L405.154 607.788L320.529 684.164L265.903 691.322L245.315 682.99Z" fill="#856792"/>
<path d="M199.312 577.253L214.969 582.896L230.603 588.607L261.826 600.147L292.99 611.843L308.55 617.754L324.088 623.732L308.424 618.095L292.79 612.377L261.566 600.837L230.41 589.142L214.843 583.231L199.312 577.253Z" fill="#856792"/>
<path d="M389.163 558.175C386.355 563.143 383.481 568.074 380.599 572.998L371.865 587.716L362.982 602.352L358.489 609.637L353.929 616.885L358.177 609.451L362.492 602.063L371.226 587.344L380.109 572.715C383.102 567.844 386.095 562.987 389.163 558.175Z" fill="#856792"/>
<path d="M586.842 625.93L558.709 626.36L530.575 626.672L474.307 627.274L418.032 627.155L389.898 627.088L361.765 626.91L389.898 626.739L418.032 626.665L474.307 626.546L530.575 626.167L558.709 625.989L586.842 625.93Z" fill="#856792"/>
<path d="M246.044 571.141C239.716 575.359 227.766 584.307 227.766 584.307C227.766 584.307 201.251 595.84 197.404 607.751C193.646 619.402 198.035 624.296 205.915 630.823C220.235 642.682 237.659 640.121 246.497 638.22C255.617 636.259 263.898 630.823 276.376 620.553C283.855 614.39 261.856 610.877 261.329 605.508C274.074 594.154 290.042 585.867 285.185 582.391C280.327 578.916 248.977 569.181 246.044 571.141Z" stroke="#4B3355" stroke-miterlimit="10"/>
<path d="M241.01 589.649C246.378 586.304 249.741 582.007 248.522 580.051C247.303 578.095 241.963 579.22 236.595 582.565C231.227 585.91 227.863 590.207 229.083 592.163C230.302 594.12 235.642 592.994 241.01 589.649Z" stroke="#4B3355" stroke-miterlimit="10"/>
<path d="M248.978 570.896C248.978 570.896 254.607 563.069 260.72 561.109C266.84 559.148 290.443 562.943 294.357 568.817C298.271 574.691 284.813 581.656 284.813 581.656C284.813 581.656 271.511 576.614 264.262 574.319C257.11 572.574 248.978 570.896 248.978 570.896Z" stroke="#4B3355" stroke-miterlimit="10"/>
<path d="M265.369 601.469C265.369 601.469 287.39 609.541 297.662 592.661C307.941 575.782 288.854 577.988 288.854 577.988" stroke="#4B3355" stroke-miterlimit="10"/>
<path d="M274.178 594.867C274.178 594.867 280.78 613.216 293.993 605.144C307.206 597.072 288.854 579.458 288.854 579.458" stroke="#4B3355" stroke-miterlimit="10"/>
<path d="M478.949 651.371C478.949 651.371 463.538 662.376 429.775 662.376C396.011 662.376 380.199 656.784 389.408 642.564C397.482 630.088 402.621 621.281 409.959 613.944C417.297 606.607 429.039 610.276 433.444 602.204C437.848 594.132 439.318 586.06 469.406 586.06C499.5 586.06 492.89 591.934 489.221 600.733C485.552 609.533 511.242 606.607 502.434 621.281C495.111 633.504 478.949 651.371 478.949 651.371Z" stroke="#4B3355" stroke-miterlimit="10"/>
<path d="M427.754 618.927C430.539 618.86 431.126 622.113 428.92 626.59C426.462 631.581 421.463 636.266 417.973 636.534C414.408 636.801 414.363 632.331 417.587 627.125C420.468 622.469 424.924 618.994 427.754 618.927Z" stroke="#4B3355" stroke-miterlimit="10"/>
<path d="M472.034 621.615C474.82 621.548 475.406 624.801 473.201 629.279C470.742 634.269 465.744 638.955 462.253 639.222C458.688 639.489 458.643 635.019 461.867 629.813C464.756 625.165 469.205 621.682 472.034 621.615Z" stroke="#4B3355" stroke-miterlimit="10"/>
<path d="M478.949 644.034L514.183 643.299" stroke="#4B3355" stroke-width="0.5" stroke-miterlimit="10"/>
<path d="M498.772 578.723L510.024 580.921L522.747 578.961C522.747 578.961 534.734 581.894 538.403 581.894C540.06 581.894 550.146 579.933 550.146 579.933C550.146 579.933 565.416 580.579 567.027 580.178C569.961 579.443 579.505 576.51 582.438 576.51C585.372 576.51 592.718 577.245 594.916 577.245C597.114 577.245 599.32 576.51 599.32 576.51" stroke="#4B3355" stroke-miterlimit="10"/>
<path d="M591.247 586.06L583.909 584.589H578.77L566.292 586.795L553.087 587.53H540.609L536.205 588.258" stroke="#4B3355" stroke-miterlimit="10"/>
<path d="M545.742 601.469L507.455 601.186L512.275 595.884L550.213 595.624L545.742 601.469Z" fill="#4B3355"/>
<path d="M556.666 601.907L548.504 601.87L553.101 595.988L560.075 596.166L556.666 601.907Z" fill="#4B3355"/>
<path d="M502.196 673.121L463.909 672.839L470.192 667.314L508.13 667.054L502.196 673.121Z" fill="#4B3355"/>
<path d="M513.693 650.881L502.56 650.821L508.85 645.296L519.627 644.814L513.693 650.881Z" fill="#4B3355"/>
<path d="M527.886 650.881L516.753 650.821L523.036 645.296L533.82 644.814L527.886 650.881Z" fill="#4B3355"/>
<path d="M382.07 639.63L370.083 639.14L374.487 634.492L386.229 634.737L382.07 639.63Z" fill="#4B3355"/>
<path d="M144.508 626.42C141.307 625.024 138.143 623.531 135.008 621.986C133.449 621.199 131.897 620.39 130.367 619.536C128.851 618.652 127.314 617.82 125.947 616.603L125.962 616.617C125.212 616.023 124.365 615.518 123.489 615.073C122.613 614.635 121.692 614.241 120.778 613.907L120.763 613.9L120.748 613.892L116.522 611.887L112.311 609.845L112.341 609.86C108.694 608.494 105.055 607.112 101.438 605.672C99.6333 604.936 97.8211 604.209 96.0534 603.377C94.2932 602.53 92.533 601.706 90.8619 600.667L90.899 600.681C89.6067 600.318 88.307 599.954 87.0146 599.568C88.3367 599.835 89.6438 600.124 90.9584 600.414H90.9733L91.003 600.429C92.7038 601.327 94.4863 602.122 96.2688 602.894C98.0439 603.667 99.8487 604.387 101.668 605.085C105.285 606.503 108.932 607.87 112.579 609.214L112.594 609.221L112.608 609.229L116.842 611.226L121.053 613.261L121.023 613.246C121.981 613.61 122.895 614.018 123.801 614.486C124.692 614.961 125.584 615.474 126.363 616.164L126.378 616.179C127.596 617.323 129.141 618.214 130.619 619.113C132.119 619.996 133.649 620.835 135.194 621.652C138.254 623.308 141.381 624.868 144.508 626.42Z" fill="#1D2538"/>
<path d="M99.1875 592.416C99.6406 592.765 99.9525 593.263 100.383 593.627C100.799 594.013 101.282 594.31 101.817 594.496C102.344 594.681 102.901 594.793 103.458 594.837C103.74 594.859 104.023 594.86 104.305 594.874C104.587 594.889 104.914 594.904 105.181 595.112C105.315 595.209 105.419 595.372 105.456 595.528C105.501 595.676 105.523 595.81 105.56 595.936C105.642 596.181 105.812 596.374 106.02 596.538C106.451 596.857 106.964 597.124 107.461 597.384L108.984 598.157C109.504 598.409 109.986 598.721 110.499 598.921C112.586 599.79 114.725 600.592 116.849 601.402C118.966 602.219 121.097 603.035 123.229 603.808C123.764 604.001 124.298 604.194 124.826 604.365C125.108 604.454 125.323 604.535 125.576 604.558C125.828 604.587 126.074 604.565 126.378 604.55C126.683 604.528 127.076 604.58 127.388 604.743C127.693 604.907 127.938 605.115 128.153 605.323C128.376 605.545 128.591 605.805 128.732 606.102C128.881 606.392 128.963 606.704 129.059 606.875C129.208 607.209 129.743 607.35 130.27 607.454C130.886 607.565 131.443 607.825 131.956 608.07C132.996 608.59 133.976 609.177 134.949 609.786C136.887 610.989 138.774 612.303 140.66 613.521L146.899 616.15L146.914 616.157L146.921 616.164L149.283 617.59C149.677 617.843 150.063 618.058 150.494 618.229C150.917 618.407 151.348 618.57 151.779 618.719C151.333 618.608 150.887 618.489 150.449 618.34C150.011 618.199 149.58 617.999 149.179 617.776L146.728 616.499L146.751 616.506L143.557 615.31L141.96 614.716L141.158 614.427L140.764 614.278L140.668 614.249C140.623 614.234 140.549 614.197 140.527 614.182L140.326 614.063C138.38 612.83 136.523 611.546 134.585 610.365C133.619 609.778 132.647 609.199 131.644 608.709C131.139 608.471 130.641 608.241 130.136 608.159C129.847 608.107 129.542 608.041 129.237 607.922C128.94 607.81 128.584 607.573 128.413 607.231C128.235 606.904 128.183 606.652 128.064 606.437C127.953 606.221 127.804 606.036 127.626 605.85C127.44 605.664 127.24 605.501 127.046 605.397C126.846 605.293 126.668 605.263 126.4 605.278C126.14 605.286 125.814 605.315 125.494 605.278C125.175 605.248 124.855 605.13 124.596 605.04C124.046 604.855 123.511 604.662 122.976 604.461C118.706 602.857 114.48 601.179 110.313 599.315C109.771 599.077 109.296 598.758 108.798 598.506C108.301 598.238 107.788 597.978 107.29 597.696C106.793 597.407 106.295 597.139 105.827 596.768C105.597 596.575 105.389 596.322 105.293 596.018C105.203 595.713 105.211 595.446 105.018 595.305C104.832 595.149 104.557 595.112 104.282 595.09C104 595.067 103.718 595.06 103.428 595.03C102.856 594.971 102.292 594.837 101.75 594.629C101.208 594.421 100.717 594.087 100.316 593.686C99.9079 593.293 99.6257 592.78 99.1875 592.416Z" fill="#1D2538"/>
<path d="M161.516 610.647C160.721 610.513 159.934 610.305 159.169 610.038C158.404 609.763 157.646 609.444 156.948 609.006C156.265 608.545 155.611 608.137 154.883 607.818C154.17 607.498 153.398 607.239 152.655 607.097L152.707 607.105C152.024 607.105 151.363 607.038 150.68 606.8C150.509 606.734 150.338 606.659 150.175 606.548C150.019 606.444 149.9 606.34 149.766 606.229C149.506 606.006 149.269 605.761 149.046 605.545C148.608 605.115 148.088 604.781 147.538 604.469C146.996 604.164 146.402 603.852 145.874 603.704C145.8 603.689 145.778 603.689 145.718 603.682H145.473L144.968 603.659C144.634 603.637 144.3 603.6 143.966 603.54C143.305 603.429 142.644 603.229 142.035 602.976C140.817 602.486 139.636 601.951 138.455 601.402L138.38 601.365L138.336 601.305L136.732 599.07L136.836 599.152L125.896 594.444L120.437 592.067C118.617 591.273 116.775 590.53 115.037 589.557C116.805 590.471 118.669 591.147 120.503 591.911L126.022 594.154L137.036 598.684L137.096 598.706L137.14 598.766L138.841 600.926L138.722 600.83C139.903 601.357 141.091 601.877 142.287 602.337C142.881 602.568 143.468 602.738 144.092 602.835C144.396 602.887 144.708 602.917 145.02 602.932L145.488 602.946H145.726C145.83 602.946 145.963 602.969 146.053 602.991C146.773 603.199 147.323 603.526 147.909 603.86C148.474 604.194 149.053 604.58 149.536 605.063C149.781 605.3 149.989 605.531 150.219 605.731C150.331 605.828 150.457 605.932 150.568 606.013C150.665 606.088 150.799 606.147 150.925 606.199C151.467 606.407 152.113 606.474 152.722 606.503H152.767H152.774C153.606 606.704 154.364 607.001 155.106 607.372C155.842 607.729 156.54 608.219 157.171 608.687C158.456 609.585 159.964 610.201 161.516 610.647Z" fill="#1D2538"/>
<path d="M192.709 586.795L205.914 592.661" stroke="#4B3355" stroke-width="0.5" stroke-miterlimit="10"/>
<path d="M234.539 555.97L257.296 565.512" stroke="#4B3355" stroke-width="0.5" stroke-miterlimit="10"/>
<path d="M252.891 644.769L285.919 622.016" stroke="#4B3355" stroke-width="0.5" stroke-miterlimit="10"/>
<path d="M268.058 648.928L259.984 645.014L264.686 641.91L272.462 645.259L268.058 648.928Z" fill="#4B3355"/>
<path d="M154.542 637.432L146.469 633.519L151.17 630.415L158.946 633.764L154.542 637.432Z" fill="#4B3355"/>
<path d="M181.45 649.663L156.985 638.65L161.687 635.554L185.854 645.994L181.45 649.663Z" fill="#4B3355"/>
<path d="M193.192 595.357L185.119 591.444L189.82 588.34L197.597 591.689L193.192 595.357Z" fill="#4B3355"/>
<path d="M361.029 569.181L332.702 559.378L336.445 555.168L364.342 564.502L361.029 569.181Z" fill="#4B3355"/>
<path d="M243.593 557.685L235.52 553.772L240.221 549.933L247.997 553.282L243.593 557.685Z" fill="#4B3355"/>
<path d="M279.071 645.259L266.594 639.63L271.295 636.534L283.476 641.591L279.071 645.259Z" fill="#4B3355"/>
<path d="M425.021 588.696H410.248L231.59 707.147V709.984L420.906 723.595L438.404 587.768L425.021 588.696ZM399.167 687.008L317.454 683.317L411.882 598.758L423.327 596.887L399.167 687.008Z" fill="#273252"/>
<path d="M428.222 582.391H412.566L231.523 707.147L421.375 719.868L442.415 581.411L428.222 582.391ZM400.816 686.599L314.209 682.686L412.559 596.092L424.687 594.109L400.816 686.599Z" fill="#29ABE2"/>
<path d="M295.983 663.111H319.839" stroke="#1689CB" stroke-miterlimit="10"/>
<path d="M311.395 652.106H331.336" stroke="#1689CB" stroke-miterlimit="10"/>
<path d="M324.607 643.299H340.39" stroke="#1689CB" stroke-miterlimit="10"/>
<path d="M337.82 634.128H353.603" stroke="#1689CB" stroke-miterlimit="10"/>
<path d="M351.396 624.586H367.179" stroke="#1689CB" stroke-miterlimit="10"/>
<path d="M364.974 615.415H378.558" stroke="#1689CB" stroke-miterlimit="10"/>
<path d="M378.558 606.243H388.829" stroke="#1689CB" stroke-miterlimit="10"/>
<path d="M286.075 698.095L271.154 709.835" stroke="#1689CB" stroke-miterlimit="10"/>
<path d="M306.136 698.83L291.215 710.57" stroke="#1689CB" stroke-miterlimit="10"/>
<path d="M323.998 700.055L309.069 711.796" stroke="#1689CB" stroke-miterlimit="10"/>
<path d="M341.86 701.028L329.865 712.768" stroke="#1689CB" stroke-miterlimit="10"/>
<path d="M360.205 702.498L348.953 714.239" stroke="#1689CB" stroke-miterlimit="10"/>
<path d="M381.001 703.969L370.484 715.709" stroke="#1689CB" stroke-miterlimit="10"/>
<path d="M353.06 574.371C353.06 574.371 347.044 584.151 338.421 589.884C325.261 598.632 303.016 591.644 316.779 563.411C324.696 547.17 346.472 502.243 351.983 488.401C357.256 475.161 362.218 471.864 373.084 474.5C384.001 477.144 395.929 486.679 393.634 502.288C391.25 518.528 353.06 574.371 353.06 574.371Z" fill="#F5894E"/>
<path d="M353.06 574.371C353.06 574.371 347.044 584.151 338.421 589.884C325.26 598.632 349.896 561.324 353.075 548.054C360.271 518.031 369.979 477.121 377.027 478.295C384.075 479.468 395.921 486.671 393.626 502.288C391.25 518.528 353.06 574.371 353.06 574.371Z" fill="#CC6D3D"/>
<path d="M333.764 578.181C337.344 578.181 343.553 592.461 339.253 606.088C334.953 619.721 325.223 618.147 317.588 619.231C309.946 620.316 300.038 617.605 300.038 617.605C300.038 617.605 291.757 615.719 285.31 611.82C280.854 609.125 282.852 605.345 281.983 600.125C281.44 596.872 282.413 590.723 283.936 588.005C288.103 580.602 330.177 578.181 333.764 578.181Z" fill="#F5894E"/>
<path d="M295.663 604.632C295.663 604.632 297.995 595.513 299.659 593.671C301.323 591.83 317.996 594.941 320.098 595.171C322.2 595.402 321.532 610.239 319.883 615.192C318.227 620.145 298.367 611.85 295.663 604.632Z" fill="#CC6D3D"/>
<path d="M288.013 619.172C288.013 619.172 287.575 624.407 290.196 626.479C292.818 628.551 298.522 630.794 298.522 630.794C298.522 630.794 305.994 631.105 306.165 629.026C306.328 627.081 304.954 625.172 302.882 624.541C298.752 623.278 288.013 619.172 288.013 619.172Z" fill="#F5894E"/>
<path d="M287.916 616.194C287.916 616.194 287.478 621.43 290.1 623.501C292.721 625.573 298.425 627.816 298.425 627.816C298.425 627.816 305.897 628.128 306.068 626.048C306.231 624.103 304.857 622.194 302.785 621.563C298.656 620.301 287.916 616.194 287.916 616.194Z" fill="#CC6D3D"/>
<path d="M286.335 612.674C286.335 612.674 284.314 617.523 287.04 620.278C289.766 623.026 296.324 626.873 296.324 626.873C296.324 626.873 305.652 629.405 306.447 627.482C307.197 625.677 306.002 623.449 303.573 622.231C298.716 619.788 286.335 612.674 286.335 612.674Z" fill="#F5894E"/>
<path d="M287.033 611.375C287.033 611.375 285.206 612.845 287.932 615.6C290.657 618.348 293.532 621.823 296.064 623.813C298.597 625.811 301.932 628.076 302.734 626.152C303.484 624.348 304.182 623.137 301.753 621.92C296.896 619.484 287.033 611.375 287.033 611.375Z" fill="#CC6D3D"/>
<path d="M311.342 516.509L302.793 634.403C302.793 634.403 310.168 638.212 314.855 634.67L324.473 517.971C324.473 517.971 319.133 512.959 311.342 516.509Z" fill="#3E4C6F"/>
<path d="M314.854 634.67L324.472 517.972C324.472 517.972 321.813 515.476 317.513 515.254C316.696 515.209 308.809 632.821 308.809 632.821C308.809 632.821 311.312 636.2 314.854 634.67Z" fill="#273252"/>
<path d="M314.855 634.67L309.024 648.586L302.793 634.403L305.794 634.9L308.824 632.754L311.698 634.729L314.855 634.67Z" fill="#F5894E"/>
<path d="M307.517 645.438H310.354L309.247 649.069L308.98 649.054L307.517 645.438Z" fill="#1D2538"/>
<path d="M285.102 597.867C280.43 594.793 279.754 600.889 280.356 605.122C280.66 607.261 285.815 614.679 292.172 619.15C294.668 620.91 296.153 622.64 299.562 625.187C303.699 628.284 306.492 619.818 302.578 614.895C296.525 607.276 289.774 600.941 285.102 597.867Z" fill="#F5894E"/>
<path d="M295.359 588.495C292.744 587.337 289.269 583.476 285.34 592.194C281.411 600.912 288.444 601.194 292.091 604.781C297.089 609.689 302.281 620.093 306.262 616.306C310.235 612.518 308.512 604.944 306.21 601.298C302.244 595.001 297.015 589.231 295.359 588.495Z" fill="#F5894E"/>
<path d="M284.879 598.008C284.879 598.008 289.565 603.058 294.534 607.29C297.134 609.875 303.454 617.219 303.454 617.219C303.454 617.219 295.165 609.726 293.851 608.048C291.333 605.679 288.102 602.412 284.879 598.008Z" fill="#CC6D3D"/>
<path d="M337.79 608.449C337.79 608.449 330.267 616.291 324.718 616.721C320.686 617.033 324.436 621.318 316.66 624.051C308.884 626.784 307.146 622.402 307.517 619.796C307.889 617.189 312.739 610.736 319.727 602.256C325.974 594.666 346.762 597.317 337.79 608.449Z" fill="#CC6D3D"/>
<path d="M338.481 608.434C338.481 608.434 330.957 616.276 325.409 616.707C321.376 617.018 325.127 621.303 317.35 624.036C309.574 626.769 307.836 622.387 308.208 619.781C308.579 617.174 315.152 608.36 321.272 600.667C327.392 592.966 347.452 597.303 338.481 608.434Z" fill="#F5894E"/>
<path d="M534.282 473.943C512.461 468.99 509.312 452.846 512.966 428.155C516.724 402.803 513.516 388.716 511.778 370.827C510.003 352.589 500.993 311.828 526.409 306.503C551.847 301.179 564.458 337.418 564.644 365.703C564.822 393.171 564.859 393.201 564.168 420.038C563.507 446.126 555.894 478.844 534.282 473.943Z" fill="#CC6D3D"/>
<path d="M511.547 443.408C513.345 420.677 513.523 388.716 511.778 370.827C510.003 352.589 500.993 311.828 526.409 306.503C546.447 302.308 543.224 310.164 543.127 333.749C543.098 340.098 552.433 361.827 552.53 367.827C552.953 395.295 545.177 396.966 544.769 423.744C544.383 449.779 509.445 470.074 511.547 443.408Z" fill="#F5894E"/>
<path d="M469.695 578.515C454.826 578.738 449.605 568.772 455.22 551.18C461.251 532.289 481.096 495.523 496.507 473.75C509.111 455.943 527.82 430.717 545.229 442.517C561.858 453.789 557.223 474.923 537.386 502.711C519.293 528.071 484.475 578.285 469.695 578.515Z" fill="#CC6D3D"/>
<path d="M463.924 556.274C460.404 557.722 449.612 568.765 455.227 551.18C461.258 532.289 481.103 495.523 496.514 473.75C509.118 455.943 523.051 431.229 540.787 443.044C557.736 454.331 529.884 481.532 511.413 508.852C494.546 533.796 467.46 554.819 463.924 556.274Z" fill="#F5894E"/>
<path d="M462.914 555.198C454.722 551.099 440.737 564.361 431.104 566.084C423.023 567.532 416.309 571.861 413.353 575.129C410.397 578.396 406.379 584.842 402.094 586.349C398.083 587.76 394.526 596.382 402.309 598.023C410.093 599.657 413.858 596.389 420.446 590.664C427.034 584.938 430.317 586.498 430.317 586.498C430.317 586.498 432.396 592.803 432.522 597.243C432.656 601.684 434.127 606.971 433.243 624.89C432.924 631.306 439.92 632.249 442.883 628.974C445.839 625.707 447.495 616.959 447.495 616.959C447.495 616.959 448.179 623.227 448.379 625.187C448.572 627.147 448.038 633.511 454.499 633.608C461.651 633.801 462.825 613.046 462.825 613.046L464.199 618.14C464.199 618.14 466.197 627.831 468.314 629.108C470.43 630.385 471.24 630.103 472.918 629.695C476.275 628.878 476.067 618.355 476.067 618.355C475.614 625.811 483.272 630.43 485.611 609.362C485.916 606.644 484.824 599.553 484.289 597.919C483.754 596.285 485.396 576.659 482.596 569.299C479.796 561.94 471.106 559.289 462.914 555.198Z" fill="#F5894E"/>
<path d="M485.604 609.355C486.814 606.904 484.817 599.545 484.282 597.912C483.747 596.278 485.388 576.651 482.588 569.292C479.788 561.933 477.107 564.465 468.915 560.374C460.723 556.274 469.985 586.572 469.985 586.572L485.604 609.355Z" fill="#CC6D3D"/>
<path d="M446.789 619.981C446.789 619.981 448.765 610.721 448.854 603.815C448.936 596.916 446.76 595.803 446.76 595.803C446.76 595.803 446.96 612.429 446.789 619.981Z" fill="#CC6D3D"/>
<path d="M461.006 626.524C461.006 626.524 461.763 607.677 461.451 603.154C461.14 598.624 461.451 596.983 461.451 596.983C461.451 596.983 465.12 605.939 461.006 626.524Z" fill="#CC6D3D"/>
<path d="M476.298 617.62C476.298 617.62 479.967 605.761 476.573 600.585L476.053 618.348" fill="#CC6D3D"/>
<path d="M480.657 260.893C472.072 300.563 463.211 286.758 463.211 286.758C411.318 301.729 382.338 288.005 379.226 250.705C374.71 212.261 381.847 200.714 419.443 193.184C471.797 182.691 488.307 225.561 480.657 260.893Z" fill="#3E4C6F"/>
<path d="M489.072 248.759C488.292 277.55 475.361 280.683 475.361 280.683C465.142 276.644 410.129 247.148 400.972 225.115C393.069 206.112 395.075 190.956 431.363 187.666C450.236 185.958 468.298 191.951 477.322 200.974C484.957 208.615 488.129 234.19 489.072 248.759Z" fill="#1D2538"/>
<path d="M413.902 223.89C413.902 223.89 388.301 231.984 384.469 237.695C380.636 243.405 385.709 291.763 397.221 307.172C408.57 322.365 462.654 309.956 473.356 295.788C482.127 284.181 477.835 273.369 477.367 256.623C476.877 238.987 464.897 240.955 462.468 234.487C458.294 223.392 413.902 223.89 413.902 223.89Z" fill="#CC6D3D"/>
<path d="M387.106 245.21C383.206 252.116 384.046 285.206 397.058 304.87C405.636 317.754 471.247 309.132 466.739 286.758C464.384 275.062 460.545 253.163 444.799 240.65C425.526 225.338 389.237 241.437 387.106 245.21Z" fill="#F5894E"/>
<path d="M482.967 247.816C484.037 257.121 480.85 265.475 475.852 266.522C470.824 267.569 465.84 260.849 464.734 251.485C463.627 242.084 466.843 233.648 471.908 232.667C476.951 231.68 481.898 238.482 482.967 247.816Z" fill="#CC6D3D"/>
<path d="M453.809 216.241C453.809 216.241 455.175 242.061 459.49 249.071L468.217 259.081L464.764 222.68L453.809 216.241Z" fill="#1D2538"/>
<path d="M444.822 210.39C444.822 210.39 437.781 221.959 407.619 228.561C392.646 231.843 381.001 239.856 373.418 239.967C354.791 240.242 378.074 201.345 408.622 193.622C439.504 185.81 444.822 210.39 444.822 210.39Z" fill="#1D2538"/>
<path d="M408.719 193.213C384.432 200.394 363.295 227.811 378.298 227.573C382.553 227.506 389.304 227.194 397.378 226.385C410.85 221.395 423.87 211.466 423.87 211.466C424.301 218.135 417.104 222.353 408.905 224.982C416.101 223.949 423.826 222.538 431.542 220.6C444.22 217.415 445.698 217.778 445.721 213.501C445.773 204.798 434.959 185.453 408.719 193.213Z" fill="#3E4C6F"/>
<path d="M398.982 269.708C400.363 273.213 399.264 275.344 397.459 275.983C395.654 276.621 393.82 275.522 392.431 272.01C391.042 268.497 391.384 265.126 393.196 264.495C395.008 263.864 397.6 266.203 398.982 269.708Z" fill="#34283A"/>
<path d="M428.742 261.844C430.22 265.282 429.217 267.443 427.479 268.134C425.734 268.832 423.899 267.799 422.414 264.354C420.928 260.901 421.144 257.544 422.897 256.854C424.642 256.163 427.256 258.398 428.742 261.844Z" fill="#34283A"/>
<path d="M425.355 249.643C425.355 249.643 421.389 247.787 418.024 250.022" stroke="#34283A" stroke-miterlimit="10" stroke-linecap="round" stroke-linejoin="round"/>
<path d="M394.214 256.215C390.329 256.876 387.886 259.824 387.886 259.824" stroke="#34283A" stroke-miterlimit="10" stroke-linecap="round" stroke-linejoin="round"/>
</svg>
