<svg width="103" height="102" viewBox="0 0 103 102" fill="none" xmlns="http://www.w3.org/2000/svg">
<g clip-path="url(#clip0_24_21660)">
<path d="M19.3709 77.9451L29.4034 95.3231C31.5684 99.0771 36.4383 100.467 40.2896 98.2405C44.1005 96.0382 45.4102 91.169 43.2055 87.3551L37.229 77.0019L42.4048 74.0137C43.3573 73.4627 43.6841 72.2448 43.1339 71.2923L40.5433 66.8052C40.8523 66.7453 42.8834 66.3469 78.7015 59.3205C83.1294 59.08 85.7823 54.2373 83.5458 50.3658L76.9249 38.8982L81.1559 32.4898C81.5715 31.8594 81.5964 31.0493 81.219 30.3956L77.2346 23.4946C76.8572 22.8409 76.1404 22.458 75.3895 22.5024L67.725 22.9623L60.3749 10.231C59.3103 8.38664 57.403 7.26993 55.2738 7.24347C55.2481 7.24269 55.2232 7.24269 55.1976 7.24269C53.14 7.24269 51.2723 8.2668 50.1657 9.99829L24.1412 43.1511L7.22243 52.919C0.568053 56.7594 -1.73697 65.2963 2.11822 71.9686C5.64035 78.0696 13.0659 80.4696 19.3709 77.9451ZM39.7558 89.3481C40.8562 91.2515 40.2048 93.6873 38.2959 94.79C36.3807 95.8974 33.9419 95.2172 32.8539 93.3317L22.893 76.0767L29.7941 72.0923C41.3223 92.0624 39.5706 89.0282 39.7558 89.3481ZM35.2368 73.5506L33.2446 70.1001L36.6951 68.1079L38.6873 71.5584L35.2368 73.5506ZM74.3996 26.5529L77.1529 31.3217L74.6977 35.0399L69.9522 26.8198L74.3996 26.5529ZM53.498 12.1827C54.0326 11.308 54.8808 11.2177 55.2248 11.2271C55.5649 11.231 56.4123 11.3368 56.9236 12.2224L80.0952 52.358C80.8501 53.6646 79.9326 55.3073 78.419 55.3447C78.1474 55.3509 78.0221 55.3999 77.3264 55.5299L52.8155 13.0753C53.3299 12.4138 53.396 12.35 53.498 12.1827ZM50.1642 16.4527L73.1934 56.3408L38.4375 63.1578L27.8696 44.8538L50.1642 16.4527ZM5.56875 69.9764C4.69406 68.4628 4.23181 66.7445 4.23181 65.006C4.23181 61.4528 6.14151 58.1439 9.21461 56.3696L24.742 47.4047L34.7029 64.6574L19.1756 73.623C14.4184 76.3685 8.31502 74.7327 5.56875 69.9764Z" fill="black"/>
<path d="M27.5344 64.1951C28.487 63.6457 28.813 62.4263 28.2636 61.4738C27.7134 60.522 26.4948 60.1952 25.5423 60.7446C24.5897 61.2948 24.2629 62.5142 24.8131 63.466C25.3625 64.4185 26.5819 64.7453 27.5344 64.1951Z" fill="#F9BC6E"/>
<path d="M21.3629 65.4581C20.8127 64.5056 19.5941 64.1788 18.6416 64.729L15.191 66.7211C14.2401 67.2706 13.0191 66.9429 12.4697 65.992C11.9195 65.0395 10.7008 64.7126 9.74832 65.2628C8.7958 65.813 8.46896 67.0316 9.01915 67.9842C10.6588 70.8246 14.3163 71.8261 17.1832 70.1717L20.6338 68.1795C21.5863 67.6293 21.9131 66.4114 21.3629 65.4581Z" fill="#F9BC6E"/>
<path d="M99.2879 11.5041L88.1869 17.6814C87.2259 18.2169 86.8796 19.4301 87.415 20.3911C87.9488 21.3514 89.1612 21.6993 90.1246 21.1631L101.225 14.9858C102.187 14.4504 102.532 13.2372 101.997 12.2761C101.462 11.3142 100.249 10.9687 99.2879 11.5041Z" fill="#F9BC6E"/>
<path d="M98.123 32.1372L90.4258 30.075C89.3628 29.7902 88.2702 30.4205 87.9854 31.4835C87.7005 32.5466 88.3317 33.6384 89.3947 33.9232L97.0926 35.9854C98.1619 36.2726 99.249 35.6321 99.5323 34.5769C99.8171 33.5139 99.186 32.4213 98.123 32.1372Z" fill="#F9BC6E"/>
<path d="M78.7804 4.26608L76.7159 11.964C76.4311 13.027 77.0614 14.1188 78.1244 14.4044C79.1867 14.6885 80.2792 14.0597 80.5648 12.9959L82.6286 5.29797C82.9134 4.23495 82.2831 3.14236 81.2201 2.85754C80.1578 2.57272 79.0653 3.20306 78.7804 4.26608Z" fill="#F9BC6E"/>
</g>
<defs>
<clipPath id="clip0_24_21660">
<rect width="102" height="102" fill="white" transform="translate(0.249023)"/>
</clipPath>
</defs>
</svg>
