<svg width="103" height="103" viewBox="0 0 103 103" fill="none" xmlns="http://www.w3.org/2000/svg">
<g clip-path="url(#clip0_24_21676)">
<path d="M102.065 1.35306C101.674 0.961996 101.14 0.750027 100.585 0.770945C100.134 0.787082 89.4093 1.21819 76.6604 5.72431C66.4444 9.33136 57.9293 14.4957 51.3513 21.0739C49.8772 22.5479 48.4429 24.111 47.0705 25.7348C40.5664 21.9062 35.3544 23.1067 32.0596 24.87C24.4731 28.9301 19.7773 39.954 19.7773 47.8391C19.7779 48.6447 20.2634 49.3713 21.0077 49.6795C21.2541 49.7817 21.5131 49.8313 21.7697 49.8313C22.2883 49.8313 22.7977 49.6287 23.1788 49.2477C27.1797 45.2468 32.1145 45.4971 33.7266 45.709L34.4243 46.4067C33.0513 49.6739 31.9452 52.9227 31.134 56.0825C30.8411 57.226 30.9399 58.4361 31.3752 59.5429C29.4572 60.4269 27.6066 61.7248 25.9953 63.3361C20.8673 68.4643 19.826 80.9621 19.7841 81.4916C19.7383 82.0728 19.9491 82.6449 20.3613 83.0571C20.7364 83.432 21.2438 83.6406 21.7697 83.6406C21.8219 83.6406 21.8743 83.6386 21.9267 83.6344C22.4562 83.5928 34.9544 82.5515 40.0825 77.4234C41.6932 75.8127 42.9909 73.9624 43.8748 72.0447C45.0466 72.5055 46.2527 72.5623 47.3372 72.2844C50.4956 71.4733 53.7441 70.3677 57.0117 68.9945L57.7093 69.6921C57.9211 71.3044 58.1713 76.2392 54.1706 80.2397C53.601 80.8095 53.4305 81.6664 53.7389 82.4106C54.0471 83.1551 54.7734 83.6404 55.5793 83.6404C63.4643 83.6404 74.4881 78.9446 78.5482 71.3582C80.3114 68.0637 81.5119 62.8518 77.6833 56.3475C79.3064 54.9757 80.8696 53.5413 82.3443 52.0667C88.9224 45.4885 94.0866 36.9733 97.6936 26.7582C102.2 14.0086 102.631 3.28349 102.647 2.83325C102.667 2.28042 102.456 1.74433 102.065 1.35306ZM24.2315 43.5541C25.469 37.565 29.0635 30.993 33.9404 28.3828C37.1994 26.6389 40.7616 26.8098 44.5492 28.883C41.3224 33.1268 38.5172 37.6989 36.179 42.5269C36.1493 42.5086 35.7907 42.0578 35.1245 41.9075C34.8506 41.8456 29.5795 40.7118 24.2315 43.5541ZM37.2651 74.6059C34.5259 77.3451 28.1001 78.7898 24.0386 79.3797C24.6287 75.3181 26.0736 68.8925 28.8127 66.1534C30.3467 64.6194 32.1253 63.4564 33.9131 62.8014L40.6172 69.5055C39.9622 71.2933 38.7993 73.0719 37.2651 74.6059ZM46.3475 68.4247C45.771 68.5723 45.1032 68.3556 44.6067 67.8599C42.0294 65.2826 41.0212 64.2744 40.7048 63.9582C40.1247 63.3781 38.7021 61.9555 35.5598 58.813C35.063 58.3152 34.8462 57.6476 34.9934 57.072C35.6315 54.587 36.4661 52.0374 37.4809 49.4633L53.9552 65.9377C51.3807 66.9527 48.8316 67.787 46.3475 68.4247ZM75.0357 69.4782C72.4256 74.3548 65.8538 77.9495 59.8649 79.1869C61.7744 75.5936 62.1953 71.0193 61.4977 68.2456C61.3357 67.6013 60.9153 67.2774 60.8918 67.2394C65.7195 64.9011 70.2913 62.0959 74.5355 58.8692C76.6088 62.6571 76.7795 66.2197 75.0357 69.4782ZM79.5273 49.2493C77.7322 51.0443 75.7991 52.7785 73.7819 54.4035C68.9325 58.3082 63.595 61.6156 57.9006 64.2485L39.1701 45.5184C41.8029 39.8235 45.1104 34.4861 49.0146 29.6373C50.6411 27.6186 52.375 25.6854 54.1694 23.8912C60.0713 17.9892 67.6882 13.292 76.8148 9.91088L93.5077 26.6038C90.1269 35.7302 85.4298 43.3471 79.5273 49.2493ZM94.941 22.4021L81.0165 8.47751C88.6029 6.12115 95.2028 5.23882 98.4971 4.92166C98.1797 8.21653 97.2972 14.8164 94.941 22.4021Z" fill="black"/>
<path d="M54.1712 49.2495C53.3922 48.4705 52.1312 48.4705 51.3522 49.2495C50.5753 50.0264 50.5753 51.2875 51.3522 52.0664C52.1312 52.8434 53.3922 52.8434 54.1712 52.0664C54.9481 51.2875 54.9481 50.0264 54.1712 49.2495Z" fill="#F9BC6E"/>
<path d="M79.5256 23.8928C75.6329 20.0003 69.3312 20.0001 65.4383 23.8928C61.5557 27.7754 61.5555 34.0946 65.4389 37.9803C69.3228 41.8619 75.6421 41.8635 79.5256 37.9799C83.4179 34.0876 83.4187 27.7857 79.5256 23.8928ZM76.7083 35.1624C74.3788 37.492 70.5869 37.492 68.2562 35.1628C65.9264 32.8315 65.9262 29.0396 68.2558 26.7101C70.5913 24.3747 74.3724 24.3743 76.7083 26.7101C79.0437 29.0454 79.0441 32.8267 76.7083 35.1624Z" fill="#F9BC6E"/>
<path d="M48.5346 83.0565C47.7563 82.2786 46.4948 82.279 45.7171 83.0569L40.0832 88.6928C39.3054 89.471 39.3056 90.7324 40.0836 91.5102C40.8619 92.2879 42.1234 92.2879 42.9011 91.5098L48.535 85.8739C49.3128 85.0957 49.3126 83.8343 48.5346 83.0565Z" fill="#F9BC6E"/>
<path d="M20.3622 54.8834C19.5844 54.1053 18.3232 54.1053 17.5448 54.883L11.909 60.5169C11.1308 61.2946 11.1306 62.5561 11.9084 63.3342C12.6859 64.112 13.9472 64.1128 14.7257 63.3346L20.3616 57.7007C21.1397 56.923 21.1399 55.6616 20.3622 54.8834Z" fill="#F9BC6E"/>
<path d="M34.4478 85.8757C33.6702 85.0977 32.4086 85.0977 31.6304 85.8755L18.1354 99.3685C17.3572 100.146 17.3572 101.408 18.1352 102.186C18.9127 102.964 20.1744 102.964 20.9525 102.186L34.4476 88.693C35.2257 87.9151 35.2257 86.6536 34.4478 85.8757Z" fill="#F9BC6E"/>
<path d="M18.5113 85.8757C17.7335 85.0977 16.4719 85.0977 15.6939 85.8755L2.19887 99.3685C1.42072 100.146 1.42072 101.408 2.19867 102.186C2.97622 102.964 4.23787 102.964 5.01602 102.186L18.5111 88.693C19.2892 87.9151 19.2892 86.6536 18.5113 85.8757Z" fill="#F9BC6E"/>
<path d="M17.5433 68.9695C16.7655 68.1918 15.5039 68.1918 14.7259 68.9697L1.23285 82.4648C0.454902 83.2429 0.454902 84.5042 1.23305 85.2823C2.011 86.0602 3.27245 86.0603 4.0504 85.2821L17.5435 71.7871C18.3214 71.0089 18.3214 69.7477 17.5433 68.9695Z" fill="#F9BC6E"/>
<path d="M62.6222 40.7963C61.8441 40.0183 60.583 40.0183 59.8047 40.7963L56.9878 43.6132C56.2098 44.3912 56.2098 45.6526 56.9878 46.4308C57.7659 47.2087 59.0271 47.2087 59.8053 46.4308L62.6222 43.6138C63.4002 42.8359 63.4002 41.5744 62.6222 40.7963Z" fill="#F9BC6E"/>
</g>
<defs>
<clipPath id="clip0_24_21676">
<rect width="102" height="102" fill="white" transform="translate(0.648438 0.769531)"/>
</clipPath>
</defs>
</svg>
