<svg width="107" height="106" viewBox="0 0 107 106" fill="none" xmlns="http://www.w3.org/2000/svg">
<g clip-path="url(#clip0_24_21730)">
<path d="M60.5397 36.8751H28.471C27.508 36.8751 26.7275 37.6558 26.7275 38.6185C26.7275 39.5814 27.5083 40.3619 28.471 40.3619H60.5397C61.5026 40.3619 62.2831 39.5812 62.2831 38.6185C62.2831 37.6558 61.5026 36.8751 60.5397 36.8751Z" fill="#F9BC6E"/>
<path d="M60.5397 46.4641H28.471C27.508 46.4641 26.7275 47.2448 26.7275 48.2075C26.7275 49.1704 27.5083 49.9509 28.471 49.9509H60.5397C61.5026 49.9509 62.2831 49.1702 62.2831 48.2075C62.2831 47.2446 61.5026 46.4641 60.5397 46.4641Z" fill="#F9BC6E"/>
<path d="M106.049 24.5169C105.917 23.8099 105.364 23.2571 104.657 23.1244C99.6313 22.1826 90.2091 27.2952 75.8548 38.7571C74.4147 39.9072 72.971 41.0868 71.5405 42.2762V26.7745H86.0556C87.0185 26.7745 87.799 25.9938 87.799 25.0311V19.1396C87.799 13.4059 83.1342 8.74109 77.4005 8.74109H26.818C21.6637 8.74109 17.4705 12.9343 17.4705 18.0885V79.2247H1.90259C0.939687 79.2247 0.15918 80.0054 0.15918 80.9681V86.8598C0.15918 92.5939 4.82421 97.2589 10.5584 97.2589H62.1949C67.3493 97.2589 71.5425 93.0655 71.5425 87.9111L71.5405 74.9453C76.4668 69.741 83.9087 61.469 90.4165 53.3193C101.878 38.9652 106.992 29.544 106.049 24.5169ZM17.4705 86.8602C17.4705 90.6712 14.37 93.7719 10.559 93.7719C6.74774 93.7719 3.64621 90.6712 3.64621 86.8598V82.7117H17.4705V86.8602ZM77.4005 12.2281C81.2115 12.2281 84.3122 15.3288 84.3122 19.1399V23.2877H37.2167V19.1396C37.2167 16.489 36.2195 14.0666 34.581 12.2279L77.4005 12.2281ZM62.1949 93.7719H18.3191C19.9584 91.9331 20.9573 89.5118 20.9573 86.8602V18.0885C20.9573 14.857 23.5862 12.2281 26.8178 12.2281C30.6288 12.2281 33.7295 15.3288 33.7295 19.1399V25.0311C33.7295 25.994 34.5102 26.7745 35.4729 26.7745H68.0532V45.2167C63.5012 49.1078 59.2521 52.9387 55.9117 56.0523H28.4713C27.5084 56.0523 26.7279 56.833 26.7279 57.7957C26.7279 58.7586 27.5086 59.5391 28.4713 59.5391H52.2373C51.6833 60.0765 51.1847 60.5664 50.7551 60.996C49.3335 62.4177 48.2724 64.0004 47.4861 65.6401H28.4713C27.5084 65.6401 26.7279 66.4208 26.7279 67.3835C26.7279 68.3464 27.5086 69.1269 28.4713 69.1269H46.2129C45.6504 71.2575 45.4429 73.3634 45.4179 75.23H28.4713C27.5084 75.23 26.7279 76.0107 26.7279 76.9734C26.7279 77.9361 27.5086 78.7168 28.4713 78.7168H45.5729C45.6613 79.5851 45.7719 80.3087 45.8667 80.8403L38.4858 88.2212C37.8049 88.9021 37.8049 90.006 38.4858 90.6867C38.8262 91.0271 39.2726 91.1975 39.7185 91.1975C40.1647 91.1975 40.611 91.0273 40.9514 90.6867L48.3343 83.3038C49.4078 83.4926 51.2733 83.7477 53.5271 83.7477C53.9208 83.7477 54.3273 83.7398 54.7426 83.7226C60.2235 83.4943 64.82 81.6995 68.0536 78.5344L68.0551 87.9105C68.0555 91.1428 65.4262 93.7719 62.1949 93.7719ZM65.7117 75.9527C63.0822 78.5822 59.3741 80.023 54.6893 80.2354C53.5068 80.2888 52.407 80.2528 51.4588 80.1803L95.8619 35.7773C96.5428 35.0964 96.5428 33.9925 95.8619 33.3118C95.1809 32.6308 94.077 32.6308 93.3963 33.3118L48.9923 77.7158C48.7024 73.9271 49.0032 67.6798 53.2209 63.4621C57.3834 59.2996 67.7998 49.6515 78.0305 41.4823C83.6104 37.0265 96.5177 27.2039 102.648 26.5259C101.97 32.6561 92.1473 45.5635 87.6916 51.1436C79.5223 61.3738 69.8743 71.7902 65.7117 75.9527Z" fill="black"/>
</g>
<defs>
<clipPath id="clip0_24_21730">
<rect width="106" height="106" fill="white" transform="translate(0.15918)"/>
</clipPath>
</defs>
</svg>
