<svg width="657" height="740" viewBox="0 0 657 740" fill="none" xmlns="http://www.w3.org/2000/svg">
<path d="M443.133 148.799C492.75 129.298 542.367 88.5843 552.633 84.4788C562.898 80.3732 519.783 54.3714 491.723 60.5297C463.664 66.688 467.086 103.638 467.086 111.849C467.086 111.849 460.242 100.901 445.186 107.059C430.13 113.218 426.023 136.482 426.023 147.431C426.023 158.379 435.269 151.892 443.133 148.799Z" fill="#F3E7D9"/>
<path d="M78.7101 368.234C78.7101 368.234 174.153 322.108 217.898 296.661C261.644 271.213 268.802 242.584 271.984 227.475C275.167 212.367 272.778 198.846 234.604 217.93C234.604 217.93 243.35 202.028 229.834 185.325C216.311 168.622 184.494 185.325 169.383 206.003C154.272 226.682 153.478 230.657 153.478 230.657C153.478 230.657 142.343 212.367 125.638 217.93C108.932 223.493 104.162 268.031 116.891 281.552C116.891 281.552 102.574 278.37 83.4871 297.454C64.3999 316.538 51.6705 332.447 57.2413 339.605C62.8121 346.762 77.9231 346.762 95.4226 335.629C95.4226 335.629 58.8359 369.028 58.8359 373.804C58.8291 378.573 78.7101 368.234 78.7101 368.234Z" fill="#F3E7D9"/>
<path d="M475.887 425.917C483.251 417.152 496.555 401.277 496.555 401.277C496.555 401.277 516.635 420.628 523.376 427.087C530.541 433.95 544.612 444.324 538.097 445.104C531.54 445.884 523.971 444.529 521.932 443.941C521.932 443.941 521.049 464.037 494.016 459.241C467.982 454.615 467.873 435.456 475.887 425.917Z" fill="#1D2538"/>
<path d="M522.541 439.767C522.541 439.767 571.296 485.824 569.811 490.183C568.278 494.685 533.361 502.917 511.194 476.99C492.627 455.279 491.217 431.159 522.541 439.767Z" fill="#1D2538"/>
<path d="M553.666 492.982C556.294 494.48 609.976 549.139 609.538 557.446C609.073 566.163 581.869 578.179 557.457 560.881C535.229 545.136 518.633 473.029 553.666 492.982Z" fill="#1D2538"/>
<path d="M192.658 426.732L124.72 479.002C124.72 479.002 130.448 483.539 146.264 479.953L234.268 499.947L192.658 426.732Z" fill="#1D2538"/>
<path d="M150.521 471.886L97.6328 517.129C97.6328 517.129 121.121 536.165 144.129 515.788C150.706 509.965 230.573 516.048 230.573 516.048L195.122 468.204C195.122 468.204 161.485 469.464 150.521 471.886Z" fill="#1D2538"/>
<path d="M115.112 519.462C112.716 520.468 91.7677 535.276 68.1772 555.365C68.1772 555.365 95.9287 576.619 114.824 568.572C133.734 560.518 149.693 504.908 115.112 519.462Z" fill="#1D2538"/>
<path d="M276.644 371.108L232.632 422.27C232.632 422.27 237.97 426.143 249.707 422.934L322.963 433.971L276.644 371.108Z" fill="#1D2538"/>
<path d="M257.29 413.731L219.027 449.805C219.027 449.805 272.285 526.887 286.52 509.137C290.592 504.066 323.079 447.889 323.079 447.889L286.342 406.881C286.328 406.874 265.427 411.562 257.29 413.731Z" fill="#1D2538"/>
<path d="M233.173 451.686C231.483 452.576 217.823 465.495 203.074 483.005C203.074 483.005 228.814 501.131 242.125 494.049C255.443 486.967 257.564 438.877 233.173 451.686Z" fill="#1D2538"/>
<path d="M292.228 279.151C292.228 279.151 278.541 202.513 346.294 186.091C414.047 169.669 436.275 221.967 440.053 233.305C447.581 255.886 447.581 269.571 447.581 269.571L292.228 279.151Z" fill="#C94039"/>
<path d="M294.651 271.076C294.651 271.076 315.367 241.16 365.046 229.117C414.725 217.075 423.58 228.392 425.695 230.739C430.568 236.152 430.568 255.373 430.568 255.373C430.568 255.373 394.713 247.873 358.277 251.855C311.165 257.001 294.651 271.076 294.651 271.076Z" fill="#EE5D4F"/>
<path d="M447.753 270.009C448.43 280.266 426.003 288.539 366.825 291.919C307.647 295.306 292.228 284.625 292.228 279.404C291.551 269.147 326.564 258.65 359.297 255.208C398.307 251.096 447.075 259.752 447.753 270.009Z" fill="#1D2538"/>
<path d="M437.049 261.962L436.57 261.784C436.576 261.675 438.123 251.253 429.548 224.855C420.815 197.984 390.833 185.462 390.539 185.332L391.757 185.66L392.468 185.865C392.763 185.995 421.335 199.024 429.931 224.875C438.459 250.521 437.056 261.852 437.049 261.962Z" fill="#1D2538"/>
<path d="M345.917 240.941C360.772 240.941 372.813 228.902 372.813 214.05C372.813 199.198 360.772 187.159 345.917 187.159C331.063 187.159 319.021 199.198 319.021 214.05C319.021 228.902 331.063 240.941 345.917 240.941Z" fill="#EE5D4F"/>
<path d="M354.849 238.779C370.912 238.779 383.935 225.759 383.935 209.698C383.935 193.637 370.912 180.617 354.849 180.617C338.785 180.617 325.763 193.637 325.763 209.698C325.763 225.759 338.785 238.779 354.849 238.779Z" fill="#34283A"/>
<path d="M351.427 235.358C367.49 235.358 380.513 222.338 380.513 206.277C380.513 190.216 367.49 177.196 351.427 177.196C335.363 177.196 322.341 190.216 322.341 206.277C322.341 222.338 335.363 235.358 351.427 235.358Z" fill="#1689CB"/>
<path d="M349.716 229.2C363.323 229.2 374.353 218.171 374.353 204.566C374.353 190.962 363.323 179.933 349.716 179.933C336.109 179.933 325.078 190.962 325.078 204.566C325.078 218.171 336.109 229.2 349.716 229.2Z" fill="#29ABE2"/>
<path d="M349.031 225.778C361.126 225.778 370.931 215.975 370.931 203.882C370.931 191.789 361.126 181.986 349.031 181.986C336.936 181.986 327.131 191.789 327.131 203.882C327.131 215.975 336.936 225.778 349.031 225.778Z" fill="#665070"/>
<path d="M351.324 224.807C361.718 224.807 370.144 216.382 370.144 205.989C370.144 195.597 361.718 187.172 351.324 187.172C340.93 187.172 332.503 195.597 332.503 205.989C332.503 216.382 340.93 224.807 351.324 224.807Z" fill="#FEED7F"/>
<path d="M366.011 214.789C358.968 226.374 345.206 221.529 345.206 221.529L366.668 197.368C366.668 197.368 373.053 203.205 366.011 214.789Z" fill="#F7BC4B"/>
<path d="M361.254 169.019L348.258 35.8416" stroke="#F7BC4B" stroke-miterlimit="10"/>
<path d="M299.524 185.263L205.306 66.7017" stroke="#F7BC4B" stroke-miterlimit="10"/>
<path d="M336.884 167.397L301.146 91.0613" stroke="#F7BC4B" stroke-miterlimit="10"/>
<path d="M268.658 165.776C268.658 165.776 286.527 115.428 348.258 118.671" stroke="#F7BC4B" stroke-miterlimit="10"/>
<path d="M163.97 154.766L171.279 185.626L165.599 179.94L159.912 153.952L163.97 154.766Z" fill="#3E4C6F"/>
<path d="M174.803 157.291L182.113 188.151L176.425 182.465L170.738 156.483L174.803 157.291Z" fill="#3E4C6F"/>
<path d="M173.627 156.032L167.132 178.77L172.005 186.078L179.314 164.961L177.692 191.764L189.874 189.328L183.379 156.839L173.627 156.032Z" fill="#1D2538"/>
<path d="M169.404 283.933C160.267 277.57 157.448 209.596 158.009 190.279C158.549 171.845 158.337 179.071 158.337 179.071C158.337 179.071 157.393 175.095 165.592 175.095C173.79 175.095 173.784 175.328 174.817 177.901C175.857 180.487 176.542 184.764 177.602 186.433C178.67 188.117 180.545 188.719 182.249 188.678C183.953 188.637 181.442 185.715 186.533 185.715C191.625 185.715 193.487 184.757 194.917 190.772C196.375 196.868 207.037 248.947 207.188 254.298C207.345 259.718 198.715 261.332 191.694 262.858C187.108 263.857 179.566 274.196 178.485 277.173C177.418 280.143 173.291 286.643 169.404 283.933Z" fill="#1D2538"/>
<path d="M187.437 257.542C187.437 257.542 188.792 277.57 200.974 288.128C213.156 298.686 223.853 302.477 223.853 302.477" stroke="#4B3355" stroke-width="3" stroke-miterlimit="10"/>
<path d="M185 257.542C185 257.542 185.815 279.465 197.997 290.023C210.179 300.582 221.416 302.477 221.416 302.477" stroke="#665070" stroke-width="3" stroke-miterlimit="10"/>
<path d="M197.333 246.539C197.333 246.539 200.645 266.266 212.882 276.762C225.119 287.252 236.979 293.814 236.979 293.814" stroke="#665070" stroke-width="3" stroke-miterlimit="10"/>
<path d="M193.815 246.806C193.815 246.806 197.128 266.533 209.364 277.029C221.601 287.519 233.461 294.081 233.461 294.081" stroke="#4B3355" stroke-width="3" stroke-miterlimit="10"/>
<path d="M187.861 250.329C187.861 250.329 191.174 270.057 203.41 280.553C215.647 291.043 227.507 297.605 227.507 297.605" stroke="#4B3355" stroke-width="3" stroke-miterlimit="10"/>
<path d="M179.902 167.945C179.902 167.945 191.783 173.508 194.931 171.66C198.079 169.813 201.241 166.549 203.54 161.814C205.84 157.079 208.036 154.102 206.052 152.159C204.067 150.222 201.918 148.238 201.918 148.238C201.918 148.238 203.992 149.846 205.846 147.485C207.701 145.125 213.614 134.046 212.601 131.118C211.588 128.189 209.289 124.036 208.386 122.736C207.482 121.436 206.722 122.305 206.722 122.305C206.722 122.305 206.757 118.76 205.107 116.906C203.458 115.051 200.378 113.895 200.378 113.895C200.378 113.895 200.488 111.432 198.585 109.872C196.683 108.312 195.868 108.366 192.31 107.347C188.751 106.327 186.458 106.266 186.458 106.266C186.458 106.266 183.727 104.131 182.229 103.741C180.73 103.351 173.462 101.9 170.232 104.083C166.995 106.259 161.123 113.799 158.761 120.82C156.4 127.84 153.547 146.295 156.558 153.835C159.569 161.383 172.278 166.487 179.902 167.945Z" fill="#992C29"/>
<path d="M189.812 157.749C189.812 157.749 199.516 166.857 201.501 163.032C203.157 159.829 205.203 155.936 205.203 155.936C205.203 155.936 205.826 154.212 205.484 152.891C205.142 151.57 203.232 150.352 203.232 150.352C204.752 148.423 210.425 140.479 209.59 138.077C208.762 135.675 206.88 132.274 206.141 131.214C205.402 130.153 204.779 130.858 204.779 130.858C204.779 130.858 204.806 127.957 203.458 126.438C202.11 124.918 199.585 123.974 199.585 123.974C199.585 123.974 199.674 121.962 198.113 120.683C196.553 119.403 195.889 119.451 192.973 118.616C190.058 117.782 188.183 117.734 188.183 117.734C188.183 117.734 185.945 115.989 184.72 115.667C183.495 115.346 177.541 114.162 174.892 115.948C172.244 117.734 167.433 123.906 165.496 129.66C163.559 135.415 161.424 142.791 166.078 147.54C169.671 151.215 179.005 149.73 189.812 157.749Z" fill="#C94039"/>
<path d="M183.981 104.692C183.981 104.692 188.327 108.489 188.395 110.775C188.463 113.06 184.809 125.569 183.618 129.127C182.427 132.685 181.982 133.362 179.656 134.094C177.329 134.827 173.428 133.937 173.428 133.937C173.428 133.937 174.728 135.073 177.89 135.23C181.052 135.388 182.852 133.588 183.639 133.13C184.426 132.671 185.404 128.921 186.342 125.302C187.286 121.682 189.907 112.636 190.298 111.138C190.688 109.639 188.936 106.649 183.981 104.692Z" fill="#121721"/>
<path d="M200.235 113.772C200.235 113.772 199.893 118.835 197.018 128.839C196.081 132.103 195.287 137.009 190.503 136.12C187.464 135.176 182.058 133.39 182.058 133.39L181.812 133.992C181.812 133.992 185.863 135.846 188.573 136.688C191.29 137.529 193.631 137.742 195.088 136.25C196.546 134.758 199.243 125.603 200.036 121.011C200.83 116.413 202.055 115.311 200.235 113.772Z" fill="#121721"/>
<path d="M206.729 122.298C206.729 122.298 203.691 133.951 202.65 137.413C201.617 140.875 199.352 141.71 195.766 143.708L196.888 143.825C196.888 143.825 202.438 141.45 203.287 138.207C204.136 134.963 207.523 122.051 207.523 122.051C207.523 122.051 207.379 121.99 207.113 122.051C206.853 122.113 206.729 122.298 206.729 122.298Z" fill="#121721"/>
<path d="M203.684 150.346C203.684 150.346 196.799 144.023 193.507 141.827C190.216 139.63 187.095 141.888 186.164 143.914C185.24 145.939 182.503 148.224 184.638 150.25C186.766 152.275 191.297 154.246 193.596 156.128C193.596 156.128 193.391 156.285 192.768 157.872C192.146 159.46 191.153 159.782 191.153 159.782L192.673 156.134C192.673 156.134 183.249 151.023 183.078 149.114C182.906 147.205 185.288 143.695 186.657 141.519C188.026 139.343 190.777 139.527 194.383 141.532C197.99 143.53 203.684 150.346 203.684 150.346Z" fill="#121721"/>
<path d="M197.997 302.881C209.808 302.881 219.383 293.307 219.383 281.497C219.383 269.688 209.808 260.114 197.997 260.114C186.185 260.114 176.61 269.688 176.61 281.497C176.61 293.307 186.185 302.881 197.997 302.881Z" fill="#992C29"/>
<path d="M193.664 290.968C198 290.968 201.514 287.454 201.514 283.119C201.514 278.785 198 275.271 193.664 275.271C189.329 275.271 185.814 278.785 185.814 283.119C185.814 287.454 189.329 290.968 193.664 290.968Z" fill="#4B3355"/>
<path d="M179.313 255.646C179.313 255.646 180.669 275.674 192.85 286.233C205.032 296.791 215.729 300.582 215.729 300.582" stroke="#856792" stroke-width="3" stroke-miterlimit="10"/>
<path d="M173.359 254.565C173.359 254.565 174.714 274.593 186.896 285.151C199.078 295.71 209.775 299.5 209.775 299.5" stroke="#BB83C3" stroke-width="3" stroke-miterlimit="10"/>
<path d="M175.255 259.841C175.255 259.841 177.965 286.233 190.147 296.791C202.329 307.349 213.026 311.14 213.026 311.14" stroke="#665070" stroke-width="3" stroke-miterlimit="10"/>
<path d="M293.926 311.365C287.711 305.597 291.229 306.774 260.138 291.693C241.126 282.469 226.905 277.707 220.424 275.757C218.008 275.031 213.799 276.277 213.231 279.506C211.944 286.773 210.808 291.269 208.721 295.148C206.668 298.953 204.799 300.397 201.576 298.693C198.476 297.051 194.527 292.624 193.364 297.078C192.221 301.478 192.029 311.824 195.861 314.376C204.3 320.008 253.383 352.722 274.784 357.936C299.182 363.882 300.331 317.318 293.926 311.365Z" fill="#C94039"/>
<path d="M269.322 315.149C264.881 311.201 271.232 312.59 248.743 302.025C234.802 295.477 224.29 292.001 219.472 290.564C217.672 290.023 214.524 290.831 214.1 293.055C213.135 298.077 212.286 301.191 210.712 303.866C209.166 306.5 207.756 307.493 205.319 306.268C202.972 305.091 199.981 301.95 199.092 305.057C198.209 308.136 198.051 315.403 200.96 317.223C207.366 321.226 244.144 343.751 259.741 347.679C268.125 349.807 273.887 319.207 269.322 315.149Z" fill="#EE5D4F"/>
<path d="M192.823 305.953L282.599 353.516" stroke="#1D2538" stroke-width="0.5" stroke-miterlimit="10"/>
<path d="M298.675 304.735C298.675 304.735 284.502 297.721 282.517 302.819C281.415 315.656 274.387 340.446 267.858 357.423C269.747 359.907 279.013 367.146 286.576 364.676C294.494 362.096 298.675 304.735 298.675 304.735Z" fill="#F7BC4B"/>
<path d="M283.427 337.764C280.663 336.026 279.253 332.755 279.848 329.539C281.751 319.221 284.132 298.686 282.517 302.826C281.415 315.663 274.387 340.453 267.858 357.43C269.747 359.914 279.013 367.153 286.576 364.683C290.668 363.349 293.207 339.564 293.207 339.564C288.382 339.413 285.727 339.208 283.427 337.764Z" fill="#FEED7F"/>
<path d="M167.686 282.75C157.242 275.654 153.341 201.795 155.189 183.108C156.873 166.077 156.223 172.659 156.223 172.659C156.223 172.659 155.477 169.019 164.011 169.019C172.49 169.019 172.477 169.231 173.442 171.564C174.42 173.925 174.961 177.86 176.008 179.406C177.062 180.966 178.999 181.514 180.778 181.472C182.551 181.425 180.032 178.729 185.309 178.708C190.565 178.688 192.495 177.805 193.877 183.354C195.301 189.068 205.176 238.67 207.209 253.573C204.163 252.41 197.251 253.511 188.395 257.672C179.396 261.9 173.517 268.332 171.847 274.087C170.143 279.931 172.148 285.781 167.686 282.75Z" fill="#C94039"/>
<path d="M198.537 206.106L196.464 195.185C196.464 195.185 173.722 188.329 154.587 197.71L154.95 209.26C154.95 209.267 177.602 198.531 198.537 206.106Z" fill="#F7BC4B"/>
<path d="M155.216 214.632L155.08 210.841C155.08 210.841 167.138 206.359 177.144 205.565C189.059 204.621 199.071 208.405 199.071 208.405L199.749 212.333C199.749 212.333 191.304 207.96 177.356 208.945C171.026 209.397 163.552 211.375 155.216 214.632Z" fill="#F7BC4B"/>
<path d="M166.146 279.582C160.363 262.68 157.544 222.713 157.544 222.713C157.544 222.713 156.873 219.428 164.565 219.428C172.21 219.428 187.492 227.735 191.502 232.361C199.174 241.201 202.425 250.227 200.981 250.945C199.537 251.664 192.809 253.21 184.823 256.96C176.706 260.771 171.402 266.574 169.897 271.767C168.364 277.036 167.72 284.193 166.146 279.582Z" fill="#EE5D4F"/>
<path d="M162.71 169.019C158.618 176.607 158.652 212.716 163.073 239.942C166.44 260.696 172.818 271.617 172.818 271.617" stroke="#1D2538" stroke-width="0.5" stroke-miterlimit="10"/>
<path d="M293.597 304.372C293.597 304.372 309.269 280.553 360.714 276.762C420.993 270.625 449.634 292.836 449.634 292.836L500.956 578.514L265.106 571.582L293.597 304.372Z" fill="#992C29"/>
<path d="M284.091 393.162C284.091 393.162 321.451 367.988 374.251 367.988C427.05 367.988 467.565 392.621 467.565 392.621L474.696 431.781C474.696 431.781 427.858 407.778 377.501 406.97C327.145 406.163 279.67 433.95 279.67 433.95L284.091 393.162Z" fill="#F7BC4B"/>
<path d="M278.363 447.43C278.363 447.43 319.172 424.966 375.913 424.966C432.655 424.966 477.132 446.842 477.132 446.842L484.175 482.848C484.175 482.848 419.556 455.238 378.405 455.6C337.253 455.963 274.256 483.067 274.256 483.067L278.363 447.43Z" fill="#F7BC4B"/>
<path d="M299.14 326.563C299.14 326.563 309.105 314.951 349.88 311.947C404.028 321.691 478.755 506.304 478.755 506.304C478.755 506.304 434.352 487.357 377.495 486.543C320.637 485.728 276.234 514.967 276.234 514.967L299.14 326.563Z" fill="#EE5D4F"/>
<path d="M446.288 435.285C446.288 435.285 450.593 443.77 455.199 453.39C459.024 461.382 463.007 470.168 465.361 475.389C373.703 423.481 280.471 480.856 280.471 480.856L284.837 444.358C284.837 444.358 325.503 425.185 377.679 425.466C411.611 425.644 431.827 431.234 446.288 435.285Z" fill="#FEED7F"/>
<path d="M291.578 388.817L286.438 430.426C286.438 430.426 309.002 414.004 357.867 409.81C406.738 405.615 436.967 417.254 436.967 417.254C436.967 417.254 425.079 393.976 410.796 371.779C410.796 371.772 358.544 355.261 291.578 388.817Z" fill="#FEED7F"/>
<path d="M453.843 313.035C453.843 313.035 422.978 285.151 364.409 289.832C342.982 291.542 318.296 298.234 292.837 313.582" stroke="#1D2538" stroke-width="0.5" stroke-miterlimit="10"/>
<path d="M316.763 301.574L313.69 367.577" stroke="#1D2538" stroke-width="0.5" stroke-miterlimit="10"/>
<path d="M285.111 385.094L284.974 385.211L285.015 384.725C285.015 384.725 290.962 378.915 302.713 372.613C313.56 366.804 331.642 359.435 356.197 357.327C411.098 352.606 455.431 368.392 465.512 381.242L465.642 381.96L465.437 381.707C455.808 368.871 411.378 352.927 356.224 357.662C331.724 359.77 313.684 367.112 302.871 372.908C291.168 379.189 285.173 385.033 285.111 385.094Z" fill="#1D2538"/>
<path d="M477.673 494.672C477.673 494.672 432.642 460.5 372.629 465.433C326.338 469.238 293.57 480.863 278.206 493.064" stroke="#1D2538" stroke-width="0.5" stroke-miterlimit="10"/>
<path d="M375.51 289.394L375.872 322.238C375.872 322.238 404.438 322.649 415.58 325.126C431.827 328.732 435.434 330.901 435.434 330.901L432.546 300.219C432.546 300.219 405.855 288.402 375.51 289.394Z" stroke="#1D2538" stroke-width="0.5" stroke-miterlimit="10"/>
<path d="M433.99 315.019C433.99 315.019 446.986 318.988 451.318 322.957" stroke="#1D2538" stroke-width="0.5" stroke-miterlimit="10"/>
<path d="M375.873 315.019C375.873 315.019 341.579 312.857 315.949 325.844" stroke="#1D2538" stroke-width="0.5" stroke-miterlimit="10"/>
<path d="M435.434 330.901L437.692 365.771" stroke="#1D2538" stroke-width="0.5" stroke-miterlimit="10"/>
<path d="M577.304 154.766L569.995 185.626L575.682 179.94L581.363 153.952L577.304 154.766Z" fill="#3E4C6F"/>
<path d="M566.478 157.291L559.162 188.151L564.849 182.465L570.536 156.483L566.478 157.291Z" fill="#3E4C6F"/>
<path d="M567.648 156.032L574.143 178.77L569.27 186.077L561.961 164.961L563.59 191.764L551.401 189.328L557.902 156.839L567.648 156.032Z" fill="#1D2538"/>
<path d="M551.695 258.171C548.308 257.295 546.159 254.503 546.364 251.411C547.247 237.999 549.143 204.607 549.321 202.383C549.533 199.667 550.792 197.012 555.021 196.266C559.223 195.527 564.418 195.527 564.965 193.331C565.499 191.175 564.904 187.597 568.538 187.337C572.165 187.077 577.127 186.228 579.091 188.028C581.76 190.471 592.785 236.699 594.154 258C595.762 283.044 575.607 295.142 574.054 292.829C572.528 290.55 579.276 285.199 573.363 269.475C569.907 260.272 557.485 259.67 551.695 258.171Z" fill="#1D2538"/>
<path d="M573.513 248.338C573.513 248.338 572.158 268.367 559.976 278.925C547.794 289.483 537.097 293.274 537.097 293.274" stroke="#4B3355" stroke-width="3" stroke-miterlimit="10"/>
<path d="M575.949 248.338C575.949 248.338 575.135 270.262 562.953 280.82C550.771 291.378 539.534 293.274 539.534 293.274" stroke="#665070" stroke-width="3" stroke-miterlimit="10"/>
<path d="M560.77 234.489C560.77 234.489 557.457 254.216 545.221 264.713C532.984 275.202 521.124 281.764 521.124 281.764" stroke="#665070" stroke-width="3" stroke-miterlimit="10"/>
<path d="M564.294 234.763C564.294 234.763 560.982 254.49 548.745 264.986C536.509 275.476 524.648 282.038 524.648 282.038" stroke="#4B3355" stroke-width="3" stroke-miterlimit="10"/>
<path d="M573.089 241.126C573.089 241.126 569.776 260.853 557.54 271.35C545.303 281.84 533.443 288.402 533.443 288.402" stroke="#4B3355" stroke-width="3" stroke-miterlimit="10"/>
<path d="M556.76 172.344C556.76 172.344 544.626 177.073 541.635 175.027C538.644 172.981 535.742 169.532 533.792 164.694C531.842 159.85 529.871 156.75 531.972 154.971C534.066 153.192 536.331 151.379 536.331 151.379C536.331 151.379 534.168 152.823 532.492 150.359C530.815 147.896 525.73 136.523 526.935 133.698C528.139 130.865 530.699 126.916 531.684 125.692C532.67 124.467 533.361 125.377 533.361 125.377C533.361 125.377 533.573 121.867 535.332 120.149C537.091 118.432 540.218 117.501 540.218 117.501C540.218 117.501 540.28 115.058 542.271 113.642C544.263 112.225 545.064 112.335 548.657 111.575C552.25 110.816 554.522 110.912 554.522 110.912C554.522 110.912 557.376 108.989 558.881 108.708C560.394 108.428 567.682 107.49 570.735 109.872C573.787 112.253 579.077 120.108 580.932 127.224C582.786 134.341 584.34 152.795 580.836 160.048C577.339 167.295 564.404 171.434 556.76 172.344Z" fill="#992C29"/>
<path d="M549.608 163.593C549.608 163.593 540.875 168.554 538.754 168.068C536.632 167.582 535.25 166.645 533.73 162.854C532.211 159.063 530.664 156.641 532.307 155.245C533.949 153.849 534.031 153.562 532.717 151.639C531.403 149.709 527.427 140.814 528.372 138.604C529.316 136.387 531.314 133.301 532.088 132.336C532.861 131.371 533.402 132.089 533.402 132.089C533.402 132.089 533.566 129.346 534.942 127.998C536.317 126.65 538.76 125.924 538.76 125.924C538.76 125.924 538.808 124.015 540.369 122.907C541.929 121.798 542.552 121.887 545.365 121.292C548.171 120.697 549.95 120.772 549.95 120.772C549.95 120.772 552.181 119.266 553.358 119.047C554.535 118.829 560.243 118.096 562.631 119.958C565.02 121.819 569.16 127.97 570.611 133.533C572.062 139.103 573.007 144.68 570.269 150.352C567.532 156.025 559.586 154.663 549.608 163.593Z" fill="#C94039"/>
<path d="M557.088 109.516C557.088 109.516 552.53 112.971 552.297 115.229C552.065 117.487 554.83 130.119 555.767 133.718C556.705 137.317 557.095 138.029 559.346 138.905C561.598 139.781 565.52 139.178 565.52 139.178C565.52 139.178 564.151 140.218 561.016 140.15C557.882 140.088 556.219 138.186 555.473 137.673C554.727 137.16 554.015 133.39 553.338 129.742C552.653 126.095 550.682 116.96 550.395 115.455C550.107 113.95 552.044 111.11 557.088 109.516Z" fill="#121721"/>
<path d="M540.376 117.378C540.376 117.378 540.362 122.414 542.518 132.514C543.223 135.812 543.668 140.718 548.465 140.164C551.538 139.438 557.006 138.043 557.006 138.043L557.204 138.658C557.204 138.658 553.071 140.212 550.326 140.862C547.582 141.505 545.248 141.553 543.914 139.979C542.579 138.405 540.54 129.154 540.068 124.556C539.602 119.951 538.466 118.774 540.376 117.378Z" fill="#121721"/>
<path d="M533.361 125.37C533.361 125.37 535.571 137.112 536.351 140.609C537.132 144.105 539.315 145.084 542.73 147.307L541.607 147.342C541.607 147.342 536.276 144.611 535.667 141.341C535.051 138.07 532.587 125.062 532.587 125.062C532.587 125.062 532.731 125.007 532.991 125.089C533.251 125.178 533.361 125.37 533.361 125.37Z" fill="#121721"/>
<path d="M534.442 153.336C534.442 153.336 541.69 147.554 545.105 145.61C548.52 143.667 551.449 146.117 552.229 148.183C553.01 150.25 553.92 151.187 551.682 153.822C549.444 156.456 544.804 160.712 544.804 160.712C544.804 160.712 548.931 162.902 550.689 164.954C550.06 162.594 546.795 159.788 546.795 159.788C546.795 159.788 553.947 153.5 554.248 151.618C554.549 149.737 553.112 148.019 551.908 145.768C550.703 143.517 547.966 143.51 544.256 145.248C540.547 146.986 534.442 153.336 534.442 153.336Z" fill="#121721"/>
<path d="M556.007 298.234C567.818 298.234 577.394 288.661 577.394 276.851C577.394 265.042 567.818 255.468 556.007 255.468C544.195 255.468 534.62 265.042 534.62 276.851C534.62 288.661 544.195 298.234 556.007 298.234Z" fill="#992C29"/>
<path d="M559.258 284.159C563.147 284.159 566.3 281.007 566.3 277.118C566.3 273.23 563.147 270.077 559.258 270.077C555.368 270.077 552.215 273.23 552.215 277.118C552.215 281.007 555.368 284.159 559.258 284.159Z" fill="#4B3355"/>
<path d="M576.264 250.952C576.264 250.952 574.909 270.98 562.727 281.539C550.545 292.097 539.849 295.887 539.849 295.887" stroke="#856792" stroke-width="3" stroke-miterlimit="10"/>
<path d="M582.225 249.871C582.225 249.871 580.87 269.899 568.688 280.457C556.506 291.016 545.81 294.806 545.81 294.806" stroke="#BB83C3" stroke-width="3" stroke-miterlimit="10"/>
<path d="M578.974 261.51C578.974 261.51 577.619 281.539 565.437 292.097C553.255 302.655 542.559 306.446 542.559 306.446" stroke="#665070" stroke-width="3" stroke-miterlimit="10"/>
<path d="M451.831 291.905C451.831 291.905 516.621 270.761 525.6 268.189C534.223 265.712 537.727 267.128 538.788 274.368C539.835 281.498 543.387 284.898 549.964 285.719C556.308 286.513 558.039 286.287 559.34 286.547C560.64 286.807 561.455 289.572 561.537 296.106C561.612 302.374 563.733 303.414 550.135 311.817C535.647 320.767 475.873 347.111 475.873 347.111C475.873 347.111 458.217 337.757 452.646 324.38C446.842 310.462 451.831 291.905 451.831 291.905Z" fill="#C94039"/>
<path d="M498.334 308.765C513.165 303.784 531.944 295.06 537.132 295.655C542.155 296.23 548.828 298.173 553.078 298.063C557.3 297.961 558.477 295.97 558.553 301.033C558.621 305.898 554.056 306.931 543.38 313.521C532.033 320.521 479.945 342.027 479.945 342.027C479.945 342.027 472.219 333.549 471.137 323.046C470.549 317.236 483.258 313.829 498.334 308.765Z" fill="#EE5D4F"/>
<path d="M477.728 330.846C477.803 332.078 476.907 333.125 475.716 333.186C474.525 333.248 473.492 332.29 473.409 331.058C473.327 329.82 474.231 328.766 475.422 328.711C476.619 328.65 477.646 329.608 477.728 330.846Z" fill="#3E4C6F"/>
<path d="M467.182 339.358L561.454 299.5" stroke="#1D2538" stroke-width="0.5" stroke-miterlimit="10"/>
<path d="M456.786 289.25C456.786 289.25 445.679 291.269 443.509 293.835C441.326 296.414 444.351 319.741 451.099 333.357C457.56 346.386 464.65 352.4 471.398 349.431C474.696 347.973 478.036 346.208 478.036 346.208C478.036 346.208 471.137 338.544 464.615 319.111C457.436 297.701 456.786 289.25 456.786 289.25Z" fill="#FEED7F"/>
<path d="M456.786 289.25C456.786 289.25 445.679 291.269 443.509 293.835C441.326 296.414 448.977 320.103 448.977 320.103C448.977 320.103 451.852 324.045 464.615 319.111C457.436 297.701 456.786 289.25 456.786 289.25Z" fill="#F7BC4B"/>
<path d="M556.007 249.146C549.69 249.146 546.713 253.717 546.713 253.717C546.713 253.717 546.104 253.511 546.508 249.269C547.952 231.471 549.3 192.407 549.444 190.532C549.677 187.494 551.038 184.524 555.624 183.689C560.175 182.862 565.807 182.862 566.396 180.405C566.978 177.996 566.334 173.987 570.269 173.699C574.198 173.412 579.577 172.461 581.705 174.473C584.6 177.21 596.543 228.912 598.028 252.745C599.773 280.758 577.346 294.95 575.669 292.364C574.013 289.811 584.621 282.633 578.215 265.041C574.458 254.743 562.324 249.146 556.007 249.146Z" fill="#C94039"/>
<path d="M550.545 219.374C550.545 219.374 563.542 220.995 569.496 217.752C575.45 214.502 569.16 189.259 569.16 189.259L551.497 192.982L550.545 219.374Z" stroke="#1D2538" stroke-width="0.5" stroke-miterlimit="10"/>
<path d="M557.971 247.189C550.456 247.517 548.971 248.188 549.327 244.459C549.957 231.198 586.42 225.422 589.219 225.511C592.682 225.621 596.44 239.587 595.358 256.912C594.277 274.238 584.812 288.477 583.443 272.068C582.718 263.406 575.135 246.443 557.971 247.189Z" fill="#EE5D4F"/>
<path d="M574.957 173.172C575.977 176.156 596.795 238.861 585.428 286.506" stroke="#1D2538" stroke-width="0.5" stroke-miterlimit="10"/>
<path d="M467.6 249.467C464.39 252.67 457.047 257.98 460.681 261.456C463.493 264.152 467.004 261.285 472.965 255.4C476.798 251.616 470.809 246.265 467.6 249.467Z" fill="#CC6D3D"/>
<path d="M464.999 257.576L466.853 260.723L472.137 255.345L464.999 257.576Z" fill="#F5894E"/>
<path d="M478.645 243.412C478.645 243.412 475.47 240.483 471.808 244.37C467.681 248.756 467.483 249.084 467.483 249.084L472.958 255.4C472.958 255.4 480.096 244.595 478.645 243.412Z" fill="#C94039"/>
<path d="M460.051 261.428C462.727 262.94 463.958 262.947 465.676 260.764C467.394 258.582 462.775 255.598 455.842 251.951C448.902 248.304 446.569 246.641 445.494 248.222C444.413 249.803 447.486 253.463 452.304 256.591C457.122 259.718 457.375 259.916 460.051 261.428Z" fill="#CC6D3D"/>
<path d="M459.599 260.881C462.275 262.393 463.473 261.572 463.473 261.572L461.604 258.787C461.604 258.787 446.5 252.348 451.318 255.475C456.136 258.602 456.923 259.369 459.599 260.881Z" fill="#F5894E"/>
<path d="M445.309 251.89C444.084 251.075 443.318 250.685 442.606 249.967C441.785 248.742 441.093 246.354 440.471 245.334C439.184 243.241 440.601 241.482 441.155 242.892C441.709 244.301 444.413 246.73 444.413 246.73L443.235 242.481L439.814 238.321C439.814 238.321 439.656 234.708 440.744 235.057C441.832 235.406 443.906 239.73 445.74 240.189C447.574 240.647 449.983 247.969 449.477 249.577C448.971 251.185 446.904 252.848 445.309 251.89Z" fill="#CC6D3D"/>
<path d="M461.125 279.445C461.125 279.445 459.702 284.625 470.802 282.743C481.903 280.861 502.16 275.934 502.16 275.934C502.16 275.934 467.921 271.063 461.125 279.445Z" fill="#EE5D4F"/>
<path d="M475.846 300.869L484.352 313.993L488.11 309.949L481.553 296.462L475.846 300.869Z" fill="#CC6D3D"/>
<path d="M466.744 278.056C465.998 278.24 461.577 279.082 465.779 286.096C470.624 294.184 471.788 295.997 475.942 301.129L481.704 296.859C481.704 296.859 478.426 288.648 476.845 283.988C474.895 278.24 467.49 277.871 466.744 278.056Z" fill="#1D2538"/>
<path d="M475.75 297.085C472.67 296.277 461.577 279.082 465.779 286.096C470.624 294.184 471.787 295.997 475.942 301.129L481.704 296.859C481.704 296.866 478.837 297.892 475.75 297.085Z" fill="#3E4C6F"/>
<path d="M484.017 312.535C484.017 312.535 482.135 320.233 484.182 321.089C486.228 321.944 489.39 311.762 488.11 309.949C486.83 308.136 484.017 312.535 484.017 312.535Z" fill="#CC6D3D"/>
<path d="M483.716 313.808C483.716 313.808 483.141 318.872 484.175 318.94C485.201 319.009 487.029 315.553 487.603 314.506C488.178 313.459 487.446 309.894 488.267 309.764C489.082 309.634 490.389 311.947 490.423 312.973C490.437 313.329 489.704 314.198 489.109 316.306C488.726 317.661 488.603 320.09 488.062 321.369C487.022 323.826 485.167 325.536 484.428 325.913C482.717 326.796 482.313 324.243 482.3 320.959C482.279 317.674 483.716 313.808 483.716 313.808Z" fill="#C94039"/>
<path d="M487.768 313.398C487.87 312.022 487.453 309.901 488.267 309.771C489.082 309.641 490.389 311.954 490.423 312.98C490.437 313.336 489.704 314.205 489.109 316.313C488.726 317.667 488.602 320.097 488.062 321.376C487.022 323.833 485.167 325.543 484.428 325.92C482.717 326.802 487.295 323.114 487.275 319.83C487.268 319.022 484.968 318.557 484.968 318.557C484.968 318.557 487.583 315.841 487.768 313.398Z" fill="#992C29"/>
<path d="M477.591 270.59C477.591 270.59 468.167 274.751 465.444 277.96C462.72 281.169 462.98 287.93 476.216 282.75C485.359 279.171 494.701 275.661 490.348 274.532C486.002 273.403 482.231 268.305 477.591 270.59Z" fill="#1D2538"/>
<path d="M477.311 321.267C477.311 321.267 475.607 324.216 474.888 325.885C474.265 327.343 473.033 329.273 472.801 330.402C472.301 332.838 472.493 334.185 473.54 334.316C474.587 334.446 477.386 333.529 478.967 331.791C479.857 330.812 481.581 326.228 481.93 324.031C482.211 322.32 480.315 317.12 477.311 321.267Z" fill="#C94039"/>
<path d="M478.96 327.863C478.05 332.27 472.493 334.192 473.54 334.316C474.587 334.446 477.386 333.529 478.967 331.791C479.857 330.812 482.649 324.763 483.005 322.567C483.279 320.849 481.978 319.364 481.602 319.002C481.232 318.646 476.058 323.771 478.96 327.863Z" fill="#992C29"/>
<path d="M478.85 306.473L477.927 319.44C477.927 319.44 474.854 328.068 475.668 328.102C476.483 328.137 479.357 326.091 480.904 322.902C481.903 320.829 484.503 309.573 485.516 306.706C488.911 297.051 479.145 298.536 478.85 306.473Z" fill="#F5894E"/>
<path d="M492.915 273.191C490.855 274.196 481.999 276.133 481.13 282.093C480.055 289.428 478.83 306.74 478.83 306.74L485.366 306.973C485.366 306.973 489.595 297.331 490.807 291.193C491.669 286.828 492.025 283.318 492.025 283.318C492.025 283.318 500.935 276.708 501.695 274.292C502.448 271.877 494.975 272.185 492.915 273.191Z" fill="#1D2538"/>
<path d="M480.165 291.214L479.597 297.557L478.823 306.747L485.366 306.972L480.739 301.95L480.165 291.214Z" fill="#3E4C6F"/>
<path d="M497.014 264.425C497.903 263.303 496.069 261.421 495.823 258.951C495.412 254.764 495.843 249.207 494.735 245.198C493.968 242.413 493.996 242.064 492.155 240.75C490.936 239.881 486.214 241.482 481.43 241.674C476.599 241.872 476.277 242.166 474.477 247.36C472.766 252.293 474.224 253.183 476.154 256.611C477.694 259.348 480.178 262.29 480.178 262.29C480.178 262.29 480.739 265.65 485.037 266.499C490.663 267.621 494.612 267.457 497.014 264.425Z" fill="#CE9436"/>
<path d="M477.646 235.974L479.562 242.029C479.562 242.029 480.602 244.705 482.635 244.725C484.668 244.746 485.927 242.173 485.749 241.544C485.571 240.914 483.237 233.599 483.237 233.599L477.646 235.974Z" fill="#CC6D3D"/>
<path d="M480.698 262.954C478.193 264.22 471.924 270.05 468.044 272.342C459.613 278.412 461.125 279.445 461.125 279.445C461.125 279.445 464.013 276.776 467.435 277.57C469.317 278.008 473.608 281.463 479.254 278.843C483.401 276.92 490.06 276.01 490.06 276.01C490.06 276.01 496.425 277.18 497.609 277.474C501.243 278.377 503.412 275.914 503.412 275.914C502.044 272.171 497.315 261.161 494.016 259.916C490.704 258.677 483.203 261.688 480.698 262.954Z" fill="#F7BC4B"/>
<path d="M497.602 277.481C501.209 278.459 503.406 275.921 503.406 275.921C501.421 269.988 497.732 264.145 497.732 264.145L500.798 273.895L497.602 277.481Z" fill="#CE9436"/>
<path d="M482.922 255.434C481.711 256.111 474.977 251.739 475.6 253.32C476.222 254.893 480.472 264.377 482.341 265.144C484.202 265.91 486.098 261.859 488.534 261.271C490.971 260.682 495.207 262.413 495.077 261.373C494.947 260.333 489.8 251.589 482.922 255.434Z" fill="#F7BC4B"/>
<path d="M479.931 276.085C477.892 277.262 473.71 277.987 473.71 277.987C473.71 277.987 478.515 275.483 482.375 269.502C482.381 269.502 481.971 274.908 479.931 276.085Z" fill="#CE9436"/>
<path d="M500.326 249.782C500.326 249.782 503.112 254.763 504.172 258.465C505.233 262.167 502.571 263.885 500.901 263.809C499.231 263.741 495.926 255.372 493.784 251.931C491.642 248.489 497.37 244.021 500.326 249.782Z" fill="#CC6D3D"/>
<path d="M493.708 252.984C493.708 252.984 488.35 243.897 492.374 241.229C496.391 238.553 499.888 247.476 500.764 250.049L493.708 252.984Z" fill="#C94039"/>
<path d="M507.615 276.845C507.615 276.845 499.813 265.595 498.656 261.572C497.5 257.548 502.325 256.926 504.084 258.493C505.836 260.053 509.99 271.487 510.866 274.333C511.742 277.18 509.374 278.24 507.615 276.845Z" fill="#CC6D3D"/>
<path d="M506.376 274.429C506.376 274.429 500.367 265.76 499.477 262.667C498.588 259.567 508.21 270.303 508.881 272.499C509.551 274.689 507.738 275.503 506.376 274.429Z" fill="#F5894E"/>
<path d="M507.396 275.27C507.396 275.27 507.026 278.041 507.533 279.854C507.717 280.676 509.244 280.84 510.455 281.045C511.666 281.25 512.884 281.223 513.576 281.175C514.26 281.127 515.239 280.354 512.987 279.807C512.022 279.574 510.01 278.657 510.01 278.657C510.01 278.657 509.709 276.714 509.271 275.735C508.552 274.114 507.396 275.27 507.396 275.27Z" fill="#CC6D3D"/>
<path d="M510.77 279.075C510.77 279.075 514.424 278.801 515.67 278.966C516.991 279.144 519.468 279.842 519.94 279.164C520.399 278.494 518.763 277.474 518.243 277.433C517.737 277.385 513.945 277.187 513.945 277.187C513.945 277.187 506.725 277.584 510.77 279.075Z" fill="#CC6D3D"/>
<path d="M509.579 277.043C509.579 277.043 513.521 275.62 514.226 275.524C514.951 275.428 519.913 278.801 518.353 278.795C516.881 278.788 515.287 277.317 514.034 278.117C512.796 278.904 509.182 279.451 509.579 277.043Z" fill="#CC6D3D"/>
<path d="M509.278 275.736C509.278 275.736 511.974 274.539 512.679 274.805C513.418 275.086 516.094 277.235 514.479 277.235C512.967 277.241 509.449 279.499 509.278 275.736Z" fill="#CC6D3D"/>
<path d="M470.494 235.351C470.494 235.351 473.204 239.867 477.338 238.02C481.471 236.165 482.491 225.648 476.359 225.854C470.227 226.059 468.201 232.265 470.494 235.351Z" fill="#273252"/>
<path d="M473.451 221.242C475.517 219.011 476.291 216.144 480.808 217.081C480.808 217.081 485.434 215.583 489.876 218.758C495.2 222.569 493.181 228.091 493.181 228.091C493.181 228.091 499.039 233.976 492.024 237.91C488.644 239.806 482.45 237.91 479.733 237.041C473.676 235.112 471.384 223.472 473.451 221.242Z" fill="#273252"/>
<path d="M479.548 219.88C477.263 220.455 469.098 219.38 468.913 217.499C468.728 215.617 475.695 213.564 476.729 217.519C476.729 217.519 475.08 213.674 477.434 212.613C479.795 211.546 481.834 219.305 479.548 219.88Z" fill="#273252"/>
<path d="M471.398 227.838C470.426 236.713 476.079 238.834 482.197 238.047C486.796 237.459 487.439 234.537 487.186 228.734C486.933 222.932 484.654 218.607 480.028 218.286C473.916 217.861 472.027 222.076 471.398 227.838Z" fill="#CC6D3D"/>
<path d="M473.328 232.662C474.395 235.789 476.818 238.068 481.02 237.561C484.394 237.158 486.365 234.564 486.516 231.348C486.666 228.132 479.535 225.901 476.188 225.799C471.774 225.669 472.26 229.528 473.328 232.662Z" fill="#F5894E"/>
<path d="M488.24 229.856L484.339 229.658C484.339 229.658 484.168 222.562 479.672 220.858C474.95 219.066 472.794 222.09 472.794 222.09C472.794 222.09 475.046 216.021 482.026 218.566C487.576 220.585 488.24 229.856 488.24 229.856Z" fill="#F7BC4B"/>
<path d="M489.171 230.3C489.641 228.525 488.898 226.789 487.513 226.423C486.128 226.057 484.625 227.2 484.156 228.975C483.687 230.751 484.429 232.487 485.814 232.853C487.199 233.219 488.702 232.076 489.171 230.3Z" fill="#F5894E"/>
<path d="M478.522 224.403C478.522 224.403 477.331 223.616 476.564 223.623" stroke="#1D2538" stroke-width="0.25" stroke-miterlimit="10" stroke-linecap="round" stroke-linejoin="round"/>
<path d="M477.546 226.731C477.696 226.036 477.516 225.408 477.143 225.327C476.77 225.246 476.345 225.743 476.195 226.438C476.044 227.132 476.224 227.761 476.597 227.842C476.97 227.922 477.395 227.425 477.546 226.731Z" fill="#273252"/>
<path d="M473.144 226.158C473.205 225.519 473.059 224.981 472.818 224.958C472.578 224.935 472.333 225.435 472.272 226.075C472.21 226.714 472.356 227.251 472.597 227.274C472.837 227.297 473.082 226.798 473.144 226.158Z" fill="#273252"/>
<path d="M473.676 223.171C473.676 223.171 472.8 223.11 472.369 223.527" stroke="#1D2538" stroke-width="0.25" stroke-miterlimit="10" stroke-linecap="round" stroke-linejoin="round"/>
<path d="M488.452 232.327C488.452 232.327 484.38 230.589 482.005 233.319C479.63 236.049 483.449 242.912 488.089 240.421C492.729 237.944 491.573 233.339 488.452 232.327Z" fill="#273252"/>
<path d="M482.423 219.948C482.423 219.948 482.238 222.993 483.005 225.094C483.586 226.681 484.373 227.605 484.373 227.605L484.565 226.962L485.509 227.051C485.509 227.051 483.648 224.916 483.1 220.099L482.423 219.948Z" fill="#EE5D4F"/>
<path d="M482.464 219.613C482.464 219.613 481.246 222.412 481.246 224.642C481.246 226.333 481.67 227.468 481.67 227.468L482.067 226.928L482.922 227.332C482.922 227.332 481.909 224.69 483.039 219.969L482.464 219.613Z" fill="#EE5D4F"/>
<path d="M482.334 221.57C482.943 221.967 486.057 219.627 484.859 218.409C483.736 217.259 482.258 216.164 481.656 217.259C481.047 218.347 481.718 221.173 482.334 221.57Z" fill="#EE5D4F"/>
<path d="M484.271 220.393C484.271 220.393 485.195 219.011 484.798 218.689C484.401 218.368 484.257 219.196 483.614 220.072C482.977 220.961 483.867 220.968 484.271 220.393Z" fill="#F7BC4B"/>
<path d="M482.437 220.578C482.437 220.578 482.875 219.948 484.175 220.167C485.482 220.379 486.365 220.66 486.584 221.454C486.803 222.247 485.674 223.814 484.729 224.246C483.778 224.677 482.485 222.473 482.279 221.789C482.074 221.105 482.437 220.578 482.437 220.578Z" fill="#EE5D4F"/>
<path d="M485.81 222.843C485.81 222.843 484.934 224.122 484.264 223.835C483.265 223.411 485.715 221.727 486.07 221.433C486.42 221.139 486.693 222.165 485.81 222.843Z" fill="#F7BC4B"/>
<path d="M185.952 531.875C185.952 531.875 99.6861 586.431 74.857 596.934C49.1655 607.8 98.0778 608.758 98.0778 608.758C98.0778 608.758 75.4798 622.628 91.9664 624.551C108.549 626.487 117.911 624.551 117.911 624.551C117.911 624.551 79.0727 640.385 109.418 654.891C141.125 670.047 324.695 722.427 435.557 692.915C537.96 665.648 540.164 656.65 576.723 658.723C613.508 660.81 595.18 644.203 582.28 639.283C582.28 639.283 628.865 642.561 615.739 622.84C589.856 583.954 570.255 571.952 570.255 571.952L185.952 531.875Z" fill="#1D2538"/>
<path d="M365.511 683.404C366.524 681.023 383.059 666.106 374.949 664.676C366.839 663.246 355.068 672.107 355.068 672.107C355.068 672.107 352.542 657.566 348.552 661.822C344.556 666.079 342.167 673.4 342.167 673.4C342.167 673.4 339.245 658.093 334.338 662.78C329.431 667.468 327.405 672.23 327.405 672.23C327.405 672.23 319.727 662.972 317.441 668.337C315.155 673.701 312.616 679.654 312.616 679.654C312.616 679.654 306.313 665.463 301.221 665.47C296.129 665.476 293.125 675.946 293.125 675.946C293.125 675.946 290.093 662.596 284.748 663.198C279.403 663.8 276.755 671.717 276.755 671.717C276.755 671.717 264.935 671.231 262.793 677.95C260.658 684.677 273.75 677.944 302.295 683.459C324.859 687.824 365.511 683.404 365.511 683.404Z" fill="#3E4C6F"/>
<path d="M153.362 644.162C153.362 644.162 135.643 631.01 140.229 630.388C144.903 629.751 150.522 636.286 150.522 636.286C150.522 636.286 150.289 625.475 154.977 629.991C159.603 634.438 163.881 649.738 163.881 649.738C163.881 649.738 158.83 628.814 165.455 636.033C171.908 643.067 174.235 651.648 174.235 651.648C174.235 651.648 193.808 625.331 202.863 635.739C211.595 645.777 205.47 651.846 205.47 651.846C205.47 651.846 211.848 636.758 217.659 645.941C223.25 654.775 197.155 669.999 153.362 644.162Z" fill="#3E4C6F"/>
<path d="M399.415 690.815C399.415 690.815 372.245 695.563 374.771 689.152C377.289 682.74 388.075 685.128 388.075 685.128C388.075 685.128 380.615 668.008 386.706 669.78C392.797 671.56 393.769 673.79 393.769 673.79C393.769 673.79 395.09 662.589 399.271 666.079C403.453 669.575 403.453 669.575 403.453 669.575C403.453 669.575 409.434 652.797 410.536 659.4C411.645 666.003 411.645 666.003 411.645 666.003C411.645 666.003 422.13 653.468 422.848 667.324C423.567 681.18 429.753 681.146 399.415 690.815Z" fill="#3E4C6F"/>
<path d="M429.48 661.145C429.48 661.145 437.603 647.337 438.411 651.401C439.225 655.459 435.974 666.017 435.974 666.017C435.974 666.017 449.785 648.965 453.029 656.273C456.28 663.581 447.342 670.081 447.342 670.081C447.342 670.081 470.084 656.273 469.269 661.959C468.455 667.646 441.655 684.697 427.036 679.825C412.425 674.953 429.48 661.145 429.48 661.145Z" fill="#3E4C6F"/>
<path d="M500.853 645.393C500.853 645.393 491.942 633.008 487.542 640.433C483.141 647.857 491.566 648.774 491.566 648.774C491.566 648.774 477.899 646.358 482.573 653.748C487.247 661.138 490.594 661.344 490.594 661.344C490.594 661.344 477.016 663.862 483.798 669.213C490.574 674.563 521.685 659.701 531.417 658.716C541.149 657.738 539.424 644.011 532.389 646.146C525.347 648.281 525.347 648.281 525.347 648.281C525.347 648.281 530.808 633.227 522.828 634.705C514.842 636.19 514.842 636.19 514.842 636.19C514.842 636.19 504.98 623.155 500.853 645.393Z" fill="#3E4C6F"/>
<path d="M438.418 573.115C438.418 573.115 418.708 600.78 424.668 606.637C430.725 612.59 462.316 602.381 462.316 602.381C462.316 602.381 470.542 613.705 484.175 613.822C497.814 613.945 515.492 595.901 515.492 595.901C515.492 595.901 544.468 611.153 551.949 608.758C559.381 606.377 572.076 585.377 572.076 585.377C572.076 585.377 598.678 592.883 603.461 588.853C608.19 584.871 557.362 534.229 557.362 534.229L538.761 514.139L438.418 573.115Z" fill="#33A86D"/>
<path d="M506.712 564.37C506.691 565.869 501.941 660.03 501.941 660.03L529.138 650.443L519.701 559.909L506.712 564.37Z" fill="#4B3355"/>
<path d="M506.643 565.595C506.622 567.094 503.892 613.521 503.892 613.521L516.115 593.834L522.794 587.881L520.987 565.321L506.643 565.595Z" fill="#34283A"/>
<path d="M466.641 524.238L441.381 563.337C441.381 563.337 425.818 585.61 428.884 590.509C431.998 595.477 469.632 566.998 469.632 566.998C469.632 566.998 480.206 588.846 488.884 589.065C497.568 589.284 513.302 569.694 513.302 569.694C513.302 569.694 540.739 584.207 549.15 582.558C557.526 580.916 565.499 556.419 565.499 556.419C565.499 556.419 578.475 568.079 584.457 562.55C590.342 557.11 552.038 519.524 544.961 509.246C538.186 499.407 538.186 499.407 538.186 499.407L466.641 524.238Z" fill="#288453"/>
<path d="M474.354 482.909L474.238 484.661C471.938 490.573 447.869 532.142 447.869 532.142C447.869 532.142 447.321 545.129 454.445 544.759C461.556 544.39 479.165 531.307 479.165 531.307C479.165 531.307 494.522 551.883 506.41 549.433C518.216 547.004 523.793 526.271 523.793 526.271C523.793 526.271 542.312 536.528 548.951 531.957C555.5 527.455 550.402 519.989 550.402 519.989C550.402 519.989 563.199 524.512 559.86 519.469C556.568 514.502 520.823 465.933 520.823 465.933C520.823 465.933 503.741 443.188 493.92 454.601C483.696 466.48 472.773 482.909 472.773 482.909" fill="#33A86D"/>
<path d="M474.251 470.989L474.142 472.42C471.925 477.244 446.917 520.482 446.917 520.482C446.917 520.482 451.208 526.647 455.52 526.332C459.832 526.018 478.864 510.389 478.864 510.389C478.864 510.389 496.87 527.304 504.966 525.087C512.994 522.884 518.941 506.393 518.941 506.393C518.941 506.393 541.881 514.44 544.886 513.16C547.883 511.888 546.07 504.942 546.07 504.942C546.07 504.942 560.058 509.65 556.999 505.592C553.988 501.596 519.016 457.12 519.016 457.12C519.016 457.12 502.605 438.48 493.12 447.841C483.258 457.571 472.732 470.996 472.732 470.996" fill="#288453"/>
<path d="M498.992 428.346C498.992 428.346 477.27 459.384 463.527 483.368C463.527 483.368 469.844 491.339 474.224 489.594C478.584 487.856 490.047 470.942 490.047 470.942C490.047 470.942 496.85 483.662 505.664 485.421C514.534 487.186 523.581 475.41 523.581 475.41C523.581 475.41 540.39 484.859 539.582 479.933C538.795 475.081 500.443 431.131 498.992 428.346Z" fill="#FFFCF3"/>
<path d="M517.956 598.884L517.148 613.952L518.489 632.372L518.045 649.957L522.972 633.631L520.283 618.557L521.713 587.519L516.156 583.01L517.956 598.884Z" fill="#34283A"/>
<path d="M512.686 631.551L511.242 639.851L514.855 647.432V638.407L514.13 626.138L512.686 631.551Z" fill="#34283A"/>
<path d="M359.81 520.359C359.81 520.359 428.398 624.606 412.151 630.292C395.904 635.978 361.035 616.449 361.035 616.449C361.035 616.449 351.571 636.642 333.804 639.42C316.038 642.198 304.937 622.71 304.937 622.71C304.937 622.71 261.349 629.478 252.411 621.629C243.48 613.781 271.902 577.508 271.902 577.508L326.167 515.001L359.81 520.359Z" fill="#33A86D"/>
<path d="M323.402 590.488L319.604 689.022L339.45 687.653L333.537 589.12L323.402 590.488Z" fill="#4B3355"/>
<path d="M322.806 586.978L321.184 631.729L325.585 628.663L335.891 627.849L334.653 585.329L322.806 586.978Z" fill="#34283A"/>
<path d="M356.56 515.891C356.56 515.891 421.541 597.146 407.279 602.566C393.016 607.978 357.785 590.222 357.785 590.222C357.785 590.222 343.447 606.575 330.553 607.992C317.66 609.408 301.686 595.066 301.686 595.066C301.686 595.066 266.489 611.653 255.121 598.316C243.747 584.98 306.559 508.473 306.559 508.473L356.56 515.891Z" fill="#288453"/>
<path d="M299.277 511.511C299.277 511.511 326.112 476.594 336.644 452.042C336.644 452.042 351.509 485.715 357.655 495.76C363.8 505.805 375.873 520.975 371.52 523.239C367.167 525.504 353.678 513.003 353.678 513.003C353.678 513.003 344.186 521.556 338.068 522.891C331.949 524.225 326.693 519.367 326.693 519.367C326.693 519.367 312.732 526.976 306.963 526.093C301.194 525.21 299.277 511.511 299.277 511.511Z" fill="#FFFCF3"/>
<path d="M329.664 623.969L327.501 641.117L328.404 651.586L328.22 663.855L330.389 652.482L329.848 641.657L333.092 623.613L329.664 623.969Z" fill="#34283A"/>
<path d="M324.976 632.995L323.887 660.427L324.976 668.008L322.443 658.442L322.806 643.101L324.976 632.995Z" fill="#34283A"/>
<path d="M331.471 664.936L333.64 676.123L335.084 686.052L334.899 674.68L332.552 665.839L332.196 657.361L331.471 664.936Z" fill="#34283A"/>
<path d="M148.906 524.813C138.196 539.97 91.4529 560.114 79.8596 571.972C68.2458 583.858 66.0626 591.98 77.7381 597.981C89.5093 604.023 110.547 588.757 110.547 588.757C110.547 588.757 107.289 608.026 120.046 614.479C146.908 628.061 165.29 612.262 165.29 612.262C165.29 612.262 161.184 630.566 173.51 633.104C185.917 635.656 200.228 624.12 200.228 624.12C200.228 624.12 219.294 652.188 231.757 652.147C244.281 652.106 246.142 635.862 246.142 635.862C246.142 635.862 262.903 652.523 277.877 652.482C292.947 652.434 294.007 621.513 294.007 621.513C294.007 621.513 318.296 646.29 322.087 630.264C325.851 614.349 299.202 581.066 270.479 522.165C243.59 467.028 169.602 495.541 148.906 524.813Z" fill="#288453"/>
<path d="M211.444 543.131L220.197 661.734L187.087 667.81L199.256 536.323L211.444 543.131Z" fill="#665070"/>
<path d="M211.739 539.251L217.447 623.819L198.222 604.064L192.446 607.602L200.282 534.311L211.739 539.251Z" fill="#4B3355"/>
<path d="M133.693 529.904C133.693 529.904 65.7274 579.602 75.3634 583.721C85.061 587.868 122.407 565.144 122.407 565.144C122.407 565.144 121.155 598.111 141.57 601.635C162.197 605.193 178.444 582.305 178.444 582.305L197.559 579.369C197.559 579.369 218.384 621.349 226.775 621.246C240.448 621.082 234.748 598.987 234.748 598.987C234.748 598.987 257.489 626.515 273.846 626.323C290.305 626.132 285.111 597.297 285.111 597.297C285.111 597.297 303.548 619.994 316.66 619.542C329.841 619.084 295.13 562.838 266.947 510.601C241.756 463.914 184.145 491.326 133.693 529.904Z" fill="#33A86D"/>
<path d="M181.531 462.231C181.531 462.231 97.1197 521.529 99.3303 529.37C101.308 536.391 106.605 533.524 117.268 532.689C127.971 531.847 141.05 524.368 141.05 524.368C141.05 524.368 143.219 535.276 152.13 537.246C157.352 538.403 175.713 528.885 175.713 528.885C175.713 528.885 178.512 539.805 192.173 543.726C201.966 546.532 222.778 531.204 222.778 531.204C222.778 531.204 226.638 556.645 239.47 556.426C252.37 556.2 267.933 516.465 267.933 516.465L293.973 537.506C293.973 537.506 265.565 461.492 250.03 429.311C234.871 397.911 181.531 462.231 181.531 462.231Z" fill="#288453"/>
<path d="M254.403 504.956C254.403 504.956 248.414 541.256 259.672 547.442C271.019 553.675 267.707 533.086 267.707 533.086C267.707 533.086 284.193 552.806 288.293 547.332C292.385 541.865 283.557 530.41 283.557 530.41C283.557 530.41 298.401 545.259 291.201 527.721C283.988 510.15 282.086 508.316 282.086 508.316L254.403 504.956Z" fill="#288453"/>
<path d="M175.898 463.422C159.329 478.975 110.438 510.841 112.511 518.32C114.599 525.84 148.16 497.607 148.16 497.607C148.16 497.607 134.493 522.24 143.39 522.049C152.287 521.857 172.093 513.017 172.093 513.017C172.093 513.017 179.149 532.566 191.646 531.827C204.129 531.088 225.707 512.962 225.707 512.962C225.707 512.962 236.376 533.052 248.011 531.478C259.618 529.904 266.058 507.207 266.058 507.207C266.058 507.207 294.89 543.644 291.003 527.174C287.91 514.057 238.402 403.973 238.402 403.973C238.402 403.973 192.255 448.067 175.898 463.422Z" fill="#33A86D"/>
<path d="M237.882 393.593L164.51 462.464C164.51 462.464 168.732 465.214 176.808 465.16C184.911 465.098 193.397 454.348 193.397 454.348C193.397 454.348 188.648 466.555 197.586 467.808C206.558 469.067 215.414 452.911 215.414 452.911C215.414 452.911 228.622 473.309 239.702 472.358C250.823 471.4 248.106 457.961 248.106 457.961C259.433 471.072 280.573 497.368 280.231 485.934C279.889 474.568 251.336 423.57 237.882 393.593Z" fill="#F3E7D9"/>
<path d="M170.368 566.82C170.368 566.82 167.302 588.135 178.512 592.247C185.418 594.779 191.077 583.824 198.92 573.635C202.342 569.187 200.686 560.354 195.409 560.662L170.368 566.82Z" fill="#33A86D"/>
<path d="M210.705 614.355L214.887 626.132L215.147 640.049L217.549 657.888L212.375 645.523L212.026 629.115L208.269 613.589L210.705 614.355Z" fill="#4B3355"/>
<path d="M212.341 653.57L209.111 654.905L209.816 662.233L206.517 656.191L206.661 630.148L212.341 653.57Z" fill="#4B3355"/>
<path d="M202.684 601.053L207.468 605.925L203.136 642.198L200.214 629.854L202.684 601.053Z" fill="#4B3355"/>
<path d="M345.383 567.066C406.176 476.587 417.256 478.988 417.256 478.988C417.256 478.988 522.308 610.599 510.646 617.674C490.43 629.936 458.415 603.934 458.415 603.934C458.415 603.934 468.81 629.197 456.553 631.92C444.214 634.657 413.232 625.427 413.232 625.427C413.232 625.427 401.81 643.655 386.158 647.084C370.37 650.539 353.883 605.788 353.883 605.788C353.883 605.788 331.887 629.566 311.431 616.23C305.135 610.346 330.457 589.277 345.383 567.066Z" fill="#288453"/>
<path d="M409.4 566.19L407.887 686.285L434.893 680.277L418.139 557.158L409.4 566.19Z" fill="#665070"/>
<path d="M420.644 622.115L422.978 637.805L421.698 653.05L421.602 667.536L419.932 656.561L421.226 636.525L420.644 622.115Z" fill="#4B3355"/>
<path d="M413.184 597.536L416.921 614.438L415.34 638.263L412.377 673.797L411.829 657.361L412.801 635.328L414.464 613.514L413.184 597.536Z" fill="#4B3355"/>
<path d="M418.201 646.529L416.866 673.797L412.13 683.534L414.731 668.48L418.201 646.529Z" fill="#4B3355"/>
<path d="M408.448 581.887L408.441 607.739L419.87 610.223L427.31 623.949L419.59 572.855L408.448 581.887Z" fill="#4B3355"/>
<path d="M356.894 530.965C403.418 456.49 414.286 470.223 414.286 470.223C414.286 470.223 477.721 553.183 488.513 569.783C501.167 589.236 506.41 591.46 498.136 596.229C489.759 601.06 452.125 579.383 452.125 579.383C452.125 579.383 445.233 593.978 430.567 596.791C415.792 599.63 405.341 586.746 405.341 586.746C405.341 586.746 384.516 605.939 371.451 604.495C358.434 603.058 359.098 583.098 359.098 583.098C359.098 583.098 324.893 599.055 313.402 599.623C301.891 600.198 345.554 549.118 356.894 530.965Z" fill="#33A86D"/>
<path d="M382.921 493.878L343.111 549.303C343.111 549.303 349.428 558.787 361.096 559.259C372.778 559.738 382.873 550.062 382.873 550.062C382.873 550.062 399.633 567.86 407.839 567.812C416.045 567.764 425.222 551.109 425.222 551.109C425.222 551.109 443.351 564.651 450.393 563.467C457.415 562.29 460.296 546.374 460.296 546.374C460.296 546.374 473.005 551.965 474.826 546.86C476.626 541.817 437.774 495.753 431.299 480.59C425.516 467.028 397.368 479.556 382.921 493.878Z" fill="#288453"/>
<path d="M387.534 483.258C372.655 504.532 344.541 532.552 348.257 537.712C352.028 542.946 357.058 537.219 365.312 536.897C373.559 536.576 384.748 519.722 384.748 519.722C384.748 519.722 399.36 541.55 409.071 541.728C418.789 541.906 425.954 519.674 425.954 519.674C425.954 519.674 444.371 540.332 450.633 538.054C456.854 535.796 455.896 521.556 455.896 521.556C455.896 521.556 463.342 529.658 467.647 527.968C471.931 526.278 429.965 473.288 429.965 473.288C429.965 473.288 401.495 463.291 387.534 483.258Z" fill="#33A86D"/>
<path d="M411.569 445.296L372.053 501.425L390.901 495.862C390.901 495.862 395.719 508.459 400.092 508.459C404.472 508.459 420.226 497.525 420.226 497.525C420.226 497.525 427.659 508.678 432.99 508.097C438.308 507.515 442.12 497.429 442.12 497.429C442.12 497.429 458.456 506.858 452.721 499.728C420.966 460.247 411.569 445.296 411.569 445.296Z" fill="#F3E7D9"/>
<path d="M614.124 661.877C614.124 661.877 585.64 638.017 530.206 651.1C474.772 664.183 433.196 690.356 364.676 684.971C296.157 679.586 224.551 667.269 177.589 649.561C130.627 631.859 83.6583 634.938 63.6403 641.096C43.6223 647.255 62.8943 645.455 81.8515 648.698C100.809 651.942 129.087 664.19 139.866 669.575C139.866 669.575 107.214 662.178 107.529 665.73C107.844 669.274 210.446 719.745 272.293 722.332C349.887 725.582 417.387 712.998 492.839 686.059C550.717 665.381 598.726 658.025 614.124 661.877Z" fill="#856792"/>
</svg>
