<svg width="92" height="93" viewBox="0 0 92 93" fill="none" xmlns="http://www.w3.org/2000/svg">
<g clip-path="url(#clip0_29_2482)">
<path d="M29.0224 50.1739L29.0224 50.1739L29.982 50.5757L29.9821 50.5758C30.7867 50.913 31.7115 50.5274 32.046 49.7104L32.0461 49.7103C32.3814 48.892 31.9962 47.9561 31.1904 47.6187L31.1904 47.6187L30.2307 47.2167C30.2307 47.2167 30.2306 47.2167 30.2306 47.2167C28.9691 46.6887 27.5775 46.6899 26.3097 47.2207L26.3097 47.2207C25.0417 47.7515 24.0558 48.7463 23.5329 50.0227L23.5329 50.0227C22.4501 52.6659 23.6969 55.7055 26.3079 56.7991C26.3079 56.7991 26.3079 56.7991 26.3079 56.7991L28.227 57.6025L28.2271 57.6025C29.2293 58.0223 29.7041 59.1858 29.2903 60.1957C29.0911 60.682 28.7122 61.0624 28.2255 61.2663L28.2255 61.2663C27.7384 61.4703 27.2034 61.472 26.7212 61.2705L26.7211 61.2705L25.7615 60.8687L25.7615 60.8687C24.9575 60.5319 24.0321 60.9171 23.6975 61.7341L23.6975 61.7341C23.3622 62.5524 23.7473 63.4883 24.5531 63.8257L24.5532 63.8257L25.5129 64.2277C25.5129 64.2277 25.5129 64.2277 25.5129 64.2277C26.1426 64.4913 26.8038 64.6228 27.4658 64.6228L29.0224 50.1739ZM29.0224 50.1739C28.5402 49.9722 28.0052 49.9737 27.518 50.1779C27.0312 50.3817 26.6524 50.7625 26.453 51.2485L26.453 51.2486C26.0392 52.2585 26.5141 53.4217 27.5163 53.8415L27.5163 53.8415M29.0224 50.1739L27.5163 53.8415M27.5163 53.8415L29.4352 54.6449C29.4352 54.6449 29.4353 54.6449 29.4353 54.645C32.0464 55.7386 33.2932 58.7784 32.2104 61.4215C31.6874 62.6979 30.7017 63.6925 29.4337 64.2235M27.5163 53.8415L29.4337 64.2235M29.4337 64.2235C28.7978 64.4897 28.131 64.6226 27.4659 64.6228L29.4337 64.2235Z" fill="#F9BC6E" stroke="#F9F4FF" stroke-width="0.4"/>
<path d="M42.7147 64.1538L42.6122 64.0477L42.4806 64.1144C39.1857 65.7842 35.0619 63.177 35.1275 59.4234L35.1277 59.4234L35.1275 59.4164C35.0621 55.6622 39.1851 53.0563 42.4808 54.7255L42.6123 54.7921L42.7149 54.6861C43.6757 53.693 45.4218 54.3997 45.411 55.8183V55.8198L45.411 63.0203L45.411 63.0218C45.4218 64.4398 43.6758 65.1473 42.7147 64.1538ZM40.2769 57.4199L40.2769 57.4198H40.2692C39.1748 57.4198 38.2888 58.319 38.2888 59.4199C38.2888 60.5209 39.1748 61.4201 40.2692 61.4201V61.4202L40.2768 61.42C42.8913 61.32 42.8925 57.5203 40.2769 57.4199Z" fill="#F9BC6E" stroke="#F9F4FF" stroke-width="0.4"/>
<path d="M54.9451 54.7255L55.0752 54.7913L55.1777 54.6877C55.4642 54.398 55.8589 54.2196 56.2947 54.2196C57.1655 54.2196 57.8753 54.9341 57.8752 55.8197V55.8198L57.8752 59.3922L57.8752 59.3941C57.8753 59.4114 57.8753 59.4288 57.8752 59.4461H57.8752V59.448L57.8752 63.0205L57.8752 63.022C57.8861 64.4398 56.1403 65.1475 55.1791 64.1539L55.0765 64.0479L54.9449 64.1146C51.6501 65.7842 47.5263 63.177 47.5919 59.4236L47.592 59.4236L47.5919 59.4166C47.5264 55.6624 51.6495 53.0564 54.9451 54.7255ZM52.726 61.42L52.726 61.4201H52.7337C53.8229 61.4201 54.706 60.5292 54.7141 59.4353H54.7141V59.4338L54.7141 59.4063L54.7141 59.4048C54.706 58.3107 53.8229 57.4198 52.7337 57.4198V57.4196L52.7261 57.4199C50.1121 57.5199 50.1098 61.3194 52.726 61.42Z" fill="#F9BC6E" stroke="#F9F4FF" stroke-width="0.4"/>
<path d="M66.8689 50.5759L66.8688 50.5759L65.9092 50.1741C65.9091 50.1741 65.9091 50.1741 65.9091 50.1741C65.4268 49.972 64.8918 49.9737 64.4047 50.1779C63.9181 50.3817 63.539 50.7624 63.3399 51.2486C62.9261 52.2583 63.4011 53.4218 64.4031 53.8415L64.4032 53.8415L66.3221 54.6449C66.3221 54.6449 66.3221 54.6449 66.3221 54.645C68.9333 55.7386 70.1802 58.7782 69.0974 61.4213C68.28 63.4162 66.366 64.6219 64.3538 64.6219H64.3537C63.7018 64.6221 63.0392 64.4954 62.3997 64.2277L62.3225 64.4122L62.3997 64.2277L61.4398 63.8259C60.634 63.4883 60.2488 62.5524 60.584 61.7341C60.919 60.917 61.8434 60.5316 62.6482 60.8685L63.6079 61.2703C64.6103 61.6904 65.763 61.2065 66.1772 60.1955C66.591 59.1857 66.1161 58.0223 65.1139 57.6025L65.1139 57.6025L63.1946 56.7991C63.1946 56.7991 63.1946 56.7991 63.1946 56.7991C60.5839 55.7054 59.3368 52.666 60.4196 50.0229L60.4196 50.0229C60.9425 48.7463 61.9284 47.7515 63.1964 47.2207L63.1964 47.2207C64.4641 46.6899 65.8558 46.6887 67.1173 47.2167L67.1946 47.0322L67.1173 47.2167L68.0772 47.6185C68.883 47.9561 69.2682 48.892 68.9331 49.7103C68.5982 50.5274 67.6738 50.913 66.8689 50.5759Z" fill="#F9BC6E" stroke="#F9F4FF" stroke-width="0.4"/>
<path d="M78.4367 44.3246L78.4476 44.4858L78.6075 44.509C96.8857 47.1609 95.4798 73.761 76.9047 74.323H11.7739C-1.57543 73.9486 -2.95921 54.939 10.0965 52.5313L10.2468 52.5036L10.2596 52.3514C10.381 50.9048 10.6621 49.4802 11.0994 48.0982C11.3661 47.2553 12.2557 46.7939 13.0859 47.0625L13.0859 47.0625C13.9163 47.3311 14.3771 48.2314 14.1099 49.0752C13.6069 50.6636 13.352 52.3208 13.352 54.0011C13.352 54.8868 12.6423 55.6012 11.7716 55.6012V55.6011L11.764 55.6014C1.60395 55.9898 1.59755 70.7308 11.7637 71.1225L11.7637 71.1227H11.7714H76.9078V71.1228L76.9155 71.1225C92.3161 70.5334 92.3071 48.1968 76.9154 47.6115L76.9154 47.6114H76.9078C76.037 47.6114 75.3272 46.897 75.3272 46.0116L75.3272 46.0095C75.0586 20.2696 40.2986 13.2062 30.2592 36.877L30.2586 36.8786C30.0185 37.4586 29.466 37.8414 28.8471 37.8599C27.188 37.9095 25.557 38.2167 23.9997 38.7736L23.9996 38.7736C23.1786 39.0676 22.2751 38.633 21.9834 37.7989L21.9834 37.7988C21.6912 36.9638 22.1249 36.0497 22.947 35.7558L22.8797 35.5675L22.947 35.7558C24.4602 35.2149 26.0306 34.8704 27.6298 34.7278L27.7444 34.7176L27.7931 34.6135C39.5203 9.57263 76.5765 16.7406 78.4367 44.3246Z" fill="black" stroke="#F9F4FF" stroke-width="0.4"/>
<path d="M16.73 43.2408C14.6355 43.1559 14.6379 40.126 16.7293 40.0407C18.8222 40.125 18.823 43.155 16.73 43.2408Z" fill="black" stroke="#F9F4FF" stroke-width="0.4"/>
</g>
<defs>
<clipPath id="clip0_29_2482">
<rect width="91" height="92" fill="white" transform="translate(0.800293 0.777786)"/>
</clipPath>
</defs>
</svg>
