<svg width="76" height="76" viewBox="0 0 76 76" fill="none" xmlns="http://www.w3.org/2000/svg">
<g clip-path="url(#clip0_29_2515)">
<path d="M74.7157 11.1347V15.2878H66.9297H66.5738L66.4573 15.624L64.4393 21.446L64.4392 21.446L64.437 21.4526L53.7985 53.5898H7.31737L1.43812 18.7498H60.6547H61.0084L61.1262 18.4162L63.6964 11.1338L74.7157 11.1347ZM50.3507 49.4408H50.7091L50.8242 49.1013L59.5602 23.3383L59.7842 22.6778H59.0867H6.89468H6.3053L6.40137 23.2593L10.6574 49.0223L10.7265 49.4408H11.1507H50.3507Z" fill="black" stroke="#FAF6FF"/>
<path d="M20.2835 60.1378C20.2835 62.707 18.2007 64.7898 15.6315 64.7898C13.0623 64.7898 10.9795 62.707 10.9795 60.1378C10.9795 57.5686 13.0623 55.4858 15.6315 55.4858C18.2007 55.4858 20.2835 57.5686 20.2835 60.1378Z" fill="black" stroke="#FAF6FF"/>
<path d="M49.8509 60.1378C49.8509 62.707 47.7681 64.7898 45.1989 64.7898C42.6296 64.7898 40.5469 62.707 40.5469 60.1378C40.5469 57.5686 42.6296 55.4858 45.1989 55.4858C47.7681 55.4858 49.8509 57.5686 49.8509 60.1378Z" fill="black" stroke="#FAF6FF"/>
<path d="M29.5299 46.1088L19.9972 33.5338H24.5702L29.124 39.3897L29.5046 39.8792L29.9023 39.4035L41.1764 25.9178H45.7247L29.5299 46.1088Z" fill="#F9BC6E" stroke="white"/>
</g>
<defs>
<clipPath id="clip0_29_2515">
<rect width="74.368" height="74.368" fill="white" transform="translate(0.84668 0.777771)"/>
</clipPath>
</defs>
</svg>
