<svg width="947" height="1080" viewBox="0 0 947 1080" fill="none" xmlns="http://www.w3.org/2000/svg">
<path d="M713.181 932C713.181 932 695.181 963 667.181 944C639.181 925 662.181 845 711.181 869C711.181 869 682.181 824 701.181 774C720.181 724 738.181 740 738.181 740C738.181 740 715.181 715 750.181 639C785.181 563 814.181 532 849.181 544C884.181 556 899.181 680 858.181 743C858.181 743 873.181 724 879.181 743C885.181 762 905.181 834 816.181 888C727.181 942 713.181 932 713.181 932Z" fill="#F3E7D9"/>
<path d="M508.181 996C520.671 992.39 495.181 874 428.181 870C361.181 866 356.181 898 364.181 919C364.181 919 272.181 809 216.181 793C160.181 777 185.181 807 185.181 807C185.181 807 117.181 790 103.181 812C89.1814 834 137.181 907 226.181 942C315.181 977 463.181 1009 508.181 996Z" fill="#F3E7D9"/>
<path d="M625.182 762C625.182 762 598.182 669 609.182 634C609.182 634 582.182 634 604.182 577C626.182 520 636.182 513 651.182 521C666.182 529 673.182 567 652.182 604C652.182 604 658.182 581 680.182 588C702.182 595 656.182 736 641.182 758C626.182 780 625.182 762 625.182 762Z" fill="#F3E7D9"/>
<path d="M508.181 670C508.181 670 531.801 668.11 537.181 656L539.181 655C539.181 655 544.181 663 531.181 670C518.181 677 504.181 682 508.181 670Z" fill="#F3E7D9"/>
<path d="M534.181 644C534.181 644 545.181 656 529.181 665C513.181 674 489.181 680 481.181 660C473.181 640 495.181 623 513.181 627C531.181 631 534.181 644 534.181 644Z" fill="#992C29"/>
<path d="M380.181 718C379.181 721 365.181 738 379.181 749C393.181 760 446.271 707.21 421.181 698.6C396.091 689.99 381.181 715 380.181 718Z" fill="#992C29"/>
<path d="M422.181 713C422.181 713 422.181 728 405.181 738C388.181 748 383.181 748 378.181 746C373.181 744 374.181 749 376.181 751C378.181 753 382.181 756 396.181 750C410.181 744 425.181 730 427.181 722C429.181 714 428.181 708 422.181 713Z" fill="#F3E7D9"/>
<path d="M593.952 845.63C593.52 846.361 593.312 847.202 593.351 848.05C593.501 850.79 595.131 855.48 599.351 859.58C603.901 863.97 609.451 872.87 610.741 874.99C610.948 875.318 611.193 875.62 611.471 875.89C612.721 877.06 615.761 884.4 622.931 883.08C634.141 881 631.531 870.95 625.481 862.08C619.431 853.21 614.911 841.88 606.241 839.68C599.331 837.89 595.292 843.38 593.952 845.63Z" fill="#C94039"/>
<path d="M594.182 842C593.752 842.73 594.312 846.2 594.352 847C594.502 849.74 596.132 854.43 600.352 858.53C604.987 863.023 608.849 868.25 611.782 874C614.182 879 620.972 883.09 627.182 882C633.392 880.91 632.572 870 626.522 861C620.472 852 615.952 840.8 607.282 838.6C600.332 836.89 595.512 839.75 594.182 842Z" fill="#121721"/>
<path d="M560.182 753C560.182 753 572.182 780 577.182 792C582.182 804 587.182 825 588.182 833C589.182 841 589.182 844 594.182 844C599.182 844 611.182 851 616.182 845C621.182 839 614.182 819 614.182 819C614.182 819 616.182 746 599.182 729C577.592 707.41 560.182 741 560.182 753Z" fill="#273252"/>
<path d="M596.181 777L600.181 822C598.727 823.917 597.392 825.921 596.181 828C595.181 830 602.181 833 602.181 833C602.181 833 589.181 844 594.181 844C599.181 844 611.181 851 616.181 845C621.181 839 614.181 819 614.181 819C614.181 819 616.181 746 599.181 729C577.591 707.41 596.181 765 596.181 777Z" fill="#1D2538"/>
<path d="M546.822 896.5C546.822 896.5 541.722 905.02 547.682 916.09C553.642 927.16 556.192 943.34 564.682 951.01C573.172 958.68 582.562 960.38 590.232 954.42C597.902 948.46 591.082 928.01 585.972 919.5C580.862 910.99 579.292 902.02 574.972 894.15C570.652 886.28 557.042 884.58 546.822 896.5Z" fill="#121721"/>
<path d="M497.182 658C502.182 658 559.182 696 575.182 709C591.182 722 603.182 728 603.182 738C603.182 748 599.182 755 592.182 759C585.182 763 579.182 765 561.182 755C543.182 745 514.182 727 491.182 717C468.182 707 467.182 689 476.182 673C485.182 657 497.182 658 497.182 658Z" fill="#273252"/>
<path d="M575.182 709C591.182 722 603.182 728 603.182 738C603.182 748 600.182 756 593.182 760L586.182 749L591.182 739L548.182 690C548.182 690 559.182 696 575.182 709Z" fill="#273252"/>
<path d="M478.182 798C478.932 801.93 481.182 813 488.182 819C495.182 825 505.182 841 512.182 858C516.904 869.024 522.948 879.434 530.182 889C530.182 889 533.182 902 541.182 906C549.182 910 566.182 904 566.182 904C566.182 904 575.182 901 575.182 894C575.182 887 566.182 869 566.182 869C566.182 869 523.182 766 517.182 764C511.182 762 474.182 777 478.182 798Z" fill="#273252"/>
<path d="M495.182 816C495.932 819.93 524.182 877 531.182 883C538.182 889 540.182 892 545.182 892C550.182 892 554.182 892 547.182 894C540.182 896 533.182 902 541.182 906C549.182 910 566.182 904 566.182 904C566.182 904 575.182 901 575.182 894C575.182 887 566.182 869 566.182 869C566.182 869 523.182 766 517.182 764C511.182 762 491.182 795 495.182 816Z" fill="#1D2538"/>
<path d="M407.182 691C407.182 691 409.182 708 429.182 736C429.942 737.06 438.682 745.12 439.412 746.19C458.022 773.39 476.182 807 487.182 813C506.032 823.28 527.182 821 529.182 799C531.182 777 514.182 755 496.182 720C478.182 685 461.182 653 433.182 666C405.182 679 407.182 691 407.182 691Z" fill="#273252"/>
<path d="M504.182 767L476.182 772L487.182 813C487.182 813 525.182 835 529.182 799C531.622 777 514.182 755 496.182 720C478.182 685 504.182 767 504.182 767Z" fill="#1D2538"/>
<path d="M415.951 711C418.181 709 448.181 713 454.181 712C460.181 711 485.181 696 485.181 696L493.181 678C493.181 678 495.181 687 495.181 686C495.181 685 503.181 661 503.181 661C503.181 661 496.181 656 491.181 656C485.181 656 415.951 711 415.951 711Z" fill="#1D2538"/>
<path d="M365.181 581C361.481 577.3 302.031 488.69 293.261 475.61C292.964 475.164 292.514 474.843 291.997 474.707C291.479 474.57 290.929 474.629 290.451 474.87C290.169 475.011 289.92 475.21 289.722 475.455C289.523 475.7 289.38 475.985 289.301 476.29C289.222 476.596 289.21 476.915 289.265 477.225C289.321 477.536 289.442 477.831 289.621 478.09L363.181 585L365.181 581Z" fill="#D77D5B"/>
<path d="M295.641 478.84C295.641 478.84 251.181 472 237.181 462C223.181 452 219.181 455 226.181 475C233.181 495 245.181 526 245.181 526C245.181 526 290.181 529 307.181 529C324.181 529 328.391 526.93 328.391 526.93L295.641 478.84Z" fill="#FFACFF"/>
<path d="M258.222 497.4L287.022 501.43L289.032 504.18L259.362 500.46L258.222 497.4Z" fill="#3E4C6F"/>
<path d="M254.802 490.2L295.012 495.89L297.012 498.64L255.942 493.26L254.802 490.2Z" fill="#3E4C6F"/>
<path d="M251.382 484L291.592 489.7L293.592 492.44L252.522 487.07L251.382 484Z" fill="#3E4C6F"/>
<path d="M303.732 509.13C301.662 508.54 296.382 507.3 294.732 510.98C292.732 515.56 298.642 518.76 300.642 518.76L298.642 520.76C298.642 520.76 302.472 520.57 304.642 518.76C307.692 516.25 308.342 510.45 303.732 509.13Z" fill="#3E4C6F"/>
<path d="M229.182 497C230.182 498 245.182 526 245.182 526C245.182 526 265.182 516 263.182 508C261.182 500 229.182 497 229.182 497Z" fill="#665070"/>
<path d="M263.182 508C263.182 508 252.692 502.47 236.432 500.74C220.172 499.01 187.182 504 180.182 507C180.182 507 151.182 436 144.182 430C144.182 430 170.182 423 196.182 428C222.182 433 232.182 448 236.182 457C240.182 466 264.182 499 263.182 508Z" fill="#BB83C3"/>
<path d="M207.722 457.56C207.652 460.16 204.652 461.24 201.062 459.96C197.472 458.68 194.692 455.61 194.792 453.06C194.892 450.51 197.792 449.45 201.362 450.66C204.932 451.87 207.792 455 207.722 457.56Z" fill="#F3E7D9"/>
<path d="M194.542 481.07L197.662 463.5L213.142 475.15L217.082 447.81L240.832 482.76L194.542 481.07Z" fill="#F3E7D9"/>
<path d="M429.632 534.1C431.842 512.04 384.402 513.91 360.742 520.3C346.102 524.3 332.012 537.17 329.742 544.88C328.962 547.52 326.162 562.3 327.152 569.56C328.222 577.49 343.152 608.94 355.772 603.13C373.082 595.18 427.412 556.17 429.632 534.1Z" fill="#C94039"/>
<path d="M415.011 544.64C415.311 529.25 390.741 516.7 369.061 520.15C343.811 524.15 330.721 540.76 332.421 549.15C334.121 557.54 354.811 563.45 372.421 563.44C390.031 563.43 414.871 551.5 415.011 544.64Z" fill="#F3E7D9"/>
<path d="M367.092 557.08C345.732 551.39 337.802 555.38 337.662 544.18C337.472 529.18 376.602 524.86 385.662 523.63C394.722 522.4 419.982 540.19 417.272 558C414.562 575.81 388.452 562.77 367.092 557.08Z" fill="#273252"/>
<path d="M464.982 384.61C464.982 384.61 450.932 360 450.932 359C450.932 358 453.182 344.75 453.182 338C453.182 334 459.182 321 465.182 322C471.182 323 469.182 324 465.182 342C464.002 347.33 472.322 332.21 476.182 338C480.042 343.79 486.182 341 490.182 344C494.182 347 496.042 364.14 492.182 368C488.322 371.86 485.662 383.14 480.832 386C476.002 388.86 464.982 384.61 464.982 384.61Z" fill="#F5894E"/>
<path d="M463.181 347C466.87 346.321 470.484 345.283 473.971 343.9C478.181 342 484.181 348 477.181 353C470.181 358 466.181 358 466.181 358C466.181 358 451.181 362 463.181 347Z" fill="#F5894E"/>
<path d="M586.181 225C586.181 225 571.081 273 582.631 307C594.181 341 659.181 285 630.181 252C601.181 219 586.181 225 586.181 225Z" fill="#665070"/>
<path d="M604.182 193C606.182 195 629.182 230 673.182 223C717.182 216 737.182 197 763.182 198C763.182 198 747.182 245 763.182 294C763.182 294 737.182 294 688.182 307C639.182 320 613.182 329 590.182 316C567.182 303 598.182 297 613.182 286C628.182 275 628.712 265.69 617.442 246.85C606.172 228.01 604.182 193 604.182 193Z" fill="#856792"/>
<path d="M634.451 297.35C648.214 297.35 659.371 286.193 659.371 272.43C659.371 258.667 648.214 247.51 634.451 247.51C620.688 247.51 609.531 258.667 609.531 272.43C609.531 286.193 620.688 297.35 634.451 297.35Z" fill="#F7BC4B"/>
<path d="M645.121 268.55C646.878 268.55 648.301 267.126 648.301 265.37C648.301 263.614 646.878 262.19 645.121 262.19C643.365 262.19 641.941 263.614 641.941 265.37C641.941 267.126 643.365 268.55 645.121 268.55Z" fill="#121721"/>
<path d="M623.732 268.55C625.488 268.55 626.912 267.126 626.912 265.37C626.912 263.614 625.488 262.19 623.732 262.19C621.975 262.19 620.552 263.614 620.552 265.37C620.552 267.126 621.975 268.55 623.732 268.55Z" fill="#121721"/>
<path d="M634.992 285.45C638.504 285.45 641.352 282.365 641.352 278.56C641.352 274.755 638.504 271.67 634.992 271.67C631.479 271.67 628.632 274.755 628.632 278.56C628.632 282.365 631.479 285.45 634.992 285.45Z" fill="#121721"/>
<path d="M626.741 257.7C625.491 256.28 621.821 256.08 619.961 258.94" stroke="#121721" stroke-linecap="round" stroke-linejoin="round"/>
<path d="M641.882 257.7C643.122 256.28 646.802 256.08 648.652 258.94" stroke="#121721" stroke-linecap="round" stroke-linejoin="round"/>
<path d="M532.181 451L322.661 127.37C322.238 126.718 321.964 125.98 321.86 125.209C321.756 124.439 321.824 123.655 322.059 122.913C322.294 122.172 322.691 121.492 323.22 120.923C323.75 120.353 324.399 119.908 325.121 119.62C326.262 119.163 327.526 119.12 328.696 119.498C329.865 119.876 330.864 120.652 331.521 121.69L538.181 447L532.181 451Z" fill="#7A462F"/>
<path d="M331.182 140L340.182 135C341.693 134.722 343.219 134.525 344.752 134.41C354.402 134.02 365.682 134.5 372.182 138C385.182 145 379.182 155 416.182 165C453.182 175 463.182 175 476.182 168C489.182 161 501.182 137 553.182 151C605.182 165 614.182 181 614.182 181C614.182 181 607.182 232 623.182 258C623.182 258 614.182 240 576.182 242C538.182 244 523.182 253 491.182 263C469.642 269.73 441.132 270.47 426.182 270C418.922 269.77 416.182 275 416.182 275L331.182 140Z" fill="#BB83C3"/>
<path d="M581.841 242.1C581.841 242.1 613.841 241.73 623.181 258C632.521 274.27 614.021 286.41 607.181 289.84C600.341 293.27 583.971 298.84 581.861 308.03C581.861 308.03 573.951 296.69 581.861 242.1" fill="#665070"/>
<path d="M722.516 270.184C728.32 257.443 723.727 242.88 712.258 237.655C700.788 232.431 686.786 238.524 680.982 251.265C675.178 264.006 679.771 278.569 691.241 283.794C702.71 289.018 716.712 282.925 722.516 270.184Z" fill="#C94039"/>
<path d="M691.759 267.073C693.375 266.706 694.451 265.382 694.163 264.116C693.875 262.851 692.332 262.123 690.716 262.491C689.101 262.858 688.024 264.182 688.312 265.448C688.6 266.713 690.144 267.441 691.759 267.073Z" fill="#121721"/>
<path d="M696.331 264.04L686.751 260.62" stroke="#121721" stroke-width="2" stroke-linecap="round" stroke-linejoin="round"/>
<path d="M712.242 265.34C713.857 264.973 714.933 263.649 714.645 262.383C714.357 261.118 712.814 260.39 711.199 260.757C709.583 261.125 708.507 262.449 708.795 263.715C709.083 264.98 710.626 265.708 712.242 265.34Z" fill="#121721"/>
<path d="M706.642 263.16L716.222 258.12" stroke="#121721" stroke-width="2" stroke-linecap="round" stroke-linejoin="round"/>
<path d="M709.422 273.45C709.782 271.3 706.622 270.63 702.492 271.1C698.362 271.57 695.802 273.19 695.562 274.98C695.322 276.77 709.062 275.59 709.422 273.45Z" fill="#121721"/>
<path d="M500.452 213.82C505.612 228.34 501.822 242.11 489.812 245.15C474.482 249 452.012 234.64 443.942 212C435.872 189.36 448.522 176.1 467.002 181.09C481.472 185 495.282 199.31 500.452 213.82Z" fill="#F7BC4B"/>
<path d="M476.602 223.24C480.722 217.55 487.822 222.69 487.822 222.69" stroke="#121721" stroke-width="3" stroke-linecap="round" stroke-linejoin="round"/>
<path d="M489.371 206.93C490.081 208.93 489.421 210.5 487.841 210.41C486.261 210.32 484.261 208.51 483.501 206.41C482.741 204.31 483.501 202.75 485.181 202.95C486.861 203.15 488.651 204.92 489.371 206.93Z" fill="#121721"/>
<path d="M466.861 204.87C467.721 207.29 466.611 209.14 464.321 209.01C462.031 208.88 459.221 206.66 458.321 204.08C457.421 201.5 458.691 199.67 461.121 199.97C462.412 200.239 463.615 200.829 464.618 201.685C465.622 202.541 466.393 203.637 466.861 204.87Z" fill="#121721"/>
<path d="M552.501 224.16C567.905 224.16 580.391 211.673 580.391 196.27C580.391 180.867 567.905 168.38 552.501 168.38C537.098 168.38 524.611 180.867 524.611 196.27C524.611 211.673 537.098 224.16 552.501 224.16Z" fill="#F7BC4B"/>
<g style="mix-blend-mode:multiply">
<path d="M537.341 181.18L545.781 185.78L533.121 188.84" stroke="#121721" stroke-width="2" stroke-linecap="round" stroke-linejoin="round"/>
</g>
<g style="mix-blend-mode:multiply">
<path d="M567.011 181.18L558.571 185.78L571.231 188.84" stroke="#121721" stroke-width="2" stroke-linecap="round" stroke-linejoin="round"/>
</g>
<path d="M567.181 192.29C557.293 189.994 546.993 190.155 537.181 192.76C536.216 193.011 535.379 193.614 534.835 194.45C534.291 195.286 534.08 196.296 534.241 197.28C535.241 204.37 542.641 214.08 552.811 214.08C562.981 214.08 569.681 204.83 570.391 196.64C570.498 195.645 570.227 194.646 569.633 193.841C569.038 193.035 568.164 192.482 567.181 192.29Z" fill="#121721"/>
<path d="M539.182 207.73C540.706 205.447 542.798 203.601 545.253 202.373C547.708 201.146 550.441 200.579 553.182 200.73C562.812 201.17 566.452 206.73 566.452 206.73C566.452 206.73 563.392 213.42 554.182 214C544.972 214.58 539.182 207.73 539.182 207.73Z" fill="#EE5D4F"/>
<path opacity="0.46" d="M331.182 140L340.182 135C341.693 134.722 343.219 134.525 344.752 134.41C354.402 134.02 365.682 134.5 372.182 138C385.182 145 379.182 155 416.182 165C453.182 175 463.182 175 476.182 168C489.182 161 414.892 269 414.892 269L331.182 140Z" fill="#FFACFF"/>
<path d="M468.261 337.81C468.261 337.81 464.121 351.11 469.331 353.62C474.541 356.13 475.331 347.28 475.331 347.28C475.331 347.28 474.111 353.17 475.491 357.1C476.871 361.03 479.281 360.05 481.201 356.1C483.121 352.15 481.401 355.1 481.401 355.1C481.401 355.1 479.771 362.96 484.171 362.96C488.571 362.96 492.831 347.1 490.301 343.73C487.771 340.36 487.931 340.99 484.301 341.66C484.301 341.66 481.211 337.25 476.771 338.81C476.771 338.81 475.441 334.2 468.271 337.81" fill="#F5894E"/>
<path d="M466.182 369C466.182 369 471.182 357.9 468.702 354.45C468.702 354.45 475.182 361 466.182 369Z" fill="#CC6D3D"/>
<path d="M463.181 347C466.87 346.321 470.484 345.283 473.971 343.9C478.181 342 484.181 348 477.181 353C470.181 358 466.181 358 466.181 358C466.181 358 451.181 362 463.181 347Z" fill="#CC6D3D"/>
<path d="M461.182 347C464.871 346.321 468.485 345.283 471.972 343.9C476.182 342 482.182 348 475.182 353C471.657 355.418 468.315 358.092 465.182 361C465.182 361 449.182 362 461.182 347Z" fill="#F5894E"/>
<path d="M460.181 381.44C461.901 386.63 464.601 381.8 473.451 382.52C480.811 383.11 486.451 386.25 487.741 381.9C489.251 376.63 483.681 377.11 472.111 377.06C464.681 377 458.421 376.24 460.181 381.44Z" fill="#F3E7D9"/>
<path d="M477.121 487.33C471.243 485.892 465.983 482.599 462.121 477.94C457.121 471.78 458.361 465.63 459.491 456.03C461.731 436.94 459.781 445.34 458.091 432.12C455.941 415.23 452.361 384.12 466.401 381.91C483.641 379.16 487.661 380.76 489.261 386.31C490.861 391.86 488.171 389.8 489.261 393.79C490.351 397.78 493.181 435.88 494.701 444.28C496.221 452.68 495.421 457.39 495.421 457.39C495.421 457.39 496.352 467.1 496.312 472.27C496.271 477.44 495.321 489.5 477.121 487.33Z" fill="#C94039"/>
<path d="M477.061 487.81C477.061 487.81 486.431 470.47 487.201 463.59C488.281 453.89 476.991 391.51 476.991 391.51C476.991 391.51 483.091 372.98 489.291 386.31C491.721 391.54 490.711 415.4 491.801 419.39C492.891 423.38 493.211 435.88 494.731 444.28C496.251 452.68 495.451 457.39 495.451 457.39C495.451 457.39 496.381 467.1 496.341 472.27C496.301 477.44 495.251 490 477.061 487.81Z" fill="#992C29"/>
<path d="M486.701 454.35L479.991 433.44L471.331 419.82C471.331 419.82 486.761 429.43 488.491 438.52C489.549 443.855 488.923 449.386 486.701 454.35Z" fill="#992C29"/>
<path d="M463.361 571.9C457.111 572.44 437.451 541.34 437.451 529.41C437.451 524.23 448.851 509.73 448.851 509.73L449.851 504.55C450.671 500.63 454.181 476 458.181 472C462.181 468 468.181 475 478.181 475C488.181 475 496.841 460.42 496.521 475.53C496.201 490.64 484.701 514.13 483.461 525.76C482.221 537.39 469.761 571.34 463.361 571.9Z" fill="#273252"/>
<path d="M463.361 571.9C457.111 572.44 437.451 541.34 437.451 529.41C437.451 524.23 451.031 531.41 454.451 531.68C457.871 531.95 470.021 522.19 470.021 522.19L466.591 516.65C466.591 516.65 468.181 475 478.181 475C488.181 475 496.841 460.42 496.521 475.53C496.201 490.64 484.701 514.13 483.461 525.76C482.221 537.39 469.761 571.34 463.361 571.9Z" fill="#1D2538"/>
<path d="M507.181 648C505.181 651 505.181 653 509.181 654C513.181 655 512.181 650 521.181 649C526.791 648.38 533.931 652.84 536.181 657C537.541 659.52 533.921 663.13 536.181 662C542.181 659 543.181 648 529.181 644C525.239 642.8 521.056 642.629 517.03 643.504C513.003 644.379 509.268 646.271 506.181 649" fill="#F3E7D9"/>
<path d="M373.351 552.05C373.351 552.05 389.521 538.33 421.181 532.05C431.181 530.05 447.631 541.68 459.181 568.05C470.731 594.42 499.181 651.05 499.181 651.05C499.181 651.05 477.491 680.73 452.181 698.05C433.411 710.89 410.841 713.87 403.181 709.05C385.181 697.68 347.461 568.93 373.351 552.05Z" fill="#F7BC4B"/>
<path d="M418.111 541.17C421.051 548.02 414.281 560.92 404.991 564.91C395.701 568.9 381.201 562.68 378.251 555.83C375.301 548.98 385.911 545 395.181 541C404.451 537 415.181 534.32 418.111 541.17Z" fill="#F5894E"/>
<path d="M457.181 666.15L444.731 605.87L418.451 537.72C430.671 535.72 454.881 549.99 466.451 576.36C478.021 602.73 499.771 651 499.771 651L492.771 666L448.181 708L405.181 711L418.851 708.12C418.851 708.12 444.791 701.12 448.651 696.25C456.521 686.25 469.051 654.11 469.051 654.11L457.181 666.15Z" fill="#CE9436"/>
<path d="M419.541 537.48C421.381 530.83 429.181 527 435.181 527C441.181 527 432.181 527 452.181 548C457.411 553.49 464.261 558.29 467.691 564C493.241 606.79 522.851 617 529.181 624C536.361 632 544.601 649.78 539.181 662C536.701 667.58 547.181 647 525.181 643C516.331 641.39 506.181 649 506.181 649C496.181 645 471.981 622.35 463.021 601.7C458.411 591.08 447.181 569.39 437.181 556C427.701 543.36 419.181 538.72 419.541 537.48Z" fill="#C94039"/>
<path d="M419.541 537.48C421.381 530.83 429.181 527 435.181 527C441.181 527 432.181 527 452.181 548C457.411 553.49 464.261 558.29 467.691 564C493.241 606.79 522.851 617 529.181 624C536.361 632 544.601 649.78 539.181 662C536.701 667.58 547.181 647 525.181 643L515.381 623.46C505.381 619.46 482.151 600.52 482.151 600.52C482.151 600.52 447.181 569.39 437.181 556C427.701 543.36 419.181 538.72 419.541 537.48Z" fill="#992C29"/>
<path d="M406.681 535.5C423.011 540.95 430.841 591.08 423.681 593.41C416.521 595.74 371.561 554.69 380.681 544.5" stroke="#992C29" stroke-miterlimit="10"/>
<path d="M426.626 602.556C428.036 602.124 428.508 599.586 427.681 596.888C426.853 594.19 425.04 592.353 423.63 592.786C422.22 593.218 421.748 595.756 422.575 598.454C423.403 601.152 425.217 602.989 426.626 602.556Z" fill="#29ABE2"/>
<path d="M414.621 531.29C420.561 528.79 423.271 529.77 427.481 530.96C431.691 532.15 435.021 536.23 442.221 547.06C449.421 557.89 460.631 590.49 457.221 592C453.811 593.51 442.511 565.14 435.221 556C427.931 546.86 408.681 533.79 414.621 531.29Z" fill="#F3E7D9"/>
<path d="M400.181 722C407.401 719.59 411.181 712 404.181 713C397.181 714 395.181 719 388.181 724C381.181 729 372.511 737.66 377.181 747C379.181 751 380.181 751 383.181 745C386.181 739 388.181 726 400.181 722Z" fill="#F3E7D9"/>
<path d="M373.071 556.11C380.251 558.72 396.071 589.66 401.741 607.11C407.411 624.56 403.991 652.29 407.471 663.33C410.951 674.37 412.361 710.07 410.121 713.16C409.231 714.39 392.541 719.3 386.181 725.97C380.35 732.29 376.826 740.395 376.181 748.97C376.181 748.97 341.391 719.76 359.181 661.97C358.181 638.97 334.531 589.73 336.181 581.97C337.831 574.21 365.891 553.49 373.071 556.11Z" fill="#992C29"/>
<path d="M381.621 568.54C388.811 571.15 396.081 589.66 401.741 607.14C407.401 624.62 403.991 652.32 407.471 663.36C410.951 674.4 412.361 710.1 410.121 713.19C408.481 715.46 403.181 673 403.181 673C403.181 673 392.821 670.81 391.741 662.64C391.221 658.64 393.471 607.32 393.471 607.32C393.471 607.32 374.441 565.92 381.621 568.54Z" fill="#C94039"/>
<path d="M405.481 618.33C407.711 613.94 404.721 606.82 399.971 595.96C395.221 585.1 388.181 567.27 379.561 557.72C370.511 547.72 350.341 558.64 359.461 562.72C368.881 566.93 379.351 574.63 389.171 591.04C400.091 609.29 403.261 622.71 405.481 618.33Z" fill="#F3E7D9"/>
<path d="M387.951 686.55L391.851 687.55C391.851 687.55 389.161 702.75 377.011 706.42L375.801 703.65C375.801 703.65 384.771 700.22 387.951 686.55Z" fill="#F3E7D9"/>
<path d="M395.731 612.36C395.731 612.36 404.911 637.66 388.951 647.31C392.68 635.994 394.958 624.25 395.731 612.36Z" fill="#C94039"/>
<path d="M496.181 626L497.181 629.79C497.181 629.79 502.181 633 519.181 631L518.181 627C518.181 627 505.181 632 496.181 626Z" fill="#F3E7D9"/>
<path d="M601.981 438.13C620.77 438.13 636.001 422.899 636.001 404.11C636.001 385.321 620.77 370.09 601.981 370.09C583.192 370.09 567.961 385.321 567.961 404.11C567.961 422.899 583.192 438.13 601.981 438.13Z" fill="#29ABE2"/>
<path d="M579.501 406.64L598.591 387.61L625.601 395.91" stroke="#F3E7D9" stroke-width="5" stroke-linecap="round" stroke-linejoin="round"/>
<path d="M617.391 396.66C617.333 395.621 616.952 394.626 616.301 393.814C615.65 393.002 614.762 392.413 613.761 392.13L601.941 388.58C600.951 388.288 599.9 388.272 598.901 388.532C597.902 388.793 596.993 389.321 596.271 390.06L588.271 398.27C587.535 399.011 587.049 399.964 586.883 400.996C586.716 402.027 586.876 403.084 587.341 404.02L596.181 421.13C596.758 422.179 597.668 423.004 598.768 423.476C599.868 423.947 601.094 424.036 602.251 423.73L614.011 420.84C615.208 420.571 616.276 419.899 617.036 418.935C617.795 417.972 618.2 416.777 618.181 415.55L617.391 396.66ZM604.741 410.21C603.667 410.408 602.559 410.286 601.553 409.861C600.547 409.436 599.688 408.725 599.081 407.817C598.475 406.909 598.148 405.843 598.14 404.751C598.132 403.659 598.445 402.588 599.039 401.672C599.633 400.756 600.482 400.033 601.482 399.594C602.482 399.155 603.589 399.018 604.665 399.201C605.742 399.384 606.741 399.878 607.54 400.622C608.339 401.367 608.903 402.329 609.161 403.39C609.479 404.88 609.191 406.436 608.363 407.715C607.534 408.993 606.231 409.891 604.741 410.21Z" fill="#F3E7D9"/>
<path opacity="0.5" d="M631.181 394.29C631.181 406.75 575.311 406.75 575.311 394.29C575.311 381.83 587.811 371.73 603.241 371.73C618.671 371.73 631.181 381.83 631.181 394.29Z" fill="#FFFCF3"/>
<path d="M556.991 478.96L570.181 505.07" stroke="#F7BC4B" stroke-width="3" stroke-linecap="round" stroke-linejoin="round"/>
<path d="M547.15 508.34L571.81 490.21" stroke="#F7BC4B" stroke-width="3" stroke-linecap="round" stroke-linejoin="round"/>
<path d="M542.961 500.18L567.621 482.06" stroke="#F7BC4B" stroke-width="3" stroke-linecap="round" stroke-linejoin="round"/>
<path d="M546.531 486.85L559.721 512.96" stroke="#F7BC4B" stroke-width="3" stroke-linecap="round" stroke-linejoin="round"/>
<path d="M376.392 296.96L309.932 334.41L362.152 357.62L376.392 296.96Z" fill="#33A86D"/>
<path opacity="0.5" d="M376.392 296.96L350.812 312.52L362.152 357.62L376.392 296.96Z" fill="#FFFCF3"/>
<path d="M376.391 296.96L372.851 300.97L333.401 344.69L336.301 345.75L376.391 296.96Z" fill="#288453"/>
<path d="M278.921 241.9C279.751 243.63 286.101 257.33 282.351 265.72C282.267 265.904 282.244 266.109 282.286 266.307C282.328 266.504 282.433 266.683 282.584 266.816C282.736 266.95 282.926 267.031 283.127 267.048C283.328 267.065 283.529 267.016 283.701 266.91C290.971 262.37 306.561 250.34 306.091 230.81C305.491 205.58 278.661 232.81 278.831 241.51C278.831 241.645 278.862 241.779 278.921 241.9Z" fill="#F7BC4B"/>
<path d="M282.881 196.89H261.461C248.642 196.89 238.251 207.281 238.251 220.1V230.01C238.251 242.829 248.642 253.22 261.461 253.22H282.881C295.7 253.22 306.091 242.829 306.091 230.01V220.1C306.091 207.281 295.7 196.89 282.881 196.89Z" fill="#F7BC4B"/>
<path opacity="0.5" d="M256.831 213.78C255.764 213.134 254.897 212.204 254.327 211.094C253.757 209.984 253.506 208.738 253.602 207.494C253.699 206.25 254.138 205.057 254.873 204.048C255.607 203.039 256.607 202.254 257.761 201.78C267.901 197.72 284.411 201.02 288.301 201.48C299.941 202.88 302.431 216.48 302.131 229.83C302.104 230.977 301.777 232.097 301.181 233.077C300.585 234.057 299.741 234.863 298.735 235.414C297.729 235.965 296.596 236.242 295.449 236.217C294.302 236.191 293.182 235.865 292.201 235.27L256.831 213.78Z" fill="#FFFCF3"/>
<path d="M169.952 377.13C190.745 377.13 207.602 360.273 207.602 339.48C207.602 318.686 190.745 301.83 169.952 301.83C149.158 301.83 132.302 318.686 132.302 339.48C132.302 360.273 149.158 377.13 169.952 377.13Z" fill="#29ABE2"/>
<path d="M161.262 365.24C158.002 367.12 154.602 366.33 152.262 362.31L147.732 353.73C145.412 349.73 145.592 345.66 148.852 343.73C152.112 341.85 155.322 342.29 157.642 346.31L162.172 354.89C164.512 359 164.522 363.36 161.262 365.24Z" fill="#F3E7D9"/>
<path d="M159.112 345.05C157.852 342.94 158.672 340.64 159.202 338.23C159.872 335.18 161.092 328.23 160.602 327.03C159.782 324.97 155.602 317.03 156.502 314.83C157.402 312.63 162.972 312.15 165.332 314.53C168.202 317.43 168.202 318.83 169.242 322.95C170.112 326.44 169.782 327.14 173.242 326.03C177.242 324.74 182.902 324.19 184.642 323.43C185.224 323.188 185.85 323.069 186.48 323.08C187.111 323.091 187.732 323.233 188.305 323.496C188.878 323.759 189.39 324.137 189.809 324.608C190.229 325.078 190.546 325.631 190.742 326.23C190.954 326.714 191.038 327.244 190.986 327.769C190.933 328.295 190.746 328.798 190.442 329.23C191.075 329.588 191.625 330.077 192.056 330.663C192.487 331.249 192.789 331.919 192.942 332.63C193.28 334.21 193.105 335.856 192.442 337.33C192.442 337.33 195.942 338.83 194.742 343.83C194.742 343.83 197.052 348.4 194.042 351.03C191.752 353.03 187.622 354.7 182.642 356.83C174.242 360.43 168.392 360.58 166.742 358.93C165.092 357.28 159.112 345.05 159.112 345.05Z" fill="#F3E7D9"/>
<path opacity="0.5" d="M197.602 334.6C197.602 350.6 139.002 350.6 139.002 334.6C139.002 326.829 142.089 319.377 147.584 313.882C153.079 308.387 160.531 305.3 168.302 305.3C176.073 305.3 183.525 308.387 189.02 313.882C194.515 319.377 197.602 326.829 197.602 334.6Z" fill="#FFFCF3"/>
<path d="M319.981 409.61C320.447 411.211 320.589 412.889 320.398 414.546C320.208 416.202 319.689 417.804 318.871 419.257C318.054 420.711 316.956 421.987 315.639 423.011C314.323 424.034 312.816 424.785 311.206 425.22C309.596 425.654 307.916 425.763 306.263 425.54C304.611 425.317 303.019 424.766 301.582 423.921C300.145 423.075 298.891 421.952 297.893 420.616C296.895 419.28 296.174 417.758 295.771 416.14" stroke="#F7BC4B" stroke-width="3" stroke-miterlimit="10"/>
<path d="M295.751 376.08C295.751 376.08 306.391 369.2 314.581 384.59C317.061 389.25 318.781 392.59 321.961 398.31C323.401 400.88 329.441 406.67 329.441 406.67L305.731 413.07" stroke="#F7BC4B" stroke-width="3" stroke-miterlimit="10"/>
<path d="M300.121 374.9C300.121 374.9 287.461 374.31 288.121 391.73C288.321 397 288.521 400.73 288.641 407.29C288.691 410.24 286.371 418.29 286.371 418.29L310.091 411.9" stroke="#F7BC4B" stroke-width="3" stroke-miterlimit="10"/>
<path d="M172.701 605.79C183.991 622.21 205.351 626.55 221.041 616.99C236.421 607.62 242.601 587.12 234.491 569.67C225.571 550.51 202.821 541.78 184.131 552.17C165.001 562.8 160.241 587.7 172.701 605.79Z" fill="#EE5D4F"/>
<path opacity="0.5" d="M199.692 574.41C199.692 574.41 236.102 586.53 229.022 571.31C221.232 554.59 201.392 547 185.092 556C168.402 565.31 199.692 574.41 199.692 574.41Z" fill="#FFFCF3"/>
<g style="mix-blend-mode:color-dodge">
<path d="M180.121 586.05C180.001 572.15 195.961 576.9 198.001 577.57C198.461 575.47 202.381 559.51 214.001 566.57C231.001 577.02 215.671 602.08 213.851 604.92L213.921 605.05H213.761C213.734 605.099 213.704 605.146 213.671 605.19L213.601 605.06C210.241 605.36 180.311 606.89 180.121 586.05Z" fill="#FFFCF3"/>
</g>
<path d="M394.721 621.78L444.671 601.34C446.842 600.454 449.272 600.441 451.452 601.303C453.632 602.166 455.395 603.838 456.371 605.97L475.891 648.64C476.395 649.736 476.674 650.921 476.714 652.127C476.753 653.332 476.552 654.533 476.122 655.66C475.692 656.787 475.041 657.816 474.208 658.689C473.376 659.561 472.377 660.258 471.271 660.74L417.721 684.12C416.576 684.623 415.339 684.883 414.088 684.885C412.837 684.886 411.6 684.629 410.453 684.13C409.306 683.63 408.275 682.899 407.425 681.982C406.575 681.064 405.923 679.981 405.511 678.8L389.581 633.18C388.817 630.983 388.923 628.576 389.88 626.456C390.836 624.335 392.569 622.662 394.721 621.78Z" fill="#F3E7D9"/>
<path d="M433.492 661.18C443.836 661.18 452.222 652.794 452.222 642.45C452.222 632.106 443.836 623.72 433.492 623.72C423.147 623.72 414.762 632.106 414.762 642.45C414.762 652.794 423.147 661.18 433.492 661.18Z" fill="#29ABE2"/>
<path d="M425.762 634.51L433.932 654.02L442.682 638.22L425.762 634.51Z" fill="#C94039"/>
<g opacity="0.5">
<path opacity="0.5" d="M409.492 618.79L445.492 604.06C447.056 603.422 448.807 603.413 450.378 604.035C451.949 604.658 453.219 605.863 453.922 607.4L467.992 638.14C469.502 641.47 406.262 620.11 409.492 618.79Z" fill="#FFFCF3"/>
</g>
<path d="M373.701 523.21L386.641 557.21C386.641 557.21 391.271 563.21 401.481 559.73C411.691 556.25 411.391 547.45 411.391 547.45L397.271 509.3L373.701 523.21Z" fill="#F5894E"/>
<path d="M373.701 523.21C373.701 523.21 390.601 543.21 396.581 546.21C402.561 549.21 410.181 546 410.181 546L398.521 509L373.701 523.21Z" fill="#CC6D3D"/>
<path d="M354.282 517.77C370.682 534.77 379.882 536.27 379.882 536.27C412.972 527.34 418.102 497.76 408.882 478.27C400.082 457.76 395.932 452.76 372.932 460.87C340.872 472.15 339.672 502.64 354.282 517.77Z" fill="#1D2538"/>
<path d="M354.282 517.77C370.682 534.76 378.182 529 378.182 529C411.282 520.08 418.102 497.76 408.862 478.26C400.062 457.75 397.862 449.12 370.642 457.06C332.812 468.09 339.672 502.64 354.282 517.77Z" fill="#3E4C6F"/>
<path d="M352.231 518.81C366.231 533.3 385.441 511.49 385.441 511.49C389.171 506.65 384.381 488.49 381.051 476.54C378.181 466.24 380.291 454.69 353.951 467.95C330.541 479.74 339.781 505.91 352.231 518.81Z" fill="#1D2538"/>
<path d="M373.691 463.35C373.691 463.35 394.191 465.77 398.281 467.86C402.371 469.95 417.741 503.37 416.431 516.28C415.131 529.02 379.561 540.86 368.721 536.06C359.841 532.14 358.981 525.17 353.591 515.14C347.911 504.57 352.801 494.43 352.001 489.8C350.611 481.88 373.691 463.35 373.691 463.35Z" fill="#CC6D3D"/>
<path d="M345.721 517.09C349.521 522.83 355.811 526.56 358.271 525.28C360.731 524 359.681 518.28 355.871 512.48C352.061 506.68 346.941 503.03 344.481 504.37C342.021 505.71 341.921 511.34 345.721 517.09Z" fill="#CC6D3D"/>
<path d="M397.721 473.89C404.641 475.39 420.221 511.66 412.541 520.46C404.861 529.26 395.641 530.98 386.691 527.59C378.851 524.59 372.741 497.7 378.691 488.9C385.891 478.13 390.791 472.4 397.721 473.89Z" fill="#F5894E"/>
<path d="M348.072 483.39C348.072 483.39 356.022 499.07 355.952 504.65L354.392 513.45L344.052 490.84L348.072 483.39Z" fill="#1D2538"/>
<path d="M395.241 454.76C395.241 454.76 391.391 463.35 371.421 470.05C361.511 473.37 354.241 479.78 349.101 480.38C336.461 481.84 349.151 452.97 369.291 445.46C389.651 437.88 395.241 454.76 395.241 454.76Z" fill="#1D2538"/>
<path d="M369.321 445.17C353.391 451.87 341.231 472.54 351.411 471.36C354.301 471.02 358.861 470.36 364.291 469.22C373.041 464.8 381.091 456.95 381.091 456.95C381.921 461.6 377.371 465.05 372.011 467.45C377.089 466.176 382.096 464.633 387.011 462.83C395.371 459.73 396.411 459.88 396.081 456.88C395.431 450.77 386.531 437.94 369.321 445.17Z" fill="#3E4C6F"/>
<path d="M370.002 491C370.742 493.41 372.202 494.12 373.412 493.75C374.622 493.38 375.112 492.07 374.412 489.65C373.712 487.23 372.092 485.58 370.882 485.95C369.672 486.32 369.262 488.56 370.002 491Z" fill="#34283A"/>
<path d="M390.292 485C391.032 487.41 392.492 488.12 393.702 487.75C394.912 487.38 395.402 486.07 394.702 483.66C394.002 481.25 392.382 479.59 391.182 479.96C389.982 480.33 389.552 482.59 390.292 485Z" fill="#34283A"/>
<path d="M364.182 485.09C364.313 485.041 364.429 484.958 364.517 484.849C364.605 484.739 364.662 484.609 364.682 484.47C364.682 484.29 365.402 480.06 368.902 479.83C369.004 479.824 369.104 479.797 369.197 479.752C369.289 479.707 369.371 479.644 369.439 479.567C369.507 479.489 369.559 479.4 369.592 479.302C369.625 479.205 369.638 479.102 369.632 479C369.619 478.792 369.524 478.598 369.369 478.459C369.213 478.321 369.01 478.249 368.802 478.26C364.992 478.51 363.422 482.26 363.132 484.26C363.103 484.465 363.156 484.674 363.279 484.84C363.403 485.007 363.587 485.118 363.792 485.15C363.925 485.16 364.058 485.14 364.182 485.09Z" fill="#34283A"/>
<path d="M397.181 474.68C397.254 474.655 397.321 474.618 397.381 474.57C397.545 474.445 397.653 474.26 397.681 474.056C397.709 473.852 397.655 473.645 397.531 473.48C395.361 470.58 391.531 471.29 389.871 472.07C389.692 472.157 389.553 472.309 389.483 472.495C389.412 472.68 389.415 472.886 389.491 473.07C389.578 473.249 389.729 473.389 389.915 473.461C390.1 473.533 390.306 473.533 390.491 473.46C390.651 473.38 394.301 471.78 396.251 474.38C396.349 474.528 396.494 474.639 396.663 474.694C396.832 474.748 397.015 474.743 397.181 474.68Z" fill="#34283A"/>
<path d="M285.812 650.53C285.812 650.53 322.422 594.86 329.292 585.97C336.292 576.9 345.472 568.9 356.922 574.23C368.372 579.56 377.992 595.9 368.652 608.23C359.312 620.56 338.402 651.85 331.302 657.69C324.202 663.53 311.532 676 311.372 670.37C311.212 664.74 285.812 650.53 285.812 650.53Z" fill="#1D2538"/>
<path d="M285.811 650.53C284.121 648.32 296.301 634.35 308.181 618C317.391 605.32 326.291 589.85 329.291 586C336.291 576.93 352.861 566.54 352.181 579.14C351.111 598.81 316.181 608.14 322.651 637.03C327.241 657.52 288.821 654.45 285.811 650.53Z" fill="#273252"/>
<path d="M341.751 598.53C341.751 598.53 326.561 603.8 318.911 618.53C311.261 633.26 341.751 598.53 341.751 598.53Z" fill="#273252"/>
<path d="M370.182 652C370.182 652 356.182 650 334.182 647C312.182 644 303.182 629 292.182 638C281.182 647 278.182 667 287.182 675C296.182 683 330.182 686 347.182 689C364.182 692 370.182 700 374.182 687C378.182 674 376.182 657 370.182 652Z" fill="#C94039"/>
<path d="M370.182 652C370.182 652 356.182 650 334.182 647C312.182 644 358.722 663.81 358.722 663.81C358.722 663.81 370.182 700 374.182 687C378.182 674 376.182 657 370.182 652Z" fill="#992C29"/>
<path d="M377.502 657.24C377.502 657.24 369.712 654.87 367.122 665.12C364.532 675.37 367.602 687.34 372.982 688.85C378.362 690.36 377.502 684.05 377.502 684.05C377.502 684.05 374.042 682.47 374.042 675.37C374.042 668.27 380.102 661.18 380.102 661.18L377.502 657.24Z" fill="#F3E7D9"/>
<path d="M373.362 679.44C370.362 674.19 371.792 669.21 373.272 662.52C375.122 654.19 378.962 645.99 381.182 641C385.182 632 392.741 632.56 397.291 631.37C404.911 629.37 407.872 629.79 407.872 629.79C407.872 629.79 413.812 631.97 412.722 633.95C411.632 635.93 402.862 635.65 403.032 635.95C403.202 636.25 404.802 635.57 406.692 636.65C407.344 637.09 407.875 637.687 408.237 638.386C408.599 639.085 408.779 639.863 408.761 640.65C408.827 641.475 408.624 642.3 408.182 643C408.758 642.879 409.359 642.974 409.869 643.267C410.38 643.561 410.765 644.031 410.951 644.59C411.43 645.924 411.696 647.324 411.742 648.74C411.538 650.012 411.064 651.227 410.352 652.3C410.352 652.3 411.741 651.3 412.731 653.88C413.722 656.46 412.282 659.75 412.192 660.34C411.192 667.34 394.192 670.96 394.192 670.96C393.638 673.198 392.628 675.297 391.223 677.124C389.819 678.952 388.051 680.469 386.032 681.58C379.032 685.58 378.642 685.36 377.192 683.96C375.83 682.527 374.551 681.018 373.362 679.44Z" fill="#F5894E"/>
</svg>
