<svg width="468" height="527" viewBox="0 0 468 527" fill="none" xmlns="http://www.w3.org/2000/svg">
<path d="M302.742 422.649C304.727 421.459 396.854 404.887 404.571 390.219C412.284 375.546 403.801 372.457 387.602 375.546C387.602 375.546 422.316 368.597 424.632 346.205C424.632 346.205 448.544 324.583 441.602 313.775C434.66 302.966 423.857 321.494 423.857 321.494C423.857 321.494 455.486 278.251 426.173 253.546C396.859 228.835 377.574 252.004 377.574 252.004C377.574 252.004 366 233.471 335.147 244.284C304.293 255.097 315.091 285.98 315.091 285.98C315.091 285.98 309.689 276.714 300.432 280.574C291.174 284.434 287.318 299.878 287.318 299.878C287.318 299.878 276.52 296.018 268.032 299.878C259.545 303.737 246.431 340.803 246.431 340.803C246.431 340.803 231.772 334.626 221.744 336.172C211.716 337.714 209.401 349.299 209.401 349.299C209.401 349.299 189.345 313.009 163.888 313.009C138.431 313.009 133.029 334.63 133.029 350.074C133.029 350.074 123.771 343.126 103.716 353.934C83.6599 364.743 80.5741 411.075 102.175 424.201C102.175 424.201 87.5161 429.607 67.4603 439.645C47.4046 449.682 65.9198 452 65.9198 452C65.9198 452 35.8362 462.038 44.3187 462.038C52.8012 462.038 268.028 443.5 302.742 422.649Z" fill="#F3E7D9"/>
<path d="M129.826 453.157C129.826 453.157 217.381 363.098 220.37 360.361C223.412 357.57 231.046 357.691 224.508 363.898C218.215 369.871 132.083 456.153 132.083 456.153L129.826 453.157Z" fill="#B44C29"/>
<path d="M122.036 462.223C132.449 462.223 124.352 463.96 130.328 463.379C131.06 463.311 131.703 463.213 132.283 463.106C132.395 462.93 132.464 462.808 132.483 462.74C132.912 461.271 141.585 446.262 138.928 444.393C136.29 442.543 115.996 454.986 111.993 459.046C110.706 460.354 109.327 461.959 108.059 463.521C112.076 463.311 116.513 462.223 122.036 462.223Z" fill="#B44C29"/>
<path d="M122.036 462.223C132.449 462.223 124.351 463.96 130.328 463.379C132.376 463.179 133.789 462.804 134.764 462.389C136.471 458.885 143.388 446.481 140.975 444.793C138.318 442.934 117.799 455.401 113.748 459.471C112.617 460.608 111.413 461.969 110.277 463.331C113.714 462.955 117.512 462.223 122.036 462.223Z" fill="#F5894E"/>
<path d="M125.829 469.625C125.829 469.625 93.2344 467.117 76.4595 472.329C59.6847 477.54 84.9469 481.014 84.9469 481.014C84.9469 481.014 69.9027 476.959 86.4874 473.1C103.072 469.24 125.829 469.625 125.829 469.625Z" fill="#BB83C3"/>
<path d="M203.229 461.257C203.229 461.257 178.927 460.1 158.871 462.028C138.816 463.96 133.799 469.362 133.799 469.362C133.799 469.362 161.957 462.418 203.229 461.257Z" fill="#BB83C3"/>
<path d="M255.109 474.578C255.109 474.578 229.652 474.383 221.939 476.315C214.227 478.248 227.726 477.472 238.909 477.086C250.097 476.701 230.232 479.019 239.489 480.175C248.747 481.331 293.875 478.633 293.875 478.633L282.882 477.667C282.882 477.667 340.246 474.842 314.701 473.422C297.341 472.455 282.487 474.344 255.109 474.578Z" fill="#BB83C3"/>
<path d="M185.294 466.859C185.294 466.859 165.428 468.21 169.479 473.422C173.531 478.633 209.401 475.159 209.401 475.159C209.401 475.159 177.582 481.527 164.273 477.477C150.964 473.422 168.514 468.015 185.294 466.859Z" fill="#BB83C3"/>
<path d="M193.586 466.473C193.586 466.473 202.264 475.159 221.934 474.002C241.605 472.846 306.403 468.791 335.337 468.791C364.265 468.791 392.881 465.804 398.98 460.105C401.871 457.402 383.36 458.949 383.36 458.949C383.36 458.949 397.629 460.491 378.344 462.037C357.571 463.701 289.053 462.423 268.803 466.478C248.552 470.533 211.521 472.26 193.586 466.473Z" fill="#BB83C3"/>
<path d="M328.97 473.226C328.97 473.226 344.399 473.997 376.028 474.383C397.361 474.642 422.429 473.744 437.736 469.606C454.331 465.117 429.258 458.553 429.258 458.553C429.258 458.553 437.4 454.176 426.324 453.166C413.444 451.99 405.161 453.157 400.715 453.537C396.269 453.918 400.979 452.986 415.374 454.308C435.357 456.143 414.604 458.168 429.258 462.418C447.091 467.586 404.571 470.909 328.97 473.226Z" fill="#BB83C3"/>
<path d="M387.767 492.769C387.767 492.769 382.527 496.317 371.831 494.336C361.135 492.355 368.023 492.408 358.395 493.496C335.912 495.414 328.785 494.658 339.315 487.704C339.315 487.704 313.76 493.194 336.297 495.395C356.543 497.371 364.172 494.326 364.172 494.326C364.172 494.326 387.733 499.45 387.767 492.769Z" fill="#BB83C3"/>
<path d="M392.998 492.53C392.998 492.53 401.485 491.759 401.485 488.671C401.485 485.582 396.469 484.04 396.469 484.04C396.469 484.04 411.128 485.196 406.112 489.832C400.983 494.57 392.998 492.53 392.998 492.53Z" fill="#BB83C3"/>
<path d="M89.0565 477.862C87.5063 478.223 125.19 476.964 131.484 483.269C134.184 485.972 128.398 489.061 156.941 490.988C185.484 492.916 210.171 485.967 235.243 487.128C235.243 487.128 214.671 484.684 187.156 487.002C168.514 488.573 139.586 488.29 140.356 482.498C141.126 476.701 107.187 473.612 89.0565 477.862Z" fill="#BB83C3"/>
<path d="M344.784 460.871C344.784 460.871 356.163 458.168 348.45 456.816C340.738 455.465 296.956 457.782 296.956 457.782C296.956 457.782 350.186 452.185 358.283 456.431C366.385 460.681 344.784 460.871 344.784 460.871Z" fill="#BB83C3"/>
<path d="M213.447 493.267C213.447 493.267 239.382 489.036 248.435 491.125C259.316 493.633 264.576 494.853 276.978 492.574C276.978 492.574 256.532 498.596 246.1 494.614C237.242 491.237 224.504 492.481 213.447 493.267Z" fill="#BB83C3"/>
<path d="M234.975 404.229C253.29 403.296 325.757 392.269 335.751 389.468C345.745 386.667 345.257 385.579 350.245 389.921C360.555 398.89 371.465 412.87 363.719 420.024C335.191 434.385 208.314 405.59 234.975 404.229Z" fill="#7A462F"/>
<path d="M345.911 388.989C333.601 392.996 329.809 392.698 301.031 396.992C280.464 400.066 256.664 404.697 241.659 403.106C241.659 403.106 232.894 398.392 239.548 398.592C284.452 399.964 346.973 386.096 346.973 386.096C346.973 386.096 348.563 388.126 345.911 388.989Z" fill="#D77D5B"/>
<path d="M349.991 417.247C349.991 417.247 372.557 420.141 361.369 405.409C354.725 396.655 344.399 388.677 344.399 388.677L347.003 386.071C351.727 390.019 366.634 403.848 369.34 406.693C374.483 412.099 375.512 413.9 372.426 418.018C369.345 422.137 349.991 417.247 349.991 417.247Z" fill="#D77D5B"/>
<path d="M222.709 326.325C222.709 326.325 228.301 335.396 223.865 338.485C219.428 341.574 206.51 348.718 201.878 350.069C197.247 351.421 192.236 341.96 200.723 337.329C209.21 332.698 220.199 325.359 222.709 326.325Z" fill="#F5894E"/>
<path d="M222.709 326.325C222.709 326.325 228.301 335.396 223.865 338.485C219.429 341.574 206.51 348.718 201.878 350.07C197.247 351.421 206.056 344.922 214.544 339.774C218.78 337.207 214.261 329.56 214.261 329.56C218.244 327.355 221.486 325.852 222.709 326.325Z" fill="#CC6D3D"/>
<path d="M204.258 348.01C205.223 346.2 204.555 338.192 201.162 335.758C195.253 331.517 175.885 315.278 173.335 313.97C170.781 312.662 166.822 319.011 170.62 322.529C174.418 326.047 188.75 344.126 193.971 348.137C199.192 352.148 203.292 349.816 204.258 348.01Z" fill="#F5894E"/>
<path d="M204.258 348.01C204.258 348.01 205.608 346.215 204.316 346.4C202.493 346.664 197.759 346.732 195.775 345.307C189.867 341.067 180.755 330.663 178.932 328.448C177.616 326.847 175.354 324.525 174.174 323.685C169.947 320.675 167.651 319.777 170.625 322.529C174.423 326.047 188.755 344.126 193.976 348.137C199.192 352.148 203.292 349.816 204.258 348.01Z" fill="#CC6D3D"/>
<path d="M222.709 339.837C222.709 339.837 233.702 332.117 235.823 329.604C237.944 327.096 235.682 318.708 229.266 320.919C223.094 323.041 220.204 325.164 217.118 327.482C217.113 327.482 221.359 335.592 222.709 339.837Z" fill="#C94039"/>
<path d="M222.709 339.837C222.709 339.837 233.703 332.117 235.823 329.604C237.944 327.096 235.682 318.708 229.266 320.919C225.337 322.27 224.538 322.509 222.373 323.91C223.387 328.014 223.548 328.77 223.738 332.63C223.928 336.489 222.709 339.837 222.709 339.837Z" fill="#992C29"/>
<path d="M201.684 337.456C201.684 337.456 204.896 339.388 204.384 343.76C204.384 343.76 205.413 335.523 201.684 337.456Z" fill="#CC6D3D"/>
<path d="M174.169 315.029C174.008 313.775 172.37 312.228 171.308 310.974C170.489 310.008 168.768 308.851 167.227 309.237C165.687 309.622 160.929 309.364 160.285 309.364C159.642 309.364 158.998 311.164 160.158 311.681C161.319 312.199 164.4 313.384 164.4 313.384C164.4 313.384 160.158 316.956 158.998 317.6C157.843 318.245 152.568 317.727 152.568 317.727C152.568 317.727 148.58 316.439 148.454 317.854C148.327 319.269 150.511 319.913 150.511 319.913C150.511 319.913 148.839 320.04 148.97 320.684C149.102 321.329 148.844 322.134 149.741 322.778C150.642 323.422 151.539 323.519 152.568 323.773C153.597 324.027 152.056 325.188 154.625 325.447C157.194 325.706 163.239 325.447 163.756 325.574C164.268 325.701 168.129 323.641 170.313 322.226C172.502 320.821 174.33 316.288 174.169 315.029Z" fill="#F5894E"/>
<path d="M170.445 319.826C170.445 319.826 166.715 318.537 165.428 318.796C164.141 319.055 162.084 321.626 162.084 321.626L156.682 323.168L153.211 323.68H156.424L162.723 322.007C162.723 322.007 165.038 319.821 165.935 319.821C166.832 319.821 170.445 319.826 170.445 319.826Z" fill="#CC6D3D"/>
<path d="M150.516 319.826L156.687 319.699L159.256 318.928C159.256 318.928 157.326 320.343 155.785 320.216C154.245 320.084 150.516 319.826 150.516 319.826Z" fill="#CC6D3D"/>
<path d="M159.257 318.923C159.257 318.923 159.515 320.982 160.797 321.494C162.084 322.007 163.113 321.236 163.113 321.236L159.257 318.923Z" fill="#CC6D3D"/>
<path d="M160.412 320.211L155.527 321.626L151.413 321.499C151.413 321.499 157.969 321.885 160.412 320.211Z" fill="#CC6D3D"/>
<path d="M237.846 319.806C237.846 319.806 229.817 319.606 227.965 322.519C226.112 325.432 223.1 337.217 225.21 341.189C227.326 345.161 232.986 353.749 236.686 356.394C236.686 356.394 243.053 364.723 253.344 360.629C263.396 356.633 264.649 357.535 265.707 352.768C266.765 348.005 260.71 330.732 256.835 323.232C253.949 317.639 247.007 318.215 237.846 319.806Z" fill="#F7BC4B"/>
<path d="M237.847 319.806C237.847 319.806 229.817 319.606 227.965 322.519C226.468 324.637 225.259 330.766 225.259 330.766C225.259 330.766 230.69 332.03 234.853 331.922C238.505 331.829 244.618 327.789 247.197 328.062C258.77 329.273 254.524 343.892 254.524 343.892C254.524 343.892 248.664 357.628 251.053 359.336C251.053 359.336 243.053 364.728 253.344 360.634C263.396 356.638 264.649 357.54 265.707 352.773C266.765 348.01 260.71 330.736 256.835 323.236C253.949 317.64 247.007 318.215 237.847 319.806Z" fill="#CE9436"/>
<path d="M237.944 357.404C237.944 357.404 230.232 368.729 223.802 400.13C223.802 400.13 240.26 414.544 266.745 417.116C293.231 419.687 300.432 404.248 300.432 404.248C300.432 404.248 295.805 378.64 280.629 363.196C265.458 347.752 262.884 350.07 256.459 351.099C250.029 352.129 237.944 357.404 237.944 357.404Z" fill="#F7BC4B"/>
<path d="M237.944 357.404C237.944 357.404 230.232 368.729 223.802 400.13C223.802 400.13 240.26 414.544 266.745 417.116C293.231 419.687 300.432 404.248 300.432 404.248C300.432 404.248 249.259 389.961 238.973 384.559C233.205 381.529 237.944 357.404 237.944 357.404Z" fill="#CE9436"/>
<path d="M292.329 405.278C292.329 405.278 261.856 423.425 223.802 400.13C223.802 400.13 240.26 414.544 266.745 417.116C293.231 419.687 300.432 404.248 300.432 404.248C300.432 404.248 295.805 378.64 280.629 363.196C265.458 347.752 262.884 350.07 256.459 351.099C285.002 368.598 292.329 405.278 292.329 405.278Z" fill="#CE9436"/>
<path d="M242.57 365.509C242.57 365.509 239.484 382.88 241.8 384.812C244.116 386.745 242.57 380.567 242.57 365.509Z" fill="#CE9436"/>
<path d="M276.9 364.352C276.9 364.352 283.072 378.249 285.002 392.537C285.002 392.537 278.445 370.657 270.343 361.395C262.241 352.129 272.659 355.857 276.9 364.352Z" fill="#CE9436"/>
<path d="M146.659 372.203C146.659 372.203 137.66 400.256 136.89 405.663C136.89 405.663 150.389 474.964 220.589 470.138L146.659 372.203Z" fill="#7A462F"/>
<path d="M181.628 450.644L170.25 457.787C170.25 457.787 181.823 468.791 198.988 470.142L181.628 450.644Z" fill="#A96443"/>
<path d="M164.848 421.878C161.699 427.929 154.24 438.801 153.47 441.309C153.47 441.309 162.728 454.308 169.089 457.397L181.238 449.482C181.243 449.482 167.754 416.306 164.848 421.878Z" fill="#D77D5B"/>
<path d="M155.98 400.256L143.315 424.581C143.315 424.581 148.78 436.097 152.831 440.923C152.831 440.923 162.732 425.157 164.273 420.912L155.98 400.256Z" fill="#A96443"/>
<path d="M148.843 386.555C148.843 386.555 141.901 405.087 139.201 413.388L143.057 423.942C143.057 423.942 154.245 402.965 154.82 398.91L148.843 386.555Z" fill="#D77D5B"/>
<path d="M146.659 372.462L135.925 401.227C135.666 402.081 135.345 402.989 135.637 403.833L137.66 411.167C137.948 411.992 138.235 412.192 138.518 411.367L149.492 381.216L146.659 372.462Z" fill="#D77D5B"/>
<path opacity="0.5" d="M146.401 376.063C146.401 376.063 146.274 386.681 147.43 396.914C148.585 407.147 150.389 474.969 220.589 470.143C220.589 470.143 198.988 467.825 183.948 450.453C168.899 433.077 146.401 376.063 146.401 376.063Z" fill="#7A462F"/>
<path d="M144.461 368.983C144.373 368.353 144.763 367.753 145.372 367.573L154.113 362.361C154.859 362.225 158.764 365.513 159.451 365.836C159.451 365.836 178.635 385.823 178.581 387.496C178.137 400.93 173.409 428.612 245.144 462.804L241.342 464.853C240.547 465.282 216.021 471.865 215.124 471.845C211.365 471.748 200.723 471.684 200.723 471.684C200.723 471.684 181.252 455.465 171.215 436.356C150.725 397.343 145.114 373.672 144.461 368.983Z" fill="#D77D5B"/>
<path opacity="0.5" d="M154.113 362.356C154.859 362.22 158.764 365.509 159.451 365.831C159.451 365.831 178.635 385.818 178.581 387.491C178.137 400.925 173.409 428.607 245.144 462.799L241.342 464.848C240.547 465.278 216.021 471.86 215.124 471.841C212.116 471.763 204.701 471.709 201.859 471.689C201.118 471.685 200.401 471.411 199.841 470.923C195.931 467.512 179.975 453.035 171.215 436.356C165.818 426.075 162.181 416.115 159.759 407.02C152.982 381.602 154.113 362.356 154.113 362.356Z" fill="#7A462F"/>
<path d="M154.63 362.678C155.376 362.542 166.974 372.267 166.974 372.267C166.974 372.267 173.93 398.915 174.432 400.515C181.004 421.497 227.662 467.693 225.605 469.752C223.548 471.811 215.836 471.294 215.836 471.294C215.836 471.294 211.512 471.558 200.148 457.524C167.227 416.862 154.63 362.678 154.63 362.678Z" fill="#7A462F"/>
<path d="M163.888 370.915C163.888 370.915 168.514 387.516 175.461 404.892C191.256 444.422 212.404 464.985 217.639 469.669C218.395 470.343 219.375 470.699 220.384 470.66C227.638 470.372 255.908 470.577 276.515 468.21C300.042 465.507 344.979 462.999 370.627 424.196C371.572 422.761 373.615 416.247 371.914 416.476C371.914 416.476 314.057 406.439 271.884 396.402C235.365 387.706 194.937 380.182 163.888 370.915Z" fill="#7A462F"/>
<path d="M161.314 369.627L164.4 380.182C164.4 380.182 259.735 402.189 285.772 406.82C311.81 411.45 367.253 424.484 373.04 416.857C374.068 415.569 366 412.353 366 412.353C358.868 416.745 182.086 373.853 163.629 369.432L161.314 369.627Z" fill="#D77D5B"/>
<path d="M352.092 444.197C352.092 444.197 343.068 450.98 341.542 451.688C340.017 452.395 283.462 463.189 198.217 447.359L184.719 429.598C184.714 429.603 288.064 448.062 352.092 444.197Z" fill="#7A462F"/>
<path d="M341.699 451.605C341.699 451.605 326.269 460.291 310.07 464.15C297.775 467.078 224.825 472.065 218.4 470.518C211.975 468.971 198.213 447.355 198.213 447.355C198.213 447.355 306.794 461.066 341.699 451.605Z" fill="#A96443"/>
<path d="M183.944 424.196L196.287 444.851C196.287 444.851 246.831 450.439 274.589 452.381C321.453 455.665 342.41 451.317 342.41 451.317L352.336 444.49L352.102 444.183C339.495 443.724 227.053 439.489 183.944 424.196Z" fill="#D77D5B"/>
<path d="M182.656 422.137L171.985 400.256C171.985 400.256 192.382 408.601 269.573 421.878C348.129 435.39 364.397 431.593 364.397 431.593L364.631 432.399C364.631 432.399 357.689 441.055 353.701 443.368H353.145C353.145 443.373 218.4 436.034 182.656 422.137Z" fill="#A96443"/>
<path d="M165.428 381.729L171.6 398.715C171.6 398.715 308.914 434.926 366 430.808C366 430.808 371.207 424.557 372.245 420.961L371.787 420.814C371.787 420.814 363.685 422.39 338.228 418.531C329.238 417.169 219.17 397.944 165.428 381.729Z" fill="#D77D5B"/>
<path opacity="0.5" d="M161.572 369.886C161.572 369.886 164.785 383.012 171.732 400.388C187.527 439.918 209.308 463.78 214.544 468.469C215.299 469.142 217.245 470.528 220.384 470.66C227.638 470.967 255.908 470.577 276.515 468.21C300.042 465.507 344.979 462.999 370.627 424.196C371.572 422.761 371.173 422.937 369.471 423.166C369.471 423.166 336.092 452.556 293.87 442.729C221.998 425.997 204.258 408.24 161.572 369.886Z" fill="#7A462F"/>
<path d="M207.602 400.515C207.602 400.515 227.146 403.863 244.886 407.981C262.631 412.099 217.371 405.663 207.602 400.515Z" fill="#A96443"/>
<path d="M245.144 411.841C245.144 411.841 256.669 414.412 259.545 414.412C262.631 414.412 253.373 411.841 245.144 411.841Z" fill="#A96443"/>
<path d="M192.684 380.44C192.684 380.44 230.977 389.185 237.169 390.995C243.34 392.796 202.712 385.33 192.684 380.44Z" fill="#A96443"/>
<path d="M231.772 393.567C231.772 393.567 265.2 401.032 269.573 402.062C273.941 403.092 247.455 395.108 231.772 393.567Z" fill="#A96443"/>
<path d="M364.553 412.514C373.839 414.363 362.047 397.007 345.847 389.541C345.847 389.546 366.581 407.015 364.553 412.514Z" fill="#A96443"/>
<path d="M326.913 426.255C326.913 426.255 301.972 422.137 292.456 419.307C292.456 419.307 318.684 422.649 326.913 426.255Z" fill="#A96443"/>
<path d="M340.801 424.967C340.801 424.967 324.602 423.679 319.717 422.395C314.827 421.107 332.831 422.395 340.801 424.967Z" fill="#A96443"/>
<path d="M345.686 427.026L332.056 425.226C332.056 425.226 336.429 427.543 345.686 427.026Z" fill="#A96443"/>
<path d="M354.174 413.383C354.174 413.383 343.629 411.065 338.232 410.294C332.831 409.523 344.916 413.383 354.174 413.383Z" fill="#A96443"/>
<path d="M339.256 413.129C339.256 413.129 322.798 410.557 313.287 409.011C303.771 407.464 323.315 412.612 339.256 413.129Z" fill="#A96443"/>
<path d="M184.455 411.582C184.455 411.582 211.97 416.73 221.486 419.302C231.002 421.873 184.455 411.582 184.455 411.582Z" fill="#A96443"/>
<path d="M211.458 420.849C211.458 420.849 230.485 422.137 243.087 425.738C252.564 428.451 211.458 420.849 211.458 420.849Z" fill="#A96443"/>
<path d="M315.856 434.814C315.856 434.814 306.598 432.399 300.719 432.979L303.517 434.492C303.517 434.492 290.916 434.233 279.347 433.462C285.002 435.004 303.322 436.097 315.856 434.814Z" fill="#D77D5B"/>
<path d="M244.501 445.818C244.501 445.818 218.658 445.818 210.556 443.885C202.454 441.953 214.797 443.885 214.797 443.885L198.213 436.166C198.213 436.166 234.088 444.656 244.501 445.818Z" fill="#D77D5B"/>
<path d="M337.842 446.589C337.842 446.589 323.958 447.745 318.557 448.131C318.557 448.131 323.183 448.902 327.429 448.902C331.671 448.906 337.842 446.589 337.842 446.589Z" fill="#D77D5B"/>
<path d="M324.343 451.219C324.343 451.219 295.415 453.152 272.659 449.287C272.659 449.292 310.459 449.677 324.343 451.219Z" fill="#D77D5B"/>
<path d="M149.614 375.551C149.614 375.551 158.101 404.121 165.428 413.002C165.428 412.997 151.159 394.855 149.614 375.551Z" fill="#A96443"/>
<path d="M158.871 397.558C158.871 397.558 165.813 414.159 170.059 418.409C170.059 418.404 164.273 404.507 158.871 397.558Z" fill="#D77D5B"/>
<path d="M163.498 411.455C163.498 411.455 169.411 424.323 172.497 428.959C175.583 433.589 174.428 429.73 177.899 434.107C181.37 438.484 195.254 460.359 195.254 460.359C195.254 460.359 180.341 440.152 176.48 434.751C172.624 429.344 175.066 436.551 172.365 431.149C169.67 425.738 163.498 411.455 163.498 411.455Z" fill="#D77D5B"/>
<path d="M244.886 463.575C244.886 463.575 274.97 462.672 286.928 463.189C286.928 463.189 276.13 464.477 266.355 465.634L271.884 467.049C271.884 467.049 226.239 466.278 223.67 465.116C230.485 464.99 249.127 464.858 249.127 464.858L244.886 463.575Z" fill="#A96443"/>
<path d="M224.055 295.242C224.304 289.977 222.934 284.185 229.842 278.446C238.904 270.917 249.322 281.535 249.322 281.535C249.322 281.535 254.66 279.954 258.965 287.132C263.591 294.852 258.58 301.224 258.58 301.224C258.58 301.224 265.234 306.631 255.396 314.546C250.17 318.752 238.811 319.66 233.313 319.177C222.354 318.22 223.67 303.352 224.055 295.242Z" fill="#273252"/>
<path d="M233.537 310.559L233.922 321.758C233.922 321.758 234.692 326.003 239.324 325.232C243.955 324.461 243.823 319.181 243.823 319.181L244.725 307.085L233.537 310.559Z" fill="#CC6D3D"/>
<path d="M261.929 338.827C261.929 338.827 263.791 353.3 263.07 357.13C262.348 360.961 254.475 364.572 252.652 359.356C250.824 354.139 249.82 344.824 249.815 335.284C249.81 329.575 260.086 330.229 261.929 338.827Z" fill="#F5894E"/>
<path d="M261.929 338.827C261.929 338.827 263.216 348.835 263.236 354.408C263.24 355.535 263.002 352.827 260.315 347.942C256.074 340.222 250.058 343.331 249.995 342.155C249.878 339.915 249.815 337.607 249.815 335.284C249.81 329.575 260.086 330.229 261.929 338.827Z" fill="#CC6D3D"/>
<path d="M249.171 340.706C249.171 340.706 246.105 322.719 249.99 320.309C253.875 317.898 256.337 319.016 258.97 323.207C261.602 327.399 262.909 340.096 262.909 340.096C262.909 340.096 258.638 339.593 249.171 340.706Z" fill="#C94039"/>
<path d="M258.58 332.888C257.425 329.092 252.506 320.05 249.99 320.309C253.876 317.898 256.337 319.016 258.97 323.207C261.602 327.399 262.909 340.096 262.909 340.096L261.052 339.983L258.575 330.317V332.888H258.58Z" fill="#992C29"/>
<path d="M264.128 391.151C263.231 394.094 258.867 393.347 256.649 391.088C254.431 388.828 254.387 383.768 253.895 373.76C253.081 357.213 250.029 354.525 255.299 352.192C259.959 350.128 262.845 350.85 264.04 359.024C265.239 367.202 265.025 388.214 264.128 391.151Z" fill="#F5894E"/>
<path d="M264.127 391.151C263.23 394.094 257.512 392.361 255.294 390.097C253.071 387.838 261.188 387.243 262.465 377.303C264.815 359.038 263.591 361.136 264.04 359.019C265.239 367.202 265.024 388.214 264.127 391.151Z" fill="#CC6D3D"/>
<path d="M253.373 357.404C253.373 357.404 257.229 356.247 258.292 356.34C259.35 356.437 256.649 355.379 253.373 357.404Z" fill="#CC6D3D"/>
<path d="M262.436 388.482C262.436 388.482 265.327 392.922 263.401 393.113C261.471 393.308 260.574 393.693 260.574 393.693C260.574 393.693 259.881 398.631 259.384 399.324C258.887 400.017 257.619 399.881 257.103 399.92C256.269 399.983 256.342 399.461 256.108 398.744C255.723 397.587 256.142 400.256 256.094 400.642C256.045 401.027 255.338 401.062 253.988 401.062C252.637 401.062 252.315 399.324 252.315 399.324C252.315 399.324 252.315 400.227 250.517 400.095C248.718 399.968 248.844 398.422 248.844 398.422L246.66 397.778C246.66 397.778 245.632 391.859 245.632 389.736C245.632 387.613 252.574 386.066 253.344 386.262C254.109 386.457 260.315 384.334 262.436 388.482Z" fill="#F5894E"/>
<path d="M264.171 388.965C264.171 388.965 265.327 392.922 263.401 393.118C261.471 393.313 260.574 393.698 260.574 393.698C260.574 393.698 259.881 398.636 259.384 399.329C258.887 400.022 257.619 399.886 257.103 399.925C256.269 399.988 256.342 399.466 256.108 398.749C255.723 397.592 256.142 400.261 256.094 400.647C256.045 401.032 255.338 401.066 253.988 401.066C252.637 401.066 252.315 399.329 252.315 399.329C252.315 399.329 252.315 400.232 250.517 400.1C248.718 399.973 248.844 398.427 248.844 398.427C248.844 398.427 246.885 398.685 246.66 397.782C246.436 396.88 246.319 395.806 246.027 393.727C245.973 393.357 247.353 392.805 248.62 392.151C249.551 391.673 250.19 390.927 251.321 391.249C253.12 391.761 254.919 391.981 255.947 391.634C258.497 390.78 258.677 388.56 258.677 388.194C258.677 386.071 253.339 386.262 253.339 386.262C253.339 386.262 261.281 384.334 264.171 388.965Z" fill="#CC6D3D"/>
<path d="M217.303 312.404C217.303 312.404 221.925 320.118 228.974 316.956C236.023 313.794 237.764 295.837 227.307 296.189C216.85 296.535 213.394 307.143 217.303 312.404Z" fill="#273252"/>
<path d="M230.914 285.497C227.302 287.269 213.296 288.372 212.331 285.297C211.361 282.223 222.246 276.314 225.376 282.56C225.376 282.56 221.257 276.724 224.811 274.108C228.365 271.493 234.527 283.726 230.914 285.497Z" fill="#273252"/>
<path d="M219.044 297.077C217.391 312.228 227.029 315.849 237.466 314.512C245.31 313.506 246.407 308.515 245.973 298.609C245.539 288.703 241.498 283.345 233.6 282.799C223.183 282.067 220.116 287.23 219.044 297.077Z" fill="#F5894E"/>
<path d="M238.202 295.759C243.604 318.152 227.034 315.849 237.471 314.507C245.315 313.502 246.412 308.51 245.978 298.604C245.544 288.698 241.503 283.341 233.605 282.794C225.986 282.262 222.295 284.883 220.448 290.177C226.181 285.785 234.151 286.107 238.202 295.759Z" fill="#CC6D3D"/>
<path d="M223.724 311.974C227.234 314.604 232.25 315.18 237.471 314.507C245.315 313.502 246.412 308.51 245.978 298.604C245.544 288.698 245.144 305.284 236.145 311.716C227.906 317.605 220.214 309.344 223.724 311.974Z" fill="#CC6D3D"/>
<path d="M247.587 298.911L246.236 298.716C246.236 298.716 242.722 287.156 235.048 284.238C226.99 281.174 221.647 287.552 221.647 287.552C221.647 287.552 226.181 278.256 237.076 282.501C246.451 286.161 247.587 298.911 247.587 298.911Z" fill="#F7BC4B"/>
<path d="M243.141 297.413C242.341 300.444 243.677 303.884 246.041 304.508C248.406 305.133 250.902 302.708 251.701 299.678C252.501 296.647 251.233 293.685 248.869 293.061C246.505 292.436 243.94 294.383 243.141 297.413Z" fill="#CC6D3D"/>
<path d="M248.752 304.591C248.752 304.591 242.224 301.805 238.412 306.187C234.605 310.569 240.732 321.587 248.172 317.596C255.611 313.604 253.753 306.216 248.752 304.591Z" fill="#273252"/>
<path d="M232.343 288.118C231.514 288.215 230.836 289.284 230.836 290.504C230.836 291.724 231.509 292.631 232.343 292.534C233.172 292.436 233.849 291.368 233.849 290.148C233.844 288.928 233.172 288.02 232.343 288.118Z" fill="#273252"/>
<path d="M222.651 288.947C222.115 288.952 221.608 289.845 221.515 290.933C221.423 292.026 221.788 292.905 222.325 292.9C222.861 292.895 223.368 292.002 223.46 290.914C223.548 289.821 223.183 288.942 222.651 288.947Z" fill="#273252"/>
<path d="M234.117 287.425C234.117 287.425 233.186 286.171 230.607 286.024" stroke="#1D2538" stroke-width="0.5" stroke-miterlimit="10" stroke-linecap="round" stroke-linejoin="round"/>
<path d="M223.763 286.815C223.763 286.815 222.222 287.127 221.676 288.054" stroke="#1D2538" stroke-width="0.5" stroke-miterlimit="10" stroke-linecap="round" stroke-linejoin="round"/>
<path d="M242.185 287.264C242.185 287.264 241.868 292.47 243.18 296.047C244.169 298.755 245.515 300.331 245.515 300.331L245.841 299.229L247.45 299.38C247.45 299.38 244.281 295.74 243.336 287.503L242.185 287.264Z" fill="#C94039"/>
<path d="M242.258 286.693C242.258 286.693 240.177 291.475 240.187 295.286C240.191 298.17 240.913 300.112 240.913 300.112L241.595 299.185L243.053 299.878C243.053 299.878 241.322 295.369 243.253 287.308L242.258 286.693Z" fill="#C94039"/>
<path d="M242.029 290.031C243.073 290.709 248.376 286.717 246.334 284.629C244.413 282.662 241.898 280.798 240.869 282.667C239.84 284.531 240.986 289.352 242.029 290.031Z" fill="#C94039"/>
<path d="M245.334 288.03C245.334 288.03 246.914 285.668 246.236 285.122C245.559 284.575 245.31 285.98 244.218 287.488C243.126 288.991 244.647 289.001 245.334 288.03Z" fill="#F7BC4B"/>
<path d="M242.21 288.347C242.21 288.347 242.956 287.278 245.179 287.644C247.406 288.01 248.913 288.489 249.283 289.845C249.654 291.202 247.733 293.876 246.115 294.613C244.496 295.349 242.288 291.587 241.937 290.416C241.591 289.24 242.21 288.347 242.21 288.347Z" fill="#C94039"/>
<path d="M247.957 292.212C247.957 292.212 246.466 294.393 245.32 293.91C243.619 293.193 247.792 290.309 248.396 289.806C249.005 289.299 249.464 291.05 247.957 292.212Z" fill="#F7BC4B"/>
<path d="M165.877 158.188L171.079 145.701L177.192 158.188L172.302 173.5L165.877 158.188Z" fill="#F7BC4B"/>
<path d="M389.015 224.092L392.262 216.29L396.084 224.092L393.028 233.666L389.015 224.092Z" fill="#FEED7F"/>
<path d="M328.141 344.087L333.631 335.592L340.085 344.087L334.922 354.51L328.141 344.087Z" fill="#29ABE2"/>
<path d="M112.442 364.352L115.255 356.32L118.565 364.352L115.918 374.209L112.442 364.352Z" fill="#F7BC4B"/>
<path d="M304.288 84.9592L307.101 76.9273L310.411 84.9592L307.759 94.8161L304.288 84.9592Z" fill="#29ABE2"/>
<path d="M203.999 89.59L206.812 81.5581L210.122 89.59L207.475 99.4468L203.999 89.59Z" fill="#29ABE2"/>
<path d="M237.944 53.3002L240.757 45.2683L244.067 53.3002L241.42 63.157L237.944 53.3002Z" fill="#FFACFF"/>
<path d="M367.18 169.338L371.602 156.714L376.799 169.338L372.64 184.826L367.18 169.338Z" fill="#FFACFF"/>
<path d="M382.97 151.366L385.783 143.334L389.093 151.366L386.446 161.218L382.97 151.366Z" fill="#FFACFF"/>
<path d="M271.547 109.753L276.554 99.1248L282.443 109.753L277.734 122.796L271.547 109.753Z" fill="#F7BC4B"/>
<path d="M247.25 206.447L250.063 198.411L253.373 206.447L250.726 216.299L247.25 206.447Z" fill="#F7BC4B"/>
<path d="M280.615 261.836L283.91 253.16L287.796 261.836L284.69 272.474L280.615 261.836Z" fill="#F7BC4B"/>
<path d="M90.4119 211.337L93.6196 203.934L97.3977 211.337L94.3752 220.149L90.4119 211.337Z" fill="#FFACFF"/>
<path d="M138.479 94.2257L142.443 87.2771L147.113 94.2257L143.379 102.75L138.479 94.2257Z" fill="#29ABE2"/>
<path d="M145.373 294.471C146.331 294.471 147.108 293.693 147.108 292.734C147.108 291.774 146.331 290.997 145.373 290.997C144.414 290.997 143.637 291.774 143.637 292.734C143.637 293.693 144.414 294.471 145.373 294.471Z" fill="#F7BC4B"/>
<path d="M287.313 286.942C288.272 286.942 289.049 286.164 289.049 285.205C289.049 284.245 288.272 283.467 287.313 283.467C286.355 283.467 285.578 284.245 285.578 285.205C285.578 286.164 286.355 286.942 287.313 286.942Z" fill="#FFACFF"/>
<path d="M314.316 346.59C315.7 346.59 316.822 345.467 316.822 344.082C316.822 342.697 315.7 341.574 314.316 341.574C312.932 341.574 311.81 342.697 311.81 344.082C311.81 345.467 312.932 346.59 314.316 346.59Z" fill="#FFACFF"/>
<path d="M389.337 263.393C390.721 263.393 391.843 262.27 391.843 260.885C391.843 259.499 390.721 258.376 389.337 258.376C387.953 258.376 386.831 259.499 386.831 260.885C386.831 262.27 387.953 263.393 389.337 263.393Z" fill="#FFACFF"/>
<path d="M348.353 316.478C349.153 316.478 349.801 315.829 349.801 315.029C349.801 314.228 349.153 313.58 348.353 313.58C347.553 313.58 346.905 314.228 346.905 315.029C346.905 315.829 347.553 316.478 348.353 316.478Z" fill="#29ABE2"/>
<path d="M338.998 309.529C340.382 309.529 341.504 308.407 341.504 307.021C341.504 305.636 340.382 304.513 338.998 304.513C337.614 304.513 336.492 305.636 336.492 307.021C336.492 308.407 337.614 309.529 338.998 309.529Z" fill="#F7BC4B"/>
<path d="M115.669 321.977C116.84 321.977 117.79 321.027 117.79 319.855C117.79 318.683 116.84 317.732 115.669 317.732C114.498 317.732 113.549 318.683 113.549 319.855C113.549 321.027 114.498 321.977 115.669 321.977Z" fill="#EE5D4F"/>
<path d="M105.934 325.457C107.692 325.457 109.117 324.03 109.117 322.27C109.117 320.51 107.692 319.084 105.934 319.084C104.176 319.084 102.75 320.51 102.75 322.27C102.75 324.03 104.176 325.457 105.934 325.457Z" fill="#F7BC4B"/>
<path d="M146.913 357.789C148.617 357.789 149.999 356.406 149.999 354.7C149.999 352.994 148.617 351.611 146.913 351.611C145.209 351.611 143.827 352.994 143.827 354.7C143.827 356.406 145.209 357.789 146.913 357.789Z" fill="#F7BC4B"/>
<path d="M264.942 182.508C266.646 182.508 268.028 181.125 268.028 179.419C268.028 177.713 266.646 176.33 264.942 176.33C263.238 176.33 261.856 177.713 261.856 179.419C261.856 181.125 263.238 182.508 264.942 182.508Z" fill="#29ABE2"/>
<path d="M90.602 273.62C93.157 273.62 95.2283 271.547 95.2283 268.99C95.2283 266.432 93.157 264.359 90.602 264.359C88.0469 264.359 85.9756 266.432 85.9756 268.99C85.9756 271.547 88.0469 273.62 90.602 273.62Z" fill="#FFACFF"/>
<path d="M279.406 279.993C280.257 279.993 280.946 279.303 280.946 278.451C280.946 277.6 280.257 276.909 279.406 276.909C278.555 276.909 277.865 277.6 277.865 278.451C277.865 279.303 278.555 279.993 279.406 279.993Z" fill="#29ABE2"/>
<path d="M125.892 359.331C126.743 359.331 127.433 358.641 127.433 357.789C127.433 356.937 126.743 356.247 125.892 356.247C125.041 356.247 124.352 356.937 124.352 357.789C124.352 358.641 125.041 359.331 125.892 359.331Z" fill="#FFACFF"/>
<path d="M144.987 274.011C146.479 274.011 147.688 272.8 147.688 271.307C147.688 269.814 146.479 268.604 144.987 268.604C143.496 268.604 142.287 269.814 142.287 271.307C142.287 272.8 143.496 274.011 144.987 274.011Z" fill="#FFACFF"/>
<path d="M152.315 276.709C153.165 276.709 153.855 276.019 153.855 275.167C153.855 274.316 153.165 273.625 152.315 273.625C151.464 273.625 150.774 274.316 150.774 275.167C150.774 276.019 151.464 276.709 152.315 276.709Z" fill="#F7BC4B"/>
<path d="M297.858 153.552C298.708 153.552 299.398 152.862 299.398 152.01C299.398 151.159 298.708 150.468 297.858 150.468C297.007 150.468 296.317 151.159 296.317 152.01C296.317 152.862 297.007 153.552 297.858 153.552Z" fill="#FFACFF"/>
<path d="M295.8 145.188C297.362 145.188 298.628 143.921 298.628 142.358C298.628 140.795 297.362 139.528 295.8 139.528C294.239 139.528 292.973 140.795 292.973 142.358C292.973 143.921 294.239 145.188 295.8 145.188Z" fill="#F7BC4B"/>
<path d="M316.626 246.597C317.477 246.597 318.167 245.907 318.167 245.055C318.167 244.203 317.477 243.513 316.626 243.513C315.776 243.513 315.086 244.203 315.086 245.055C315.086 245.907 315.776 246.597 316.626 246.597Z" fill="#FFACFF"/>
<path d="M314.121 335.206C315.187 335.206 316.051 334.341 316.051 333.274C316.051 332.207 315.187 331.341 314.121 331.341C313.054 331.341 312.19 332.207 312.19 333.274C312.19 334.341 313.054 335.206 314.121 335.206Z" fill="#29ABE2"/>
<path d="M100.05 391.766C101.754 391.766 103.136 390.383 103.136 388.677C103.136 386.971 101.754 385.588 100.05 385.588C98.3455 385.588 96.9639 386.971 96.9639 388.677C96.9639 390.383 98.3455 391.766 100.05 391.766Z" fill="#FFACFF"/>
<path d="M377.184 374.199C378.888 374.199 380.27 372.816 380.27 371.11C380.27 369.405 378.888 368.022 377.184 368.022C375.48 368.022 374.098 369.405 374.098 371.11C374.098 372.816 375.48 374.199 377.184 374.199Z" fill="#F7BC4B"/>
<path d="M368.506 362.23C369.677 362.23 370.627 361.279 370.627 360.107C370.627 358.935 369.677 357.984 368.506 357.984C367.335 357.984 366.385 358.935 366.385 360.107C366.385 361.279 367.335 362.23 368.506 362.23Z" fill="#29ABE2"/>
<path d="M70.4486 363.001C79.2366 363.001 86.3606 355.87 86.3606 347.073C86.3606 338.277 79.2366 331.146 70.4486 331.146C61.6607 331.146 54.5366 338.277 54.5366 347.073C54.5366 355.87 61.6607 363.001 70.4486 363.001Z" fill="#FFACFF"/>
<path d="M77.3614 337.958C83.1334 341.198 85.1857 348.508 81.9487 354.281C78.7117 360.058 71.409 362.112 65.6419 358.872C59.8747 355.632 71.5894 334.718 77.3614 337.958Z" fill="#BB83C3"/>
<path d="M76.055 347.19C76.055 343.838 73.1592 341.169 69.7321 341.545C67.0898 341.838 64.9692 344.009 64.7304 346.659C64.5256 348.903 65.7346 350.909 67.4701 351.997C67.6943 352.138 67.8162 352.397 67.8162 352.661C67.8114 352.846 67.8114 353.017 67.8114 353.036V353.895C67.8114 354.568 68.2501 355.12 68.9277 355.12H71.1312C72.1209 355.12 72.9204 354.32 72.9204 353.329V353.041C72.9204 353.022 72.9204 352.831 72.9155 352.641C72.9106 352.387 73.0325 352.143 73.2518 352.007C74.8508 351.001 76.055 349.22 76.055 347.19Z" fill="#EE5D4F"/>
<path d="M69.1131 353.988C69.1131 353.988 69.7663 348.22 68.7036 347.81C67.6408 347.4 67.1923 349.079 68.8693 348.957C70.5463 348.835 72.4671 349.079 72.6718 348.181C72.8766 347.283 71.8967 347.239 71.6091 348.142C71.3215 349.04 71.1606 353.012 71.9357 354.032" stroke="#FEED7F" stroke-miterlimit="10"/>
<path d="M72.8179 355.471C72.8179 356.857 71.6966 357.979 70.3121 357.979C68.9276 357.979 67.8064 356.857 67.8064 355.471C67.8064 354.085 72.8179 354.085 72.8179 355.471Z" fill="#F3E7D9"/>
<path d="M72.8861 355.857H67.8746C67.5821 355.857 67.3433 355.618 67.3433 355.325V354.324C67.3433 354.032 67.5821 353.793 67.8746 353.793H72.8861C73.1786 353.793 73.4175 354.032 73.4175 354.324V355.325C73.4175 355.618 73.1786 355.857 72.8861 355.857Z" fill="#FFFCF3"/>
<path d="M69.8246 339.271L69.7661 335.396" stroke="#F3E7D9" stroke-miterlimit="10" stroke-linecap="round" stroke-linejoin="round"/>
<path d="M73.0908 339.925L74.2901 338.07" stroke="#F3E7D9" stroke-miterlimit="10" stroke-linecap="round" stroke-linejoin="round"/>
<path d="M75.8159 341.672L78.4338 339.817" stroke="#F3E7D9" stroke-miterlimit="10" stroke-linecap="round" stroke-linejoin="round"/>
<path d="M66.3341 340.359L65.1885 338.944" stroke="#F3E7D9" stroke-miterlimit="10" stroke-linecap="round" stroke-linejoin="round"/>
<path d="M63.5554 342.706L60.9375 341.232" stroke="#F3E7D9" stroke-miterlimit="10" stroke-linecap="round" stroke-linejoin="round"/>
<path d="M62.7901 346.254L60.9912 346.034" stroke="#F3E7D9" stroke-miterlimit="10" stroke-linecap="round" stroke-linejoin="round"/>
<path d="M79.6331 344.946L77.8342 345.873" stroke="#F3E7D9" stroke-miterlimit="10" stroke-linecap="round" stroke-linejoin="round"/>
<path d="M67.7186 265.022C76.8673 265.022 84.2838 257.599 84.2838 248.441C84.2838 239.284 76.8673 231.86 67.7186 231.86C58.5698 231.86 51.1533 239.284 51.1533 248.441C51.1533 257.599 58.5698 265.022 67.7186 265.022Z" fill="#FEED7F"/>
<path d="M73.6857 236.179C80.6667 239.478 83.655 247.812 80.3595 254.8C77.064 261.787 68.7375 264.778 61.7565 261.48C54.7755 258.181 66.7047 232.88 73.6857 236.179Z" fill="#F7BC4B"/>
<path d="M67.7138 258.698C72.9693 258.698 77.2298 254.434 77.2298 249.173C77.2298 243.913 72.9693 239.648 67.7138 239.648C62.4582 239.648 58.1978 243.913 58.1978 249.173C58.1978 254.434 62.4582 258.698 67.7138 258.698Z" stroke="#29ABE2" stroke-miterlimit="10"/>
<path d="M67.7137 258.698C69.7007 258.698 71.3115 254.434 71.3115 249.173C71.3115 243.913 69.7007 239.648 67.7137 239.648C65.7267 239.648 64.116 243.913 64.116 249.173C64.116 254.434 65.7267 258.698 67.7137 258.698Z" stroke="#29ABE2" stroke-miterlimit="10"/>
<path d="M74.5289 242.44C74.5289 242.44 72.3449 246.041 67.7137 246.041C63.0873 246.041 60.8984 242.44 60.8984 242.44" stroke="#29ABE2" stroke-miterlimit="10"/>
<path d="M74.5289 255.6C74.5289 255.6 73.2419 251.999 67.7137 251.999C62.1854 251.999 60.8984 255.6 60.8984 255.6" stroke="#29ABE2" stroke-miterlimit="10"/>
<path d="M58.1978 249.203H77.1469" stroke="#29ABE2" stroke-miterlimit="10"/>
<path d="M382.648 346.21C389.466 346.21 394.992 340.678 394.992 333.854C394.992 327.031 389.466 321.499 382.648 321.499C375.831 321.499 370.305 327.031 370.305 333.854C370.305 340.678 375.831 346.21 382.648 346.21Z" fill="#BB83C3"/>
<path d="M375.882 339.93C372.294 336.485 372.172 330.785 375.614 327.194C379.056 323.602 384.75 323.48 388.338 326.925C391.926 330.37 379.47 343.375 375.882 339.93Z" fill="#FFACFF"/>
<path d="M376.189 333.371C376.189 329.585 379.256 326.52 383.034 326.52C386.817 326.52 389.878 329.59 389.878 333.371" stroke="#1689CB" stroke-width="2" stroke-miterlimit="10"/>
<path d="M376.189 337.26C376.384 341.637 377.413 342.213 378.817 342.657" stroke="#1689CB" stroke-miterlimit="10"/>
<path d="M377.491 338.89H378.266V332.527H377.491C375.736 332.527 374.312 333.952 374.312 335.709C374.317 337.47 375.736 338.89 377.491 338.89Z" fill="#1689CB"/>
<path d="M378.383 332.244H377.408V339.066H378.383V332.244Z" fill="#F3E7D9"/>
<path d="M388.83 338.89H388.055V332.527H388.83C390.585 332.527 392.009 333.952 392.009 335.709C392.009 337.47 390.585 338.89 388.83 338.89Z" fill="#1689CB"/>
<path d="M387.943 339.064L388.917 339.064L388.917 332.242L387.943 332.242L387.943 339.064Z" fill="#F3E7D9"/>
<path d="M379.304 343.57C379.837 343.57 380.269 343.137 380.269 342.604C380.269 342.07 379.837 341.637 379.304 341.637C378.771 341.637 378.339 342.07 378.339 342.604C378.339 343.137 378.771 343.57 379.304 343.57Z" fill="#1689CB"/>
<path d="M364.362 286.747C373.947 286.747 381.717 278.969 381.717 269.375C381.717 259.781 373.947 252.004 364.362 252.004C354.777 252.004 347.007 259.781 347.007 269.375C347.007 278.969 354.777 286.747 364.362 286.747Z" fill="#BB83C3"/>
<path d="M370.466 255.795C376.701 260.011 361.457 282.613 355.217 278.402C348.982 274.186 347.339 265.71 351.551 259.469C355.763 253.223 364.231 251.579 370.466 255.795Z" fill="#FFACFF"/>
<path d="M375.321 261.88H352.755V277.514H375.321V261.88Z" fill="#1689CB"/>
<path d="M372.04 276.758H355.841L353.852 274.684V264.134L355.587 262.636H372.684L374.229 264.647V274.816L372.04 276.758Z" fill="#FFFCF3"/>
<path d="M370.885 265.291H357.771V267.223H370.885V265.291Z" fill="#F3E7D9"/>
<path d="M368.828 269.668H360.087V270.502H368.828V269.668Z" fill="#F3E7D9"/>
<path d="M368.828 270.697H360.087V271.532H368.828V270.697Z" fill="#F3E7D9"/>
<path d="M368.828 272.049H360.087V272.883H368.828V272.049Z" fill="#F3E7D9"/>
<path d="M375.331 278.183L373.903 278.1C373.791 278.095 373.698 278.178 373.688 278.29L373.61 279.52C373.601 279.686 373.401 279.769 373.274 279.661L372.26 278.783C372.172 278.705 372.036 278.72 371.967 278.817L371.153 279.92C371.051 280.057 370.841 280.018 370.797 279.852L370.427 278.485C370.393 278.368 370.266 278.305 370.154 278.354L368.847 278.92C368.696 278.983 368.535 278.851 368.57 278.69L368.906 277.226C368.93 277.109 368.852 276.997 368.735 276.982L367.492 276.826C367.326 276.807 367.253 276.602 367.375 276.48L368.384 275.489C368.467 275.406 368.462 275.275 368.379 275.196L367.443 274.352C367.317 274.24 367.38 274.03 367.546 274.001L368.877 273.767C368.989 273.747 369.067 273.635 369.038 273.523L368.735 272.2C368.701 272.044 368.852 271.908 369.003 271.966L370.281 272.439C370.383 272.479 370.5 272.425 370.539 272.322L371.002 271.107C371.061 270.961 371.256 270.932 371.353 271.059L372.123 272.069C372.187 272.152 372.304 272.171 372.392 272.117L373.518 271.395C373.644 271.312 373.815 271.395 373.83 271.547L373.952 272.815C373.961 272.918 374.044 272.996 374.147 272.996L375.473 273.025C375.619 273.03 375.716 273.186 375.648 273.318L375.073 274.474C375.029 274.567 375.058 274.674 375.141 274.733L376.218 275.46C376.345 275.543 376.335 275.733 376.204 275.806L375.063 276.441C374.97 276.494 374.931 276.607 374.975 276.704L375.531 277.919C375.59 278.036 375.482 278.193 375.331 278.183Z" fill="#F7BC4B"/>
<path d="M371.802 278.154C373.277 278.154 374.473 276.956 374.473 275.479C374.473 274.003 373.277 272.805 371.802 272.805C370.326 272.805 369.13 274.003 369.13 275.479C369.13 276.956 370.326 278.154 371.802 278.154Z" fill="#FFFCF3"/>
<path d="M307.466 238.877C317.692 238.877 325.981 230.58 325.981 220.345C325.981 210.109 317.692 201.812 307.466 201.812C297.241 201.812 288.951 210.109 288.951 220.345C288.951 230.58 297.241 238.877 307.466 238.877Z" fill="#FFACFF"/>
<path d="M319.541 212.127C324.377 216.709 323.817 225.161 318.289 231.002C312.76 236.843 304.361 237.867 299.525 233.285C294.694 228.703 314.71 207.545 319.541 212.127Z" fill="#BB83C3"/>
<path d="M316.777 227.074H298.057C296.809 227.074 295.8 226.063 295.8 224.814V213.625C295.8 212.376 296.809 211.366 298.057 211.366H316.777C318.025 211.366 319.035 212.376 319.035 213.625V224.814C319.035 226.063 318.025 227.074 316.777 227.074Z" fill="#1689CB"/>
<path d="M317.572 212.357H297.263V225.688H317.572V212.357Z" fill="#F3E7D9"/>
<path d="M307.359 218.925C308.797 218.925 309.962 217.758 309.962 216.319C309.962 214.88 308.797 213.713 307.359 213.713C305.921 213.713 304.756 214.88 304.756 216.319C304.756 217.758 305.921 218.925 307.359 218.925Z" fill="#C94039"/>
<path d="M310.571 226.995H304.273V228.503H310.571V226.995Z" fill="#48598B"/>
<path d="M316.958 229.279H297.882C297.682 229.279 297.516 229.113 297.516 228.913V228.596C297.516 228.396 297.682 228.23 297.882 228.23H316.958C317.158 228.23 317.323 228.396 317.323 228.596V228.913C317.323 229.113 317.158 229.279 316.958 229.279Z" fill="#1689CB"/>
<path d="M320.122 215.611H312.58C311.551 215.611 310.718 214.777 310.718 213.747V212.366C310.718 211.337 311.551 210.502 312.58 210.502H320.122C321.15 210.502 321.984 211.337 321.984 212.366V213.747C321.984 214.777 321.15 215.611 320.122 215.611Z" fill="#F7BC4B"/>
<path d="M312.741 214.533C312.829 215.767 312.039 217.178 312.039 217.178C312.039 217.178 315.251 216.451 315.607 214.513C315.602 214.509 312.653 213.298 312.741 214.533Z" fill="#F7BC4B"/>
<path d="M313.618 213.572C313.958 213.572 314.233 213.296 314.233 212.957C314.233 212.617 313.958 212.342 313.618 212.342C313.279 212.342 313.004 212.617 313.004 212.957C313.004 213.296 313.279 213.572 313.618 213.572Z" fill="#F3E7D9"/>
<path d="M316.392 213.572C316.732 213.572 317.007 213.296 317.007 212.957C317.007 212.617 316.732 212.342 316.392 212.342C316.053 212.342 315.778 212.617 315.778 212.957C315.778 213.296 316.053 213.572 316.392 213.572Z" fill="#F3E7D9"/>
<path d="M319.035 213.572C319.374 213.572 319.649 213.296 319.649 212.957C319.649 212.617 319.374 212.342 319.035 212.342C318.695 212.342 318.42 212.617 318.42 212.957C318.42 213.296 318.695 213.572 319.035 213.572Z" fill="#F3E7D9"/>
<path d="M307.442 218.993C305.033 218.993 303.079 220.95 303.079 223.36V225.683H311.805V223.36C311.805 220.95 309.855 218.993 307.442 218.993Z" fill="#C94039"/>
<path d="M366.483 140.07C378.305 140.07 387.889 130.477 387.889 118.643C387.889 106.81 378.305 97.2169 366.483 97.2169C354.661 97.2169 345.077 106.81 345.077 118.643C345.077 130.477 354.661 140.07 366.483 140.07Z" fill="#F7BC4B"/>
<path d="M352.818 131.179C346.764 124.265 347.461 113.744 354.369 107.684C361.277 101.623 383.199 126.67 376.292 132.731C369.379 138.791 358.868 138.098 352.818 131.179Z" fill="#FEED7F"/>
<path d="M366.834 137.659C366.229 137.659 365.742 137.171 365.742 136.566V133.702C365.742 133.097 366.229 132.609 366.834 132.609C367.438 132.609 367.926 133.097 367.926 133.702V136.566C367.931 137.171 367.438 137.659 366.834 137.659Z" fill="#3E4C6F"/>
<path d="M366.386 133.575C363.085 133.575 360.409 130.896 360.409 127.593V116.877C360.409 113.573 363.085 110.894 366.386 110.894C369.686 110.894 372.362 113.573 372.362 116.877V127.593C372.362 130.896 369.686 133.575 366.386 133.575Z" fill="#1689CB"/>
<path d="M367.092 117.048H360.409C360.409 117.048 360.418 116.501 360.433 116.35C360.448 116.203 360.487 115.911 360.487 115.911H367.092V117.048Z" fill="#3E4C6F"/>
<path d="M367.087 118.058H360.404V119.195H367.087V118.058Z" fill="#3E4C6F"/>
<path d="M367.087 120.454H360.404V121.591H367.087V120.454Z" fill="#3E4C6F"/>
<path d="M367.087 122.976H360.404V124.113H367.087V122.976Z" fill="#3E4C6F"/>
<path d="M367.092 125.631H360.409V126.768H367.092V125.631Z" fill="#3E4C6F"/>
<path d="M367.122 129.037H360.584C360.584 129.037 360.433 128.564 360.414 127.9H367.122V129.037Z" fill="#3E4C6F"/>
<path d="M363.816 99.5347L364.07 105.581L365.874 106.161L364.455 110.924L368.828 105.454L366.386 104.297L367.029 99.2761L363.816 99.5347Z" fill="#EE5D4F"/>
<path d="M352.321 105.649L354.496 103.585L355.792 108.835L357.659 107.762L359.956 113.973L357.284 110.216L355.914 111.177L352.321 105.649Z" fill="#EE5D4F"/>
<path d="M374.873 102.882L377.184 104.297L374.707 108.011L376.613 109.011L372.621 114.296L374.342 110.016L372.796 109.377L374.873 102.882Z" fill="#EE5D4F"/>
<path d="M235.341 195.639C246.579 195.639 255.689 186.52 255.689 175.271C255.689 164.023 246.579 154.904 235.341 154.904C224.103 154.904 214.992 164.023 214.992 175.271C214.992 186.52 224.103 195.639 235.341 195.639Z" fill="#F7BC4B"/>
<path d="M252.959 176.628C250.102 181.82 222.466 166.586 225.323 161.394C228.179 156.202 236.681 155.402 244.311 159.613C251.945 163.819 255.816 171.436 252.959 176.628Z" fill="#FEED7F"/>
<path d="M223.67 171.309V182.908" stroke="#C94039" stroke-miterlimit="10"/>
<path d="M223.767 183.669C224.336 183.669 224.796 183.208 224.796 182.64C224.796 182.071 224.336 181.61 223.767 181.61C223.199 181.61 222.739 182.071 222.739 182.64C222.739 183.208 223.199 183.669 223.767 183.669Z" fill="#C94039"/>
<path d="M235.448 175.174L219 172.022L235.448 163.975L252.642 171.534L235.448 175.174Z" fill="#29ABE2"/>
<path d="M235.784 168.782C230.339 168.782 225.771 173.407 225.771 173.407V179.473C225.771 180.385 229.325 175.813 236.009 175.813C242.692 175.813 246.144 180.385 246.144 179.473V173.407C246.149 173.407 241.23 168.782 235.784 168.782Z" fill="#1689CB"/>
<path d="M223.022 185.016C223.022 185.016 222.451 184.245 223.158 183.084" stroke="#C94039" stroke-miterlimit="10" stroke-linecap="round" stroke-linejoin="round"/>
<path d="M223.407 185.04C223.407 185.04 223.543 183.342 223.543 182.893" stroke="#C94039" stroke-miterlimit="10" stroke-linecap="round" stroke-linejoin="round"/>
<path d="M224.265 183.04C224.265 183.04 224.167 184.445 224.055 184.948" stroke="#C94039" stroke-miterlimit="10" stroke-linecap="round" stroke-linejoin="round"/>
<path d="M224.469 182.845C224.469 182.845 224.757 183.952 224.708 184.918" stroke="#C94039" stroke-miterlimit="10" stroke-linecap="round" stroke-linejoin="round"/>
<path d="M165.555 268.585C176.045 268.585 184.548 260.073 184.548 249.574C184.548 239.074 176.045 230.562 165.555 230.562C155.065 230.562 146.562 239.074 146.562 249.574C146.562 260.073 155.065 268.585 165.555 268.585Z" fill="#FFACFF"/>
<path d="M173.784 235.481C181.974 239.673 185.216 249.72 181.028 257.918C176.841 266.115 166.803 269.36 158.613 265.169C150.428 260.972 165.594 231.29 173.784 235.481Z" fill="#BB83C3"/>
<path d="M162.562 239.175H166.481C167.324 239.175 168.109 239.614 168.548 240.341L169.835 242.469L161.669 242.967L162.562 239.175Z" fill="#48598B"/>
<path d="M176.163 258.567H155.844C154.937 258.567 154.201 257.83 154.201 256.922V244.538C154.201 243.659 154.055 242.825 154.684 242.22L156.887 239.575C157.35 239.131 157.969 238.882 158.613 238.882H163.566C164.302 238.882 164.98 239.263 165.37 239.883L166.237 241.273H176.158C177.065 241.273 177.801 242.01 177.801 242.918V256.927C177.806 257.83 177.07 258.567 176.163 258.567Z" fill="#1689CB"/>
<path d="M165.058 245.133L170.011 249.31C170.279 249.578 170.279 250.013 170.011 250.281L165.058 254.458C164.624 254.892 163.888 254.585 163.888 253.975V245.626C163.888 245.006 164.624 244.699 165.058 245.133Z" fill="#F7BC4B"/>
<path d="M158.086 240.322L157.092 241.62" stroke="#29ABE2" stroke-miterlimit="10"/>
<path d="M160.178 240.322L159.183 241.62" stroke="#29ABE2" stroke-miterlimit="10"/>
<path d="M162.069 240.322L161.075 241.62" stroke="#29ABE2" stroke-miterlimit="10"/>
<path d="M212.004 75.9466C221.589 75.9466 229.359 68.1691 229.359 58.5751C229.359 48.9811 221.589 41.2036 212.004 41.2036C202.419 41.2036 194.649 48.9811 194.649 58.5751C194.649 68.1691 202.419 75.9466 212.004 75.9466Z" fill="#F7BC4B"/>
<path d="M225.844 66.0702C221.832 72.8431 213.091 75.078 206.325 71.062C199.558 67.0461 214.09 42.5162 220.857 46.5321C227.623 50.5481 229.856 59.2973 225.844 66.0702Z" fill="#FEED7F"/>
<path d="M212.452 71.062C215.382 71.062 217.756 65.2704 217.756 58.1261C217.756 50.9818 215.382 45.1902 212.452 45.1902C209.523 45.1902 207.148 50.9818 207.148 58.1261C207.148 65.2704 209.523 71.062 212.452 71.062Z" stroke="#29ABE2" stroke-miterlimit="10"/>
<path d="M212.452 63.4352C219.59 63.4352 225.376 61.0582 225.376 58.1261C225.376 55.194 219.59 52.8171 212.452 52.8171C205.315 52.8171 199.529 55.194 199.529 58.1261C199.529 61.0582 205.315 63.4352 212.452 63.4352Z" stroke="#29ABE2" stroke-miterlimit="10"/>
<path d="M216.201 61.8821C221.248 56.8304 223.66 51.0544 221.589 48.9811C219.517 46.9078 213.747 49.3223 208.7 54.3741C203.653 59.4258 201.241 65.2018 203.312 67.275C205.384 69.3483 211.154 66.9338 216.201 61.8821Z" stroke="#9E54C7" stroke-miterlimit="10"/>
<path d="M221.589 67.275C223.66 65.2018 221.248 59.4258 216.201 54.374C211.154 49.3223 205.384 46.9078 203.312 48.9811C201.241 51.0544 203.653 56.8303 208.7 61.8821C213.747 66.9338 219.517 69.3483 221.589 67.275Z" stroke="#9E54C7" stroke-miterlimit="10"/>
<path d="M212.452 59.2826C213.144 59.2826 213.705 58.7211 213.705 58.0285C213.705 57.3359 213.144 56.7745 212.452 56.7745C211.76 56.7745 211.199 57.3359 211.199 58.0285C211.199 58.7211 211.76 59.2826 212.452 59.2826Z" fill="#9E54C7"/>
<path d="M125.219 166.039C140.558 166.039 152.992 153.593 152.992 138.24C152.992 122.887 140.558 110.441 125.219 110.441C109.881 110.441 97.4463 122.887 97.4463 138.24C97.4463 153.593 109.881 166.039 125.219 166.039Z" fill="#FFACFF"/>
<path d="M135.218 117.028C146.923 122.557 151.929 136.537 146.411 148.248C140.887 159.964 126.92 164.975 115.22 159.452C103.516 153.923 123.513 111.5 135.218 117.028Z" fill="#BB83C3"/>
<path d="M140.79 124.787L140.902 149.258L139.279 149.614L125.38 151.654H123.581C123.581 151.654 110.37 149.644 107.377 149.741L106.031 149.624L105.485 128.134C105.485 128.134 117.453 125.855 122.314 130.496C122.309 130.496 134.906 123.825 140.79 124.787Z" fill="#C94039"/>
<path d="M140.405 125.07L140.512 149L138.923 149.351L125.326 151.347H123.566C123.566 151.347 110.643 149.38 107.718 149.478L106.401 149.365L105.865 128.344C105.865 128.344 117.57 126.114 122.323 130.652C122.328 130.657 134.647 124.133 140.405 125.07Z" fill="#EE5D4F"/>
<path d="M124.166 150.683L123.079 129.866C123.079 129.866 132.283 122.215 138.557 123.191C138.557 123.191 139.849 141.353 139.99 146.965C140 147.414 139.064 148.375 139.064 148.375L124.166 150.683Z" fill="#F3E7D9"/>
<path d="M122.933 129.949C122.933 129.949 116.795 123.825 106.294 127.607L106.572 147.433L107.474 148.838C110.965 148.892 120.627 149.439 124.405 151.107L122.933 129.949Z" fill="#F3E7D9"/>
<path d="M123.172 129.769C123.172 129.769 115.762 121.761 111.418 121.508L111.954 145.881C111.954 145.881 122.582 147.838 124.166 150.673L123.172 129.769Z" fill="#FFFCF3"/>
<path d="M139.064 148.37C139.064 148.37 138.338 123.655 138.523 123.186L139.795 123.567L140.117 148.668L139.064 148.37Z" fill="#FFFCF3"/>
<path d="M140.117 148.673L139.132 148.253L124.166 150.683L124.405 151.107L140.117 148.673Z" fill="#FFFCF3"/>
<path d="M107.479 148.838L106.577 147.433C106.577 147.433 121.071 147.599 124.166 150.683L124.42 151.107C124.42 151.107 115.459 148.951 107.479 148.838Z" fill="#FFFCF3"/>
<path d="M134.428 144.515L133.526 145.329L134.93 146.887L135.832 146.073L134.428 144.515Z" fill="#48598B"/>
<path d="M130.972 146.73C133.812 146.73 136.115 144.426 136.115 141.582C136.115 138.739 133.812 136.434 130.972 136.434C128.131 136.434 125.829 138.739 125.829 141.582C125.829 144.426 128.131 146.73 130.972 146.73Z" fill="#1689CB"/>
<path d="M130.972 145.96C133.387 145.96 135.345 144 135.345 141.582C135.345 139.165 133.387 137.205 130.972 137.205C128.557 137.205 126.599 139.165 126.599 141.582C126.599 144 128.557 145.96 130.972 145.96Z" fill="#F3E7D9"/>
<path d="M135.345 141.582C135.345 143.998 133.39 145.96 130.972 145.96C130.972 145.96 136.695 143.066 130.972 137.21C133.385 137.21 135.345 139.167 135.345 141.582Z" fill="#FFFCF3"/>
<path d="M141.453 153.225C140.941 153.689 140.151 153.645 139.688 153.133L134.764 147.667C134.301 147.155 134.345 146.364 134.857 145.901C135.369 145.437 136.159 145.481 136.622 145.994L141.546 151.459C142.009 151.971 141.965 152.762 141.453 153.225Z" fill="#F7BC4B"/>
<path d="M347.485 450.707C347.485 450.707 272.659 342.989 271.113 340.418C269.573 337.846 272.015 333.084 275.55 338.554C279.084 344.024 352.112 449.551 352.112 449.551L347.485 450.707Z" fill="#B44C29"/>
<path d="M374.098 485.196C378.802 486.319 384.155 484.835 387.816 483.391C379.192 473.002 362.739 453.244 361.369 452.376C359.395 451.122 341.055 434.102 337.969 436.161C334.883 438.22 346.71 468.591 351.6 476.057C354.686 480.77 359.414 486.719 362.486 490.471C370.042 487.846 366.912 483.483 374.098 485.196Z" fill="#B44C29"/>
<path d="M374.098 485.196C379.772 486.548 386.383 484.113 389.844 482.532C381.566 472.558 363.826 451.224 362.398 450.321C360.423 449.067 342.084 432.047 338.998 434.107C335.912 436.166 347.739 466.536 352.628 474.002C356.07 479.258 361.554 486.055 364.504 489.617C369.506 487.016 367.653 483.659 374.098 485.196Z" fill="#F5894E"/>
<path d="M314.013 404.687L314.408 406.366C314.486 406.693 314.901 406.805 315.125 406.551C316.222 405.341 318.971 403.179 322.511 406.722L323.603 406.946L323.568 405.561C323.568 405.561 319.717 398.836 314.433 403.36C314.057 403.692 313.896 404.204 314.013 404.687Z" fill="#A96443"/>
</svg>
