<svg width="253" height="337" viewBox="0 0 253 337" fill="none" xmlns="http://www.w3.org/2000/svg">
<rect y="0.5" width="253" height="292" rx="8" fill="#F9BC6E"/>
<path fill-rule="evenodd" clip-rule="evenodd" d="M70.7499 327.375C70.7499 332.551 66.5507 336.75 61.3749 336.75H36.375C31.1992 336.75 27 332.551 27 327.375V280.5C27 263.235 40.9843 249.25 58.2499 249.25H59.8124C62.41 249.25 64.4999 251.34 64.4999 253.938V263.313C64.4999 265.91 62.41 268 59.8124 268H58.2499C51.3554 268 45.75 273.606 45.75 280.5V293H61.3749C66.5507 293 70.7499 297.199 70.7499 302.375V327.375ZM127 327.375C127 332.551 122.801 336.75 117.625 336.75H92.6248C87.4491 336.75 83.2499 332.551 83.2499 327.375V280.5C83.2499 263.235 97.2341 249.25 114.5 249.25H116.062C118.66 249.25 120.75 251.34 120.75 253.938V263.313C120.75 265.91 118.66 268 116.062 268H114.5C107.605 268 102 273.606 102 280.5V293H117.625C122.801 293 127 297.199 127 302.375V327.375Z" fill="black"/>
</svg>
